<svg xmlns="http://www.w3.org/2000/svg" fill="none" viewBox="0 0 1440 1024">
  <g  clip-path="url(#clip0)">
    <path  id="rectmain" fill="url(#paint0_linear)" d="M0 0h1440v1024H0z"/>
    <path fill="#9B5E15" d="M141 442h11v59h-11z"/>
    <path d="M146.5 204l74.911 243.75H71.589L146.5 204z" fill="#46773D"/>
    <path fill="#9B5E15" d="M456 442h11v59h-11z"/>
    <path d="M461.5 204l74.911 243.75H386.589L461.5 204z" fill="#53A247"/>
    <path fill="#9B5E15" d="M652 450h11v59h-11z"/>
    <path d="M657.5 212l74.911 243.75H582.589L657.5 212z" fill="#46773D"/>
    <path fill="#9B5E15" d="M996 442h11v59h-11z"/>
    <path d="M1001.5 204l74.91 243.75H926.589L1001.5 204z" fill="#53A247"/>
    <path fill="#9B5E15" d="M314.376 465.557h7.249v43.025h-7.249z"/>
    <path d="M318 292l49.363 177.75h-98.726L318 292z" fill="#46773D"/>
    <path fill="#9B5E15" d="M1288.98 439.828h13.035v65.898h-13.035z"/>
    <path d="M1295.5 174l88.77 272.25h-177.54L1295.5 174z" fill="#46773D"/>
    <path   fill="#9B5E15" d="M1182 450h11v59h-11z"/>
    <path d="M1187.5 212l74.91 243.75h-149.82L1187.5 212z" fill="#53A247"/>
    <path fill="#9B5E15" d="M562.335 465.557h8.329v43.025h-8.329z"/>
    <path d="M566.5 292l56.725 177.75h-113.45L566.5 292z" fill="#53A247"/>
    <path   fill="url(#paint1_linear)" d="M0 501h1440v523H0z"/>
    <path   fill="url(#paint2_linear)" d="M0 595h1440v430H0z"/>
    <path stroke="#fff" d="M-.001 697.508H1440"/>
    <path stroke="#fff" stroke-width="3" d="M-.001 809.508H1440"/>
    <path stroke="#fff" stroke-width="5" d="M-.001 921.508H1440"/>
    <circle   cx="347" cy="53" r="70" fill="#F8FC52"/>
    <path d="M1395.27 595h2.93l7.8 430h-16l5.27-430z" fill="#fff"/>
    <path fill-rule="evenodd" clip-rule="evenodd" d="M874.035 1.245c10.094 10.105 55.706 21.641 39.174 29.467-16 7.573-67.029-.763-100.749-.32-24.266.32-45.623 2.224-69.871 2.563-32.483.454-66.194 5.244-97.067-.23-30.139-5.345-45.756-16.588-49.584-25.775-3.557-8.536 22.512-13.852 29.864-21.554 5.365-5.62 1.187-11.98 7.404-17.486 7.745-6.86 13.177-14.503 33.291-18.557 21.822-4.399 52.318-8.083 81.724-4.626 30.231 3.553 41.169 14.536 63.602 21.707 17.015 5.44 41.316 9.124 52.605 15.44 11.275 6.31 3.047 12.802 9.607 19.37zM499.152 19.754c28.451-3.618 61.394-4.333 85.407 2.134 24.04 6.474 27.745 19.911 37.937 31.083 10.567 11.582 30.456 22.845 22.506 35.17-8.025 12.444-34.02 23.168-63.167 27.874-26.475 4.274-52.661-3.604-80.31-4.71-21.562-.862-42.695 1.159-63.532-1.04-29.868-3.152-69.959-2.865-82.657-14.385-12.503-11.343 10.278-25.043 27.059-36.056 13.561-8.9 38.07-12.828 57.687-19.56 20.28-6.96 34.168-17.342 59.07-20.51zM187.487-52.568c30.396 1.796 70.124-10.776 94.991-4.332 24.896 6.452 44.217 5.894 54.912 18.824 9.966 12.048 15.882 35.041 7.636 47.375-8.325 12.45-35.261 23.2-65.456 27.933-27.428 4.299-57.851 7.26-86.49 6.18-22.334-.842-42.134-16.92-62.501-11.797-27.05 6.804-72.463-2.8-85.605-14.308-12.94-11.332-31.753-79.123-14.36-90.152 14.054-8.912 81.868 41.206 102.194 34.456 21.013-6.979 29.708-18.01 54.679-14.178z" fill="#fff"/>
    <g id="pink" display="none">
      <path fill-rule="evenodd" clip-rule="evenodd" d="M111.116 603.302c10.725 11.291 10.475 29.854-.559 41.461a300.956 300.956 0 00-20.01 23.342 276.732 276.732 0 00-19.39-22.767c-10.725-11.29-10.474-29.853.56-41.461 11.034-11.608 28.673-11.865 39.399-.575z" fill="#EA80FC"/>
      <path fill-rule="evenodd" clip-rule="evenodd" d="M106.025 650.042v10.849c0 5.992-6.665 10.85-14.886 10.85s-14.886-4.858-14.886-10.85v-10.849h29.772z" fill="#D500F9"/>
      <path fill-rule="evenodd" clip-rule="evenodd" d="M83.934 619.829c0-2.215 1.707-4.011 3.813-4.011 1.011 0 1.981.422 2.696 1.175a4.118 4.118 0 011.117 2.836c0 2.215-1.707 4.011-3.813 4.011s-3.813-1.796-3.813-4.011z" fill="#000"/>
      <path fill-rule="evenodd" clip-rule="evenodd" d="M88.117 618.468c0-.618.477-1.119 1.064-1.119.283 0 .553.118.753.328.2.21.311.495.311.791 0 .619-.476 1.12-1.064 1.12-.587 0-1.064-.501-1.064-1.12z" fill="#fff"/>
      <path fill-rule="evenodd" clip-rule="evenodd" d="M106.027 619.829c0-2.215 1.707-4.011 3.813-4.011 1.011 0 1.981.422 2.696 1.175a4.118 4.118 0 011.117 2.836c0 2.215-1.707 4.011-3.813 4.011s-3.813-1.796-3.813-4.011z" fill="#000"/>
      <path fill-rule="evenodd" clip-rule="evenodd" d="M110.21 618.468c0-.618.477-1.119 1.064-1.119.283 0 .553.118.753.328.199.21.311.495.311.791 0 .619-.476 1.12-1.064 1.12-.587 0-1.064-.501-1.064-1.12z" fill="#fff"/>
      <path d="M106.253 625.203a8.785 8.785 0 01-6.706 2.733c-2.548-.085-5.025-1.232-6.884-3.188" stroke="#000" stroke-width="2" stroke-miterlimit="10" stroke-linejoin="round"/>
      <path d="M83.657 666.061l-4.033 10.182-12.5-4.243-1.614 5.939m31.455-11.878l7.662 5.939-4.84 12.303L106.24 686" stroke="#D500F9" stroke-width="4" stroke-linecap="round" stroke-linejoin="round"/>
      <path fill-rule="evenodd" clip-rule="evenodd" d="M122.062 650.964c-1.024-.612-.852-3.015.384-5.367 1.235-2.352 3.066-3.763 4.09-3.15 1.024.612.852 3.015-.384 5.367-1.235 2.352-3.066 3.763-4.09 3.15z" fill="#EA80FC"/>
      <path fill-rule="evenodd" clip-rule="evenodd" d="M120.47 648.053c-.389-.497.133-1.602 1.165-2.469 1.032-.866 2.184-1.165 2.573-.668.388.497-.133 1.602-1.165 2.469-1.032.866-2.184 1.166-2.573.668z" fill="#EA80FC"/>
      <path d="M125.426 645.273c-1.613 2.546 3.63-5.939-1.613-11.878-1.209-1.371-5.094-3.357-7.271-3.341" stroke="#EA80FC" stroke-width="4" stroke-miterlimit="10" stroke-linejoin="round"/>
      <path fill-rule="evenodd" clip-rule="evenodd" d="M51.93 645.273c1.174.09 2.001 2.338 1.846 5.02-.155 2.683-1.232 4.784-2.407 4.694-1.174-.09-2.001-2.338-1.846-5.02.155-2.683 1.232-4.784 2.407-4.694z" fill="#EA80FC"/>
      <path fill-rule="evenodd" clip-rule="evenodd" d="M52.216 647.567c.44-.448 1.53.008 2.434 1.02.906 1.012 1.283 2.195.843 2.643-.44.449-1.529-.008-2.434-1.02-.905-1.012-1.282-2.195-.843-2.643z" fill="#EA80FC"/>
      <path d="M52.033 647.395c-1.127-4.691 4.032-11.879 8.185-15.208 0 0 3.437-2.512 5.008-4.097" stroke="#EA80FC" stroke-width="4" stroke-miterlimit="10" stroke-linejoin="round"/>
    </g>
    <g id="yellow" display="none">
      <path fill-rule="evenodd" clip-rule="evenodd" d="M125.192 748.949c-1.269-.745-1.057-3.669.475-6.531 1.532-2.861 3.803-4.577 5.072-3.832 1.269.745 1.056 3.669-.476 6.53-1.531 2.862-3.802 4.578-5.071 3.833z" fill="#FFC400"/>
      <path fill-rule="evenodd" clip-rule="evenodd" d="M125.39 745.062c-.758.009-1.369-1.353-1.364-3.043.005-1.69.624-3.068 1.383-3.077.759-.009 1.37 1.353 1.365 3.043-.006 1.69-.625 3.068-1.384 3.077z" fill="#FFC400"/>
      <path d="M126.124 747.251c-2.788 5.137-4.454 13.645-9.976 14.818-2.788.592-5.131-.806-7.83-.787" stroke="#FFC400" stroke-width="4" stroke-miterlimit="10" stroke-linejoin="round"/>
      <path fill-rule="evenodd" clip-rule="evenodd" d="M52.172 777.851c1.435.278 2.155 3.114 1.608 6.334-.547 3.22-2.153 5.605-3.588 5.327-1.435-.278-2.155-3.114-1.608-6.335.547-3.22 2.153-5.605 3.588-5.326z" fill="#FFC400"/>
      <path fill-rule="evenodd" clip-rule="evenodd" d="M53.209 781.592c.714-.263 1.721.82 2.25 2.42.527 1.599.375 3.11-.34 3.373-.714.264-1.721-.819-2.249-2.419-.527-1.6-.376-3.11.339-3.374z" fill="#FFC400"/>
      <path d="M52.052 779.936c1.017-5.793-.088-14.397 4.762-17.36 2.448-1.496 5.103-.962 7.648-1.886" stroke="#FFC400" stroke-width="4" stroke-miterlimit="10" stroke-linejoin="round"/>
      <path fill-rule="evenodd" clip-rule="evenodd" d="M87.705 772.287c-10.21 64.596-50.029 0 0-83.052 50.029 83.052 10.21 147.648 0 83.052z" fill="#FFC400"/>
      <path fill-rule="evenodd" clip-rule="evenodd" d="M65.62 784.362c0-10.953 9.92-19.832 22.158-19.832 12.237 0 22.158 8.879 22.158 19.832 0 10.953-9.921 19.833-22.158 19.833-12.237 0-22.157-8.88-22.157-19.833z" fill="#FFC400"/>
      <path fill-rule="evenodd" clip-rule="evenodd" d="M109.253 792.626v13.2c0 7.29-9.638 13.2-21.527 13.2-11.89 0-21.528-5.91-21.528-13.2v-13.2h43.055z" fill="#FF9800"/>
      <path d="M84.074 752.519c1.115 2.397 3.097 4.242 5.51 5.129a9.278 9.278 0 007.356-.399" stroke="#000" stroke-width="2" stroke-miterlimit="10" stroke-linejoin="round"/>
      <path fill-rule="evenodd" clip-rule="evenodd" d="M75.89 743.827c0-2.695 2.116-4.88 4.726-4.88 1.254 0 2.457.514 3.343 1.429a4.96 4.96 0 011.385 3.451c0 2.695-2.117 4.879-4.728 4.879-2.61 0-4.727-2.184-4.727-4.879z" fill="#000"/>
      <path fill-rule="evenodd" clip-rule="evenodd" d="M81.076 742.171c0-.752.59-1.361 1.32-1.361.35 0 .685.143.932.398.247.256.386.602.386.963 0 .752-.59 1.362-1.319 1.362-.728 0-1.32-.61-1.32-1.362z" fill="#fff"/>
      <path fill-rule="evenodd" clip-rule="evenodd" d="M96.744 743.827c0-2.695 2.116-4.88 4.727-4.88 1.254 0 2.456.514 3.343 1.429a4.962 4.962 0 011.384 3.451c0 2.695-2.116 4.879-4.727 4.879-2.61 0-4.727-2.184-4.727-4.879z" fill="#000"/>
      <path fill-rule="evenodd" clip-rule="evenodd" d="M101.93 742.171c0-.752.591-1.361 1.32-1.361.35 0 .685.143.933.398.247.256.386.602.386.963 0 .752-.591 1.362-1.319 1.362-.729 0-1.32-.61-1.32-1.362z" fill="#fff"/>
      <path d="M75.301 813.244l-5 12.387-15.5-5.162-2 7.226m46-14.451l9.5 7.225-6 14.968 8 2.065" stroke="#FF9800" stroke-width="4" stroke-linecap="round" stroke-linejoin="round"/>
    </g>
    <g id="blue" display="none">
      <path fill-rule="evenodd" clip-rule="evenodd" d="M91.24 940.591l-24.466-15.766v-63.06c0-8.707 10.954-15.765 24.465-15.765 13.512 0 24.466 7.058 24.466 15.765v63.06l-24.466 15.766z" fill="#2196F3"/>
      <path fill-rule="evenodd" clip-rule="evenodd" d="M117.533 922.625v15.779c0 8.715-11.782 15.78-26.316 15.78-14.533 0-26.314-7.065-26.314-15.78v-15.779h52.63z" fill="#304FFE"/>
      <path fill-rule="evenodd" clip-rule="evenodd" d="M129.939 892.561c-1.269-.722-1.056-3.554.476-6.326s3.803-4.434 5.072-3.712c1.269.721 1.056 3.554-.476 6.326s-3.802 4.434-5.072 3.712z" fill="#2196F3"/>
      <path fill-rule="evenodd" clip-rule="evenodd" d="M130.138 888.796c-.759.009-1.369-1.311-1.364-2.948.005-1.637.624-2.971 1.383-2.98.759-.009 1.37 1.311 1.364 2.948-.005 1.637-.624 2.972-1.383 2.98z" fill="#2196F3"/>
      <path d="M130.871 890.917c-2.787 4.976-4.453 13.218-9.975 14.354-2.788.574-5.131-.78-7.83-.762" stroke="#2196F3" stroke-width="4" stroke-miterlimit="10" stroke-linejoin="round"/>
      <path fill-rule="evenodd" clip-rule="evenodd" d="M58.015 917.432c1.456.108 2.478 2.758 2.282 5.92-.195 3.162-1.534 5.637-2.99 5.529-1.457-.108-2.479-2.758-2.283-5.92.196-3.162 1.535-5.637 2.991-5.529z" fill="#2196F3"/>
      <path fill-rule="evenodd" clip-rule="evenodd" d="M59.45 920.919c.681-.333 1.8.598 2.496 2.079.698 1.482.71 2.953.028 3.287-.681.333-1.8-.598-2.496-2.079-.698-1.482-.71-2.953-.028-3.287z" fill="#2196F3"/>
      <path d="M58.076 919.311c.385-5.689-1.643-13.846 2.858-17.238 2.273-1.713 4.97-1.495 7.4-2.668" stroke="#2196F3" stroke-width="4" stroke-miterlimit="10" stroke-linejoin="round"/>
      <path fill-rule="evenodd" clip-rule="evenodd" d="M76.224 885.335a4.727 4.727 0 119.454 0 4.727 4.727 0 01-9.454 0z" fill="#000"/>
      <path fill-rule="evenodd" clip-rule="evenodd" d="M81.41 883.732a1.319 1.319 0 112.638 0 1.319 1.319 0 01-2.637 0z" fill="#fff"/>
      <path fill-rule="evenodd" clip-rule="evenodd" d="M103.617 885.335a4.727 4.727 0 119.453 0 4.727 4.727 0 01-9.453 0z" fill="#000"/>
      <path fill-rule="evenodd" clip-rule="evenodd" d="M108.803 883.732a1.32 1.32 0 112.638 0 1.32 1.32 0 01-2.638 0z" fill="#fff"/>
      <path d="M87.542 894.594c2.163-2.164 5.154-3.323 8.314-3.222 3.16.1 6.231 1.452 8.536 3.757" stroke="#000" stroke-width="2" stroke-miterlimit="10" stroke-linejoin="round"/>
      <path d="M80.082 948.275l-5 12-15.5-5-2 7m46-14l9.5 7-6 14.5 8 2" stroke="#304FFE" stroke-width="4" stroke-linecap="round" stroke-linejoin="round"/>
    </g>
  </g>
  <defs id="defs348">
    <linearGradient id="paint0_linear" x1="720" y1="0" x2="720" y2="512" gradientUnits="userSpaceOnUse">
      <stop stop-color="#00C2FF" id="stop330"/>
      <stop offset="1" stop-color="#DEF7FF" id="stop332"/>
    </linearGradient>
    <linearGradient id="paint1_linear" x1="720" y1="501" x2="720" y2="587" gradientUnits="userSpaceOnUse">
      <stop stop-color="#488E36" id="stop335"/>
      <stop offset="1" stop-color="#174F09" id="stop337"/>
    </linearGradient>
    <linearGradient id="paint2_linear" x1="720" y1="595" x2="720" y2="1025" gradientUnits="userSpaceOnUse">
      <stop stop-color="#AF501B" id="stop340"/>
      <stop offset="1" stop-color="#55270E" id="stop342"/>
    </linearGradient>
    <clipPath id="clip0">
      <path fill="#fff" d="M0 0h1440v1024H0z" id="path345"/>
    </clipPath>
  </defs>
</svg>
