<svg width="1440" height="1024" viewBox="0 0 1440 1024" fill="none" xmlns="http://www.w3.org/2000/svg">
<g clip-path="url(#clip0)">
<rect id="rectmain" width="1440" height="1024" fill="url(#paint0_linear)"/>
<rect y="470" width="1440" height="20" fill="#00BFB4"/>
<rect y="490" width="1440" height="539" fill="url(#paint1_linear)"/>
<line y1="-10" x2="302.759" y2="-10" transform="matrix(-0.303177 0.952934 -0.973874 -0.227091 379.79 641)" stroke="#00362D" stroke-width="20" stroke-dasharray="5 10"/>
<line y1="-10" x2="301.693" y2="-10" transform="matrix(0.25703 0.966403 -0.981525 0.191334 1073.46 642.123)" stroke="#00362D" stroke-width="20" stroke-dasharray="5 10"/>
<path d="M310.292 934L401.355 641H1072.21L1150.82 934H310.292Z" fill="#006C59"/>
<rect x="767" y="379" width="10" height="119" fill="#006C59"/>
<rect x="402" y="379" width="10" height="119" fill="#006C59"/>
<rect x="388" y="366" width="400" height="29" fill="#00A89E"/>
<path d="M501 341H531L528.5 366H503.917L501 341Z" fill="#00BFB4"/>
<path d="M328.041 373.29C324.588 375.396 320.906 376.732 316.996 377.298C313.086 377.863 310.141 377.529 308.16 376.296C308.109 376.296 307.944 376.193 307.665 375.987C307.386 375.782 307.094 375.589 306.789 375.409C306.484 375.229 306.18 375.14 305.875 375.14V396.72C308.109 394.1 310.648 391.916 313.492 390.169C315.066 389.193 316.882 388.486 318.938 388.049C320.995 387.613 322.938 387.42 324.766 387.471C326.594 387.523 328.308 387.638 329.907 387.818C331.507 387.998 332.764 388.216 333.678 388.473L335.125 388.781C334.973 389.09 334.731 389.501 334.401 390.015C334.071 390.528 333.398 391.492 332.383 392.905C331.367 394.318 330.326 395.667 329.26 396.951C328.193 398.236 326.86 399.61 325.261 401.075C323.661 402.539 322.074 403.759 320.5 404.736C313.898 408.743 309.023 410.85 305.875 411.056C305.875 415.259 307.317 425.072 304.466 428.036C303.526 429.012 302.371 429.5 301 429.5C299.629 429.5 298.474 429.012 297.534 428.036C294.782 425.175 296.125 416.067 296.125 411.98C293.738 412.289 290.958 412.058 287.784 411.287C284.61 410.516 281.678 409.334 278.986 407.741C277.412 406.817 275.914 405.545 274.492 403.926C273.07 402.308 271.915 400.689 271.026 399.071C270.138 397.452 269.363 395.872 268.703 394.331C268.043 392.789 267.573 391.569 267.294 390.67C267.015 389.771 266.875 389.295 266.875 389.244C267.281 389.09 267.814 388.923 268.475 388.743C269.135 388.563 270.417 388.306 272.321 387.972C274.226 387.638 276.054 387.458 277.806 387.433C279.558 387.407 281.475 387.638 283.557 388.126C285.639 388.614 287.416 389.424 288.889 390.554C290.361 391.685 292.773 394.793 296.125 399.88V380.072C295.82 380.072 295.516 380.162 295.211 380.342C294.906 380.522 294.614 380.714 294.335 380.92C294.056 381.126 293.891 381.254 293.84 381.305C291.859 382.487 288.914 382.795 285.004 382.23C281.094 381.665 277.412 380.329 273.959 378.222C272.385 377.246 270.887 375.91 269.465 374.215C268.043 372.519 266.913 370.9 266.075 369.359C265.237 367.818 264.476 366.16 263.79 364.388C263.104 362.615 262.66 361.395 262.457 360.727C262.254 360.059 262.102 359.545 262 359.185C262.355 359.083 262.851 358.954 263.485 358.8C264.12 358.646 265.352 358.453 267.18 358.222C269.008 357.991 270.76 357.862 272.436 357.837C274.111 357.811 276.003 358.016 278.11 358.453C280.218 358.89 282.059 359.596 283.633 360.573C286.781 362.474 289.511 364.773 291.821 367.471C294.132 370.168 295.566 372.725 296.125 375.14V362.731C296.125 362.628 296.15 362.422 296.201 362.114C293.916 361.498 291.859 360.573 290.031 359.34C288.254 358.106 286.654 356.218 285.232 353.675C283.811 351.131 282.846 348.883 282.338 346.931L281.5 344.002C281.754 343.951 282.109 343.861 282.566 343.732C283.023 343.604 283.899 343.45 285.194 343.27C286.489 343.09 287.733 343 288.927 343C290.12 343 291.479 343.167 293.002 343.501C294.525 343.835 295.846 344.387 296.963 345.158C299.451 346.802 301.559 348.947 303.285 351.594C305.012 354.24 305.875 356.308 305.875 357.798V370.207C306.434 367.792 307.868 365.236 310.179 362.538C312.489 359.84 315.219 357.541 318.367 355.64C319.941 354.664 321.757 353.957 323.813 353.52C325.87 353.084 327.812 352.891 329.641 352.942C331.469 352.994 333.183 353.109 334.782 353.289C336.382 353.469 337.639 353.662 338.553 353.867L340 354.253C339.898 354.612 339.759 355.113 339.581 355.756C339.403 356.398 338.959 357.618 338.248 359.417C337.537 361.215 336.763 362.885 335.925 364.426C335.087 365.968 333.957 367.586 332.535 369.282C331.113 370.978 329.615 372.313 328.041 373.29Z" fill="#006C59"/>
<path d="M257 422H345L327.657 498H275.628L257 422Z" fill="#00A89E"/>
<circle cx="124.5" cy="167.5" r="45.5" fill="#00A89E"/>
<line x1="124.592" y1="168.46" x2="103.592" y2="195.46" stroke="#006C59" stroke-width="1.5"/>
<line x1="124.75" y1="143" x2="124.75" y2="168" stroke="#006C59" stroke-width="1.5"/>
<line x1="124.711" y1="167.76" x2="135.907" y2="200.921" stroke="#5BFFEB" stroke-width="1.5"/>
<path fill-rule="evenodd" clip-rule="evenodd" d="M283.761 715.591L308.226 699.825V636.765C308.226 628.058 297.273 621 283.761 621C270.249 621 259.295 628.058 259.295 636.765V699.825L283.761 715.591Z" fill="#2196F3"/>
<path fill-rule="evenodd" clip-rule="evenodd" d="M257.467 697.625V713.404C257.467 722.119 269.249 729.184 283.782 729.184C298.316 729.184 310.097 722.119 310.097 713.404V697.625H257.467Z" fill="#304FFE"/>
<path fill-rule="evenodd" clip-rule="evenodd" d="M245.061 667.561C246.33 666.839 246.117 664.007 244.585 661.235C243.053 658.463 240.782 656.801 239.513 657.523C238.244 658.244 238.457 661.077 239.989 663.849C241.521 666.621 243.791 668.283 245.061 667.561Z" fill="#2196F3"/>
<path fill-rule="evenodd" clip-rule="evenodd" d="M244.862 663.796C245.621 663.805 246.231 662.485 246.226 660.848C246.221 659.211 245.602 657.877 244.843 657.868C244.084 657.859 243.473 659.179 243.479 660.816C243.484 662.453 244.103 663.788 244.862 663.796Z" fill="#2196F3"/>
<path d="M244.129 665.917C246.916 670.893 248.582 679.135 254.104 680.271C256.892 680.845 259.235 679.491 261.934 679.509" stroke="#2196F3" stroke-width="4" stroke-miterlimit="10" stroke-linejoin="round"/>
<path fill-rule="evenodd" clip-rule="evenodd" d="M316.985 692.432C315.529 692.54 314.507 695.19 314.703 698.352C314.898 701.514 316.237 703.989 317.694 703.881C319.15 703.773 320.172 701.123 319.976 697.961C319.78 694.799 318.441 692.324 316.985 692.432Z" fill="#2196F3"/>
<path fill-rule="evenodd" clip-rule="evenodd" d="M315.55 695.919C314.869 695.586 313.751 696.517 313.053 697.998C312.356 699.48 312.344 700.951 313.026 701.285C313.707 701.618 314.825 700.687 315.523 699.206C316.22 697.724 316.232 696.253 315.55 695.919Z" fill="#2196F3"/>
<path d="M316.924 694.311C316.539 688.622 318.567 680.465 314.066 677.073C311.793 675.36 309.096 675.578 306.666 674.405" stroke="#2196F3" stroke-width="4" stroke-miterlimit="10" stroke-linejoin="round"/>
<path fill-rule="evenodd" clip-rule="evenodd" d="M298.776 660.335C298.776 657.724 296.659 655.608 294.049 655.608C292.795 655.608 291.592 656.106 290.706 656.993C289.819 657.879 289.321 659.081 289.321 660.335C289.321 662.946 291.438 665.062 294.049 665.062C296.659 665.062 298.776 662.946 298.776 660.335Z" fill="black"/>
<path fill-rule="evenodd" clip-rule="evenodd" d="M293.589 658.732C293.589 658.003 292.998 657.413 292.27 657.413C291.92 657.413 291.584 657.552 291.337 657.799C291.09 658.046 290.951 658.382 290.951 658.732C290.951 659.46 291.541 660.051 292.27 660.051C292.998 660.051 293.589 659.46 293.589 658.732Z" fill="white"/>
<path fill-rule="evenodd" clip-rule="evenodd" d="M271.383 660.335C271.383 657.724 269.267 655.608 266.656 655.608C265.402 655.608 264.2 656.106 263.313 656.993C262.427 657.879 261.929 659.081 261.929 660.335C261.929 662.946 264.045 665.062 266.656 665.062C269.267 665.062 271.383 662.946 271.383 660.335Z" fill="black"/>
<path fill-rule="evenodd" clip-rule="evenodd" d="M266.197 658.732C266.197 658.003 265.606 657.413 264.877 657.413C264.527 657.413 264.192 657.552 263.944 657.799C263.697 658.046 263.558 658.382 263.558 658.732C263.558 659.46 264.149 660.051 264.877 660.051C265.606 660.051 266.197 659.46 266.197 658.732Z" fill="white"/>
<path d="M287.458 669.594C285.295 667.43 282.304 666.271 279.144 666.372C275.984 666.472 272.913 667.824 270.608 670.129" stroke="black" stroke-width="2" stroke-miterlimit="10" stroke-linejoin="round"/>
<path d="M294.918 723.275L299.918 735.275L315.418 730.275L317.418 737.275" stroke="#304FFE" stroke-width="4" stroke-linecap="round" stroke-linejoin="round"/>
<path d="M271.418 723.275L261.918 730.275L267.918 744.775L259.918 746.775" stroke="#304FFE" stroke-width="4" stroke-linecap="round" stroke-linejoin="round"/>
<path fill-rule="evenodd" clip-rule="evenodd" d="M948.192 874.949C946.923 874.204 947.135 871.28 948.667 868.418C950.199 865.557 952.47 863.841 953.739 864.586C955.008 865.331 954.795 868.255 953.263 871.116C951.732 873.978 949.461 875.694 948.192 874.949Z" fill="#FFC400"/>
<path fill-rule="evenodd" clip-rule="evenodd" d="M948.39 871.062C947.632 871.071 947.021 869.709 947.026 868.019C947.031 866.329 947.65 864.951 948.409 864.942C949.168 864.933 949.779 866.295 949.774 867.985C949.768 869.675 949.149 871.053 948.39 871.062Z" fill="#FFC400"/>
<path d="M949.124 873.251C946.336 878.388 944.67 886.896 939.148 888.069C936.36 888.661 934.017 887.263 931.318 887.282" stroke="#FFC400" stroke-width="4" stroke-miterlimit="10" stroke-linejoin="round"/>
<path fill-rule="evenodd" clip-rule="evenodd" d="M875.172 903.851C876.607 904.129 877.327 906.965 876.78 910.185C876.233 913.405 874.627 915.79 873.192 915.512C871.757 915.234 871.037 912.398 871.584 909.177C872.131 905.957 873.737 903.572 875.172 903.851Z" fill="#FFC400"/>
<path fill-rule="evenodd" clip-rule="evenodd" d="M876.209 907.592C876.923 907.329 877.931 908.412 878.458 910.012C878.986 911.611 878.834 913.122 878.12 913.385C877.405 913.649 876.398 912.566 875.87 910.966C875.343 909.366 875.494 907.856 876.209 907.592Z" fill="#FFC400"/>
<path d="M875.052 905.936C876.069 900.143 874.964 891.539 879.814 888.576C882.262 887.08 884.917 887.614 887.462 886.69" stroke="#FFC400" stroke-width="4" stroke-miterlimit="10" stroke-linejoin="round"/>
<path fill-rule="evenodd" clip-rule="evenodd" d="M910.705 898.287C900.495 962.883 860.676 898.287 910.705 815.235C960.734 898.287 920.915 962.883 910.705 898.287Z" fill="#FFC400"/>
<path fill-rule="evenodd" clip-rule="evenodd" d="M888.621 910.362C888.621 899.409 898.541 890.53 910.778 890.53C923.015 890.53 932.936 899.409 932.936 910.362C932.936 921.315 923.015 930.195 910.778 930.195C898.541 930.195 888.621 921.315 888.621 910.362Z" fill="#FFC400"/>
<path fill-rule="evenodd" clip-rule="evenodd" d="M932.253 918.626V931.826C932.253 939.116 922.615 945.026 910.726 945.026C898.836 945.026 889.198 939.116 889.198 931.826V918.626H932.253Z" fill="#FF9800"/>
<path d="M907.074 878.519C908.189 880.916 910.171 882.761 912.584 883.648C914.997 884.535 917.643 884.392 919.94 883.249" stroke="black" stroke-width="2" stroke-miterlimit="10" stroke-linejoin="round"/>
<path fill-rule="evenodd" clip-rule="evenodd" d="M898.889 869.827C898.889 867.132 901.006 864.947 903.616 864.947C904.87 864.947 906.073 865.461 906.959 866.376C907.846 867.291 908.344 868.532 908.344 869.827C908.344 872.522 906.227 874.706 903.616 874.706C901.006 874.706 898.889 872.522 898.889 869.827Z" fill="black"/>
<path fill-rule="evenodd" clip-rule="evenodd" d="M904.076 868.171C904.076 867.419 904.667 866.81 905.395 866.81C905.745 866.81 906.081 866.953 906.328 867.208C906.575 867.464 906.714 867.81 906.714 868.171C906.714 868.923 906.124 869.533 905.395 869.533C904.667 869.533 904.076 868.923 904.076 868.171Z" fill="white"/>
<path fill-rule="evenodd" clip-rule="evenodd" d="M919.744 869.827C919.744 867.132 921.86 864.947 924.471 864.947C925.725 864.947 926.927 865.461 927.814 866.376C928.7 867.291 929.198 868.532 929.198 869.827C929.198 872.522 927.082 874.706 924.471 874.706C921.86 874.706 919.744 872.522 919.744 869.827Z" fill="black"/>
<path fill-rule="evenodd" clip-rule="evenodd" d="M924.93 868.171C924.93 867.419 925.521 866.81 926.25 866.81C926.6 866.81 926.935 866.953 927.183 867.208C927.43 867.464 927.569 867.81 927.569 868.171C927.569 868.923 926.978 869.533 926.25 869.533C925.521 869.533 924.93 868.923 924.93 868.171Z" fill="white"/>
<path d="M898.301 939.244L893.301 951.631L877.801 946.469L875.801 953.695" stroke="#FF9800" stroke-width="4" stroke-linecap="round" stroke-linejoin="round"/>
<path d="M921.801 939.244L931.301 946.469L925.301 961.437L933.301 963.502" stroke="#FF9800" stroke-width="4" stroke-linecap="round" stroke-linejoin="round"/>
<path d="M1110.69 562.677L1112.19 588.677L1105.69 591.677" stroke="#D500F9" stroke-width="4"/>
<path d="M1127.19 562.677L1125.69 588.677L1132.19 591.677" stroke="#D500F9" stroke-width="4"/>
<path fill-rule="evenodd" clip-rule="evenodd" d="M1144.8 485.785C1158.37 499.092 1158.05 520.97 1144.09 534.651C1135.19 543.371 1126.76 552.542 1118.78 562.162C1111.07 552.755 1102.89 543.81 1094.24 535.329C1080.68 522.022 1080.99 500.143 1094.95 486.462C1108.91 472.781 1131.23 472.478 1144.8 485.785Z" fill="#EA80FC"/>
<path fill-rule="evenodd" clip-rule="evenodd" d="M1098.91 505.263C1098.91 502.653 1101.06 500.536 1103.73 500.536C1105.01 500.536 1106.24 501.034 1107.14 501.921C1108.04 502.807 1108.55 504.01 1108.55 505.263C1108.55 507.874 1106.39 509.991 1103.73 509.991C1101.06 509.991 1098.91 507.874 1098.91 505.263Z" fill="black"/>
<path fill-rule="evenodd" clip-rule="evenodd" d="M1101.53 502.891C1101.53 502.162 1102.13 501.571 1102.87 501.571C1103.23 501.571 1103.57 501.71 1103.83 501.958C1104.08 502.205 1104.22 502.541 1104.22 502.891C1104.22 503.619 1103.62 504.21 1102.87 504.21C1102.13 504.21 1101.53 503.619 1101.53 502.891Z" fill="white"/>
<path fill-rule="evenodd" clip-rule="evenodd" d="M1131.24 505.263C1131.24 502.653 1133.4 500.536 1136.07 500.536C1137.35 500.536 1138.57 501.034 1139.48 501.921C1140.38 502.807 1140.89 504.01 1140.89 505.263C1140.89 507.874 1138.73 509.991 1136.07 509.991C1133.4 509.991 1131.24 507.874 1131.24 505.263Z" fill="black"/>
<path fill-rule="evenodd" clip-rule="evenodd" d="M1133.87 502.891C1133.87 502.162 1134.47 501.571 1135.21 501.571C1135.57 501.571 1135.91 501.71 1136.16 501.958C1136.42 502.205 1136.56 502.541 1136.56 502.891C1136.56 503.619 1135.96 504.21 1135.21 504.21C1134.47 504.21 1133.87 503.619 1133.87 502.891Z" fill="white"/>
<path fill-rule="evenodd" clip-rule="evenodd" d="M1128.75 510.674V515.493C1128.75 518.155 1125.16 520.312 1120.73 520.312C1116.3 520.312 1112.71 518.155 1112.71 515.493V510.674H1128.75Z" stroke="black" stroke-width="2" stroke-miterlimit="10" stroke-linejoin="round"/>
<path fill-rule="evenodd" clip-rule="evenodd" d="M1138.36 540.873V553.66C1138.36 560.722 1129.93 566.447 1119.52 566.447C1109.12 566.447 1100.69 560.722 1100.69 553.66V540.873H1138.36Z" fill="#D500F9"/>
<path fill-rule="evenodd" clip-rule="evenodd" d="M1162.87 503.305C1161.39 503.107 1160.52 500.398 1160.92 497.255C1161.32 494.111 1162.84 491.723 1164.31 491.921C1165.79 492.119 1166.66 494.828 1166.26 497.971C1165.87 501.115 1164.34 503.503 1162.87 503.305Z" fill="#EA80FC"/>
<path fill-rule="evenodd" clip-rule="evenodd" d="M1161.63 499.736C1160.91 500.026 1159.83 499.028 1159.22 497.506C1158.6 495.984 1158.68 494.515 1159.39 494.224C1160.11 493.934 1161.19 494.932 1161.81 496.454C1162.42 497.976 1162.34 499.445 1161.63 499.736Z" fill="#EA80FC"/>
<path d="M1162.97 501.304C1162.22 506.958 1163.77 515.225 1158.97 518.333C1156.55 519.902 1153.82 519.518 1151.27 520.538" stroke="#EA80FC" stroke-width="4" stroke-miterlimit="10" stroke-linejoin="round"/>
<path fill-rule="evenodd" clip-rule="evenodd" d="M1076.49 503.305C1077.97 503.107 1078.84 500.398 1078.44 497.255C1078.04 494.111 1076.52 491.723 1075.05 491.921C1073.57 492.119 1072.7 494.828 1073.1 497.971C1073.5 501.115 1075.02 503.503 1076.49 503.305Z" fill="#EA80FC"/>
<path fill-rule="evenodd" clip-rule="evenodd" d="M1077.73 499.736C1078.45 500.026 1079.53 499.028 1080.15 497.506C1080.76 495.984 1080.68 494.515 1079.97 494.224C1079.25 493.934 1078.17 494.932 1077.55 496.454C1076.94 497.976 1077.02 499.445 1077.73 499.736Z" fill="#EA80FC"/>
<path d="M1076.39 501.304C1077.14 506.958 1075.59 515.225 1080.39 518.333C1082.81 519.902 1085.54 519.518 1088.09 520.538" stroke="#EA80FC" stroke-width="4" stroke-miterlimit="10" stroke-linejoin="round"/>
<rect x="957" y="632" width="7.30337" height="55.6364" fill="#79D31F"/>
<rect x="1032" y="630" width="7" height="60" fill="#79D31F"/>
<rect x="930" y="682" width="8.76404" height="57.0629" fill="#B6FF6C"/>
<rect x="1007" y="682" width="8.76404" height="57.0629" fill="#B6FF6C"/>
<path d="M945.563 629.81C946.038 628.711 947.12 628 948.317 628H1037.54C1039.67 628 1041.12 630.159 1040.32 632.132L1020.76 680.132C1020.3 681.261 1019.2 682 1017.98 682H927.565C925.408 682 923.955 679.79 924.812 677.81L945.563 629.81Z" fill="#79D31F"/>
<path d="M925 568C925 566.343 926.343 565 928 565H1017C1018.66 565 1020 566.343 1020 568V680C1020 681.105 1019.1 682 1018 682H926C925.448 682 925 681.552 925 681V568Z" fill="#B6FF6C"/>
<rect width="7.30337" height="55.6364" transform="matrix(-1 0 0 1 523 624)" fill="#24DC62"/>
<rect width="7" height="60" transform="matrix(-1 0 0 1 448 622)" fill="#24DC62"/>
<rect width="8.76404" height="57.0629" transform="matrix(-1 0 0 1 550 674)" fill="#6CFF9E"/>
<rect width="8.76404" height="57.0629" transform="matrix(-1 0 0 1 473 674)" fill="#6CFF9E"/>
<path d="M534.437 621.81C533.962 620.711 532.88 620 531.683 620H442.462C440.331 620 438.88 622.159 439.683 624.132L459.239 672.132C459.699 673.261 460.797 674 462.017 674H552.435C554.592 674 556.045 671.79 555.188 669.81L534.437 621.81Z" fill="#24DC62"/>
<path d="M555 560C555 558.343 553.657 557 552 557H463C461.343 557 460 558.343 460 560V672C460 673.105 460.895 674 462 674H554C554.552 674 555 673.552 555 673V560Z" fill="#6CFF9E"/>
<rect x="588.178" y="594" width="7.73723" height="55.6364" fill="#79D31F"/>
<rect x="599.832" y="621" width="9.28468" height="57.0629" fill="#B6FF6C"/>
<rect x="668.693" y="621" width="9.28468" height="57.0629" fill="#B6FF6C"/>
<rect x="681.406" y="594" width="7.73723" height="55.6364" fill="#79D31F"/>
<path d="M594.828 622.815C595.193 624.107 596.373 625 597.716 625H678.829C680.158 625 681.329 624.125 681.706 622.85L690.863 591.85C691.431 589.928 689.99 588 687.986 588H588.964C586.975 588 585.537 589.901 586.077 591.815L594.828 622.815Z" fill="#79D31F"/>
<path d="M595.594 526C595.594 524.343 596.937 523 598.594 523H678.406C680.063 523 681.406 524.343 681.406 526V625H595.594V526Z" fill="#B6FF6C"/>
<rect x="748.178" y="604" width="7.73723" height="55.6364" fill="#24DC62"/>
<rect x="759.832" y="631" width="9.28468" height="57.0629" fill="#6CFF9E"/>
<rect x="828.693" y="631" width="9.28468" height="57.0629" fill="#6CFF9E"/>
<rect x="841.406" y="604" width="7.73723" height="55.6364" fill="#24DC62"/>
<path d="M754.828 632.815C755.193 634.107 756.373 635 757.716 635H838.829C840.158 635 841.329 634.125 841.706 632.85L850.863 601.85C851.431 599.928 849.99 598 847.986 598H748.964C746.975 598 745.537 599.901 746.077 601.815L754.828 632.815Z" fill="#24DC62"/>
<path d="M755.594 536C755.594 534.343 756.937 533 758.594 533H838.406C840.063 533 841.406 534.343 841.406 536V635H755.594V536Z" fill="#6CFF9E"/>
<rect x="412" y="810" width="7.30337" height="55.6364" fill="#79D31F"/>
<rect x="469" y="810" width="7.30337" height="55.6364" fill="#79D31F"/>
<rect x="391" y="830" width="8.76404" height="57.0629" fill="#79D31F"/>
<rect x="481" y="830" width="8.76404" height="57.0629" fill="#79D31F"/>
<path d="M407.081 777.353C407.595 776.355 408.625 775.727 409.748 775.727H490.47C492.069 775.727 493.387 776.982 493.466 778.579L495.845 826.789C495.929 828.502 494.563 829.937 492.848 829.937H384.92C382.674 829.937 381.224 827.56 382.252 825.563L407.081 777.353Z" fill="#B6FF6C"/>
<path d="M409 686C409 684.343 410.343 683 412 683H489C490.657 683 492 684.343 492 686V774C492 775.105 491.105 776 490 776H410C409.448 776 409 775.552 409 775V686Z" fill="#B6FF6C"/>
<rect width="7.30337" height="55.6364" transform="matrix(-1 0 0 1 1030 835)" fill="#24DC62"/>
<rect width="7.30337" height="55.6364" transform="matrix(-1 0 0 1 973 835)" fill="#24DC62"/>
<rect width="8.76404" height="57.0629" transform="matrix(-1 0 0 1 1051 855)" fill="#24DC62"/>
<rect width="8.76404" height="57.0629" transform="matrix(-1 0 0 1 961 855)" fill="#24DC62"/>
<path d="M1034.92 802.353C1034.4 801.355 1033.38 800.727 1032.25 800.727H951.53C949.931 800.727 948.613 801.982 948.534 803.579L946.155 851.789C946.071 853.502 947.437 854.937 949.152 854.937H1057.08C1059.33 854.937 1060.78 852.56 1059.75 850.563L1034.92 802.353Z" fill="#6CFF9E"/>
<path d="M1033 711C1033 709.343 1031.66 708 1030 708H953C951.343 708 950 709.343 950 711V799C950 800.105 950.895 801 952 801H1032C1032.55 801 1033 800.552 1033 800V711Z" fill="#6CFF9E"/>
<rect x="574.753" y="852.524" width="7.30337" height="55.6364" fill="#24DC62"/>
<rect x="643.405" y="852.524" width="7.30337" height="55.6364" fill="#24DC62"/>
<rect x="557.225" y="863.937" width="8.76404" height="57.0629" fill="#24DC62"/>
<rect x="659.472" y="863.937" width="8.76404" height="57.0629" fill="#24DC62"/>
<path d="M568.16 811.603C568.619 810.469 569.719 809.727 570.942 809.727H652.329C653.538 809.727 654.629 810.453 655.096 811.569L675.261 859.779C676.088 861.756 674.636 863.937 672.493 863.937H551.449C549.322 863.937 547.87 861.784 548.668 859.812L568.16 811.603Z" fill="#6CFF9E"/>
<path d="M568.91 720C568.91 718.343 570.253 717 571.91 717H652.09C653.747 717 655.09 718.343 655.09 720V812.58H568.91V720Z" fill="#6CFF9E"/>
<rect x="772.753" y="843.524" width="7.30337" height="55.6364" fill="#79D31F"/>
<rect x="841.405" y="843.524" width="7.30337" height="55.6364" fill="#79D31F"/>
<rect x="755.225" y="854.937" width="8.76404" height="57.0629" fill="#79D31F"/>
<rect x="857.472" y="854.937" width="8.76404" height="57.0629" fill="#79D31F"/>
<path d="M766.16 802.603C766.619 801.469 767.719 800.727 768.942 800.727H850.329C851.538 800.727 852.629 801.453 853.096 802.569L873.261 850.779C874.088 852.756 872.636 854.937 870.493 854.937H749.449C747.322 854.937 745.87 852.784 746.668 850.812L766.16 802.603Z" fill="#B6FF6C"/>
<path d="M766.91 711C766.91 709.343 768.253 708 769.91 708H850.09C851.747 708 853.09 709.343 853.09 711V803.58H766.91V711Z" fill="#B6FF6C"/>
<rect x="850" y="96" width="420" height="163" fill="url(#paint2_linear)" stroke="#00A89E" stroke-width="5"/>
<path fill-rule="evenodd" clip-rule="evenodd" d="M1183.91 116.279C1191.35 115.823 1199.95 115.845 1206.17 116.967C1212.39 118.091 1213.27 120.234 1215.85 122.045C1218.53 123.923 1223.64 125.788 1221.48 127.707C1219.31 129.645 1212.45 131.237 1204.82 131.862C1197.89 132.43 1191.11 131.075 1183.91 130.787C1178.29 130.562 1172.77 130.795 1167.35 130.361C1159.58 129.739 1149.12 129.62 1145.89 127.744C1142.71 125.896 1148.74 123.82 1153.19 122.145C1156.79 120.791 1163.21 120.27 1168.37 119.284C1173.7 118.265 1177.39 116.678 1183.91 116.279Z" fill="#0CDDD3"/>
<path fill-rule="evenodd" clip-rule="evenodd" d="M1087.55 124.578C1099.11 123.713 1109.64 119.977 1120.49 121.269C1130.98 122.52 1124.78 126.676 1127.95 129.391C1130.23 131.346 1134.23 133.057 1136.53 135.01C1139.62 137.626 1148.1 140.319 1143.82 142.835C1139.64 145.292 1127.13 146.609 1116.2 146.965C1106.05 147.295 1097.53 145.221 1087.55 144.668C1080.27 144.265 1072.82 144.634 1065.61 144.161C1056.63 143.573 1046.87 143.174 1040.35 141.574C1033.28 139.837 1026.4 137.398 1028.33 135.01C1030.31 132.555 1042.87 131.617 1049.88 129.772C1055.2 128.372 1057.8 126.395 1064.64 125.452C1071.47 124.511 1080.04 125.141 1087.55 124.578Z" fill="#0CDDD3"/>
<rect x="1130" y="100" width="5" height="160" fill="#00A89E"/>
<rect x="975" y="100" width="5" height="160" fill="#00A89E"/>
<rect x="860" y="180" width="390" height="5" fill="#00A89E"/>
<path d="M817 285.5V99H859.5V288C859.167 289 857.7 291.2 854.5 292C850.5 293 849 288 848.5 285.5C848 283 845 286.5 842.5 288C840.5 289.2 837.667 286.833 836.5 285.5C835.5 284.167 832.7 282.3 829.5 285.5C826.3 288.7 819.833 286.833 817 285.5Z" fill="#5BFFEB"/>
<path d="M1250 285.5V99H1292.5V288C1292.17 289 1289.7 284.7 1286.5 285.5C1282.5 286.5 1283.03 283.46 1281.5 285.5C1278.5 289.5 1278.5 290.5 1276 292C1274 293.2 1266.67 289.333 1265.5 288C1264.5 286.667 1261.2 288.8 1258 292C1254.8 295.2 1252.83 286.833 1250 285.5Z" fill="#5BFFEB"/>
<rect x="810" y="92" width="490" height="10" fill="#00A89E"/>
<rect x="618" y="319" width="98" height="47" fill="#62B70E"/>
<rect x="624" y="302" width="85" height="7" fill="#62B70E"/>
<rect x="628" y="309" width="7" height="10" fill="#62B70E"/>
<rect x="698" y="309" width="7" height="10" fill="#62B70E"/>
<path d="M618.333 317C616.919 317 615.562 317.562 614.562 318.562C613.562 319.562 613 320.919 613 322.333V365C613 366.414 613.562 367.771 614.562 368.771C615.562 369.771 616.919 370.333 618.333 370.333H714.333C715.748 370.333 717.104 369.771 718.105 368.771C719.105 367.771 719.667 366.414 719.667 365V322.333C719.667 320.919 719.105 319.562 718.105 318.562C717.104 317.562 715.748 317 714.333 317H618.333ZM661 322.333H671.667C672.374 322.333 673.052 322.614 673.552 323.114C674.052 323.614 674.333 324.293 674.333 325C674.333 325.707 674.052 326.386 673.552 326.886C673.052 327.386 672.374 327.667 671.667 327.667H661C660.293 327.667 659.614 327.386 659.114 326.886C658.614 326.386 658.333 325.707 658.333 325C658.333 324.293 658.614 323.614 659.114 323.114C659.614 322.614 660.293 322.333 661 322.333ZM642.333 330.333C646.577 330.333 650.646 332.019 653.647 335.02C656.648 338.02 658.333 342.09 658.333 346.333C658.333 350.577 656.648 354.646 653.647 357.647C650.646 360.648 646.577 362.333 642.333 362.333C638.09 362.333 634.02 360.648 631.02 357.647C628.019 354.646 626.333 350.577 626.333 346.333C626.333 342.09 628.019 338.02 631.02 335.02C634.02 332.019 638.09 330.333 642.333 330.333ZM690.333 330.333C694.577 330.333 698.646 332.019 701.647 335.02C704.648 338.02 706.333 342.09 706.333 346.333C706.333 350.577 704.648 354.646 701.647 357.647C698.646 360.648 694.577 362.333 690.333 362.333C686.09 362.333 682.02 360.648 679.02 357.647C676.019 354.646 674.333 350.577 674.333 346.333C674.333 342.09 676.019 338.02 679.02 335.02C682.02 332.019 686.09 330.333 690.333 330.333ZM642.333 338.333C640.212 338.333 638.177 339.176 636.676 340.676C635.176 342.177 634.333 344.212 634.333 346.333C634.333 348.455 635.176 350.49 636.676 351.99C638.177 353.49 640.212 354.333 642.333 354.333C644.455 354.333 646.49 353.49 647.99 351.99C649.49 350.49 650.333 348.455 650.333 346.333C650.333 344.212 649.49 342.177 647.99 340.676C646.49 339.176 644.455 338.333 642.333 338.333ZM690.333 338.333C688.212 338.333 686.177 339.176 684.676 340.676C683.176 342.177 682.333 344.212 682.333 346.333C682.333 348.455 683.176 350.49 684.676 351.99C686.177 353.49 688.212 354.333 690.333 354.333C692.455 354.333 694.49 353.49 695.99 351.99C697.49 350.49 698.333 348.455 698.333 346.333C698.333 344.212 697.49 342.177 695.99 340.676C694.49 339.176 692.455 338.333 690.333 338.333Z" fill="#B6FF6C"/>
<rect x="430" y="300" width="11" height="66" fill="#5BFFEB"/>
<rect x="443" y="309" width="11" height="57" fill="#5BFFEB"/>
<rect x="456" y="305" width="11" height="61" fill="#5BFFEB"/>
<rect x="469" y="319" width="11" height="47" fill="#5BFFEB"/>
<rect x="480" y="346" width="6" height="20" fill="#00BFB4"/>
<rect width="6" height="20" transform="matrix(-1 0 0 1 430 346)" fill="#00BFB4"/>
<rect x="492" y="360" width="6" height="12" transform="rotate(90 492 360)" fill="#00BFB4"/>
<rect width="6" height="12" transform="matrix(4.37114e-08 1 1 -4.37114e-08 417 360)" fill="#00BFB4"/>
<path d="M527 362C531.971 362 536 358.866 536 355C536 351.134 531.971 348 527 348" stroke="#00BFB4" stroke-width="4"/>
</g>
<defs>
<linearGradient id="paint0_linear" x1="720" y1="0" x2="720" y2="467" gradientUnits="userSpaceOnUse">
<stop stop-color="#02B3BE"/>
<stop offset="1" stop-color="#00FFE0"/>
</linearGradient>
<linearGradient id="paint1_linear" x1="720" y1="490" x2="720" y2="1029" gradientUnits="userSpaceOnUse">
<stop stop-color="#72FFE6"/>
<stop offset="1" stop-color="#009B92"/>
</linearGradient>
<linearGradient id="paint2_linear" x1="1060" y1="96" x2="1060" y2="259" gradientUnits="userSpaceOnUse">
<stop stop-color="#D5FAFF"/>
<stop offset="1" stop-color="#D5FAFF" stop-opacity="0"/>
</linearGradient>
<clipPath id="clip0">
<rect width="1440" height="1024" fill="white"/>
</clipPath>
</defs>
</svg>
