<svg width="287" height="196" viewBox="0 0 287 196" fill="none" xmlns="http://www.w3.org/2000/svg">
<rect x="7" y="99" width="271" height="97" rx="30" fill="#F8F7F7"/>
<path d="M27.8687 23.6351C30.8635 9.84064 43.0699 0 57.1857 0H224.651C238.383 0 250.361 9.32284 253.733 22.6339L277.036 114.634C281.837 133.591 267.509 152 247.954 152H37.212C18.0796 152 3.83582 134.332 7.89501 115.635L27.8687 23.6351Z" fill="white"/>
<path d="M200 80.5C200 88.1742 194.395 95.7447 183.964 101.569C173.631 107.338 159.154 111 143 111C126.846 111 112.369 107.338 102.036 101.569C91.6051 95.7447 86 88.1742 86 80.5C86 72.8258 91.6051 65.2553 102.036 59.4313C112.369 53.6623 126.846 50 143 50C159.154 50 173.631 53.6623 183.964 59.4313C194.395 65.2553 200 72.8258 200 80.5Z" fill="white" stroke="#2196F3" stroke-width="6"/>
</svg>
