<svg width="1440" height="1024" viewBox="0 0 1440 1024" fill="none" xmlns="http://www.w3.org/2000/svg">
<g clip-path="url(#clip0)">
<rect width="1440" height="1024" fill="url(#paint0_linear)"/>
<rect y="470" width="1440" height="20" fill="#130268"/>
<rect y="490" width="1440" height="539" fill="url(#paint1_linear)"/>
<line x1="195.649" y1="765.628" x2="125.648" y2="1022.63" stroke="#220A35" stroke-width="20" stroke-dasharray="5 10"/>
<line x1="724.75" y1="761.78" x2="783.887" y2="1021.49" stroke="#220A35" stroke-width="20" stroke-dasharray="5 10"/>
<path d="M133 1024L202.446 763H714.047L774 1024H133Z" fill="#440079"/>
<path d="M153 322C153 316.477 157.477 312 163 312H743C748.523 312 753 316.477 753 322V462H153V322Z" fill="#B12DE7"/>
<rect x="178" y="429" width="547" height="80" fill="#8116AC"/>
<path d="M720 397C720 394.239 722.239 392 725 392H780C782.761 392 785 394.239 785 397V512C785 514.761 782.761 517 780 517H720V397Z" fill="#8116AC"/>
<path d="M121 397C121 394.239 123.239 392 126 392H181C183.761 392 186 394.239 186 397V517H126C123.239 517 121 514.761 121 512V397Z" fill="#8116AC"/>
<rect x="234" y="1000" width="438" height="24" fill="#130268"/>
<rect x="1035" y="443" width="10" height="74" fill="#030096"/>
<rect x="835" y="443" width="10" height="74" fill="#030096"/>
<rect x="821" y="417" width="236" height="29" fill="#030096"/>
<path d="M935 364H855L874.74 304H915.779L935 364Z" fill="#440079"/>
<rect x="890" y="364" width="10" height="45" fill="#220A35"/>
<rect x="877" y="409" width="37" height="8" fill="#440079"/>
<path d="M1114.1 368.008C1114.11 362.485 1118.59 358.011 1124.11 358.014L1322.23 358.143C1327.75 358.147 1332.23 362.627 1332.22 368.15L1332.11 535.955L1113.99 535.813L1114.1 368.008Z" fill="#48B9FF"/>
<rect x="1125.97" y="496.703" width="201.574" height="94.8293" transform="rotate(0.0373329 1125.97 496.703)" fill="#007FCD"/>
<path d="M1320.21 457.971C1320.22 455.21 1322.46 452.973 1325.22 452.974L1345.1 452.987C1347.86 452.989 1350.09 455.229 1350.09 457.991L1350 596.161C1350 598.923 1347.76 601.16 1345 601.158L1320.12 601.142L1320.21 457.971Z" fill="#007FCD"/>
<path d="M1102.09 457.829C1102.09 455.068 1104.34 452.831 1107.1 452.832L1126.98 452.845C1129.74 452.847 1131.97 455.087 1131.97 457.849L1131.88 601.019L1107 601.003C1104.24 601.001 1102 598.761 1102 596L1102.09 457.829Z" fill="#007FCD"/>
<rect x="317" y="845" width="272" height="140" fill="#030096"/>
<rect x="443" y="976" width="21" height="17" fill="#1B17DE"/>
<rect x="405" y="993" width="96" height="7" fill="#1B17DE"/>
<rect x="269" y="95" width="390" height="163" fill="url(#paint2_linear)" stroke="#130268" stroke-width="5"/>
<path fill-rule="evenodd" clip-rule="evenodd" d="M592.91 114.279C600.354 113.823 608.95 113.845 615.168 114.967C621.393 116.091 622.269 118.234 624.851 120.045C627.528 121.923 632.639 123.788 630.482 125.707C628.305 127.645 621.454 129.237 613.821 129.862C606.888 130.43 600.113 129.075 592.91 128.787C587.293 128.562 581.768 128.795 576.349 128.361C568.581 127.739 558.125 127.62 554.891 125.744C551.707 123.896 557.741 121.82 562.191 120.145C565.788 118.791 572.206 118.27 577.367 117.284C582.703 116.265 586.395 114.678 592.91 114.279Z" fill="#007FCD"/>
<path fill-rule="evenodd" clip-rule="evenodd" d="M496.549 122.578C508.105 121.713 518.638 117.977 529.485 119.269C539.984 120.52 533.781 124.676 536.952 127.391C539.234 129.346 543.226 131.057 545.53 133.01C548.617 135.626 557.097 138.319 552.818 140.835C548.64 143.292 536.126 144.609 525.203 144.965C515.055 145.295 506.529 143.221 496.549 142.668C489.267 142.265 481.824 142.634 474.614 142.161C465.632 141.573 455.873 141.174 449.352 139.574C442.278 137.837 435.401 135.398 437.329 133.01C439.311 130.555 451.873 129.617 458.883 127.772C464.199 126.372 466.805 124.395 473.64 123.452C480.466 122.511 489.038 123.141 496.549 122.578Z" fill="#007FCD"/>
<rect x="539" y="98" width="5" height="160" fill="#130268"/>
<rect x="384" y="98" width="5" height="160" fill="#130268"/>
<rect x="269" y="178" width="390" height="5" fill="#130268"/>
<path d="M226 278.5V92H268.5V281C268.167 282 266.7 284.2 263.5 285C259.5 286 258 281 257.5 278.5C257 276 254 279.5 251.5 281C249.5 282.2 246.667 279.833 245.5 278.5C244.5 277.167 241.7 275.3 238.5 278.5C235.3 281.7 228.833 279.833 226 278.5Z" fill="#130268"/>
<path d="M659 278.5V92H701.5V281C701.167 282 698.7 277.7 695.5 278.5C691.5 279.5 692.03 276.46 690.5 278.5C687.5 282.5 687.5 283.5 685 285C683 286.2 675.667 282.333 674.5 281C673.5 279.667 670.2 281.8 667 285C663.8 288.2 661.833 279.833 659 278.5Z" fill="#130268"/>
<rect x="219" y="85" width="490" height="10" fill="#440079"/>
<rect x="1137" y="755" width="21" height="8" fill="#118373"/>
<rect x="1306" y="755" width="21" height="8" fill="#118373"/>
<rect x="1114" y="673" width="234" height="83" rx="8" fill="#32AB9A"/>
<path d="M1114 657C1114 652.582 1117.58 649 1122 649H1340C1344.42 649 1348 652.582 1348 657V667C1348 670.314 1345.31 673 1342 673H1120C1116.69 673 1114 670.314 1114 667V657Z" fill="#118373"/>
<ellipse rx="4.45031" ry="27.1881" transform="matrix(0.943619 -0.331034 0.416653 0.909066 1117.53 934.499)" fill="#1B17DE"/>
<ellipse rx="4.49112" ry="26.8826" transform="matrix(0.975416 0.220372 -0.283093 0.959092 1151.01 930.765)" fill="#1B17DE"/>
<ellipse rx="6.54034" ry="30.1066" transform="matrix(0.979456 0.201659 -0.259756 0.965674 1140.9 930.786)" fill="#1B17DE"/>
<ellipse cx="1133.67" cy="916.587" rx="8.63753" ry="30.5871" fill="#1B17DE"/>
<ellipse rx="6.13444" ry="29.3637" transform="matrix(0.981028 -0.193867 0.249984 0.96825 1123.58 923.537)" fill="#1B17DE"/>
<rect x="1106.94" y="947.174" width="52.6478" height="33.8257" fill="#030096"/>
<rect x="1181" y="907" width="150" height="72" rx="3" fill="#1B17DE"/>
<rect x="1174" y="886" width="164" height="21" rx="5" fill="#030096"/>
<rect x="1242" y="928" width="28" height="8" fill="#030096"/>
<circle cx="935.5" cy="166.5" r="45.5" fill="#130268"/>
<line x1="935.592" y1="167.46" x2="914.592" y2="194.46" stroke="#1B17DE" stroke-width="1.5"/>
<line x1="935.75" y1="142" x2="935.75" y2="167" stroke="#1B17DE" stroke-width="1.5"/>
<line x1="935.711" y1="166.76" x2="946.907" y2="199.921" stroke="#BC36F2" stroke-width="1.5"/>
<path fill-rule="evenodd" clip-rule="evenodd" d="M148.344 611.767C181.097 630.904 183.343 680.941 226.286 687.255C269.229 693.57 252.094 765.962 233.593 797.954C215.037 830.04 173.961 842.506 133.899 847.006C97.0991 851.14 58.4305 842.534 25.6273 821.314C-5.57272 801.131 -25.1378 769.943 -36.2961 736.911C-47.4737 703.821 -50.4252 669.179 -35.4959 640.368C-19.9114 610.291 8.29576 586.658 44.477 581.029C79.7339 575.544 115.641 592.659 148.344 611.767Z" fill="#32AB9A"/>
<path d="M68.6443 752.497C68.6443 752.497 111.423 736.843 157.433 717.538C203.443 698.234 141.365 736.42 123.785 744.663C106.205 752.906 68.6443 752.497 68.6443 752.497Z" fill="#118373"/>
<rect x="785" y="979" width="563" height="45" fill="#440079"/>
</g>
<defs>
<linearGradient id="paint0_linear" x1="720" y1="0" x2="720" y2="664" gradientUnits="userSpaceOnUse">
<stop stop-color="#1B17DE"/>
<stop offset="1" stop-color="#BC36F2"/>
</linearGradient>
<linearGradient id="paint1_linear" x1="720" y1="490" x2="720" y2="1029" gradientUnits="userSpaceOnUse">
<stop stop-color="#440079"/>
<stop offset="1" stop-color="#130268"/>
</linearGradient>
<linearGradient id="paint2_linear" x1="464" y1="95" x2="464" y2="258" gradientUnits="userSpaceOnUse">
<stop offset="0.317708" stop-color="#1B17DE"/>
<stop offset="1" stop-color="#1B17DE" stop-opacity="0"/>
</linearGradient>
<clipPath id="clip0">
<rect width="1440" height="1024" fill="white"/>
</clipPath>
</defs>
</svg>
