<svg  viewBox="0 0 1440 1024" fill="none" xmlns="http://www.w3.org/2000/svg">
<g clip-path="url(#clip0)">
<rect width="1440" height="1024" fill="url(#paint0_linear)"/>
<rect x="141" y="442" width="11" height="59" fill="#9B5E15"/>
<path d="M146.5 204L221.411 447.75H71.5888L146.5 204Z" fill="#46773D"/>
<rect x="456" y="442" width="11" height="59" fill="#9B5E15"/>
<path d="M461.5 204L536.411 447.75H386.589L461.5 204Z" fill="#53A247"/>
<rect x="652" y="450" width="11" height="59" fill="#9B5E15"/>
<path d="M657.5 212L732.411 455.75H582.589L657.5 212Z" fill="#46773D"/>
<rect x="996" y="442" width="11" height="59" fill="#9B5E15"/>
<path d="M1001.5 204L1076.41 447.75H926.589L1001.5 204Z" fill="#53A247"/>
<rect x="314.376" y="465.557" width="7.24855" height="43.0246" fill="#9B5E15"/>
<path d="M318 292L367.363 469.75H268.637L318 292Z" fill="#46773D"/>
<rect x="1288.98" y="439.828" width="13.0347" height="65.8985" fill="#9B5E15"/>
<path d="M1295.5 174L1384.27 446.25H1206.73L1295.5 174Z" fill="#46773D"/>
<rect x="1182" y="450" width="11" height="59" fill="#9B5E15"/>
<path d="M1187.5 212L1262.41 455.75H1112.59L1187.5 212Z" fill="#53A247"/>
<rect x="562.335" y="465.557" width="8.32948" height="43.0246" fill="#9B5E15"/>
<path d="M566.5 292L623.225 469.75H509.775L566.5 292Z" fill="#53A247"/>
<rect y="501" width="1440" height="523" fill="url(#paint1_linear)"/>
<rect y="595" width="1440" height="430" fill="url(#paint2_linear)"/>
<line x1="-0.000732422" y1="697.508" x2="1440" y2="697.508" stroke="white"/>
<line x1="-0.000732422" y1="809.508" x2="1440" y2="809.508" stroke="white" stroke-width="3"/>
<line x1="-0.000732422" y1="921.508" x2="1440" y2="921.508" stroke="white" stroke-width="5"/>
<circle cx="347" cy="53" r="70" fill="#F8FC52"/>
<path d="M1395.27 595H1398.2L1406 1025H1390L1395.27 595Z" fill="white"/>
<path fill-rule="evenodd" clip-rule="evenodd" d="M874.035 1.24472C884.129 11.3503 929.741 22.886 913.209 30.7118C897.209 38.2855 846.18 29.9491 812.46 30.3924C788.194 30.7115 766.837 32.6163 742.589 32.955C710.106 33.4087 676.395 38.1987 645.522 32.7242C615.383 27.3796 599.766 16.1368 595.938 6.94956C592.381 -1.58609 618.45 -6.90217 625.802 -14.6036C631.167 -20.2234 626.989 -26.5836 633.206 -32.09C640.951 -38.9495 646.383 -46.5928 666.497 -50.6471C688.319 -55.0458 718.815 -58.7296 748.221 -55.2733C778.452 -51.7202 789.39 -40.7372 811.823 -33.5662C828.838 -28.1268 853.139 -24.4422 864.428 -18.1254C875.703 -11.8166 867.475 -5.32356 874.035 1.24472Z" fill="white"/>
<path fill-rule="evenodd" clip-rule="evenodd" d="M499.152 19.7544C527.603 16.1357 560.546 15.4214 584.559 21.888C608.599 28.3621 612.304 41.7994 622.496 52.971C633.063 64.5532 652.952 75.8158 645.002 88.1411C636.977 100.585 610.982 111.309 581.835 116.015C555.36 120.289 529.174 112.411 501.525 111.305C479.963 110.443 458.83 112.464 437.993 110.265C408.125 107.113 368.034 107.4 355.336 95.8799C342.833 84.5367 365.614 70.837 382.395 59.824C395.956 50.9245 420.465 46.9962 440.082 40.2641C460.362 33.3044 474.25 22.9217 499.152 19.7544Z" fill="white"/>
<path fill-rule="evenodd" clip-rule="evenodd" d="M187.487 -52.5675C217.883 -50.7723 257.611 -63.3445 282.478 -56.9C307.374 -50.4481 326.695 -51.0063 337.39 -38.0759C347.356 -26.0276 353.272 -3.03451 345.026 9.29852C336.701 21.7497 309.765 32.4988 279.57 37.2316C252.142 41.5307 221.719 44.4911 193.08 43.4116C170.746 42.5696 150.946 26.4921 130.579 31.6151C103.529 38.4192 58.1164 28.815 44.9742 17.3065C32.0337 5.97463 13.2205 -61.8164 30.6132 -72.8452C44.6681 -81.7575 112.482 -31.6388 132.808 -38.3893C153.821 -45.368 162.516 -56.3996 187.487 -52.5675Z" fill="white"/>
</g>
<defs>
<linearGradient id="paint0_linear" x1="720" y1="2.30968e-06" x2="720" y2="512" gradientUnits="userSpaceOnUse">
<stop stop-color="#00C2FF"/>
<stop offset="1" stop-color="#DEF7FF"/>
</linearGradient>
<linearGradient id="paint1_linear" x1="720" y1="501" x2="720" y2="587" gradientUnits="userSpaceOnUse">
<stop stop-color="#488E36"/>
<stop offset="1" stop-color="#174F09"/>
</linearGradient>
<linearGradient id="paint2_linear" x1="720" y1="595" x2="720" y2="1025" gradientUnits="userSpaceOnUse">
<stop stop-color="#AF501B"/>
<stop offset="1" stop-color="#55270E"/>
</linearGradient>
<clipPath id="clip0">
<rect width="1440" height="1024" fill="white"/>
</clipPath>
</defs>
</svg>
