<svg preserveAspectRatio="none" viewBox="0 0 1650 1024"  xmlns="http://www.w3.org/2000/svg">
<g clip-path="url(#clip0)">
<rect width="2094" height="1024" fill="url(#paint0_linear)"/>
<rect x="141" y="442" width="11" height="59" fill="#9B5E15"/>
<path d="M146.5 204L221.411 447.75H71.5888L146.5 204Z" fill="#46773D"/>
<rect x="1497" y="442" width="11" height="59" fill="#9B5E15"/>
<path d="M1502.5 204L1577.41 447.75H1427.59L1502.5 204Z" fill="#46773D"/>
<rect x="456" y="442" width="11" height="59" fill="#9B5E15"/>
<path d="M461.5 204L536.411 447.75H386.589L461.5 204Z" fill="#53A247"/>
<rect x="652" y="450" width="11" height="59" fill="#9B5E15"/>
<path d="M657.5 212L732.411 455.75H582.589L657.5 212Z" fill="#46773D"/>
<rect x="996" y="442" width="11" height="59" fill="#9B5E15"/>
<path d="M1001.5 204L1076.41 447.75H926.589L1001.5 204Z" fill="#53A247"/>
<rect x="314.375" y="465.557" width="7.24855" height="43.0246" fill="#9B5E15"/>
<path d="M318 292L367.363 469.75H268.637L318 292Z" fill="#46773D"/>
<rect x="1288.98" y="439.828" width="13.0347" height="65.8985" fill="#9B5E15"/>
<path d="M1295.5 174L1384.27 446.25H1206.73L1295.5 174Z" fill="#46773D"/>
<rect x="1182" y="450" width="11" height="59" fill="#9B5E15"/>
<path d="M1187.5 212L1262.41 455.75H1112.59L1187.5 212Z" fill="#53A247"/>
<rect x="562.335" y="465.557" width="8.32948" height="43.0246" fill="#9B5E15"/>
<path d="M566.5 292L623.225 469.75H509.775L566.5 292Z" fill="#53A247"/>
<rect width="11" height="59" transform="matrix(-1 0 0 1 1929 446)" fill="#9B5E15"/>
<path d="M1923.5 208L1848.59 451.75H1998.41L1923.5 208Z" fill="#53A247"/>
<rect width="11" height="59" transform="matrix(-1 0 0 1 1733 454)" fill="#9B5E15"/>
<path d="M1727.5 216L1652.59 459.75H1802.41L1727.5 216Z" fill="#46773D"/>
<rect width="8.32948" height="43.0246" transform="matrix(-1 0 0 1 1822.66 469.557)" fill="#9B5E15"/>
<path d="M1818.5 296L1761.78 473.75H1875.22L1818.5 296Z" fill="#53A247"/>
<rect y="501" width="2094" height="523" fill="url(#paint1_linear)"/>
<rect y="595" width="2094" height="430" fill="url(#paint2_linear)"/>
<path d="M0 698H2094" stroke="white"/>
<path d="M0 810H2094" stroke="white" stroke-width="3"/>
<path d="M0 922H2094" stroke="white" stroke-width="5"/>
<circle cx="347" cy="53" r="70" fill="#F8FC52"/>
<path d="M1475.27 594H1478.2L1486 1024H1470L1475.27 594Z" fill="white"/>
<path fill-rule="evenodd" clip-rule="evenodd" d="M1848.04 8.24472C1858.13 18.3503 1903.74 29.886 1887.21 37.7118C1871.21 45.2855 1820.18 36.9491 1786.46 37.3924C1762.19 37.7115 1740.84 39.6163 1716.59 39.955C1684.11 40.4087 1650.39 45.1987 1619.52 39.7242C1589.38 34.3796 1573.77 23.1368 1569.94 13.9496C1566.38 5.41391 1592.45 0.0978287 1599.8 -7.60362C1605.17 -13.2234 1600.99 -19.5836 1607.21 -25.09C1614.95 -31.9495 1620.38 -39.5928 1640.5 -43.6471C1662.32 -48.0458 1692.82 -51.7296 1722.22 -48.2733C1752.45 -44.7202 1763.39 -33.7372 1785.82 -26.5662C1802.84 -21.1268 1827.14 -17.4422 1838.43 -11.1254C1849.7 -4.81661 1841.47 1.67644 1848.04 8.24472Z" fill="white"/>
<path fill-rule="evenodd" clip-rule="evenodd" d="M499.152 19.7544C527.603 16.1357 560.546 15.4214 584.559 21.888C608.599 28.3621 612.304 41.7994 622.496 52.971C633.063 64.5532 652.952 75.8158 645.002 88.1411C636.977 100.585 610.982 111.309 581.835 116.015C555.36 120.289 529.174 112.411 501.525 111.305C479.963 110.443 458.83 112.464 437.993 110.265C408.125 107.113 368.034 107.4 355.336 95.8799C342.833 84.5367 365.614 70.837 382.395 59.824C395.956 50.9245 420.465 46.9962 440.082 40.2641C460.362 33.3044 474.25 22.9217 499.152 19.7544Z" fill="white"/>
<path fill-rule="evenodd" clip-rule="evenodd" d="M184.487 -28.5675C214.883 -26.7723 254.611 -39.3445 279.478 -32.9C304.374 -26.4481 323.695 -27.0063 334.39 -14.0759C344.356 -2.02759 350.272 20.9655 342.026 33.2985C333.701 45.7497 306.765 56.4988 276.57 61.2316C249.142 65.5307 218.719 68.4911 190.08 67.4116C167.746 66.5696 147.946 50.4921 127.579 55.6151C100.529 62.4192 55.1164 52.815 41.9742 41.3065C29.0337 29.9746 10.2205 -37.8164 27.6132 -48.8452C41.6681 -57.7575 109.482 -7.63878 129.808 -14.3893C150.821 -21.368 159.516 -32.3996 184.487 -28.5675Z" fill="white"/>
</g>
<defs>
<linearGradient id="paint0_linear" x1="1047" y1="2.30968e-06" x2="1047" y2="512" gradientUnits="userSpaceOnUse">
<stop stop-color="#00C2FF"/>
<stop offset="1" stop-color="#DEF7FF"/>
</linearGradient>
<linearGradient id="paint1_linear" x1="1047" y1="501" x2="1047" y2="587" gradientUnits="userSpaceOnUse">
<stop stop-color="#488E36"/>
<stop offset="1" stop-color="#174F09"/>
</linearGradient>
<linearGradient id="paint2_linear" x1="1047" y1="595" x2="1047" y2="1025" gradientUnits="userSpaceOnUse">
<stop stop-color="#AF501B"/>
<stop offset="1" stop-color="#55270E"/>
</linearGradient>
<clipPath id="clip0">
<rect width="2094" height="1024" fill="white"/>
</clipPath>
</defs>
</svg>
