<svg viewBox="0 0 2512 1933" fill="none" xmlns="http://www.w3.org/2000/svg">
<rect width="2512" height="1933" fill="url(#paint0_linear)"/>
<rect x="141" y="894" width="11" height="59" fill="#9B5E15"/>
<path d="M146.5 656L221.411 899.75H71.5888L146.5 656Z" fill="#46773D"/>
<rect x="1497" y="894" width="11" height="59" fill="#9B5E15"/>
<path d="M1502.5 656L1577.41 899.75H1427.59L1502.5 656Z" fill="#46773D"/>
<rect x="456" y="894" width="11" height="59" fill="#9B5E15"/>
<path d="M461.5 656L536.411 899.75H386.589L461.5 656Z" fill="#53A247"/>
<rect x="652" y="902" width="11" height="59" fill="#9B5E15"/>
<path d="M657.5 664L732.411 907.75H582.589L657.5 664Z" fill="#46773D"/>
<rect x="996" y="894" width="11" height="59" fill="#9B5E15"/>
<path d="M1001.5 656L1076.41 899.75H926.589L1001.5 656Z" fill="#53A247"/>
<rect x="314.375" y="917.557" width="7.24855" height="43.0246" fill="#9B5E15"/>
<path d="M318 744L367.363 921.75H268.637L318 744Z" fill="#46773D"/>
<rect x="1288.98" y="891.828" width="13.0347" height="65.8985" fill="#9B5E15"/>
<path d="M1295.5 626L1384.27 898.25H1206.73L1295.5 626Z" fill="#46773D"/>
<rect x="1182" y="902" width="11" height="59" fill="#9B5E15"/>
<path d="M1187.5 664L1262.41 907.75H1112.59L1187.5 664Z" fill="#53A247"/>
<rect x="2396" y="905" width="11" height="59" fill="#9B5E15"/>
<path d="M2401.5 667L2476.41 910.75H2326.59L2401.5 667Z" fill="#46773D"/>
<rect x="1895" y="905" width="11" height="59" fill="#9B5E15"/>
<path d="M1900.5 667L1975.41 910.75H1825.59L1900.5 667Z" fill="#53A247"/>
<rect x="2187.98" y="902.828" width="13.0347" height="65.8985" fill="#9B5E15"/>
<path d="M2194.5 637L2283.27 909.25H2105.73L2194.5 637Z" fill="#46773D"/>
<rect x="2081" y="913" width="11" height="59" fill="#9B5E15"/>
<path d="M2086.5 675L2161.41 918.75H2011.59L2086.5 675Z" fill="#53A247"/>
<rect x="562.335" y="917.557" width="8.32948" height="43.0246" fill="#9B5E15"/>
<path d="M566.5 744L623.225 921.75H509.775L566.5 744Z" fill="#53A247"/>
<rect width="11" height="59" transform="matrix(-1 0 0 1 1733 906)" fill="#9B5E15"/>
<path d="M1727.5 668L1652.59 911.75H1802.41L1727.5 668Z" fill="#46773D"/>
<rect width="8.32948" height="43.0246" transform="matrix(-1 0 0 1 1822.66 921.557)" fill="#9B5E15"/>
<path d="M1818.5 748L1761.78 925.75H1875.22L1818.5 748Z" fill="#53A247"/>
<rect y="953" width="2512" height="523" fill="url(#paint1_linear)"/>
<rect y="1047" width="2512" height="818" fill="url(#paint2_linear)"/>
<path d="M0 1150H2512" stroke="white"/>
<path d="M0 1262H2512" stroke="white" stroke-width="3"/>
<path d="M0 1374H2512" stroke="white" stroke-width="5"/>
<circle cx="347" cy="505" r="70" fill="#F8FC52"/>
<path d="M1774.27 1047H1777.2L1785 1529H1769L1774.27 1047Z" fill="white"/>
<path fill-rule="evenodd" clip-rule="evenodd" d="M2349.03 455.245C2359.13 465.35 2404.74 476.886 2388.21 484.712C2372.21 492.285 2321.18 483.949 2287.46 484.392C2263.19 484.711 2241.84 486.616 2217.59 486.955C2185.11 487.409 2151.39 492.199 2120.52 486.724C2090.38 481.38 2074.77 470.137 2070.94 460.95C2067.38 452.414 2093.45 447.098 2100.8 439.396C2106.17 433.777 2101.99 427.416 2108.21 421.91C2115.95 415.05 2121.38 407.407 2141.5 403.353C2163.32 398.954 2193.81 395.27 2223.22 398.727C2253.45 402.28 2264.39 413.263 2286.82 420.434C2303.84 425.873 2328.14 429.558 2339.43 435.875C2350.7 442.183 2342.47 448.676 2349.03 455.245Z" fill="white"/>
<path fill-rule="evenodd" clip-rule="evenodd" d="M499.152 471.754C527.603 468.136 560.546 467.421 584.559 473.888C608.599 480.362 612.304 493.799 622.496 504.971C633.063 516.553 652.952 527.816 645.002 540.141C636.977 552.585 610.982 563.309 581.835 568.015C555.36 572.289 529.174 564.411 501.525 563.305C479.963 562.443 458.83 564.464 437.993 562.265C408.125 559.113 368.034 559.4 355.336 547.88C342.833 536.537 365.614 522.837 382.395 511.824C395.956 502.925 420.465 498.996 440.082 492.264C460.362 485.304 474.25 474.922 499.152 471.754Z" fill="white"/>
<path fill-rule="evenodd" clip-rule="evenodd" d="M184.487 423.432C214.883 425.228 254.611 412.655 279.478 419.1C304.374 425.552 323.695 424.994 334.39 437.924C344.356 449.972 350.272 472.965 342.026 485.298C333.701 497.75 306.765 508.499 276.57 513.231C249.142 517.531 218.718 520.491 190.08 519.411C167.746 518.57 147.946 502.492 127.579 507.615C100.529 514.419 55.1164 504.815 41.9742 493.306C29.0337 481.975 35.6073 448.953 53 437.924C67.055 429.012 109.482 444.361 129.808 437.611C150.821 430.632 159.516 419.6 184.487 423.432Z" fill="white"/>
<rect y="1528" width="2512" height="405" fill="url(#paint3_linear)"/>
<defs>
<linearGradient id="paint0_linear" x1="1256" y1="4.35998e-06" x2="1256" y2="966.5" gradientUnits="userSpaceOnUse">
<stop stop-color="#00C2FF"/>
<stop offset="1" stop-color="#DEF7FF"/>
</linearGradient>
<linearGradient id="paint1_linear" x1="1256" y1="953" x2="1256" y2="1039" gradientUnits="userSpaceOnUse">
<stop stop-color="#488E36"/>
<stop offset="1" stop-color="#174F09"/>
</linearGradient>
<linearGradient id="paint2_linear" x1="1256" y1="1047" x2="1256" y2="1865" gradientUnits="userSpaceOnUse">
<stop stop-color="#AF501B"/>
<stop offset="1" stop-color="#55270E"/>
</linearGradient>
<linearGradient id="paint3_linear" x1="1256" y1="1528" x2="1256" y2="1847.58" gradientUnits="userSpaceOnUse">
<stop stop-color="#226911"/>
<stop offset="1" stop-color="#17400C"/>
</linearGradient>
</defs>
</svg>
