<svg xmlns="http://www.w3.org/2000/svg" fill="none" viewBox="0 0 1440 1024">
  <g clip-path="url(#clip0)">
    <path fill="url(#paint0_linear)" d="M0 0h1440v1024H0z"/>
    <path fill="#9B5E15" d="M141 442h11v59h-11z"/>
    <path fill="#46773D" d="M146.5 204l74.911 243.75H71.589L146.5 204z"/>
    <path fill="#9B5E15" d="M456 442h11v59h-11z"/>
    <path fill="#53A247" d="M461.5 204l74.911 243.75H386.589L461.5 204z"/>
    <path fill="#9B5E15" d="M652 450h11v59h-11z"/>
    <path fill="#46773D" d="M657.5 212l74.911 243.75H582.589L657.5 212z"/>
    <path fill="#9B5E15" d="M996 442h11v59h-11z"/>
    <path fill="#53A247" d="M1001.5 204l74.91 243.75H926.589L1001.5 204z"/>
    <path fill="#9B5E15" d="M314.376 465.557h7.249v43.025h-7.249z"/>
    <path fill="#46773D" d="M318 292l49.363 177.75h-98.726L318 292z"/>
    <path fill="#9B5E15" d="M1288.98 439.828h13.035v65.898h-13.035z"/>
    <path fill="#46773D" d="M1295.5 174l88.77 272.25h-177.54L1295.5 174z"/>
    <path fill="#9B5E15" d="M1182 450h11v59h-11z"/>
    <path fill="#53A247" d="M1187.5 212l74.91 243.75h-149.82L1187.5 212z"/>
    <path fill="#9B5E15" d="M562.335 465.557h8.329v43.025h-8.329z"/>
    <path fill="#53A247" d="M566.5 292l56.725 177.75h-113.45L566.5 292z"/>
    <path fill="url(#paint1_linear)" d="M0 501h1440v523H0z"/>
    <path fill="url(#paint2_linear)" d="M0 595h1440v430H0z"/>
    <path stroke="#fff" d="M-.001 697.508H1440"/>
    <path stroke="#fff" stroke-width="3" d="M-.001 809.508H1440"/>
    <path stroke="#fff" stroke-width="5" d="M-.001 921.508H1440"/>
    <circle cx="347" cy="53" r="70" fill="#F8FC52"/>
    <path fill="#fff" d="M1395.27 595h2.93l7.8 430h-16l5.27-430z"/>
    <path fill="#fff" fill-rule="evenodd" d="M874.035 1.245c10.094 10.105 55.706 21.641 39.174 29.467-16 7.573-67.029-.763-100.749-.32-24.266.32-45.623 2.224-69.871 2.563-32.483.454-66.194 5.244-97.067-.23-30.139-5.345-45.756-16.588-49.584-25.775-3.557-8.536 22.512-13.852 29.864-21.554 5.365-5.62 1.187-11.98 7.404-17.486 7.745-6.86 13.177-14.503 33.291-18.557 21.822-4.399 52.318-8.083 81.724-4.626 30.231 3.553 41.169 14.536 63.602 21.707 17.015 5.44 41.316 9.124 52.605 15.44 11.275 6.31 3.047 12.802 9.607 19.37z" clip-rule="evenodd"/>
    <path fill="#fff" fill-rule="evenodd" d="M499.152 19.754c28.451-3.618 61.394-4.333 85.407 2.134 24.04 6.474 27.745 19.911 37.937 31.083 10.567 11.582 30.456 22.845 22.506 35.17-8.025 12.444-34.02 23.168-63.167 27.874-26.475 4.274-52.661-3.604-80.31-4.71-21.562-.862-42.695 1.159-63.532-1.04-29.868-3.152-69.959-2.865-82.657-14.385-12.503-11.343 10.278-25.043 27.059-36.056 13.561-8.9 38.07-12.828 57.687-19.56 20.28-6.96 34.168-17.342 59.07-20.51z" clip-rule="evenodd"/>
    <path fill="#fff" fill-rule="evenodd" d="M187.487-52.568c30.396 1.796 70.124-10.776 94.991-4.332 24.896 6.452 44.217 5.894 54.912 18.824 9.966 12.048 15.882 35.041 7.636 47.375-8.325 12.45-35.261 23.2-65.456 27.933-27.428 4.299-57.851 7.26-86.49 6.18-22.334-.842-42.134-16.92-62.501-11.797-27.05 6.804-72.463-2.8-85.605-14.308-12.94-11.332-31.753-79.123-14.36-90.152 14.054-8.912 81.868 41.206 102.194 34.456 21.013-6.979 29.708-18.01 54.679-14.178z" clip-rule="evenodd"/>
    <g class="pinkrun" clip-path="url(#clip1)">
      <path fill="#EA80FC" fill-rule="evenodd" d="M519.257 569.785c13.298 13.307 12.988 35.185-.693 48.866a360.134 360.134 0 00-24.81 27.511 331.303 331.303 0 00-24.04-26.833c-13.299-13.307-12.988-35.186.693-48.867 13.681-13.681 35.552-13.984 48.85-.677z" clip-rule="evenodd"/>
      <path fill="#D500F9" fill-rule="evenodd" d="M512.944 624.872v12.788c0 7.062-8.263 12.787-18.456 12.787-10.194 0-18.457-5.725-18.457-12.787v-12.788h36.913z" clip-rule="evenodd"/>
      <path fill="#000" fill-rule="evenodd" d="M485.555 589.263a4.728 4.728 0 119.456.002 4.728 4.728 0 01-9.456-.002z" clip-rule="evenodd"/>
      <path fill="#fff" fill-rule="evenodd" d="M490.742 587.66a1.319 1.319 0 112.638 0 1.319 1.319 0 01-2.638 0z" clip-rule="evenodd"/>
      <path fill="#000" fill-rule="evenodd" d="M512.948 589.263a4.727 4.727 0 119.454 0 4.727 4.727 0 01-9.454 0z" clip-rule="evenodd"/>
      <path fill="#fff" fill-rule="evenodd" d="M518.135 587.66a1.318 1.318 0 112.637-.001 1.318 1.318 0 01-2.637.001z" clip-rule="evenodd"/>
      <path stroke="#000" stroke-linejoin="round" stroke-miterlimit="10" stroke-width="2" d="M513.228 595.597c-2.164 2.163-5.155 3.322-8.315 3.222-3.16-.1-6.23-1.452-8.536-3.757"/>
      <path fill="#EA80FC" fill-rule="evenodd" d="M451.873 622.499c1.456.107 2.481 2.756 2.289 5.918-.192 3.161-1.528 5.638-2.985 5.532-1.456-.107-2.481-2.756-2.289-5.917.192-3.162 1.528-5.639 2.985-5.533z" clip-rule="evenodd"/>
      <path fill="#EA80FC" fill-rule="evenodd" d="M452.227 625.203c.545-.528 1.897.01 3.019 1.203 1.122 1.192 1.59 2.587 1.045 3.115-.545.528-1.896-.01-3.018-1.203-1.123-1.192-1.59-2.587-1.046-3.115z" clip-rule="evenodd"/>
      <path stroke="#EA80FC" stroke-linejoin="round" stroke-miterlimit="10" stroke-width="4" d="M451.5 626.5c-1.397-5.528 1.5-18.748 6.649-22.672 0 0 4.262-2.96 6.209-4.828"/>
      <path fill="#EA80FC" fill-rule="evenodd" d="M526.828 632.207c-1.269-.722-1.056-3.554.476-6.326s3.803-4.434 5.072-3.712c1.269.721 1.056 3.554-.476 6.326s-3.802 4.434-5.072 3.712z" clip-rule="evenodd"/>
      <path fill="#EA80FC" fill-rule="evenodd" d="M524.855 626.777c-.482-.586.164-1.889 1.444-2.911 1.279-1.021 2.708-1.374 3.19-.788.482.586-.165 1.889-1.445 2.911-1.279 1.021-2.707 1.374-3.189.788z" clip-rule="evenodd"/>
      <path stroke="#EA80FC" stroke-linejoin="round" stroke-miterlimit="10" stroke-width="4" d="M531.5 625c-2 3 1.5-6.315 1.5-12.5 0-2.5-3.301-9.518-6-9.5"/>
      <path stroke="#D500F9" stroke-linecap="round" stroke-linejoin="round" stroke-width="4" d="M485.521 644l4.275 13.01-4.275 9.379 5.846 4.132"/>
      <path stroke="#D500F9" stroke-linecap="round" stroke-linejoin="round" stroke-width="4" d="M504.888 647.343l11.44 2.894-.08 15.692 8.163-1.169"/>
      <path fill="#EA80FC" fill-rule="evenodd" d="M399.256 569.785c13.299 13.307 12.988 35.185-.693 48.866a360.134 360.134 0 00-24.81 27.511 331.303 331.303 0 00-24.04-26.833c-13.298-13.307-12.988-35.186.693-48.867 13.681-13.681 35.552-13.984 48.85-.677z" clip-rule="evenodd"/>
      <path fill="#D500F9" fill-rule="evenodd" d="M392.944 624.872v12.788c0 7.062-8.264 12.787-18.457 12.787-10.193 0-18.457-5.725-18.457-12.787v-12.788h36.914z" clip-rule="evenodd"/>
      <path fill="#000" fill-rule="evenodd" d="M365.554 589.263a4.728 4.728 0 119.456.002 4.728 4.728 0 01-9.456-.002z" clip-rule="evenodd"/>
      <path fill="#fff" fill-rule="evenodd" d="M370.741 587.66a1.319 1.319 0 112.638 0 1.319 1.319 0 01-2.638 0z" clip-rule="evenodd"/>
      <path fill="#000" fill-rule="evenodd" d="M392.947 589.263a4.728 4.728 0 119.456.002 4.728 4.728 0 01-9.456-.002z" clip-rule="evenodd"/>
      <path fill="#fff" fill-rule="evenodd" d="M398.134 587.66a1.318 1.318 0 112.637-.001 1.318 1.318 0 01-2.637.001z" clip-rule="evenodd"/>
      <path stroke="#000" stroke-linejoin="round" stroke-miterlimit="10" stroke-width="2" d="M393.227 595.597c-2.164 2.163-5.154 3.322-8.314 3.222-3.161-.1-6.231-1.452-8.537-3.757"/>
      <path stroke="#D500F9" stroke-linecap="round" stroke-linejoin="round" stroke-width="4" d="M365.211 643.753l-5.001 12-15.5-5-2 7"/>
      <path stroke="#D500F9" stroke-linecap="round" stroke-linejoin="round" stroke-width="4" d="M381.71 643.753l9.5 7-6 14.5 8 2"/>
      <path fill="#EA80FC" fill-rule="evenodd" d="M412.828 625.96c-1.269-.722-1.056-3.554.476-6.327 1.532-2.772 3.803-4.434 5.072-3.712 1.269.722 1.056 3.554-.476 6.326s-3.802 4.434-5.072 3.713z" clip-rule="evenodd"/>
      <path fill="#EA80FC" fill-rule="evenodd" d="M410.855 622.529c-.482-.586.164-1.889 1.444-2.91 1.279-1.021 2.708-1.374 3.19-.788.482.586-.165 1.889-1.445 2.91-1.279 1.021-2.707 1.374-3.189.788z" clip-rule="evenodd"/>
      <path stroke="#EA80FC" stroke-linejoin="round" stroke-miterlimit="10" stroke-width="4" d="M417 619.252c-2 3 4.5-7-2-14-1.5-1.615-6.316-3.956-9.015-3.938"/>
      <path fill="#EA80FC" fill-rule="evenodd" d="M325.873 619.252c1.456.106 2.481 2.755 2.289 5.917-.192 3.162-1.528 5.639-2.985 5.532-1.456-.106-2.481-2.755-2.289-5.917.192-3.162 1.528-5.638 2.985-5.532z" clip-rule="evenodd"/>
      <path fill="#EA80FC" fill-rule="evenodd" d="M326.227 621.955c.545-.528 1.897.011 3.019 1.203 1.122 1.192 1.59 2.587 1.045 3.115-.545.529-1.896-.01-3.018-1.202-1.123-1.193-1.59-2.587-1.046-3.116z" clip-rule="evenodd"/>
      <path stroke="#EA80FC" stroke-linejoin="round" stroke-miterlimit="10" stroke-width="4" d="M326 621.752c-1.397-5.527 5-14 10.149-17.924 0 0 4.262-2.96 6.209-4.828"/>
      <path fill="#EA80FC" fill-rule="evenodd" d="M759.257 569.785c13.299 13.307 12.988 35.185-.693 48.866a360.134 360.134 0 00-24.81 27.511 331.303 331.303 0 00-24.04-26.833c-13.298-13.307-12.988-35.186.693-48.867 13.681-13.681 35.552-13.984 48.85-.677z" clip-rule="evenodd"/>
      <path fill="#D500F9" fill-rule="evenodd" d="M752.945 624.872v12.788c0 7.062-8.264 12.787-18.457 12.787-10.193 0-18.457-5.725-18.457-12.787v-12.788h36.914z" clip-rule="evenodd"/>
      <path fill="#000" fill-rule="evenodd" d="M725.556 589.263a4.727 4.727 0 119.454 0 4.727 4.727 0 01-9.454 0z" clip-rule="evenodd"/>
      <path fill="#fff" fill-rule="evenodd" d="M730.742 587.66a1.32 1.32 0 112.638 0 1.32 1.32 0 01-2.638 0z" clip-rule="evenodd"/>
      <path fill="#000" fill-rule="evenodd" d="M752.948 589.263a4.728 4.728 0 119.456.002 4.728 4.728 0 01-9.456-.002z" clip-rule="evenodd"/>
      <path fill="#fff" fill-rule="evenodd" d="M758.135 587.66a1.319 1.319 0 112.638 0 1.319 1.319 0 01-2.638 0z" clip-rule="evenodd"/>
      <path stroke="#000" stroke-linejoin="round" stroke-miterlimit="10" stroke-width="2" d="M753.228 595.597c-2.163 2.163-5.154 3.322-8.314 3.222-3.16-.1-6.231-1.452-8.536-3.757"/>
      <path fill="#EA80FC" fill-rule="evenodd" d="M691.873 622.499c1.456.107 2.481 2.756 2.289 5.918-.192 3.161-1.528 5.638-2.985 5.532-1.456-.107-2.481-2.756-2.289-5.917.192-3.162 1.528-5.639 2.985-5.533z" clip-rule="evenodd"/>
      <path fill="#EA80FC" fill-rule="evenodd" d="M692.227 625.203c.545-.528 1.897.01 3.019 1.203 1.122 1.192 1.59 2.587 1.045 3.115-.545.528-1.896-.01-3.018-1.203-1.123-1.192-1.59-2.587-1.046-3.115z" clip-rule="evenodd"/>
      <path stroke="#EA80FC" stroke-linejoin="round" stroke-miterlimit="10" stroke-width="4" d="M691.5 626.5c-1.397-5.528 1.5-18.748 6.649-22.672 0 0 4.262-2.96 6.209-4.828"/>
      <path fill="#EA80FC" fill-rule="evenodd" d="M766.828 632.207c-1.269-.722-1.056-3.554.476-6.326s3.803-4.434 5.072-3.712c1.269.721 1.056 3.554-.476 6.326s-3.802 4.434-5.072 3.712z" clip-rule="evenodd"/>
      <path fill="#EA80FC" fill-rule="evenodd" d="M764.855 626.777c-.482-.586.164-1.889 1.444-2.911 1.279-1.021 2.708-1.374 3.19-.788.482.586-.165 1.889-1.445 2.911-1.279 1.021-2.707 1.374-3.189.788z" clip-rule="evenodd"/>
      <path stroke="#EA80FC" stroke-linejoin="round" stroke-miterlimit="10" stroke-width="4" d="M771.5 625c-2 3 1.5-6.315 1.5-12.5 0-2.5-3.301-9.518-6-9.5"/>
      <path stroke="#D500F9" stroke-linecap="round" stroke-linejoin="round" stroke-width="4" d="M725.521 644l4.275 13.01-4.275 9.379 5.846 4.132"/>
      <path stroke="#D500F9" stroke-linecap="round" stroke-linejoin="round" stroke-width="4" d="M744.888 647.343l11.44 2.894-.08 15.692 8.163-1.169"/>
      <path fill="#EA80FC" fill-rule="evenodd" d="M639.257 569.785c13.298 13.307 12.988 35.185-.693 48.866a360.146 360.146 0 00-24.811 27.511 331.115 331.115 0 00-24.04-26.833c-13.298-13.307-12.988-35.186.693-48.867 13.681-13.681 35.552-13.984 48.851-.677z" clip-rule="evenodd"/>
      <path fill="#D500F9" fill-rule="evenodd" d="M632.944 624.872v12.788c0 7.062-8.263 12.787-18.457 12.787-10.193 0-18.456-5.725-18.456-12.787v-12.788h36.913z" clip-rule="evenodd"/>
      <path fill="#000" fill-rule="evenodd" d="M605.555 589.263a4.727 4.727 0 119.454 0 4.727 4.727 0 01-9.454 0z" clip-rule="evenodd"/>
      <path fill="#fff" fill-rule="evenodd" d="M610.741 587.66a1.32 1.32 0 112.638 0 1.32 1.32 0 01-2.638 0z" clip-rule="evenodd"/>
      <path fill="#000" fill-rule="evenodd" d="M632.948 589.263a4.727 4.727 0 119.454 0 4.727 4.727 0 01-9.454 0z" clip-rule="evenodd"/>
      <path fill="#fff" fill-rule="evenodd" d="M638.134 587.66a1.32 1.32 0 112.638 0 1.32 1.32 0 01-2.638 0z" clip-rule="evenodd"/>
      <path stroke="#000" stroke-linejoin="round" stroke-miterlimit="10" stroke-width="2" d="M633.227 595.597c-2.163 2.163-5.154 3.322-8.314 3.222-3.16-.1-6.231-1.452-8.536-3.757"/>
      <path stroke="#D500F9" stroke-linecap="round" stroke-linejoin="round" stroke-width="4" d="M605.211 643.753l-5 12-15.5-5-2 7"/>
      <path stroke="#D500F9" stroke-linecap="round" stroke-linejoin="round" stroke-width="4" d="M621.711 643.753l9.5 7-6 14.5 8 2"/>
      <path fill="#EA80FC" fill-rule="evenodd" d="M640.828 634.96c-1.269-.722-1.056-3.554.476-6.327 1.532-2.772 3.803-4.434 5.072-3.712 1.269.722 1.056 3.554-.476 6.326s-3.802 4.434-5.072 3.713z" clip-rule="evenodd"/>
      <path fill="#EA80FC" fill-rule="evenodd" d="M639.786 628.284c-.444-.615.283-1.875 1.624-2.814 1.341-.939 2.788-1.202 3.233-.587.444.615-.283 1.875-1.624 2.814-1.341.939-2.788 1.202-3.233.587z" clip-rule="evenodd"/>
      <path stroke="#EA80FC" stroke-linejoin="round" stroke-miterlimit="10" stroke-width="4" d="M644.5 629.252c2.5-3 11.51-16.5 7.5-20.5 0 0-3.316-5.456-6.015-5.438"/>
      <path fill="#EA80FC" fill-rule="evenodd" d="M578.137 621.246c1.418-.348 3.211 1.855 4.005 4.921.794 3.067.288 5.835-1.13 6.184-1.418.348-3.211-1.855-4.005-4.921-.794-3.067-.288-5.835 1.13-6.184z" clip-rule="evenodd"/>
      <path fill="#EA80FC" fill-rule="evenodd" d="M580.582 624.117c.545-.528 1.896.01 3.018 1.203 1.122 1.192 1.59 2.587 1.045 3.115-.545.528-1.896-.01-3.018-1.203-1.122-1.192-1.59-2.587-1.045-3.115z" clip-rule="evenodd"/>
      <path stroke="#EA80FC" stroke-linejoin="round" stroke-miterlimit="10" stroke-width="4" d="M578.774 623.103c-1.397-5.528-5.854-12.655-2.625-17.275 1.63-2.332 4.262-2.96 6.209-4.828"/>
      <path fill="#EA80FC" fill-rule="evenodd" d="M279.256 569.785c13.299 13.307 12.988 35.185-.693 48.866a360.134 360.134 0 00-24.81 27.511 331.303 331.303 0 00-24.04-26.833c-13.298-13.307-12.988-35.186.693-48.867 13.681-13.681 35.552-13.984 48.85-.677z" clip-rule="evenodd"/>
      <path fill="#D500F9" fill-rule="evenodd" d="M272.944 624.872v12.788c0 7.062-8.264 12.787-18.457 12.787-10.193 0-18.457-5.725-18.457-12.787v-12.788h36.914z" clip-rule="evenodd"/>
      <path fill="#000" fill-rule="evenodd" d="M245.554 589.263a4.728 4.728 0 119.456.002 4.728 4.728 0 01-9.456-.002z" clip-rule="evenodd"/>
      <path fill="#fff" fill-rule="evenodd" d="M250.741 587.66a1.319 1.319 0 112.638 0 1.319 1.319 0 01-2.638 0z" clip-rule="evenodd"/>
      <path fill="#000" fill-rule="evenodd" d="M272.947 589.263a4.728 4.728 0 119.456.002 4.728 4.728 0 01-9.456-.002z" clip-rule="evenodd"/>
      <path fill="#fff" fill-rule="evenodd" d="M278.134 587.66a1.318 1.318 0 112.637-.001 1.318 1.318 0 01-2.637.001z" clip-rule="evenodd"/>
      <path stroke="#000" stroke-linejoin="round" stroke-miterlimit="10" stroke-width="2" d="M273.227 595.597c-2.164 2.163-5.154 3.322-8.314 3.222-3.161-.1-6.231-1.452-8.537-3.757"/>
      <path fill="#EA80FC" fill-rule="evenodd" d="M211.873 622.499c1.456.107 2.481 2.756 2.289 5.918-.192 3.161-1.528 5.638-2.985 5.532-1.456-.107-2.481-2.756-2.289-5.917.192-3.162 1.528-5.639 2.985-5.533z" clip-rule="evenodd"/>
      <path fill="#EA80FC" fill-rule="evenodd" d="M212.227 625.203c.545-.528 1.897.01 3.019 1.203 1.122 1.192 1.59 2.587 1.045 3.115-.545.528-1.896-.01-3.018-1.203-1.123-1.192-1.59-2.587-1.046-3.115z" clip-rule="evenodd"/>
      <path stroke="#EA80FC" stroke-linejoin="round" stroke-miterlimit="10" stroke-width="4" d="M211.5 626.5c-1.397-5.528 1.5-18.748 6.649-22.672 0 0 4.262-2.96 6.209-4.828"/>
      <path fill="#EA80FC" fill-rule="evenodd" d="M286.828 632.207c-1.269-.722-1.056-3.554.476-6.326s3.803-4.434 5.072-3.712c1.269.721 1.056 3.554-.476 6.326s-3.802 4.434-5.072 3.712z" clip-rule="evenodd"/>
      <path fill="#EA80FC" fill-rule="evenodd" d="M284.855 626.777c-.482-.586.164-1.889 1.444-2.911 1.279-1.021 2.708-1.374 3.19-.788.482.586-.165 1.889-1.445 2.911-1.279 1.021-2.707 1.374-3.189.788z" clip-rule="evenodd"/>
      <path stroke="#EA80FC" stroke-linejoin="round" stroke-miterlimit="10" stroke-width="4" d="M291.5 625c-2 3 1.5-6.315 1.5-12.5 0-2.5-3.301-9.518-6-9.5"/>
      <path stroke="#D500F9" stroke-linecap="round" stroke-linejoin="round" stroke-width="4" d="M243.521 644l4.275 13.01-4.275 9.379 5.846 4.132"/>
      <path stroke="#D500F9" stroke-linecap="round" stroke-linejoin="round" stroke-width="4" d="M262.888 647.343l11.44 2.894-.08 15.692 8.163-1.169"/>
      <path fill="#EA80FC" fill-rule="evenodd" d="M159.257 569.785c13.298 13.307 12.988 35.185-.693 48.866a360.146 360.146 0 00-24.811 27.511 331.115 331.115 0 00-24.04-26.833c-13.298-13.307-12.988-35.186.693-48.867 13.681-13.681 35.552-13.984 48.851-.677z" clip-rule="evenodd"/>
      <path fill="#D500F9" fill-rule="evenodd" d="M152.944 624.872v12.788c0 7.062-8.263 12.787-18.457 12.787-10.193 0-18.456-5.725-18.456-12.787v-12.788h36.913z" clip-rule="evenodd"/>
      <path fill="#EA80FC" fill-rule="evenodd" d="M160.828 633.207c-1.269-.722-1.056-3.554.476-6.326s3.803-4.434 5.072-3.712c1.269.721 1.056 3.554-.476 6.326s-3.802 4.434-5.072 3.712z" clip-rule="evenodd"/>
      <path fill="#EA80FC" fill-rule="evenodd" d="M159.786 626.531c-.444-.615.283-1.875 1.624-2.814 1.341-.939 2.788-1.201 3.233-.586.444.615-.283 1.874-1.624 2.814-1.341.939-2.788 1.201-3.233.586z" clip-rule="evenodd"/>
      <path stroke="#EA80FC" stroke-linejoin="round" stroke-miterlimit="10" stroke-width="4" d="M164.5 627.5c2.5-3 11.51-16.5 7.5-20.5 0 0-3.316-5.456-6.015-5.438"/>
      <path fill="#EA80FC" fill-rule="evenodd" d="M98.137 619.494c1.418-.349 3.211 1.854 4.005 4.921.794 3.066.288 5.835-1.13 6.183-1.418.349-3.21-1.854-4.005-4.921-.794-3.066-.288-5.835 1.13-6.183z" clip-rule="evenodd"/>
      <path fill="#EA80FC" fill-rule="evenodd" d="M100.582 622.365c.545-.529 1.896.01 3.018 1.202 1.122 1.193 1.59 2.587 1.045 3.116-.545.528-1.896-.011-3.018-1.203-1.122-1.192-1.59-2.587-1.045-3.115z" clip-rule="evenodd"/>
      <path stroke="#EA80FC" stroke-linejoin="round" stroke-miterlimit="10" stroke-width="4" d="M98.774 621.351c-1.397-5.528-5.854-12.656-2.625-17.275 1.63-2.332 4.262-2.96 6.209-4.828"/>
      <path fill="#000" fill-rule="evenodd" d="M125.555 589.263a4.727 4.727 0 119.454 0 4.727 4.727 0 01-9.454 0z" clip-rule="evenodd"/>
      <path fill="#fff" fill-rule="evenodd" d="M130.742 587.66a1.318 1.318 0 112.637-.001 1.318 1.318 0 01-2.637.001z" clip-rule="evenodd"/>
      <path fill="#000" fill-rule="evenodd" d="M152.948 589.263a4.727 4.727 0 119.454 0 4.727 4.727 0 01-9.454 0z" clip-rule="evenodd"/>
      <path fill="#fff" fill-rule="evenodd" d="M158.134 587.66a1.32 1.32 0 112.638 0 1.32 1.32 0 01-2.638 0z" clip-rule="evenodd"/>
      <path stroke="#000" stroke-linejoin="round" stroke-miterlimit="10" stroke-width="2" d="M153.227 595.597c-2.163 2.163-5.154 3.322-8.314 3.222-3.16-.1-6.231-1.452-8.536-3.757"/>
      <path stroke="#D500F9" stroke-linecap="round" stroke-linejoin="round" stroke-width="4" d="M125.211 643.753l-5 12-15.5-5-2 7"/>
      <path stroke="#D500F9" stroke-linecap="round" stroke-linejoin="round" stroke-width="4" d="M141.711 643.753l9.5 7-6 14.5 8 2"/>
      <path fill="#EA80FC" fill-rule="evenodd" d="M39.257 569.785c13.298 13.307 12.988 35.185-.693 48.866a360.182 360.182 0 00-24.81 27.511 331.2 331.2 0 00-24.04-26.833c-13.3-13.307-12.989-35.186.692-48.867 13.681-13.681 35.552-13.984 48.85-.677z" clip-rule="evenodd"/>
      <path fill="#D500F9" fill-rule="evenodd" d="M32.944 624.872v12.788c0 7.062-8.263 12.787-18.457 12.787-10.193 0-18.456-5.725-18.456-12.787v-12.788h36.913z" clip-rule="evenodd"/>
      <path fill="#000" fill-rule="evenodd" d="M5.555 589.263a4.728 4.728 0 119.455.001 4.728 4.728 0 01-9.455-.001z" clip-rule="evenodd"/>
      <path fill="#fff" fill-rule="evenodd" d="M10.742 587.66a1.319 1.319 0 112.637 0 1.319 1.319 0 01-2.637 0z" clip-rule="evenodd"/>
      <path fill="#000" fill-rule="evenodd" d="M32.948 589.263a4.727 4.727 0 119.455.001 4.727 4.727 0 01-9.455-.001z" clip-rule="evenodd"/>
      <path fill="#fff" fill-rule="evenodd" d="M38.134 587.66a1.319 1.319 0 112.638 0 1.319 1.319 0 01-2.638 0z" clip-rule="evenodd"/>
      <path stroke="#000" stroke-linejoin="round" stroke-miterlimit="10" stroke-width="2" d="M33.227 595.597c-2.163 2.163-5.154 3.322-8.314 3.222-3.16-.1-6.23-1.452-8.536-3.757"/>
      <path stroke="#D500F9" stroke-linecap="round" stroke-linejoin="round" stroke-width="4" d="M4.989 644l4.276 13.01-4.276 9.379 5.847 4.132"/>
      <path stroke="#D500F9" stroke-linecap="round" stroke-linejoin="round" stroke-width="4" d="M24 647.343l11.44 2.894-.08 15.692 8.163-1.169"/>
      <path fill="#EA80FC" fill-rule="evenodd" d="M45.828 632.207c-1.269-.722-1.056-3.554.476-6.326s3.803-4.434 5.072-3.712c1.269.721 1.056 3.554-.476 6.326s-3.802 4.434-5.072 3.712z" clip-rule="evenodd"/>
      <path fill="#EA80FC" fill-rule="evenodd" d="M43.855 626.777c-.482-.586.164-1.889 1.444-2.911 1.28-1.021 2.708-1.374 3.19-.788.482.586-.165 1.889-1.444 2.911-1.28 1.021-2.708 1.374-3.19.788z" clip-rule="evenodd"/>
      <path stroke="#EA80FC" stroke-linejoin="round" stroke-miterlimit="10" stroke-width="4" d="M50.5 625c-2 3 1.5-6.315 1.5-12.5 0-2.5-3.301-9.518-6-9.5"/>
    </g>
  </g>
  <defs id="defs620">
    <linearGradient id="paint0_linear" x1="720" x2="720" y1="0" y2="512" gradientUnits="userSpaceOnUse">
      <stop id="stop599" stop-color="#00C2FF"/>
      <stop id="stop601" offset="1" stop-color="#DEF7FF"/>
    </linearGradient>
    <linearGradient id="paint1_linear" x1="720" x2="720" y1="501" y2="587" gradientUnits="userSpaceOnUse">
      <stop id="stop604" stop-color="#488E36"/>
      <stop id="stop606" offset="1" stop-color="#174F09"/>
    </linearGradient>
    <linearGradient id="paint2_linear" x1="720" x2="720" y1="595" y2="1025" gradientUnits="userSpaceOnUse">
      <stop id="stop609" stop-color="#AF501B"/>
      <stop id="stop611" offset="1" stop-color="#55270E"/>
    </linearGradient>
    <clipPath id="clip0">
      <path id="rect614" fill="#fff" d="M0 0h1440v1024H0z"/>
    </clipPath>
    <clipPath id="clip1">
      <path id="rect617" fill="#fff" d="M0 0h960v120H0z" transform="translate(-158 554)"/>
    </clipPath>
  </defs>
</svg>
