<svg width="100" height="145" viewBox="0 0 100 145" fill="none" xmlns="http://www.w3.org/2000/svg">
<path fill-rule="evenodd" clip-rule="evenodd" d="M82.2004 54.4647C80.7331 54.3331 79.7241 51.667 79.9467 48.5098C80.1694 45.3525 81.5393 42.8997 83.0066 43.0312C84.474 43.1628 85.483 45.8289 85.2603 48.9862C85.0377 52.1434 83.6678 54.5962 82.2004 54.4647V54.4647Z" fill="#2196F3"/>
<path fill-rule="evenodd" clip-rule="evenodd" d="M80.7728 50.9518C80.0847 51.2756 78.969 50.3404 78.2809 48.863C77.5928 47.3855 77.5928 45.9253 78.2809 45.6015C78.969 45.2777 80.0847 46.2129 80.7728 47.6903C81.461 49.1677 81.461 50.6279 80.7728 50.9518V50.9518Z" fill="#2196F3"/>
<path d="M82.1901 52.5286C81.7709 58.2155 83.7498 66.3858 79.2293 69.7515C76.947 71.4508 74.2519 71.2166 71.8152 72.3752" stroke="#2196F3" stroke-width="4" stroke-miterlimit="10" stroke-linejoin="round"/>
<path fill-rule="evenodd" clip-rule="evenodd" d="M17.0726 54.5995C18.5298 54.4679 19.5306 51.8018 19.308 48.6446C19.0853 45.4873 17.7236 43.0345 16.2664 43.166C14.8092 43.2976 13.8084 45.9637 14.031 49.121C14.2536 52.2782 15.6154 54.731 17.0726 54.5995V54.5995Z" fill="#2196F3"/>
<path fill-rule="evenodd" clip-rule="evenodd" d="M18.4703 51.1048C19.1584 51.4185 20.2659 50.4587 20.9439 48.961C21.6219 47.4633 21.6137 45.9949 20.9256 45.6812C20.2374 45.3675 19.13 46.3273 18.452 47.825C17.774 49.3227 17.7822 50.7911 18.4703 51.1048V51.1048Z" fill="#2196F3"/>
<path d="M17.0479 52.6748C17.4888 58.3613 15.5409 66.5418 20.0744 69.8896C22.3633 71.5798 25.0576 71.3344 27.4988 72.4831" stroke="#2196F3" stroke-width="4" stroke-miterlimit="10" stroke-linejoin="round"/>
<path fill-rule="evenodd" clip-rule="evenodd" d="M49.7226 106.59L25.2572 90.8254V27.7651C25.2572 19.0583 36.2107 12 49.7226 12C63.2345 12 74.188 19.0583 74.188 27.7651V90.8254L49.7226 106.59Z" fill="#2196F3"/>
<path fill-rule="evenodd" clip-rule="evenodd" d="M76.0157 88.6243V104.404C76.0157 113.119 64.2341 120.183 49.7008 120.183C35.1674 120.183 23.3858 113.119 23.3858 104.404V88.6243H76.0157Z" fill="#304FFE"/>
<path fill-rule="evenodd" clip-rule="evenodd" d="M30.8204 58.2329C30.8204 55.784 32.8057 53.7988 35.2546 53.7988C36.4306 53.7988 37.5584 54.2659 38.39 55.0975C39.2215 55.9291 39.6887 57.0569 39.6887 58.2329C39.6887 60.6818 37.7035 62.667 35.2546 62.667C32.8057 62.667 30.8204 60.6818 30.8204 58.2329V58.2329Z" fill="black"/>
<path fill-rule="evenodd" clip-rule="evenodd" d="M33.2278 55.9961C33.2278 55.3181 33.7775 54.7685 34.4555 54.7685C34.7811 54.7685 35.0933 54.8978 35.3235 55.128C35.5538 55.3583 35.6831 55.6705 35.6831 55.9961C35.6831 56.6741 35.1335 57.2237 34.4555 57.2237C33.7775 57.2237 33.2278 56.6741 33.2278 55.9961V55.9961Z" fill="white"/>
<path fill-rule="evenodd" clip-rule="evenodd" d="M60.5126 58.2329C60.5126 55.784 62.4979 53.7988 64.9468 53.7988C66.1228 53.7988 67.2506 54.2659 68.0822 55.0975C68.9137 55.9291 69.3809 57.0569 69.3809 58.2329C69.3809 60.6818 67.3957 62.667 64.9468 62.667C62.4979 62.667 60.5126 60.6818 60.5126 58.2329V58.2329Z" fill="black"/>
<path fill-rule="evenodd" clip-rule="evenodd" d="M62.92 55.9961C62.92 55.3181 63.4697 54.7685 64.1477 54.7685C64.4733 54.7685 64.7855 54.8978 65.0157 55.128C65.246 55.3583 65.3753 55.6705 65.3753 55.9961C65.3753 56.6741 64.8257 57.2237 64.1477 57.2237C63.4697 57.2237 62.92 56.6741 62.92 55.9961V55.9961Z" fill="white"/>
<path fill-rule="evenodd" clip-rule="evenodd" d="M45.0396 68.7085V64.2518C45.0396 61.7904 47.8528 59.7951 51.3231 59.7951C54.7933 59.7951 57.6065 61.7904 57.6065 64.2518V68.7085H45.0396Z" stroke="black" stroke-width="2" stroke-miterlimit="10" stroke-linejoin="round"/>
<path d="M40.6154 116L42 139.31L36 142" stroke="#304FFE" stroke-width="4"/>
<path d="M60.3846 116L59 139.31L65 142" stroke="#304FFE" stroke-width="4"/>
</svg>
