<svg width="100" height="145" viewBox="0 0 100 145" fill="none" xmlns="http://www.w3.org/2000/svg">
<path fill-rule="evenodd" clip-rule="evenodd" d="M50.2395 104.591L25.774 88.8254V25.7651C25.774 17.0583 36.7276 10 50.2395 10C63.7513 10 74.7049 17.0583 74.7049 25.7651V88.8254L50.2395 104.591Z" fill="#2196F3"/>
<path fill-rule="evenodd" clip-rule="evenodd" d="M76.5326 86.6243V102.404C76.5326 111.119 64.751 118.183 50.2176 118.183C35.6843 118.183 23.9026 111.119 23.9026 102.404V86.6243H76.5326Z" fill="#304FFE"/>
<path fill-rule="evenodd" clip-rule="evenodd" d="M88.9394 56.5613C87.6703 55.8396 87.8832 53.0072 89.4151 50.2351C90.9469 47.4631 93.2176 45.801 94.4868 46.5227C95.7559 47.2445 95.543 50.0768 94.0111 52.8489C92.4793 55.621 90.2086 57.2831 88.9394 56.5613V56.5613Z" fill="#2196F3"/>
<path fill-rule="evenodd" clip-rule="evenodd" d="M89.1383 52.7963C88.3795 52.8052 87.7686 51.4852 87.7738 49.848C87.7789 48.2108 88.3982 46.8764 89.1569 46.8675C89.9157 46.8586 90.5266 48.1787 90.5215 49.8158C90.5163 51.453 89.8971 52.7874 89.1383 52.7963V52.7963Z" fill="#2196F3"/>
<path d="M89.8715 54.9171C87.0836 59.8932 85.4178 68.1354 79.896 69.2712C77.1081 69.8447 74.7648 68.4911 72.066 68.5092" stroke="#2196F3" stroke-width="4" stroke-miterlimit="10" stroke-linejoin="round"/>
<path fill-rule="evenodd" clip-rule="evenodd" d="M17.0152 81.4318C18.4714 81.5399 19.4932 84.1906 19.2975 87.3524C19.1017 90.5141 17.7625 92.9897 16.3063 92.8817C14.8501 92.7736 13.8283 90.1229 14.024 86.9612C14.2198 83.7994 15.559 81.3238 17.0152 81.4318V81.4318Z" fill="#2196F3"/>
<path fill-rule="evenodd" clip-rule="evenodd" d="M18.4496 84.9193C19.1314 84.586 20.2493 85.5168 20.9465 86.9985C21.6437 88.4801 21.6563 89.9514 20.9744 90.2848C20.2926 90.6181 19.1747 89.6873 18.4775 88.2057C17.7803 86.724 17.7678 85.2527 18.4496 84.9193V84.9193Z" fill="#2196F3"/>
<path d="M17.0759 83.3106C17.4612 77.6219 15.433 69.4645 19.9342 66.0724C22.2068 64.3598 24.9039 64.5779 27.3341 63.405" stroke="#2196F3" stroke-width="4" stroke-miterlimit="10" stroke-linejoin="round"/>
<path fill-rule="evenodd" clip-rule="evenodd" d="M35.2242 49.3352C35.2242 46.7244 37.3407 44.6079 39.9515 44.6079C41.2053 44.6079 42.4077 45.106 43.2942 45.9925C44.1808 46.879 44.6788 48.0814 44.6788 49.3352C44.6788 51.946 42.5623 54.0625 39.9515 54.0625C37.3407 54.0625 35.2242 51.946 35.2242 49.3352V49.3352Z" fill="black"/>
<path fill-rule="evenodd" clip-rule="evenodd" d="M40.4109 47.7317C40.4109 47.0031 41.0016 46.4125 41.7302 46.4125C42.0801 46.4125 42.4156 46.5515 42.663 46.7989C42.9104 47.0463 43.0494 47.3819 43.0494 47.7317C43.0494 48.4603 42.4588 49.051 41.7302 49.051C41.0016 49.051 40.4109 48.4603 40.4109 47.7317V47.7317Z" fill="white"/>
<path fill-rule="evenodd" clip-rule="evenodd" d="M62.6169 49.3352C62.6169 46.7244 64.7334 44.6079 67.3442 44.6079C68.5979 44.6079 69.8003 45.106 70.6869 45.9925C71.5734 46.879 72.0715 48.0814 72.0715 49.3352C72.0715 51.946 69.955 54.0625 67.3442 54.0625C64.7334 54.0625 62.6169 51.946 62.6169 49.3352V49.3352Z" fill="black"/>
<path fill-rule="evenodd" clip-rule="evenodd" d="M67.8036 47.7317C67.8036 47.0031 68.3942 46.4125 69.1228 46.4125C69.4727 46.4125 69.8083 46.5515 70.0557 46.7989C70.3031 47.0463 70.4421 47.3819 70.4421 47.7317C70.4421 48.4603 69.8514 49.051 69.1228 49.051C68.3942 49.051 67.8036 48.4603 67.8036 47.7317V47.7317Z" fill="white"/>
<path d="M46.5422 58.594C48.7057 56.4305 51.6964 55.2714 54.8565 55.3719C58.0165 55.4723 61.0871 56.8239 63.3926 59.1294" stroke="black" stroke-width="2" stroke-miterlimit="10" stroke-linejoin="round"/>
<path d="M39.0823 112.275L34.0823 124.275L18.5823 119.275L16.5823 126.275" stroke="#304FFE" stroke-width="4" stroke-linecap="round" stroke-linejoin="round"/>
<path d="M62.5823 112.275L72.0823 119.275L66.0823 133.775L74.0823 135.775" stroke="#304FFE" stroke-width="4" stroke-linecap="round" stroke-linejoin="round"/>
</svg>
