<svg width="120" height="120" viewBox="0 0 120 120" fill="none" xmlns="http://www.w3.org/2000/svg">
<path fill-rule="evenodd" clip-rule="evenodd" d="M80.2566 15.7853C93.5549 29.0923 93.2447 50.9704 79.5637 64.6514C70.8437 73.3714 62.5735 82.5416 54.7532 92.162C47.2027 82.7547 39.1894 73.8102 30.7133 65.3286C17.415 52.0216 17.7252 30.1434 31.4062 16.4624C45.0872 2.78142 66.9583 2.47825 80.2566 15.7853Z" fill="#EA80FC"/>
<path fill-rule="evenodd" clip-rule="evenodd" d="M73.9441 70.8724V83.6598C73.9441 90.7221 65.6807 96.4472 55.4874 96.4472C45.294 96.4472 37.0307 90.7221 37.0307 83.6598V70.8724H73.9441Z" fill="#D500F9"/>
<path fill-rule="evenodd" clip-rule="evenodd" d="M103.858 35.614C102.589 34.8922 102.802 32.0599 104.334 29.2878C105.866 26.5158 108.136 24.8536 109.406 25.5754C110.675 26.2972 110.462 29.1295 108.93 31.9016C107.398 34.6737 105.127 36.3358 103.858 35.614Z" fill="#EA80FC"/>
<path fill-rule="evenodd" clip-rule="evenodd" d="M104.057 31.849C103.298 31.8579 102.687 30.5379 102.693 28.9007C102.698 27.2635 103.317 25.9291 104.076 25.9203C104.835 25.9114 105.445 27.2314 105.44 28.8686C105.435 30.5058 104.816 31.8402 104.057 31.849Z" fill="#EA80FC"/>
<path d="M104.79 33.9698C102.002 38.946 100.337 47.1882 94.8148 48.324C92.0269 48.8974 89.6836 47.5439 86.9848 47.562" stroke="#EA80FC" stroke-width="4" stroke-miterlimit="10" stroke-linejoin="round"/>
<path fill-rule="evenodd" clip-rule="evenodd" d="M19.1372 65.4937C20.5552 65.145 22.3482 67.3482 23.1421 70.4146C23.936 73.481 23.43 76.2494 22.0121 76.598C20.5941 76.9467 18.8011 74.7435 18.0072 71.6771C17.2134 68.6107 17.7193 65.8423 19.1372 65.4937Z" fill="#EA80FC"/>
<path fill-rule="evenodd" clip-rule="evenodd" d="M21.5818 68.3645C22.1267 67.8363 23.4781 68.3747 24.6001 69.5671C25.7222 70.7595 26.1902 72.1543 25.6453 72.6826C25.1004 73.2108 23.749 72.6723 22.627 71.4799C21.5049 70.2875 21.0369 68.8927 21.5818 68.3645Z" fill="#EA80FC"/>
<path d="M19.7739 67.3507C18.3771 61.8228 13.9203 54.6954 17.1488 50.0759C18.7788 47.7436 21.4108 47.1155 23.3579 45.2475" stroke="#EA80FC" stroke-width="4" stroke-miterlimit="10" stroke-linejoin="round"/>
<path fill-rule="evenodd" clip-rule="evenodd" d="M46.5549 35.2635C46.5549 32.6527 48.6713 30.5362 51.2822 30.5362C52.5359 30.5362 53.7383 31.0342 54.6249 31.9208C55.5114 32.8073 56.0095 34.0097 56.0095 35.2635C56.0095 37.8743 53.893 39.9908 51.2822 39.9908C48.6713 39.9908 46.5549 37.8743 46.5549 35.2635Z" fill="black"/>
<path fill-rule="evenodd" clip-rule="evenodd" d="M51.7416 33.66C51.7416 32.9314 52.3322 32.3408 53.0608 32.3408C53.4107 32.3408 53.7463 32.4798 53.9937 32.7272C54.2411 32.9746 54.3801 33.3101 54.3801 33.66C54.3801 34.3886 53.7894 34.9793 53.0608 34.9793C52.3322 34.9793 51.7416 34.3886 51.7416 33.66Z" fill="white"/>
<path fill-rule="evenodd" clip-rule="evenodd" d="M73.9476 35.2635C73.9476 32.6527 76.064 30.5362 78.6749 30.5362C79.9286 30.5362 81.131 31.0342 82.0176 31.9208C82.9041 32.8073 83.4022 34.0097 83.4022 35.2635C83.4022 37.8743 81.2857 39.9908 78.6749 39.9908C76.064 39.9908 73.9476 37.8743 73.9476 35.2635Z" fill="black"/>
<path fill-rule="evenodd" clip-rule="evenodd" d="M79.1343 33.66C79.1343 32.9314 79.7249 32.3408 80.4535 32.3408C80.8034 32.3408 81.139 32.4798 81.3864 32.7272C81.6338 32.9746 81.7728 33.3101 81.7728 33.66C81.7728 34.3886 81.1821 34.9793 80.4535 34.9793C79.7249 34.9793 79.1343 34.3886 79.1343 33.66Z" fill="white"/>
<path d="M74.2273 41.597C72.0638 43.7605 69.073 44.9195 65.913 44.8191C62.7529 44.7187 59.6824 43.367 57.3769 41.0615" stroke="black" stroke-width="2" stroke-miterlimit="10" stroke-linejoin="round"/>
<path d="M46.2109 89.753L41.2109 101.753L25.7109 96.753L23.7109 103.753" stroke="#D500F9" stroke-width="4" stroke-linecap="round" stroke-linejoin="round"/>
<path d="M62.7109 89.753L72.2109 96.753L66.2109 111.253L74.2109 113.253" stroke="#D500F9" stroke-width="4" stroke-linecap="round" stroke-linejoin="round"/>
</svg>
