<svg width="110" height="155" viewBox="0 0 110 155" fill="none" xmlns="http://www.w3.org/2000/svg">
<path fill-rule="evenodd" clip-rule="evenodd" d="M57.4298 84.4567C47.2199 147.034 7.40097 84.4567 57.4298 4C107.459 84.4567 67.6398 147.034 57.4298 84.4567Z" fill="#FFC400"/>
<path fill-rule="evenodd" clip-rule="evenodd" d="M35.3452 96.1547C35.3452 85.5438 45.2654 76.9421 57.5027 76.9421C69.7399 76.9421 79.6601 85.5438 79.6601 96.1547C79.6601 106.765 69.7399 115.367 57.5027 115.367C45.2654 115.367 35.3452 106.765 35.3452 96.1547Z" fill="#FFC400"/>
<path fill-rule="evenodd" clip-rule="evenodd" d="M78.9777 104.16V116.948C78.9777 124.01 69.3395 129.735 57.4501 129.735C45.5608 129.735 35.9226 124.01 35.9226 116.948V104.16H78.9777Z" fill="#FF9800"/>
<path fill-rule="evenodd" clip-rule="evenodd" d="M92.1153 61.1966C90.7096 60.8004 90.2364 57.9991 91.0584 54.9396C91.8804 51.8801 93.6862 49.721 95.0918 50.1172C96.4975 50.5133 96.9707 53.3147 96.1487 56.3742C95.3268 59.4337 93.5209 61.5927 92.1153 61.1966Z" fill="#FFC400"/>
<path fill-rule="evenodd" clip-rule="evenodd" d="M91.4046 57.4929C90.6699 57.6837 89.7598 56.5486 89.3717 54.9576C88.9837 53.3667 89.2646 51.9223 89.9993 51.7315C90.7339 51.5408 91.6441 52.6758 92.0321 54.2668C92.4201 55.8578 92.1392 57.3022 91.4046 57.4929Z" fill="#FFC400"/>
<path d="M92.4631 59.2784C90.9502 64.7769 91.3096 73.1759 86.2221 75.6037C83.6536 76.8295 81.0545 76.0785 78.4392 76.7439" stroke="#FFC400" stroke-width="4" stroke-miterlimit="10" stroke-linejoin="round"/>
<path fill-rule="evenodd" clip-rule="evenodd" d="M23.4371 61.1966C24.8428 60.8004 25.316 57.9991 24.494 54.9396C23.6721 51.8801 21.8662 49.721 20.4606 50.1172C19.0549 50.5133 18.5817 53.3147 19.4037 56.3742C20.2256 59.4337 22.0315 61.5927 23.4371 61.1966Z" fill="#FFC400"/>
<path fill-rule="evenodd" clip-rule="evenodd" d="M24.1479 57.4929C24.8825 57.6837 25.7927 56.5486 26.1807 54.9576C26.5688 53.3667 26.2878 51.9223 25.5532 51.7315C24.8185 51.5408 23.9084 52.6758 23.5204 54.2668C23.1323 55.8578 23.4133 57.3022 24.1479 57.4929Z" fill="#FFC400"/>
<path d="M23.0894 59.2784C24.6022 64.7769 24.2428 73.1759 29.3303 75.6037C31.8988 76.8295 34.4979 76.0785 37.1132 76.7439" stroke="#FFC400" stroke-width="4" stroke-miterlimit="10" stroke-linejoin="round"/>
<path fill-rule="evenodd" clip-rule="evenodd" d="M41.4899 59.6801C41.4899 57.3363 43.3897 55.4363 45.7333 55.4363C46.8587 55.4363 47.938 55.8834 48.7338 56.6793C49.5296 57.4751 49.9766 58.5546 49.9766 59.6801C49.9766 62.0239 48.0768 63.9239 45.7333 63.9239C43.3897 63.9239 41.4899 62.0239 41.4899 59.6801Z" fill="black"/>
<path fill-rule="evenodd" clip-rule="evenodd" d="M43.7964 57.5498C43.7964 56.8957 44.3266 56.3655 44.9806 56.3655C45.2947 56.3655 45.5959 56.4902 45.818 56.7124C46.0401 56.9345 46.1648 57.2357 46.1648 57.5498C46.1648 58.2039 45.6346 58.7341 44.9806 58.7341C44.3266 58.7341 43.7964 58.2039 43.7964 57.5498Z" fill="white"/>
<path fill-rule="evenodd" clip-rule="evenodd" d="M65.0627 59.6801C65.0627 57.3363 66.9626 55.4363 69.3061 55.4363C70.4315 55.4363 71.5109 55.8834 72.3067 56.6793C73.1025 57.4751 73.5495 58.5546 73.5495 59.6801C73.5495 62.0239 71.6497 63.9239 69.3061 63.9239C66.9626 63.9239 65.0627 62.0239 65.0627 59.6801Z" fill="black"/>
<path fill-rule="evenodd" clip-rule="evenodd" d="M67.3693 57.5498C67.3693 56.8957 67.8995 56.3655 68.5535 56.3655C68.8676 56.3655 69.1688 56.4902 69.3908 56.7124C69.6129 56.9345 69.7377 57.2357 69.7377 57.5498C69.7377 58.2039 69.2075 58.7341 68.5535 58.7341C67.8995 58.7341 67.3693 58.2039 67.3693 57.5498Z" fill="white"/>
<path fill-rule="evenodd" clip-rule="evenodd" d="M63.3016 64.7758L63.9158 68.5081C64.255 70.5694 61.8013 72.6916 58.4354 73.2482C55.0695 73.8049 52.066 72.5851 51.7268 70.5238L51.1126 66.7915L63.3016 64.7758Z" stroke="black" stroke-width="2" stroke-miterlimit="10" stroke-linejoin="round"/>
<path d="M48.0637 123.316L49.5637 149.316L43.0637 152.316" stroke="#FF9800" stroke-width="4"/>
<path d="M67.5637 123.316L66.0637 149.316L72.5637 152.316" stroke="#FF9800" stroke-width="4"/>
</svg>
