<svg width="400" height="100" viewBox="0 0 400 100" fill="none" xmlns="http://www.w3.org/2000/svg">
<path d="M76.178 82.0288H135.864V89.9998C135.864 95.5226 131.387 99.9998 125.864 99.9998H86.178C80.6551 99.9998 76.178 95.5226 76.178 89.9998V82.0288Z" fill="#8A5DBC"/>
<path d="M20.4407 81.9187C17.5764 82.7347 15.0209 79.7756 15.8853 76.6437L22.4362 52.9097C23.2851 49.8341 26.8084 48.8954 28.8088 51.2118L43.9648 68.7618C45.9652 71.0782 44.9605 74.9334 42.1476 75.7348L20.4407 81.9187Z" fill="#6314BC"/>
<path d="M19.7375 21.3981C19.2602 18.1456 22.2448 15.5154 25.0003 16.7602L45.7472 26.1322C48.3996 27.3304 48.8537 31.2507 46.5729 33.2607L29.4193 48.3776C27.1386 50.3876 23.7902 49.018 23.3308 45.8872L19.7375 21.3981Z" fill="#6314BC"/>
<path d="M200 49.8551L194.11 53.6205V46.0898L200 49.8551Z" fill="#FF9800"/>
<ellipse cx="106.021" cy="50" rx="90.0524" ry="36.0869" fill="#8A5DBC"/>
<path d="M18.7468 54.148C14.5341 53.2792 14.4842 47.2804 18.6818 46.3293L37.0195 42.1743C39.5168 41.6084 41.8921 43.5006 41.8979 46.0604L41.916 54.0011C41.9218 56.5411 39.5895 58.4467 37.1026 57.9338L18.7468 54.148Z" fill="#6314BC"/>
<rect x="79.0576" y="88.1157" width="53.9267" height="5.50724" rx="2.75362" fill="#2196F3"/>
<rect x="56.3533" y="34.4424" width="104.571" height="30.826" rx="6.5" fill="black" stroke="#8B8484" stroke-width="3"/>
<path d="M98.2172 51.2344V49.7944H102.585V57.7144H101.865L101.241 56.1784C100.905 56.7544 100.465 57.2184 99.9212 57.5704C99.3772 57.9064 98.7852 58.0744 98.1452 58.0744C95.8252 58.0744 94.6652 56.9544 94.6652 54.7144V45.1144C94.6652 44.0424 94.9932 43.2184 95.6492 42.6424C96.3052 42.0504 97.2892 41.7544 98.6012 41.7544C99.9132 41.7544 100.905 42.0504 101.577 42.6424C102.249 43.2184 102.585 44.0424 102.585 45.1144V46.4344H100.905V45.1144C100.905 43.8344 100.145 43.1944 98.6252 43.1944C97.1052 43.1944 96.3452 43.8344 96.3452 45.1144V54.7144C96.3452 55.3224 96.4732 55.7944 96.7292 56.1304C96.9852 56.4664 97.4492 56.6344 98.1212 56.6344C98.8092 56.6344 99.4412 56.3624 100.017 55.8184C100.609 55.2744 100.905 54.7464 100.905 54.2344V51.2344H98.2172ZM114.825 45.1144V54.7144C114.825 55.7864 114.481 56.6184 113.793 57.2104C113.121 57.7864 112.105 58.0744 110.745 58.0744C109.401 58.0744 108.385 57.7864 107.697 57.2104C107.009 56.6184 106.665 55.7864 106.665 54.7144V45.1144C106.665 44.0424 107.001 43.2184 107.673 42.6424C108.361 42.0504 109.377 41.7544 110.721 41.7544C112.081 41.7544 113.105 42.0504 113.793 42.6424C114.481 43.2184 114.825 44.0424 114.825 45.1144ZM113.145 54.7144V45.1144C113.145 43.8344 112.345 43.1944 110.745 43.1944C109.145 43.1944 108.345 43.8344 108.345 45.1144V54.7144C108.345 55.9944 109.145 56.6344 110.745 56.6344C112.345 56.6344 113.145 55.9944 113.145 54.7144ZM121.18 57.7144H119.5V55.0744H121.18V57.7144ZM119.38 42.1144H121.3V47.9944L120.94 52.6744H119.74L119.38 47.9944V42.1144Z" fill="#60F92A"/>
<path d="M276.178 82.0288H335.864V89.9998C335.864 95.5226 331.387 99.9998 325.864 99.9998H286.178C280.655 99.9998 276.178 95.5226 276.178 89.9998V82.0288Z" fill="#8A5DBC"/>
<path d="M220.441 81.9187C217.576 82.7347 215.021 79.7756 215.885 76.6437L222.436 52.9097C223.285 49.8341 226.808 48.8954 228.809 51.2118L243.965 68.7618C245.965 71.0782 244.961 74.9334 242.148 75.7348L220.441 81.9187Z" fill="#6314BC"/>
<path d="M219.737 21.3981C219.26 18.1456 222.245 15.5154 225 16.7602L245.747 26.1322C248.4 27.3304 248.854 31.2507 246.573 33.2607L229.419 48.3776C227.139 50.3876 223.79 49.018 223.331 45.8872L219.737 21.3981Z" fill="#6314BC"/>
<path d="M400 49.8551L394.11 53.6205V46.0898L400 49.8551Z" fill="#FF9800"/>
<ellipse cx="306.021" cy="50" rx="90.0524" ry="36.0869" fill="#8A5DBC"/>
<path d="M218.747 54.148C214.534 53.2792 214.484 47.2804 218.682 46.3293L237.02 42.1743C239.517 41.6084 241.892 43.5006 241.898 46.0604L241.916 54.0011C241.922 56.5411 239.59 58.4467 237.103 57.9338L218.747 54.148Z" fill="#6314BC"/>
<rect x="279.058" y="88.1157" width="53.9267" height="5.50724" rx="2.75362" fill="#2196F3"/>
<rect x="256.353" y="34.4424" width="104.571" height="30.826" rx="6.5" fill="black" stroke="#8B8484" stroke-width="3"/>
</svg>
