<svg width="400" height="100" viewBox="0 0 400 100" fill="none" xmlns="http://www.w3.org/2000/svg">
<path d="M76.1777 82.0291H135.864V90.0001C135.864 95.5229 131.386 100 125.864 100H86.1777C80.6549 100 76.1777 95.5229 76.1777 90.0001V82.0291Z" fill="#8A5DBC"/>
<path d="M20.4407 81.9187C17.5764 82.7347 15.0209 79.7755 15.8853 76.6437L22.4362 52.9097C23.2851 49.8341 26.8084 48.8953 28.8088 51.2117L43.9648 68.7618C45.9652 71.0782 44.9605 74.9334 42.1476 75.7347L20.4407 81.9187Z" fill="#6314BC"/>
<path d="M19.7372 21.3981C19.26 18.1456 22.2445 15.5154 25 16.7601L45.7469 26.1322C48.3993 27.3304 48.8534 31.2507 46.5726 33.2607L29.4191 48.3776C27.1383 50.3876 23.79 49.018 23.3306 45.8872L19.7372 21.3981Z" fill="#6314BC"/>
<path d="M200 49.8551L194.11 53.6205V46.0898L200 49.8551Z" fill="#FF9800"/>
<ellipse cx="106.021" cy="50" rx="90.0524" ry="36.087" fill="#8A5DBC"/>
<path d="M18.7466 54.1483C14.5338 53.2794 14.484 47.2807 18.6815 46.3295L37.0193 42.1745C39.5165 41.6086 41.8918 43.5008 41.8977 46.0606L41.9158 54.0014C41.9216 56.5414 39.5893 58.4469 37.1024 57.934L18.7466 54.1483Z" fill="#6314BC"/>
<rect x="79.0574" y="88.1157" width="53.9267" height="5.50725" rx="2.75362" fill="#2196F3"/>
<rect x="56.3533" y="34.4419" width="104.571" height="30.8261" rx="6.5" fill="black" stroke="#8B8484" stroke-width="3"/>
<path d="M84.958 54.7144C84.958 56.9544 83.606 58.0744 80.902 58.0744C78.198 58.0744 76.846 56.9544 76.846 54.7144V52.6744H78.526V54.8104C78.526 55.3864 78.726 55.8344 79.126 56.1544C79.526 56.4744 80.118 56.6344 80.902 56.6344C81.686 56.6344 82.278 56.4744 82.678 56.1544C83.078 55.8344 83.278 55.4024 83.278 54.8584C83.278 54.2984 83.214 53.8584 83.086 53.5384C82.974 53.2024 82.734 52.8504 82.366 52.4824L78.142 48.3544C77.646 47.8584 77.302 47.3784 77.11 46.9144C76.934 46.4344 76.846 45.8344 76.846 45.1144C76.846 44.0424 77.174 43.2184 77.83 42.6424C78.502 42.0504 79.51 41.7544 80.854 41.7544C83.43 41.7544 84.718 42.8744 84.718 45.1144V47.1544H83.038V45.0184C83.038 44.4424 82.846 43.9944 82.462 43.6744C82.094 43.3544 81.534 43.1944 80.782 43.1944C80.03 43.1944 79.462 43.3544 79.078 43.6744C78.71 43.9944 78.526 44.4344 78.526 44.9944C78.526 45.5544 78.582 45.9944 78.694 46.3144C78.806 46.6344 79.054 46.9704 79.438 47.3224L83.734 51.4504C84.198 51.9624 84.518 52.4584 84.694 52.9384C84.87 53.4024 84.958 53.9944 84.958 54.7144ZM95.5192 42.1144V43.5544H92.3992V57.7144H90.7192V43.5544H87.5992V42.1144H95.5192ZM106.431 45.1144V54.7144C106.431 55.7864 106.087 56.6184 105.399 57.2104C104.727 57.7864 103.711 58.0744 102.351 58.0744C101.007 58.0744 99.9907 57.7864 99.3027 57.2104C98.6147 56.6184 98.2707 55.7864 98.2707 54.7144V45.1144C98.2707 44.0424 98.6067 43.2184 99.2787 42.6424C99.9667 42.0504 100.983 41.7544 102.327 41.7544C103.687 41.7544 104.711 42.0504 105.399 42.6424C106.087 43.2184 106.431 44.0424 106.431 45.1144ZM104.751 54.7144V45.1144C104.751 43.8344 103.951 43.1944 102.351 43.1944C100.751 43.1944 99.9507 43.8344 99.9507 45.1144V54.7144C99.9507 55.9944 100.751 56.6344 102.351 56.6344C103.951 56.6344 104.751 55.9944 104.751 54.7144ZM112.305 57.7144H110.625V42.1144H114.249C115.497 42.1144 116.441 42.4104 117.081 43.0024C117.737 43.5944 118.065 44.4184 118.065 45.4744V49.5544C118.065 50.6264 117.745 51.4584 117.105 52.0504C116.465 52.6264 115.513 52.9144 114.249 52.9144H112.305V57.7144ZM116.385 49.5544V45.4744C116.385 44.8664 116.201 44.3944 115.833 44.0584C115.465 43.7224 114.937 43.5544 114.249 43.5544H112.305V51.4744H114.249C115.673 51.4744 116.385 50.8344 116.385 49.5544ZM123.824 57.7144H122.144V55.0744H123.824V57.7144ZM122.024 42.1144H123.944V47.9944L123.584 52.6744H122.384L122.024 47.9944V42.1144ZM130.785 57.7144H129.105V55.0744H130.785V57.7144ZM128.985 42.1144H130.905V47.9944L130.545 52.6744H129.345L128.985 47.9944V42.1144ZM137.746 57.7144H136.066V55.0744H137.746V57.7144ZM135.946 42.1144H137.866V47.9944L137.506 52.6744H136.306L135.946 47.9944V42.1144Z" fill="#F92A2A"/>
<path d="M276.178 82.0291H335.864V90.0001C335.864 95.5229 331.387 100 325.864 100H286.178C280.655 100 276.178 95.5229 276.178 90.0001V82.0291Z" fill="#8A5DBC"/>
<path d="M220.441 81.9187C217.576 82.7347 215.021 79.7755 215.885 76.6437L222.436 52.9097C223.285 49.8341 226.808 48.8953 228.809 51.2117L243.965 68.7618C245.965 71.0782 244.961 74.9334 242.148 75.7347L220.441 81.9187Z" fill="#6314BC"/>
<path d="M219.737 21.3981C219.26 18.1456 222.245 15.5154 225 16.7601L245.747 26.1322C248.399 27.3304 248.853 31.2507 246.573 33.2607L229.419 48.3776C227.138 50.3876 223.79 49.018 223.331 45.8872L219.737 21.3981Z" fill="#6314BC"/>
<path d="M400 49.8551L394.11 53.6205V46.0898L400 49.8551Z" fill="#FF9800"/>
<ellipse cx="306.021" cy="50" rx="90.0524" ry="36.087" fill="#8A5DBC"/>
<path d="M218.747 54.1483C214.534 53.2794 214.484 47.2807 218.682 46.3295L237.019 42.1745C239.517 41.6086 241.892 43.5008 241.898 46.0606L241.916 54.0014C241.922 56.5414 239.589 58.4469 237.102 57.934L218.747 54.1483Z" fill="#6314BC"/>
<rect x="279.057" y="88.1157" width="53.9267" height="5.50725" rx="2.75362" fill="#2196F3"/>
<rect x="256.353" y="34.4421" width="104.571" height="30.8261" rx="6.5" fill="black" stroke="#8B8484" stroke-width="3"/>
</svg>
