<svg width="800" height="145" viewBox="0 0 800 145" fill="none" xmlns="http://www.w3.org/2000/svg">
<g clip-path="url(#clip0)">
<g filter="url(#filter0_d)">
<path fill-rule="evenodd" clip-rule="evenodd" d="M45.2395 104.591L20.774 88.8254V25.7651C20.774 17.0583 31.7276 10 45.2395 10C58.7513 10 69.7049 17.0583 69.7049 25.7651V88.8254L45.2395 104.591Z" fill="#2196F3"/>
<path fill-rule="evenodd" clip-rule="evenodd" d="M71.5326 86.6243V102.404C71.5326 111.119 59.751 118.183 45.2176 118.183C30.6843 118.183 18.9026 111.119 18.9026 102.404V86.6243H71.5326Z" fill="#304FFE"/>
<path fill-rule="evenodd" clip-rule="evenodd" d="M85.8771 62.8942C84.6079 62.1724 84.8209 59.3401 86.3527 56.568C87.8846 53.7959 90.1553 52.1338 91.4244 52.8556C92.6936 53.5773 92.4806 56.4097 90.9488 59.1817C89.4169 61.9538 87.1462 63.6159 85.8771 62.8942Z" fill="#2196F3"/>
<path fill-rule="evenodd" clip-rule="evenodd" d="M86.3646 58.9288C85.6058 58.9377 84.9949 57.6177 85 55.9805C85.0052 54.3433 85.6244 53.0089 86.3832 53C87.142 52.9912 87.7529 54.3112 87.7477 55.9484C87.7426 57.5855 87.1233 58.9199 86.3646 58.9288Z" fill="#2196F3"/>
<path d="M87 61C84.2122 65.9761 80.4178 68.1354 74.896 69.2712C72.1081 69.8447 69.7648 68.4911 67.066 68.5092" stroke="#2196F3" stroke-width="4" stroke-miterlimit="10" stroke-linejoin="round"/>
<path fill-rule="evenodd" clip-rule="evenodd" d="M12.0152 81.4319C13.4714 81.5399 14.4932 84.1906 14.2975 87.3524C14.1017 90.5142 12.7625 92.9897 11.3063 92.8817C9.85008 92.7737 8.82827 90.123 9.02403 86.9612C9.21979 83.7994 10.559 81.3238 12.0152 81.4319Z" fill="#2196F3"/>
<path fill-rule="evenodd" clip-rule="evenodd" d="M13.4496 84.9192C14.1314 84.5859 15.2493 85.5167 15.9465 86.9984C16.6437 88.48 16.6563 89.9513 15.9744 90.2847C15.2926 90.618 14.1747 89.6872 13.4775 88.2055C12.7803 86.7239 12.7678 85.2526 13.4496 84.9192Z" fill="#2196F3"/>
<path d="M12.0759 83.3106C12.4612 77.6219 10.433 69.4645 14.9342 66.0724C17.2068 64.3598 19.9039 64.5779 22.3341 63.405" stroke="#2196F3" stroke-width="4" stroke-miterlimit="10" stroke-linejoin="round"/>
<path fill-rule="evenodd" clip-rule="evenodd" d="M30.2242 49.3352C30.2242 46.7244 32.3407 44.6079 34.9515 44.6079C36.2053 44.6079 37.4077 45.106 38.2942 45.9925C39.1808 46.879 39.6788 48.0815 39.6788 49.3352C39.6788 51.946 37.5623 54.0625 34.9515 54.0625C32.3407 54.0625 30.2242 51.946 30.2242 49.3352Z" fill="black"/>
<path fill-rule="evenodd" clip-rule="evenodd" d="M35.4109 47.7318C35.4109 47.0032 36.0016 46.4126 36.7302 46.4126C37.0801 46.4126 37.4156 46.5516 37.663 46.799C37.9104 47.0464 38.0494 47.382 38.0494 47.7318C38.0494 48.4604 37.4588 49.0511 36.7302 49.0511C36.0016 49.0511 35.4109 48.4604 35.4109 47.7318Z" fill="white"/>
<path fill-rule="evenodd" clip-rule="evenodd" d="M57.6169 49.3352C57.6169 46.7244 59.7334 44.6079 62.3442 44.6079C63.5979 44.6079 64.8003 45.106 65.6869 45.9925C66.5734 46.879 67.0715 48.0815 67.0715 49.3352C67.0715 51.946 64.955 54.0625 62.3442 54.0625C59.7334 54.0625 57.6169 51.946 57.6169 49.3352Z" fill="black"/>
<path fill-rule="evenodd" clip-rule="evenodd" d="M62.8036 47.7318C62.8036 47.0032 63.3942 46.4126 64.1228 46.4126C64.4727 46.4126 64.8083 46.5516 65.0557 46.799C65.3031 47.0464 65.4421 47.382 65.4421 47.7318C65.4421 48.4604 64.8514 49.0511 64.1228 49.0511C63.3942 49.0511 62.8036 48.4604 62.8036 47.7318Z" fill="white"/>
<path d="M41.5422 58.5941C43.7057 56.4306 46.6964 55.2716 49.8565 55.372C53.0165 55.4724 56.0871 56.824 58.3926 59.1295" stroke="black" stroke-width="2" stroke-miterlimit="10" stroke-linejoin="round"/>
<path d="M34.5 112L30.5 126L25 135L32 137.5" stroke="#304FFE" stroke-width="4" stroke-linecap="round" stroke-linejoin="round"/>
<path d="M57.5823 112.275L66 122L61.0823 133.775L69.0823 135.775" stroke="#304FFE" stroke-width="4" stroke-linecap="round" stroke-linejoin="round"/>
</g>
<g filter="url(#filter1_d)">
<path fill-rule="evenodd" clip-rule="evenodd" d="M545.239 104.591L520.774 88.8254V25.7651C520.774 17.0583 531.728 10 545.239 10C558.751 10 569.705 17.0583 569.705 25.7651V88.8254L545.239 104.591Z" fill="#2196F3"/>
<path fill-rule="evenodd" clip-rule="evenodd" d="M571.533 86.6243V102.404C571.533 111.119 559.751 118.183 545.218 118.183C530.684 118.183 518.903 111.119 518.903 102.404V86.6243H571.533Z" fill="#304FFE"/>
<path fill-rule="evenodd" clip-rule="evenodd" d="M583.939 56.5612C582.67 55.8394 582.883 53.0071 584.415 50.235C585.947 47.463 588.218 45.8008 589.487 46.5226C590.756 47.2444 590.543 50.0767 589.011 52.8488C587.479 55.6209 585.209 57.283 583.939 56.5612Z" fill="#2196F3"/>
<path fill-rule="evenodd" clip-rule="evenodd" d="M584.138 52.7962C583.38 52.8051 582.769 51.4851 582.774 49.8479C582.779 48.2107 583.398 46.8763 584.157 46.8675C584.916 46.8586 585.527 48.1786 585.521 49.8158C585.516 51.453 584.897 52.7874 584.138 52.7962Z" fill="#2196F3"/>
<path d="M584.871 54.917C582.084 59.8931 580.418 68.1353 574.896 69.2711C572.108 69.8445 569.765 68.491 567.066 68.5091" stroke="#2196F3" stroke-width="4" stroke-miterlimit="10" stroke-linejoin="round"/>
<path fill-rule="evenodd" clip-rule="evenodd" d="M530.224 49.3352C530.224 46.7244 532.341 44.6079 534.952 44.6079C536.205 44.6079 537.408 45.106 538.294 45.9925C539.181 46.879 539.679 48.0815 539.679 49.3352C539.679 51.946 537.562 54.0625 534.952 54.0625C532.341 54.0625 530.224 51.946 530.224 49.3352Z" fill="black"/>
<path fill-rule="evenodd" clip-rule="evenodd" d="M535.411 47.7318C535.411 47.0032 536.002 46.4126 536.73 46.4126C537.08 46.4126 537.416 46.5516 537.663 46.799C537.91 47.0464 538.049 47.382 538.049 47.7318C538.049 48.4604 537.459 49.0511 536.73 49.0511C536.002 49.0511 535.411 48.4604 535.411 47.7318Z" fill="white"/>
<path fill-rule="evenodd" clip-rule="evenodd" d="M557.617 49.3352C557.617 46.7244 559.733 44.6079 562.344 44.6079C563.598 44.6079 564.8 45.106 565.687 45.9925C566.573 46.879 567.071 48.0815 567.071 49.3352C567.071 51.946 564.955 54.0625 562.344 54.0625C559.733 54.0625 557.617 51.946 557.617 49.3352Z" fill="black"/>
<path fill-rule="evenodd" clip-rule="evenodd" d="M562.804 47.7318C562.804 47.0032 563.394 46.4126 564.123 46.4126C564.473 46.4126 564.808 46.5516 565.056 46.799C565.303 47.0464 565.442 47.382 565.442 47.7318C565.442 48.4604 564.851 49.0511 564.123 49.0511C563.394 49.0511 562.804 48.4604 562.804 47.7318Z" fill="white"/>
<path d="M541.542 58.5941C543.706 56.4306 546.696 55.2716 549.856 55.372C553.017 55.4724 556.087 56.824 558.393 59.1295" stroke="black" stroke-width="2" stroke-miterlimit="10" stroke-linejoin="round"/>
<path d="M536.832 113L538.03 128.478L532 139.056L538.03 139.056" stroke="#304FFE" stroke-width="4" stroke-linecap="round" stroke-linejoin="round"/>
<path d="M637.821 113L639.615 128.145L634 138.718L640.924 139.746" stroke="#304FFE" stroke-width="4" stroke-linecap="round" stroke-linejoin="round"/>
<path d="M556.484 114.397L565.5 120L569.889 130.985L575.913 129.265" stroke="#304FFE" stroke-width="4" stroke-linecap="round" stroke-linejoin="round"/>
<path fill-rule="evenodd" clip-rule="evenodd" d="M509.4 78.9999C511.042 79.1036 512.194 81.6486 511.973 84.6844C511.752 87.7201 510.242 90.097 508.6 89.9933C506.958 89.8896 505.806 87.3445 506.027 84.3088C506.248 81.273 507.758 78.8961 509.4 78.9999Z" fill="#2196F3"/>
<path fill-rule="evenodd" clip-rule="evenodd" d="M510.403 80.4209C511.084 80.0876 512.202 81.0184 512.9 82.5001C513.597 83.9817 513.609 85.453 512.928 85.7864C512.246 86.1197 511.128 85.1889 510.431 83.7072C509.733 82.2256 509.721 80.7543 510.403 80.4209Z" fill="#2196F3"/>
<path d="M508.686 82.5456C510.337 77.0616 509.212 71.793 514.133 69.4394C516.618 68.2512 520.168 65.894 522.675 65.2677" stroke="#2196F3" stroke-width="4" stroke-miterlimit="10" stroke-linejoin="round"/>
</g>
<path d="M656 111.216L664.5 122L670.5 132L676 128" stroke="#304FFE" stroke-width="4" stroke-linecap="round" stroke-linejoin="round"/>
<g filter="url(#filter2_d)">
<path fill-rule="evenodd" clip-rule="evenodd" d="M743.239 104.591L718.774 88.8254V25.7651C718.774 17.0583 729.728 10 743.239 10C756.751 10 767.705 17.0583 767.705 25.7651V88.8254L743.239 104.591Z" fill="#2196F3"/>
<path fill-rule="evenodd" clip-rule="evenodd" d="M769.533 86.6243V102.404C769.533 111.119 757.751 118.183 743.218 118.183C728.684 118.183 716.903 111.119 716.903 102.404V86.6243H769.533Z" fill="#304FFE"/>
<path fill-rule="evenodd" clip-rule="evenodd" d="M781.939 56.5612C780.67 55.8394 780.883 53.0071 782.415 50.235C783.947 47.463 786.218 45.8008 787.487 46.5226C788.756 47.2444 788.543 50.0767 787.011 52.8488C785.479 55.6209 783.209 57.283 781.939 56.5612Z" fill="#2196F3"/>
<path fill-rule="evenodd" clip-rule="evenodd" d="M782.138 52.7962C781.379 52.8051 780.769 51.4851 780.774 49.8479C780.779 48.2107 781.398 46.8763 782.157 46.8675C782.916 46.8586 783.527 48.1786 783.521 49.8158C783.516 51.453 782.897 52.7874 782.138 52.7962Z" fill="#2196F3"/>
<path d="M782.871 54.917C780.084 59.8931 778.418 68.1353 772.896 69.2711C770.108 69.8445 767.765 68.491 765.066 68.5091" stroke="#2196F3" stroke-width="4" stroke-miterlimit="10" stroke-linejoin="round"/>
<path fill-rule="evenodd" clip-rule="evenodd" d="M728.224 49.3352C728.224 46.7244 730.341 44.6079 732.952 44.6079C734.205 44.6079 735.408 45.106 736.294 45.9925C737.181 46.879 737.679 48.0815 737.679 49.3352C737.679 51.946 735.562 54.0625 732.952 54.0625C730.341 54.0625 728.224 51.946 728.224 49.3352Z" fill="black"/>
<path fill-rule="evenodd" clip-rule="evenodd" d="M733.411 47.7318C733.411 47.0032 734.002 46.4126 734.73 46.4126C735.08 46.4126 735.416 46.5516 735.663 46.799C735.91 47.0464 736.049 47.382 736.049 47.7318C736.049 48.4604 735.459 49.0511 734.73 49.0511C734.002 49.0511 733.411 48.4604 733.411 47.7318Z" fill="white"/>
<path fill-rule="evenodd" clip-rule="evenodd" d="M755.617 49.3352C755.617 46.7244 757.733 44.6079 760.344 44.6079C761.598 44.6079 762.8 45.106 763.687 45.9925C764.573 46.879 765.071 48.0815 765.071 49.3352C765.071 51.946 762.955 54.0625 760.344 54.0625C757.733 54.0625 755.617 51.946 755.617 49.3352Z" fill="black"/>
<path fill-rule="evenodd" clip-rule="evenodd" d="M760.804 47.7318C760.804 47.0032 761.394 46.4126 762.123 46.4126C762.473 46.4126 762.808 46.5516 763.056 46.799C763.303 47.0464 763.442 47.382 763.442 47.7318C763.442 48.4604 762.851 49.0511 762.123 49.0511C761.394 49.0511 760.804 48.4604 760.804 47.7318Z" fill="white"/>
<path d="M739.542 58.5941C741.706 56.4306 744.696 55.2716 747.856 55.372C751.017 55.4724 754.087 56.824 756.393 59.1295" stroke="black" stroke-width="2" stroke-miterlimit="10" stroke-linejoin="round"/>
<path d="M735 113L732 127.5L725 135L732 137.5" stroke="#304FFE" stroke-width="4" stroke-linecap="round" stroke-linejoin="round"/>
<path d="M755 112.84L764 121.5L769.262 132.052L774.177 131.136" stroke="#304FFE" stroke-width="4" stroke-linecap="round" stroke-linejoin="round"/>
<path fill-rule="evenodd" clip-rule="evenodd" d="M708.4 78.9999C710.042 79.1036 711.194 81.6486 710.973 84.6844C710.752 87.7201 709.242 90.097 707.6 89.9933C705.958 89.8896 704.806 87.3445 705.027 84.3088C705.248 81.273 706.758 78.8961 708.4 78.9999Z" fill="#2196F3"/>
<path fill-rule="evenodd" clip-rule="evenodd" d="M709.403 80.4209C710.084 80.0876 711.202 81.0184 711.9 82.5001C712.597 83.9817 712.609 85.453 711.928 85.7864C711.246 86.1197 710.128 85.1889 709.431 83.7072C708.733 82.2256 708.721 80.7543 709.403 80.4209Z" fill="#2196F3"/>
<path d="M707.686 82.5456C709.337 77.0616 708.212 71.793 713.133 69.4394C715.618 68.2512 719.168 65.894 721.675 65.2677" stroke="#2196F3" stroke-width="4" stroke-miterlimit="10" stroke-linejoin="round"/>
</g>
<g filter="url(#filter3_d)">
<path fill-rule="evenodd" clip-rule="evenodd" d="M645.239 103.591L620.774 87.8254V24.7651C620.774 16.0583 631.727 9 645.239 9C658.751 9 669.705 16.0583 669.705 24.7651V87.8254L645.239 103.591Z" fill="#2196F3"/>
<path fill-rule="evenodd" clip-rule="evenodd" d="M671.532 85.6243V101.404C671.532 110.119 659.751 117.183 645.217 117.183C630.684 117.183 618.902 110.119 618.902 101.404V85.6243H671.532Z" fill="#304FFE"/>
<path fill-rule="evenodd" clip-rule="evenodd" d="M630.224 48.3352C630.224 45.7244 632.341 43.6079 634.951 43.6079C636.205 43.6079 637.408 44.106 638.294 44.9925C639.181 45.879 639.679 47.0815 639.679 48.3352C639.679 50.946 637.562 53.0625 634.951 53.0625C632.341 53.0625 630.224 50.946 630.224 48.3352Z" fill="black"/>
<path fill-rule="evenodd" clip-rule="evenodd" d="M635.411 46.7318C635.411 46.0032 636.001 45.4126 636.73 45.4126C637.08 45.4126 637.415 45.5516 637.663 45.799C637.91 46.0464 638.049 46.382 638.049 46.7318C638.049 47.4604 637.459 48.0511 636.73 48.0511C636.001 48.0511 635.411 47.4604 635.411 46.7318Z" fill="white"/>
<path fill-rule="evenodd" clip-rule="evenodd" d="M657.617 48.3352C657.617 45.7244 659.733 43.6079 662.344 43.6079C663.598 43.6079 664.8 44.106 665.687 44.9925C666.573 45.879 667.071 47.0815 667.071 48.3352C667.071 50.946 664.955 53.0625 662.344 53.0625C659.733 53.0625 657.617 50.946 657.617 48.3352Z" fill="black"/>
<path fill-rule="evenodd" clip-rule="evenodd" d="M662.803 46.7318C662.803 46.0032 663.394 45.4126 664.123 45.4126C664.473 45.4126 664.808 45.5516 665.055 45.799C665.303 46.0464 665.442 46.382 665.442 46.7318C665.442 47.4604 664.851 48.0511 664.123 48.0511C663.394 48.0511 662.803 47.4604 662.803 46.7318Z" fill="white"/>
<path d="M641.542 57.5941C643.705 55.4306 646.696 54.2716 649.856 54.372C653.016 54.4724 656.087 55.824 658.392 58.1295" stroke="black" stroke-width="2" stroke-miterlimit="10" stroke-linejoin="round"/>
<path fill-rule="evenodd" clip-rule="evenodd" d="M411.015 81.0268C412.471 81.1349 413.493 83.7856 413.297 86.9474C413.102 90.1091 411.762 92.5847 410.306 92.4767C408.85 92.3686 407.828 89.7179 408.024 86.5562C408.22 83.3944 409.559 80.9188 411.015 81.0268Z" fill="#2196F3"/>
<path fill-rule="evenodd" clip-rule="evenodd" d="M412.449 84.5142C413.131 84.1808 414.249 85.1117 414.946 86.5933C415.644 88.075 415.656 89.5463 414.974 89.8796C414.292 90.213 413.175 89.2821 412.477 87.8005C411.78 86.3189 411.768 84.8475 412.449 84.5142Z" fill="#2196F3"/>
<path d="M411.076 82.9055C411.461 77.2169 409.433 69.0595 413.934 65.6674C416.207 63.9548 418.904 64.1729 421.334 63" stroke="#2196F3" stroke-width="4" stroke-miterlimit="10" stroke-linejoin="round"/>
<path fill-rule="evenodd" clip-rule="evenodd" d="M605.26 73.5578C606.472 74.1155 606.6 76.9527 605.545 79.895C604.49 82.8373 602.652 84.7703 601.44 84.2127C600.227 83.655 600.099 80.8177 601.154 77.8755C602.209 74.9332 604.047 73.0001 605.26 73.5578Z" fill="#2196F3"/>
<path fill-rule="evenodd" clip-rule="evenodd" d="M604.428 76.0615C605.007 75.7585 605.956 76.6046 606.549 77.9514C607.141 79.2981 607.152 80.6355 606.572 80.9385C605.993 81.2415 605.044 80.3954 604.451 79.0486C603.859 77.7019 603.848 76.3645 604.428 76.0615Z" fill="#2196F3"/>
<path d="M603 78C606.935 74.3484 611.245 62.7238 616.243 63.6346C618.766 64.0944 620.298 66.195 622.569 67.1416" stroke="#2196F3" stroke-width="4" stroke-miterlimit="10" stroke-linejoin="round"/>
<path fill-rule="evenodd" clip-rule="evenodd" d="M675.742 47.774C674.328 48.135 672.515 45.9478 671.695 42.8887C670.874 39.8297 671.356 37.0572 672.771 36.6962C674.186 36.3353 675.998 38.5225 676.818 41.5815C677.639 44.6406 677.157 47.413 675.742 47.774Z" fill="#2196F3"/>
<path fill-rule="evenodd" clip-rule="evenodd" d="M673.753 47.5465C673.157 48.0152 671.869 47.3395 670.877 46.0372C669.884 44.7349 669.564 43.2992 670.16 42.8304C670.757 42.3617 672.045 43.0374 673.037 44.3397C674.03 45.642 674.35 47.0777 673.753 47.5465Z" fill="#2196F3"/>
<path d="M675.213 45.4191C675.418 51.1192 679.34 63.0264 675.213 66.8669C673.13 68.8059 670.424 68.8676 668.128 70.2859" stroke="#2196F3" stroke-width="4" stroke-miterlimit="10" stroke-linejoin="round"/>
</g>
<g filter="url(#filter4_d)">
<path fill-rule="evenodd" clip-rule="evenodd" d="M445.239 104.591L420.773 88.8254V25.7651C420.773 17.0583 431.727 10 445.239 10C458.751 10 469.704 17.0583 469.704 25.7651V88.8254L445.239 104.591Z" fill="#2196F3"/>
<path fill-rule="evenodd" clip-rule="evenodd" d="M471.532 86.6243V102.404C471.532 111.119 459.75 118.183 445.217 118.183C430.684 118.183 418.902 111.119 418.902 102.404V86.6243H471.532Z" fill="#304FFE"/>
<path fill-rule="evenodd" clip-rule="evenodd" d="M430.224 49.3352C430.224 46.7244 432.34 44.6079 434.951 44.6079C436.205 44.6079 437.407 45.106 438.294 45.9925C439.18 46.879 439.678 48.0815 439.678 49.3352C439.678 51.946 437.562 54.0625 434.951 54.0625C432.34 54.0625 430.224 51.946 430.224 49.3352Z" fill="black"/>
<path fill-rule="evenodd" clip-rule="evenodd" d="M435.41 47.7318C435.41 47.0032 436.001 46.4126 436.73 46.4126C437.08 46.4126 437.415 46.5516 437.663 46.799C437.91 47.0464 438.049 47.382 438.049 47.7318C438.049 48.4604 437.458 49.0511 436.73 49.0511C436.001 49.0511 435.41 48.4604 435.41 47.7318Z" fill="white"/>
<path fill-rule="evenodd" clip-rule="evenodd" d="M457.616 49.3352C457.616 46.7244 459.733 44.6079 462.344 44.6079C463.597 44.6079 464.8 45.106 465.686 45.9925C466.573 46.879 467.071 48.0815 467.071 49.3352C467.071 51.946 464.954 54.0625 462.344 54.0625C459.733 54.0625 457.616 51.946 457.616 49.3352Z" fill="black"/>
<path fill-rule="evenodd" clip-rule="evenodd" d="M462.803 47.7318C462.803 47.0032 463.394 46.4126 464.122 46.4126C464.472 46.4126 464.808 46.5516 465.055 46.799C465.303 47.0464 465.442 47.382 465.442 47.7318C465.442 48.4604 464.851 49.0511 464.122 49.0511C463.394 49.0511 462.803 48.4604 462.803 47.7318Z" fill="white"/>
<path d="M441.542 58.5941C443.705 56.4306 446.696 55.2716 449.856 55.372C453.016 55.4724 456.087 56.824 458.392 59.1295" stroke="black" stroke-width="2" stroke-miterlimit="10" stroke-linejoin="round"/>
<path d="M433.205 110L429.538 123.759L419 131L421.5 135.5" stroke="#304FFE" stroke-width="4" stroke-linecap="round" stroke-linejoin="round"/>
<path d="M458.5 110L467.5 120.5L462.705 134.841L469.844 132.186" stroke="#304FFE" stroke-width="4" stroke-linecap="round" stroke-linejoin="round"/>
<path fill-rule="evenodd" clip-rule="evenodd" d="M483.811 63.2072C482.542 62.4854 482.755 59.6531 484.287 56.881C485.819 54.1089 488.089 52.4468 489.358 53.1686C490.628 53.8903 490.415 56.7227 488.883 59.4947C487.351 62.2668 485.08 63.9289 483.811 63.2072Z" fill="#2196F3"/>
<path fill-rule="evenodd" clip-rule="evenodd" d="M484.299 59.2418C483.54 59.2507 482.929 57.9307 482.934 56.2935C482.939 54.6563 483.558 53.3219 484.317 53.313C485.076 53.3042 485.687 54.6242 485.682 56.2614C485.677 57.8985 485.057 59.2329 484.299 59.2418Z" fill="#2196F3"/>
<path d="M484.934 61.313C482.146 66.2891 478.352 68.4484 472.83 69.5842C470.042 70.1576 467.699 68.8041 465 68.8222" stroke="#2196F3" stroke-width="4" stroke-miterlimit="10" stroke-linejoin="round"/>
</g>
<g filter="url(#filter5_d)">
<path fill-rule="evenodd" clip-rule="evenodd" d="M345.239 104.591L320.774 88.8254V25.7651C320.774 17.0583 331.728 10 345.239 10C358.751 10 369.705 17.0583 369.705 25.7651V88.8254L345.239 104.591Z" fill="#2196F3"/>
<path fill-rule="evenodd" clip-rule="evenodd" d="M371.533 86.6243V102.404C371.533 111.119 359.751 118.183 345.218 118.183C330.684 118.183 318.903 111.119 318.903 102.404V86.6243H371.533Z" fill="#304FFE"/>
<path fill-rule="evenodd" clip-rule="evenodd" d="M383.939 56.5612C382.67 55.8394 382.883 53.0071 384.415 50.235C385.947 47.463 388.218 45.8008 389.487 46.5226C390.756 47.2444 390.543 50.0767 389.011 52.8488C387.479 55.6209 385.209 57.283 383.939 56.5612Z" fill="#2196F3"/>
<path fill-rule="evenodd" clip-rule="evenodd" d="M384.138 52.7962C383.38 52.8051 382.769 51.4851 382.774 49.8479C382.779 48.2107 383.398 46.8763 384.157 46.8675C384.916 46.8586 385.527 48.1786 385.521 49.8158C385.516 51.453 384.897 52.7874 384.138 52.7962Z" fill="#2196F3"/>
<path d="M384.871 54.917C382.084 59.8931 380.418 68.1353 374.896 69.2711C372.108 69.8445 369.765 68.491 367.066 68.5091" stroke="#2196F3" stroke-width="4" stroke-miterlimit="10" stroke-linejoin="round"/>
<path fill-rule="evenodd" clip-rule="evenodd" d="M330.224 49.3352C330.224 46.7244 332.341 44.6079 334.952 44.6079C336.205 44.6079 337.408 45.106 338.294 45.9925C339.181 46.879 339.679 48.0815 339.679 49.3352C339.679 51.946 337.562 54.0625 334.952 54.0625C332.341 54.0625 330.224 51.946 330.224 49.3352Z" fill="black"/>
<path fill-rule="evenodd" clip-rule="evenodd" d="M335.411 47.7318C335.411 47.0032 336.002 46.4126 336.73 46.4126C337.08 46.4126 337.416 46.5516 337.663 46.799C337.91 47.0464 338.049 47.382 338.049 47.7318C338.049 48.4604 337.459 49.0511 336.73 49.0511C336.002 49.0511 335.411 48.4604 335.411 47.7318Z" fill="white"/>
<path fill-rule="evenodd" clip-rule="evenodd" d="M357.617 49.3352C357.617 46.7244 359.733 44.6079 362.344 44.6079C363.598 44.6079 364.8 45.106 365.687 45.9925C366.573 46.879 367.071 48.0815 367.071 49.3352C367.071 51.946 364.955 54.0625 362.344 54.0625C359.733 54.0625 357.617 51.946 357.617 49.3352Z" fill="black"/>
<path fill-rule="evenodd" clip-rule="evenodd" d="M362.804 47.7318C362.804 47.0032 363.394 46.4126 364.123 46.4126C364.473 46.4126 364.808 46.5516 365.056 46.799C365.303 47.0464 365.442 47.382 365.442 47.7318C365.442 48.4604 364.851 49.0511 364.123 49.0511C363.394 49.0511 362.804 48.4604 362.804 47.7318Z" fill="white"/>
<path d="M341.542 58.5941C343.706 56.4306 346.696 55.2716 349.856 55.372C353.017 55.4724 356.087 56.824 358.393 59.1295" stroke="black" stroke-width="2" stroke-miterlimit="10" stroke-linejoin="round"/>
<path fill-rule="evenodd" clip-rule="evenodd" d="M310.4 77.9999C312.042 78.1036 313.194 80.6486 312.973 83.6844C312.752 86.7201 311.242 89.097 309.6 88.9933C307.958 88.8896 306.806 86.3445 307.027 83.3088C307.248 80.273 308.758 77.8961 310.4 77.9999Z" fill="#2196F3"/>
<path fill-rule="evenodd" clip-rule="evenodd" d="M311.403 79.4209C312.084 79.0876 313.202 80.0184 313.9 81.5001C314.597 82.9817 314.609 84.453 313.928 84.7864C313.246 85.1197 312.128 84.1889 311.431 82.7072C310.733 81.2256 310.721 79.7543 311.403 79.4209Z" fill="#2196F3"/>
<path d="M309.686 81.5456C311.337 76.0616 310.212 70.793 315.133 68.4394C317.618 67.2512 321.168 64.894 323.675 64.2677" stroke="#2196F3" stroke-width="4" stroke-miterlimit="10" stroke-linejoin="round"/>
<path d="M334.5 112L329.5 124L314 119L312 126" stroke="#304FFE" stroke-width="4" stroke-linecap="round" stroke-linejoin="round"/>
<path d="M358 112L367.5 119L361.5 133.5L369.5 135.5" stroke="#304FFE" stroke-width="4" stroke-linecap="round" stroke-linejoin="round"/>
</g>
<g filter="url(#filter6_d)">
<path fill-rule="evenodd" clip-rule="evenodd" d="M245.239 104.591L220.774 88.8254V25.7651C220.774 17.0583 231.728 10 245.239 10C258.751 10 269.705 17.0583 269.705 25.7651V88.8254L245.239 104.591Z" fill="#2196F3"/>
<path fill-rule="evenodd" clip-rule="evenodd" d="M271.533 86.6243V102.404C271.533 111.119 259.751 118.183 245.218 118.183C230.684 118.183 218.903 111.119 218.903 102.404V86.6243H271.533Z" fill="#304FFE"/>
<path fill-rule="evenodd" clip-rule="evenodd" d="M275.679 47.774C274.265 48.135 272.453 45.9478 271.632 42.8887C270.812 39.8297 271.293 37.0572 272.708 36.6962C274.123 36.3353 275.935 38.5225 276.755 41.5815C277.576 44.6406 277.094 47.413 275.679 47.774Z" fill="#2196F3"/>
<path fill-rule="evenodd" clip-rule="evenodd" d="M273.691 47.5465C273.094 48.0152 271.806 47.3395 270.814 46.0372C269.822 44.7349 269.501 43.2992 270.098 42.8304C270.694 42.3617 271.982 43.0374 272.975 44.3397C273.967 45.642 274.287 47.0777 273.691 47.5465Z" fill="#2196F3"/>
<path d="M275.15 45.4191C275.355 51.1192 279.277 63.0264 275.15 66.8669C273.067 68.8059 270.361 68.8676 268.065 70.2859" stroke="#2196F3" stroke-width="4" stroke-miterlimit="10" stroke-linejoin="round"/>
<path fill-rule="evenodd" clip-rule="evenodd" d="M205.225 73.9455C206.529 74.5032 206.667 77.3404 205.532 80.2827C204.398 83.2249 202.422 85.158 201.118 84.6004C199.814 84.0427 199.676 81.2054 200.811 78.2631C201.945 75.3209 203.921 73.3878 205.225 73.9455Z" fill="#2196F3"/>
<path fill-rule="evenodd" clip-rule="evenodd" d="M203.57 78.0738C204.342 77.7102 205.609 78.7255 206.398 80.3416C207.188 81.9577 207.202 83.5626 206.43 83.9262C205.658 84.2898 204.391 83.2745 203.602 81.6584C202.812 80.0423 202.798 78.4374 203.57 78.0738Z" fill="#2196F3"/>
<path d="M203.5 77.5C207.731 73.8484 210.392 63.0934 215.766 64.0041C218.48 64.464 220.128 66.5646 222.569 67.5112" stroke="#2196F3" stroke-width="4" stroke-miterlimit="10" stroke-linejoin="round"/>
<path fill-rule="evenodd" clip-rule="evenodd" d="M230.224 49.3352C230.224 46.7244 232.341 44.6079 234.952 44.6079C236.205 44.6079 237.408 45.106 238.294 45.9925C239.181 46.879 239.679 48.0815 239.679 49.3352C239.679 51.946 237.562 54.0625 234.952 54.0625C232.341 54.0625 230.224 51.946 230.224 49.3352Z" fill="black"/>
<path fill-rule="evenodd" clip-rule="evenodd" d="M235.411 47.7318C235.411 47.0032 236.002 46.4126 236.73 46.4126C237.08 46.4126 237.416 46.5516 237.663 46.799C237.91 47.0464 238.049 47.382 238.049 47.7318C238.049 48.4604 237.459 49.0511 236.73 49.0511C236.002 49.0511 235.411 48.4604 235.411 47.7318Z" fill="white"/>
<path fill-rule="evenodd" clip-rule="evenodd" d="M257.617 49.3352C257.617 46.7244 259.733 44.6079 262.344 44.6079C263.598 44.6079 264.8 45.106 265.687 45.9925C266.573 46.879 267.071 48.0815 267.071 49.3352C267.071 51.946 264.955 54.0625 262.344 54.0625C259.733 54.0625 257.617 51.946 257.617 49.3352Z" fill="black"/>
<path fill-rule="evenodd" clip-rule="evenodd" d="M262.804 47.7318C262.804 47.0032 263.394 46.4126 264.123 46.4126C264.473 46.4126 264.808 46.5516 265.056 46.799C265.303 47.0464 265.442 47.382 265.442 47.7318C265.442 48.4604 264.851 49.0511 264.123 49.0511C263.394 49.0511 262.804 48.4604 262.804 47.7318Z" fill="white"/>
<path d="M241.542 58.5941C243.706 56.4306 246.696 55.2716 249.856 55.372C253.017 55.4724 256.087 56.824 258.393 59.1295" stroke="black" stroke-width="2" stroke-miterlimit="10" stroke-linejoin="round"/>
<path d="M234.082 112.275L220.5 122.5L206 117.5L202.5 122.5" stroke="#304FFE" stroke-width="4" stroke-linecap="round" stroke-linejoin="round"/>
<path d="M258 112L265 124.5L258 143H265" stroke="#304FFE" stroke-width="4" stroke-linecap="round" stroke-linejoin="round"/>
</g>
<g filter="url(#filter7_d)">
<path fill-rule="evenodd" clip-rule="evenodd" d="M145.239 104.591L120.774 88.8254V25.7651C120.774 17.0583 131.728 10 145.239 10C158.751 10 169.705 17.0583 169.705 25.7651V88.8254L145.239 104.591Z" fill="#2196F3"/>
<path fill-rule="evenodd" clip-rule="evenodd" d="M171.533 86.6243V102.404C171.533 111.119 159.751 118.183 145.218 118.183C130.684 118.183 118.903 111.119 118.903 102.404V86.6243H171.533Z" fill="#304FFE"/>
<path fill-rule="evenodd" clip-rule="evenodd" d="M183.939 56.5612C182.67 55.8394 182.883 53.0071 184.415 50.235C185.947 47.463 188.218 45.8008 189.487 46.5226C190.756 47.2444 190.543 50.0767 189.011 52.8488C187.479 55.6209 185.209 57.283 183.939 56.5612Z" fill="#2196F3"/>
<path fill-rule="evenodd" clip-rule="evenodd" d="M184.138 52.7962C183.38 52.8051 182.769 51.4851 182.774 49.8479C182.779 48.2107 183.398 46.8763 184.157 46.8675C184.916 46.8586 185.527 48.1786 185.521 49.8158C185.516 51.453 184.897 52.7874 184.138 52.7962Z" fill="#2196F3"/>
<path d="M184.871 54.917C182.084 59.8931 180.418 68.1353 174.896 69.2711C172.108 69.8445 169.765 68.491 167.066 68.5091" stroke="#2196F3" stroke-width="4" stroke-miterlimit="10" stroke-linejoin="round"/>
<path fill-rule="evenodd" clip-rule="evenodd" d="M109 76.9999C110.642 77.1036 111.794 79.6486 111.573 82.6844C111.353 85.7201 109.843 88.097 108.201 87.9933C106.559 87.8896 105.407 85.3445 105.627 82.3088C105.848 79.273 107.358 76.8961 109 76.9999Z" fill="#2196F3"/>
<path fill-rule="evenodd" clip-rule="evenodd" d="M110.003 78.4209C110.685 78.0876 111.803 79.0184 112.5 80.5001C113.197 81.9817 113.21 83.453 112.528 83.7864C111.846 84.1197 110.728 83.1889 110.031 81.7072C109.334 80.2256 109.321 78.7543 110.003 78.4209Z" fill="#2196F3"/>
<path d="M108.286 80.5456C109.937 75.0616 108.812 69.793 113.733 67.4394C116.218 66.2512 119.768 63.894 122.275 63.2677" stroke="#2196F3" stroke-width="4" stroke-miterlimit="10" stroke-linejoin="round"/>
<path fill-rule="evenodd" clip-rule="evenodd" d="M130.224 49.3352C130.224 46.7244 132.341 44.6079 134.952 44.6079C136.205 44.6079 137.408 45.106 138.294 45.9925C139.181 46.879 139.679 48.0815 139.679 49.3352C139.679 51.946 137.562 54.0625 134.952 54.0625C132.341 54.0625 130.224 51.946 130.224 49.3352Z" fill="black"/>
<path fill-rule="evenodd" clip-rule="evenodd" d="M135.411 47.7318C135.411 47.0032 136.002 46.4126 136.73 46.4126C137.08 46.4126 137.416 46.5516 137.663 46.799C137.91 47.0464 138.049 47.382 138.049 47.7318C138.049 48.4604 137.459 49.0511 136.73 49.0511C136.002 49.0511 135.411 48.4604 135.411 47.7318Z" fill="white"/>
<path fill-rule="evenodd" clip-rule="evenodd" d="M157.617 49.3352C157.617 46.7244 159.733 44.6079 162.344 44.6079C163.598 44.6079 164.8 45.106 165.687 45.9925C166.573 46.879 167.071 48.0815 167.071 49.3352C167.071 51.946 164.955 54.0625 162.344 54.0625C159.733 54.0625 157.617 51.946 157.617 49.3352Z" fill="black"/>
<path fill-rule="evenodd" clip-rule="evenodd" d="M162.804 47.7318C162.804 47.0032 163.394 46.4126 164.123 46.4126C164.473 46.4126 164.808 46.5516 165.056 46.799C165.303 47.0464 165.442 47.382 165.442 47.7318C165.442 48.4604 164.851 49.0511 164.123 49.0511C163.394 49.0511 162.804 48.4604 162.804 47.7318Z" fill="white"/>
<path d="M141.542 58.5941C143.706 56.4306 146.696 55.2716 149.856 55.372C153.017 55.4724 156.087 56.824 158.393 59.1295" stroke="black" stroke-width="2" stroke-miterlimit="10" stroke-linejoin="round"/>
<path d="M134.082 112.275L129.082 124.275L113.582 119.275L111.582 126.275" stroke="#304FFE" stroke-width="4" stroke-linecap="round" stroke-linejoin="round"/>
<path d="M157.582 112.275L165.5 124.5L162.5 135.775L168 138" stroke="#304FFE" stroke-width="4" stroke-linecap="round" stroke-linejoin="round"/>
</g>
</g>
<defs>
<filter id="filter0_d" x="5" y="10" width="91.2528" height="137.501" filterUnits="userSpaceOnUse" color-interpolation-filters="sRGB">
<feFlood flood-opacity="0" result="BackgroundImageFix"/>
<feColorMatrix in="SourceAlpha" type="matrix" values="0 0 0 0 0 0 0 0 0 0 0 0 0 0 0 0 0 0 127 0"/>
<feOffset dy="4"/>
<feGaussianBlur stdDeviation="2"/>
<feColorMatrix type="matrix" values="0 0 0 0 0 0 0 0 0 0 0 0 0 0 0 0 0 0 0.25 0"/>
<feBlend mode="normal" in2="BackgroundImageFix" result="effect1_dropShadow"/>
<feBlend mode="normal" in="SourceGraphic" in2="effect1_dropShadow" result="shape"/>
</filter>
<filter id="filter1_d" x="502" y="10" width="144.924" height="140.468" filterUnits="userSpaceOnUse" color-interpolation-filters="sRGB">
<feFlood flood-opacity="0" result="BackgroundImageFix"/>
<feColorMatrix in="SourceAlpha" type="matrix" values="0 0 0 0 0 0 0 0 0 0 0 0 0 0 0 0 0 0 127 0"/>
<feOffset dy="4"/>
<feGaussianBlur stdDeviation="2"/>
<feColorMatrix type="matrix" values="0 0 0 0 0 0 0 0 0 0 0 0 0 0 0 0 0 0 0.25 0"/>
<feBlend mode="normal" in2="BackgroundImageFix" result="effect1_dropShadow"/>
<feBlend mode="normal" in="SourceGraphic" in2="effect1_dropShadow" result="shape"/>
</filter>
<filter id="filter2_d" x="701" y="10" width="91.3151" height="137.5" filterUnits="userSpaceOnUse" color-interpolation-filters="sRGB">
<feFlood flood-opacity="0" result="BackgroundImageFix"/>
<feColorMatrix in="SourceAlpha" type="matrix" values="0 0 0 0 0 0 0 0 0 0 0 0 0 0 0 0 0 0 127 0"/>
<feOffset dy="4"/>
<feGaussianBlur stdDeviation="2"/>
<feColorMatrix type="matrix" values="0 0 0 0 0 0 0 0 0 0 0 0 0 0 0 0 0 0 0.25 0"/>
<feBlend mode="normal" in2="BackgroundImageFix" result="effect1_dropShadow"/>
<feBlend mode="normal" in="SourceGraphic" in2="effect1_dropShadow" result="shape"/>
</filter>
<filter id="filter3_d" x="404" y="9" width="287.341" height="116.183" filterUnits="userSpaceOnUse" color-interpolation-filters="sRGB">
<feFlood flood-opacity="0" result="BackgroundImageFix"/>
<feColorMatrix in="SourceAlpha" type="matrix" values="0 0 0 0 0 0 0 0 0 0 0 0 0 0 0 0 0 0 127 0"/>
<feOffset dy="4"/>
<feGaussianBlur stdDeviation="2"/>
<feColorMatrix type="matrix" values="0 0 0 0 0 0 0 0 0 0 0 0 0 0 0 0 0 0 0.25 0"/>
<feBlend mode="normal" in2="BackgroundImageFix" result="effect1_dropShadow"/>
<feBlend mode="normal" in="SourceGraphic" in2="effect1_dropShadow" result="shape"/>
</filter>
<filter id="filter4_d" x="411.008" y="10" width="83.1788" height="137.03" filterUnits="userSpaceOnUse" color-interpolation-filters="sRGB">
<feFlood flood-opacity="0" result="BackgroundImageFix"/>
<feColorMatrix in="SourceAlpha" type="matrix" values="0 0 0 0 0 0 0 0 0 0 0 0 0 0 0 0 0 0 127 0"/>
<feOffset dy="4"/>
<feGaussianBlur stdDeviation="2"/>
<feColorMatrix type="matrix" values="0 0 0 0 0 0 0 0 0 0 0 0 0 0 0 0 0 0 0.25 0"/>
<feBlend mode="normal" in2="BackgroundImageFix" result="effect1_dropShadow"/>
<feBlend mode="normal" in="SourceGraphic" in2="effect1_dropShadow" result="shape"/>
</filter>
<filter id="filter5_d" x="303" y="10" width="91.3152" height="135.5" filterUnits="userSpaceOnUse" color-interpolation-filters="sRGB">
<feFlood flood-opacity="0" result="BackgroundImageFix"/>
<feColorMatrix in="SourceAlpha" type="matrix" values="0 0 0 0 0 0 0 0 0 0 0 0 0 0 0 0 0 0 127 0"/>
<feOffset dy="4"/>
<feGaussianBlur stdDeviation="2"/>
<feColorMatrix type="matrix" values="0 0 0 0 0 0 0 0 0 0 0 0 0 0 0 0 0 0 0.25 0"/>
<feBlend mode="normal" in2="BackgroundImageFix" result="effect1_dropShadow"/>
<feBlend mode="normal" in="SourceGraphic" in2="effect1_dropShadow" result="shape"/>
</filter>
<filter id="filter6_d" x="196.042" y="10" width="95.2359" height="143" filterUnits="userSpaceOnUse" color-interpolation-filters="sRGB">
<feFlood flood-opacity="0" result="BackgroundImageFix"/>
<feColorMatrix in="SourceAlpha" type="matrix" values="0 0 0 0 0 0 0 0 0 0 0 0 0 0 0 0 0 0 127 0"/>
<feOffset dy="4"/>
<feGaussianBlur stdDeviation="2"/>
<feColorMatrix type="matrix" values="0 0 0 0 0 0 0 0 0 0 0 0 0 0 0 0 0 0 0.25 0"/>
<feBlend mode="normal" in2="BackgroundImageFix" result="effect1_dropShadow"/>
<feBlend mode="normal" in="SourceGraphic" in2="effect1_dropShadow" result="shape"/>
</filter>
<filter id="filter7_d" x="101.6" y="10" width="92.7148" height="138.001" filterUnits="userSpaceOnUse" color-interpolation-filters="sRGB">
<feFlood flood-opacity="0" result="BackgroundImageFix"/>
<feColorMatrix in="SourceAlpha" type="matrix" values="0 0 0 0 0 0 0 0 0 0 0 0 0 0 0 0 0 0 127 0"/>
<feOffset dy="4"/>
<feGaussianBlur stdDeviation="2"/>
<feColorMatrix type="matrix" values="0 0 0 0 0 0 0 0 0 0 0 0 0 0 0 0 0 0 0.25 0"/>
<feBlend mode="normal" in2="BackgroundImageFix" result="effect1_dropShadow"/>
<feBlend mode="normal" in="SourceGraphic" in2="effect1_dropShadow" result="shape"/>
</filter>
<clipPath id="clip0">
<rect width="800" height="145" fill="white"/>
</clipPath>
</defs>
</svg>
