<svg width="800" height="145" viewBox="0 0 800 145" fill="none" xmlns="http://www.w3.org/2000/svg">
<path fill-rule="evenodd" clip-rule="evenodd" d="M82.2005 54.4646C80.7332 54.3331 79.7242 51.667 79.9468 48.5097C80.1694 45.3524 81.5394 42.8996 83.0067 43.0312C84.474 43.1627 85.483 45.8288 85.2604 48.9861C85.0378 52.1434 83.6678 54.5962 82.2005 54.4646Z" fill="#2196F3"/>
<path fill-rule="evenodd" clip-rule="evenodd" d="M80.7729 50.9517C80.0848 51.2755 78.9691 50.3403 78.281 48.8629C77.5929 47.3855 77.5929 45.9253 78.281 45.6014C78.9691 45.2776 80.0848 46.2128 80.7729 47.6902C81.461 49.1677 81.461 50.6279 80.7729 50.9517Z" fill="#2196F3"/>
<path d="M82.1901 52.5286C81.7709 58.2155 83.7498 66.3858 79.2293 69.7515C76.947 71.4508 74.2519 71.2166 71.8152 72.3752" stroke="#2196F3" stroke-width="4" stroke-miterlimit="10" stroke-linejoin="round"/>
<path fill-rule="evenodd" clip-rule="evenodd" d="M17.0726 54.5995C18.5298 54.468 19.5306 51.8018 19.308 48.6446C19.0853 45.4873 17.7236 43.0345 16.2664 43.1661C14.8092 43.2976 13.8084 45.9637 14.031 49.121C14.2536 52.2782 15.6154 54.7311 17.0726 54.5995Z" fill="#2196F3"/>
<path fill-rule="evenodd" clip-rule="evenodd" d="M18.4702 51.1048C19.1584 51.4185 20.2658 50.4587 20.9438 48.961C21.6218 47.4633 21.6136 45.9949 20.9255 45.6812C20.2374 45.3675 19.1299 46.3273 18.4519 47.825C17.7739 49.3227 17.7821 50.7911 18.4702 51.1048Z" fill="#2196F3"/>
<path d="M17.0479 52.6748C17.4888 58.3613 15.5409 66.5418 20.0744 69.8896C22.3633 71.5798 25.0576 71.3344 27.4988 72.4831" stroke="#2196F3" stroke-width="4" stroke-miterlimit="10" stroke-linejoin="round"/>
<path fill-rule="evenodd" clip-rule="evenodd" d="M49.7226 106.59L25.2572 90.8254V27.7651C25.2572 19.0583 36.2107 12 49.7226 12C63.2345 12 74.188 19.0583 74.188 27.7651V90.8254L49.7226 106.59Z" fill="#2196F3"/>
<path fill-rule="evenodd" clip-rule="evenodd" d="M76.0157 88.6243V104.404C76.0157 113.119 64.2341 120.183 49.7007 120.183C35.1674 120.183 23.3857 113.119 23.3857 104.404V88.6243H76.0157Z" fill="#304FFE"/>
<path fill-rule="evenodd" clip-rule="evenodd" d="M30.8204 58.233C30.8204 55.784 32.8057 53.7988 35.2546 53.7988C36.4306 53.7988 37.5584 54.266 38.39 55.0975C39.2215 55.9291 39.6887 57.0569 39.6887 58.233C39.6887 60.6819 37.7035 62.6671 35.2546 62.6671C32.8057 62.6671 30.8204 60.6819 30.8204 58.233Z" fill="black"/>
<path fill-rule="evenodd" clip-rule="evenodd" d="M33.2278 55.9962C33.2278 55.3182 33.7774 54.7686 34.4554 54.7686C34.781 54.7686 35.0933 54.8979 35.3235 55.1281C35.5537 55.3583 35.683 55.6706 35.683 55.9962C35.683 56.6742 35.1334 57.2238 34.4554 57.2238C33.7774 57.2238 33.2278 56.6742 33.2278 55.9962Z" fill="white"/>
<path fill-rule="evenodd" clip-rule="evenodd" d="M60.5127 58.233C60.5127 55.784 62.4979 53.7988 64.9468 53.7988C66.1228 53.7988 67.2507 54.266 68.0822 55.0975C68.9138 55.9291 69.381 57.0569 69.381 58.233C69.381 60.6819 67.3957 62.6671 64.9468 62.6671C62.4979 62.6671 60.5127 60.6819 60.5127 58.233Z" fill="black"/>
<path fill-rule="evenodd" clip-rule="evenodd" d="M62.92 55.9962C62.92 55.3182 63.4697 54.7686 64.1477 54.7686C64.4733 54.7686 64.7855 54.8979 65.0157 55.1281C65.246 55.3583 65.3753 55.6706 65.3753 55.9962C65.3753 56.6742 64.8257 57.2238 64.1477 57.2238C63.4697 57.2238 62.92 56.6742 62.92 55.9962Z" fill="white"/>
<path fill-rule="evenodd" clip-rule="evenodd" d="M45.0396 68.7086V64.2519C45.0396 61.7905 47.8528 59.7952 51.323 59.7952C54.7933 59.7952 57.6065 61.7905 57.6065 64.2519V68.7086H45.0396Z" stroke="black" stroke-width="2" stroke-miterlimit="10" stroke-linejoin="round"/>
<path d="M40.6154 116L42 139.31L36 142" stroke="#304FFE" stroke-width="4"/>
<path d="M60.3846 116L59 139.31L65 142" stroke="#304FFE" stroke-width="4"/>
<path fill-rule="evenodd" clip-rule="evenodd" d="M182.201 54.4646C180.733 54.3331 179.724 51.667 179.947 48.5097C180.169 45.3524 181.539 42.8996 183.007 43.0312C184.474 43.1627 185.483 45.8288 185.26 48.9861C185.038 52.1434 183.668 54.5962 182.201 54.4646Z" fill="#2196F3"/>
<path fill-rule="evenodd" clip-rule="evenodd" d="M180.773 50.9517C180.085 51.2755 178.969 50.3403 178.281 48.8629C177.593 47.3855 177.593 45.9253 178.281 45.6014C178.969 45.2776 180.085 46.2128 180.773 47.6902C181.461 49.1677 181.461 50.6279 180.773 50.9517Z" fill="#2196F3"/>
<path d="M182.19 52.5286C181.771 58.2155 183.75 66.3858 179.229 69.7515C176.947 71.4508 174.252 71.2166 171.815 72.3752" stroke="#2196F3" stroke-width="4" stroke-miterlimit="10" stroke-linejoin="round"/>
<path fill-rule="evenodd" clip-rule="evenodd" d="M117.073 54.5995C118.53 54.468 119.531 51.8018 119.308 48.6446C119.085 45.4873 117.724 43.0345 116.266 43.1661C114.809 43.2976 113.808 45.9637 114.031 49.121C114.254 52.2782 115.615 54.7311 117.073 54.5995Z" fill="#2196F3"/>
<path fill-rule="evenodd" clip-rule="evenodd" d="M118.47 51.1048C119.158 51.4185 120.266 50.4587 120.944 48.961C121.622 47.4633 121.614 45.9949 120.925 45.6812C120.237 45.3675 119.13 46.3273 118.452 47.825C117.774 49.3227 117.782 50.7911 118.47 51.1048Z" fill="#2196F3"/>
<path d="M117.048 52.6748C117.489 58.3613 115.541 66.5418 120.074 69.8896C122.363 71.5798 125.058 71.3344 127.499 72.4831" stroke="#2196F3" stroke-width="4" stroke-miterlimit="10" stroke-linejoin="round"/>
<path fill-rule="evenodd" clip-rule="evenodd" d="M149.723 106.59L125.257 90.8254V27.7651C125.257 19.0583 136.211 12 149.723 12C163.234 12 174.188 19.0583 174.188 27.7651V90.8254L149.723 106.59Z" fill="#2196F3"/>
<path fill-rule="evenodd" clip-rule="evenodd" d="M176.016 88.6243V104.404C176.016 113.119 164.234 120.183 149.701 120.183C135.167 120.183 123.386 113.119 123.386 104.404V88.6243H176.016Z" fill="#304FFE"/>
<path fill-rule="evenodd" clip-rule="evenodd" d="M130.82 58.233C130.82 55.784 132.806 53.7988 135.255 53.7988C136.431 53.7988 137.558 54.266 138.39 55.0975C139.222 55.9291 139.689 57.0569 139.689 58.233C139.689 60.6819 137.703 62.6671 135.255 62.6671C132.806 62.6671 130.82 60.6819 130.82 58.233Z" fill="black"/>
<path fill-rule="evenodd" clip-rule="evenodd" d="M133.228 55.9962C133.228 55.3182 133.777 54.7686 134.455 54.7686C134.781 54.7686 135.093 54.8979 135.323 55.1281C135.554 55.3583 135.683 55.6706 135.683 55.9962C135.683 56.6742 135.133 57.2238 134.455 57.2238C133.777 57.2238 133.228 56.6742 133.228 55.9962Z" fill="white"/>
<path fill-rule="evenodd" clip-rule="evenodd" d="M160.513 58.233C160.513 55.784 162.498 53.7988 164.947 53.7988C166.123 53.7988 167.251 54.266 168.082 55.0975C168.914 55.9291 169.381 57.0569 169.381 58.233C169.381 60.6819 167.396 62.6671 164.947 62.6671C162.498 62.6671 160.513 60.6819 160.513 58.233Z" fill="black"/>
<path fill-rule="evenodd" clip-rule="evenodd" d="M162.92 55.9962C162.92 55.3182 163.47 54.7686 164.148 54.7686C164.473 54.7686 164.786 54.8979 165.016 55.1281C165.246 55.3583 165.375 55.6706 165.375 55.9962C165.375 56.6742 164.826 57.2238 164.148 57.2238C163.47 57.2238 162.92 56.6742 162.92 55.9962Z" fill="white"/>
<path fill-rule="evenodd" clip-rule="evenodd" d="M145.04 68.7086V64.2519C145.04 61.7905 147.853 59.7952 151.323 59.7952C154.793 59.7952 157.606 61.7905 157.606 64.2519V68.7086H145.04Z" stroke="black" stroke-width="2" stroke-miterlimit="10" stroke-linejoin="round"/>
<path d="M140.615 116L142 139.31L136 142" stroke="#304FFE" stroke-width="4"/>
<path d="M160.385 116L159 139.31L165 142" stroke="#304FFE" stroke-width="4"/>
<path fill-rule="evenodd" clip-rule="evenodd" d="M282.201 54.4646C280.733 54.3331 279.724 51.667 279.947 48.5097C280.169 45.3524 281.539 42.8996 283.007 43.0312C284.474 43.1627 285.483 45.8288 285.26 48.9861C285.038 52.1434 283.668 54.5962 282.201 54.4646Z" fill="#2196F3"/>
<path fill-rule="evenodd" clip-rule="evenodd" d="M280.773 50.9517C280.085 51.2755 278.969 50.3403 278.281 48.8629C277.593 47.3855 277.593 45.9253 278.281 45.6014C278.969 45.2776 280.085 46.2128 280.773 47.6902C281.461 49.1677 281.461 50.6279 280.773 50.9517Z" fill="#2196F3"/>
<path d="M282.19 52.5286C281.771 58.2155 283.75 66.3858 279.229 69.7515C276.947 71.4508 274.252 71.2166 271.815 72.3752" stroke="#2196F3" stroke-width="4" stroke-miterlimit="10" stroke-linejoin="round"/>
<path fill-rule="evenodd" clip-rule="evenodd" d="M217.073 54.5995C218.53 54.468 219.531 51.8018 219.308 48.6446C219.085 45.4873 217.724 43.0345 216.266 43.1661C214.809 43.2976 213.808 45.9637 214.031 49.121C214.254 52.2782 215.615 54.7311 217.073 54.5995Z" fill="#2196F3"/>
<path fill-rule="evenodd" clip-rule="evenodd" d="M218.47 51.1048C219.158 51.4185 220.266 50.4587 220.944 48.961C221.622 47.4633 221.614 45.9949 220.925 45.6812C220.237 45.3675 219.13 46.3273 218.452 47.825C217.774 49.3227 217.782 50.7911 218.47 51.1048Z" fill="#2196F3"/>
<path d="M217.048 52.6748C217.489 58.3613 215.541 66.5418 220.074 69.8896C222.363 71.5798 225.058 71.3344 227.499 72.4831" stroke="#2196F3" stroke-width="4" stroke-miterlimit="10" stroke-linejoin="round"/>
<path fill-rule="evenodd" clip-rule="evenodd" d="M249.723 106.59L225.257 90.8254V27.7651C225.257 19.0583 236.211 12 249.723 12C263.234 12 274.188 19.0583 274.188 27.7651V90.8254L249.723 106.59Z" fill="#2196F3"/>
<path fill-rule="evenodd" clip-rule="evenodd" d="M276.016 88.6243V104.404C276.016 113.119 264.234 120.183 249.701 120.183C235.167 120.183 223.386 113.119 223.386 104.404V88.6243H276.016Z" fill="#304FFE"/>
<path fill-rule="evenodd" clip-rule="evenodd" d="M230.82 58.233C230.82 55.784 232.806 53.7988 235.255 53.7988C236.431 53.7988 237.558 54.266 238.39 55.0975C239.222 55.9291 239.689 57.0569 239.689 58.233C239.689 60.6819 237.703 62.6671 235.255 62.6671C232.806 62.6671 230.82 60.6819 230.82 58.233Z" fill="black"/>
<path fill-rule="evenodd" clip-rule="evenodd" d="M233.228 55.9962C233.228 55.3182 233.777 54.7686 234.455 54.7686C234.781 54.7686 235.093 54.8979 235.323 55.1281C235.554 55.3583 235.683 55.6706 235.683 55.9962C235.683 56.6742 235.133 57.2238 234.455 57.2238C233.777 57.2238 233.228 56.6742 233.228 55.9962Z" fill="white"/>
<path fill-rule="evenodd" clip-rule="evenodd" d="M260.513 58.233C260.513 55.784 262.498 53.7988 264.947 53.7988C266.123 53.7988 267.251 54.266 268.082 55.0975C268.914 55.9291 269.381 57.0569 269.381 58.233C269.381 60.6819 267.396 62.6671 264.947 62.6671C262.498 62.6671 260.513 60.6819 260.513 58.233Z" fill="black"/>
<path fill-rule="evenodd" clip-rule="evenodd" d="M262.92 55.9962C262.92 55.3182 263.47 54.7686 264.148 54.7686C264.473 54.7686 264.786 54.8979 265.016 55.1281C265.246 55.3583 265.375 55.6706 265.375 55.9962C265.375 56.6742 264.826 57.2238 264.148 57.2238C263.47 57.2238 262.92 56.6742 262.92 55.9962Z" fill="white"/>
<path fill-rule="evenodd" clip-rule="evenodd" d="M245.04 68.7086V64.2519C245.04 61.7905 247.853 59.7952 251.323 59.7952C254.793 59.7952 257.606 61.7905 257.606 64.2519V68.7086H245.04Z" stroke="black" stroke-width="2" stroke-miterlimit="10" stroke-linejoin="round"/>
<path d="M240.615 116L242 139.31L236 142" stroke="#304FFE" stroke-width="4"/>
<path d="M260.385 116L259 139.31L265 142" stroke="#304FFE" stroke-width="4"/>
<path fill-rule="evenodd" clip-rule="evenodd" d="M382.201 54.4646C380.733 54.3331 379.724 51.667 379.947 48.5097C380.169 45.3524 381.539 42.8996 383.007 43.0312C384.474 43.1627 385.483 45.8288 385.26 48.9861C385.038 52.1434 383.668 54.5962 382.201 54.4646Z" fill="#2196F3"/>
<path fill-rule="evenodd" clip-rule="evenodd" d="M380.773 50.9517C380.085 51.2755 378.969 50.3403 378.281 48.8629C377.593 47.3855 377.593 45.9253 378.281 45.6014C378.969 45.2776 380.085 46.2128 380.773 47.6902C381.461 49.1677 381.461 50.6279 380.773 50.9517Z" fill="#2196F3"/>
<path d="M382.19 52.5286C381.771 58.2155 383.75 66.3858 379.229 69.7515C376.947 71.4508 374.252 71.2166 371.815 72.3752" stroke="#2196F3" stroke-width="4" stroke-miterlimit="10" stroke-linejoin="round"/>
<path fill-rule="evenodd" clip-rule="evenodd" d="M317.073 54.5995C318.53 54.468 319.531 51.8018 319.308 48.6446C319.085 45.4873 317.724 43.0345 316.266 43.1661C314.809 43.2976 313.808 45.9637 314.031 49.121C314.254 52.2782 315.615 54.7311 317.073 54.5995Z" fill="#2196F3"/>
<path fill-rule="evenodd" clip-rule="evenodd" d="M318.47 51.1048C319.158 51.4185 320.266 50.4587 320.944 48.961C321.622 47.4633 321.614 45.9949 320.925 45.6812C320.237 45.3675 319.13 46.3273 318.452 47.825C317.774 49.3227 317.782 50.7911 318.47 51.1048Z" fill="#2196F3"/>
<path d="M317.048 52.6748C317.489 58.3613 315.541 66.5418 320.074 69.8896C322.363 71.5798 325.058 71.3344 327.499 72.4831" stroke="#2196F3" stroke-width="4" stroke-miterlimit="10" stroke-linejoin="round"/>
<path fill-rule="evenodd" clip-rule="evenodd" d="M349.723 106.59L325.257 90.8254V27.7651C325.257 19.0583 336.211 12 349.723 12C363.234 12 374.188 19.0583 374.188 27.7651V90.8254L349.723 106.59Z" fill="#2196F3"/>
<path fill-rule="evenodd" clip-rule="evenodd" d="M376.016 88.6243V104.404C376.016 113.119 364.234 120.183 349.701 120.183C335.167 120.183 323.386 113.119 323.386 104.404V88.6243H376.016Z" fill="#304FFE"/>
<path fill-rule="evenodd" clip-rule="evenodd" d="M330.82 58.233C330.82 55.784 332.806 53.7988 335.255 53.7988C336.431 53.7988 337.558 54.266 338.39 55.0975C339.222 55.9291 339.689 57.0569 339.689 58.233C339.689 60.6819 337.703 62.6671 335.255 62.6671C332.806 62.6671 330.82 60.6819 330.82 58.233Z" fill="black"/>
<path fill-rule="evenodd" clip-rule="evenodd" d="M333.228 55.9962C333.228 55.3182 333.777 54.7686 334.455 54.7686C334.781 54.7686 335.093 54.8979 335.323 55.1281C335.554 55.3583 335.683 55.6706 335.683 55.9962C335.683 56.6742 335.133 57.2238 334.455 57.2238C333.777 57.2238 333.228 56.6742 333.228 55.9962Z" fill="white"/>
<path fill-rule="evenodd" clip-rule="evenodd" d="M360.513 58.233C360.513 55.784 362.498 53.7988 364.947 53.7988C366.123 53.7988 367.251 54.266 368.082 55.0975C368.914 55.9291 369.381 57.0569 369.381 58.233C369.381 60.6819 367.396 62.6671 364.947 62.6671C362.498 62.6671 360.513 60.6819 360.513 58.233Z" fill="black"/>
<path fill-rule="evenodd" clip-rule="evenodd" d="M362.92 55.9962C362.92 55.3182 363.47 54.7686 364.148 54.7686C364.473 54.7686 364.786 54.8979 365.016 55.1281C365.246 55.3583 365.375 55.6706 365.375 55.9962C365.375 56.6742 364.826 57.2238 364.148 57.2238C363.47 57.2238 362.92 56.6742 362.92 55.9962Z" fill="white"/>
<path fill-rule="evenodd" clip-rule="evenodd" d="M345.04 68.7086V64.2519C345.04 61.7905 347.853 59.7952 351.323 59.7952C354.793 59.7952 357.606 61.7905 357.606 64.2519V68.7086H345.04Z" stroke="black" stroke-width="2" stroke-miterlimit="10" stroke-linejoin="round"/>
<path d="M340.615 116L342 139.31L336 142" stroke="#304FFE" stroke-width="4"/>
<path d="M360.385 116L359 139.31L365 142" stroke="#304FFE" stroke-width="4"/>
<path fill-rule="evenodd" clip-rule="evenodd" d="M482.201 54.4646C480.733 54.3331 479.724 51.667 479.947 48.5097C480.169 45.3524 481.539 42.8996 483.007 43.0312C484.474 43.1627 485.483 45.8288 485.26 48.9861C485.038 52.1434 483.668 54.5962 482.201 54.4646Z" fill="#2196F3"/>
<path fill-rule="evenodd" clip-rule="evenodd" d="M480.773 50.9517C480.085 51.2755 478.969 50.3403 478.281 48.8629C477.593 47.3855 477.593 45.9253 478.281 45.6014C478.969 45.2776 480.085 46.2128 480.773 47.6902C481.461 49.1677 481.461 50.6279 480.773 50.9517Z" fill="#2196F3"/>
<path d="M482.19 52.5286C481.771 58.2155 483.75 66.3858 479.229 69.7515C476.947 71.4508 474.252 71.2166 471.815 72.3752" stroke="#2196F3" stroke-width="4" stroke-miterlimit="10" stroke-linejoin="round"/>
<path fill-rule="evenodd" clip-rule="evenodd" d="M417.073 54.5995C418.53 54.468 419.531 51.8018 419.308 48.6446C419.085 45.4873 417.724 43.0345 416.266 43.1661C414.809 43.2976 413.808 45.9637 414.031 49.121C414.254 52.2782 415.615 54.7311 417.073 54.5995Z" fill="#2196F3"/>
<path fill-rule="evenodd" clip-rule="evenodd" d="M418.47 51.1048C419.158 51.4185 420.266 50.4587 420.944 48.961C421.622 47.4633 421.614 45.9949 420.925 45.6812C420.237 45.3675 419.13 46.3273 418.452 47.825C417.774 49.3227 417.782 50.7911 418.47 51.1048Z" fill="#2196F3"/>
<path d="M417.048 52.6748C417.489 58.3613 415.541 66.5418 420.074 69.8896C422.363 71.5798 425.058 71.3344 427.499 72.4831" stroke="#2196F3" stroke-width="4" stroke-miterlimit="10" stroke-linejoin="round"/>
<path fill-rule="evenodd" clip-rule="evenodd" d="M449.723 106.59L425.257 90.8254V27.7651C425.257 19.0583 436.211 12 449.723 12C463.234 12 474.188 19.0583 474.188 27.7651V90.8254L449.723 106.59Z" fill="#2196F3"/>
<path fill-rule="evenodd" clip-rule="evenodd" d="M476.016 88.6243V104.404C476.016 113.119 464.234 120.183 449.701 120.183C435.167 120.183 423.386 113.119 423.386 104.404V88.6243H476.016Z" fill="#304FFE"/>
<path fill-rule="evenodd" clip-rule="evenodd" d="M430.82 58.233C430.82 55.784 432.806 53.7988 435.255 53.7988C436.431 53.7988 437.558 54.266 438.39 55.0975C439.222 55.9291 439.689 57.0569 439.689 58.233C439.689 60.6819 437.703 62.6671 435.255 62.6671C432.806 62.6671 430.82 60.6819 430.82 58.233Z" fill="black"/>
<path fill-rule="evenodd" clip-rule="evenodd" d="M433.228 55.9962C433.228 55.3182 433.777 54.7686 434.455 54.7686C434.781 54.7686 435.093 54.8979 435.323 55.1281C435.554 55.3583 435.683 55.6706 435.683 55.9962C435.683 56.6742 435.133 57.2238 434.455 57.2238C433.777 57.2238 433.228 56.6742 433.228 55.9962Z" fill="white"/>
<path fill-rule="evenodd" clip-rule="evenodd" d="M460.513 58.233C460.513 55.784 462.498 53.7988 464.947 53.7988C466.123 53.7988 467.251 54.266 468.082 55.0975C468.914 55.9291 469.381 57.0569 469.381 58.233C469.381 60.6819 467.396 62.6671 464.947 62.6671C462.498 62.6671 460.513 60.6819 460.513 58.233Z" fill="black"/>
<path fill-rule="evenodd" clip-rule="evenodd" d="M462.92 55.9962C462.92 55.3182 463.47 54.7686 464.148 54.7686C464.473 54.7686 464.786 54.8979 465.016 55.1281C465.246 55.3583 465.375 55.6706 465.375 55.9962C465.375 56.6742 464.826 57.2238 464.148 57.2238C463.47 57.2238 462.92 56.6742 462.92 55.9962Z" fill="white"/>
<path fill-rule="evenodd" clip-rule="evenodd" d="M445.04 68.7086V64.2519C445.04 61.7905 447.853 59.7952 451.323 59.7952C454.793 59.7952 457.606 61.7905 457.606 64.2519V68.7086H445.04Z" stroke="black" stroke-width="2" stroke-miterlimit="10" stroke-linejoin="round"/>
<path d="M440.615 116L442 139.31L436 142" stroke="#304FFE" stroke-width="4"/>
<path d="M460.385 116L459 139.31L465 142" stroke="#304FFE" stroke-width="4"/>
<path fill-rule="evenodd" clip-rule="evenodd" d="M582.201 54.4646C580.733 54.3331 579.724 51.667 579.947 48.5097C580.169 45.3524 581.539 42.8996 583.007 43.0312C584.474 43.1627 585.483 45.8288 585.26 48.9861C585.038 52.1434 583.668 54.5962 582.201 54.4646Z" fill="#2196F3"/>
<path fill-rule="evenodd" clip-rule="evenodd" d="M580.773 50.9517C580.085 51.2755 578.969 50.3403 578.281 48.8629C577.593 47.3855 577.593 45.9253 578.281 45.6014C578.969 45.2776 580.085 46.2128 580.773 47.6902C581.461 49.1677 581.461 50.6279 580.773 50.9517Z" fill="#2196F3"/>
<path d="M582.19 52.5286C581.771 58.2155 583.75 66.3858 579.229 69.7515C576.947 71.4508 574.252 71.2166 571.815 72.3752" stroke="#2196F3" stroke-width="4" stroke-miterlimit="10" stroke-linejoin="round"/>
<path fill-rule="evenodd" clip-rule="evenodd" d="M517.073 54.5995C518.53 54.468 519.531 51.8018 519.308 48.6446C519.085 45.4873 517.724 43.0345 516.266 43.1661C514.809 43.2976 513.808 45.9637 514.031 49.121C514.254 52.2782 515.615 54.7311 517.073 54.5995Z" fill="#2196F3"/>
<path fill-rule="evenodd" clip-rule="evenodd" d="M518.47 51.1048C519.158 51.4185 520.266 50.4587 520.944 48.961C521.622 47.4633 521.614 45.9949 520.925 45.6812C520.237 45.3675 519.13 46.3273 518.452 47.825C517.774 49.3227 517.782 50.7911 518.47 51.1048Z" fill="#2196F3"/>
<path d="M517.048 52.6748C517.489 58.3613 515.541 66.5418 520.074 69.8896C522.363 71.5798 525.058 71.3344 527.499 72.4831" stroke="#2196F3" stroke-width="4" stroke-miterlimit="10" stroke-linejoin="round"/>
<path fill-rule="evenodd" clip-rule="evenodd" d="M549.723 106.59L525.257 90.8254V27.7651C525.257 19.0583 536.211 12 549.723 12C563.234 12 574.188 19.0583 574.188 27.7651V90.8254L549.723 106.59Z" fill="#2196F3"/>
<path fill-rule="evenodd" clip-rule="evenodd" d="M576.016 88.6243V104.404C576.016 113.119 564.234 120.183 549.701 120.183C535.167 120.183 523.386 113.119 523.386 104.404V88.6243H576.016Z" fill="#304FFE"/>
<path fill-rule="evenodd" clip-rule="evenodd" d="M530.82 58.233C530.82 55.784 532.806 53.7988 535.255 53.7988C536.431 53.7988 537.558 54.266 538.39 55.0975C539.222 55.9291 539.689 57.0569 539.689 58.233C539.689 60.6819 537.703 62.6671 535.255 62.6671C532.806 62.6671 530.82 60.6819 530.82 58.233Z" fill="black"/>
<path fill-rule="evenodd" clip-rule="evenodd" d="M533.228 55.9962C533.228 55.3182 533.777 54.7686 534.455 54.7686C534.781 54.7686 535.093 54.8979 535.323 55.1281C535.554 55.3583 535.683 55.6706 535.683 55.9962C535.683 56.6742 535.133 57.2238 534.455 57.2238C533.777 57.2238 533.228 56.6742 533.228 55.9962Z" fill="white"/>
<path fill-rule="evenodd" clip-rule="evenodd" d="M560.513 58.233C560.513 55.784 562.498 53.7988 564.947 53.7988C566.123 53.7988 567.251 54.266 568.082 55.0975C568.914 55.9291 569.381 57.0569 569.381 58.233C569.381 60.6819 567.396 62.6671 564.947 62.6671C562.498 62.6671 560.513 60.6819 560.513 58.233Z" fill="black"/>
<path fill-rule="evenodd" clip-rule="evenodd" d="M562.92 55.9962C562.92 55.3182 563.47 54.7686 564.148 54.7686C564.473 54.7686 564.786 54.8979 565.016 55.1281C565.246 55.3583 565.375 55.6706 565.375 55.9962C565.375 56.6742 564.826 57.2238 564.148 57.2238C563.47 57.2238 562.92 56.6742 562.92 55.9962Z" fill="white"/>
<path fill-rule="evenodd" clip-rule="evenodd" d="M545.04 68.7086V64.2519C545.04 61.7905 547.853 59.7952 551.323 59.7952C554.793 59.7952 557.606 61.7905 557.606 64.2519V68.7086H545.04Z" stroke="black" stroke-width="2" stroke-miterlimit="10" stroke-linejoin="round"/>
<path d="M540.615 116L542 139.31L536 142" stroke="#304FFE" stroke-width="4"/>
<path d="M560.385 116L559 139.31L565 142" stroke="#304FFE" stroke-width="4"/>
<path fill-rule="evenodd" clip-rule="evenodd" d="M682.201 54.4646C680.733 54.3331 679.724 51.667 679.947 48.5097C680.169 45.3524 681.539 42.8996 683.007 43.0312C684.474 43.1627 685.483 45.8288 685.26 48.9861C685.038 52.1434 683.668 54.5962 682.201 54.4646Z" fill="#2196F3"/>
<path fill-rule="evenodd" clip-rule="evenodd" d="M680.773 50.9517C680.085 51.2755 678.969 50.3403 678.281 48.8629C677.593 47.3855 677.593 45.9253 678.281 45.6014C678.969 45.2776 680.085 46.2128 680.773 47.6902C681.461 49.1677 681.461 50.6279 680.773 50.9517Z" fill="#2196F3"/>
<path d="M682.19 52.5286C681.771 58.2155 683.75 66.3858 679.229 69.7515C676.947 71.4508 674.252 71.2166 671.815 72.3752" stroke="#2196F3" stroke-width="4" stroke-miterlimit="10" stroke-linejoin="round"/>
<path fill-rule="evenodd" clip-rule="evenodd" d="M617.073 54.5995C618.53 54.468 619.531 51.8018 619.308 48.6446C619.085 45.4873 617.724 43.0345 616.266 43.1661C614.809 43.2976 613.808 45.9637 614.031 49.121C614.254 52.2782 615.615 54.7311 617.073 54.5995Z" fill="#2196F3"/>
<path fill-rule="evenodd" clip-rule="evenodd" d="M618.47 51.1048C619.158 51.4185 620.266 50.4587 620.944 48.961C621.622 47.4633 621.614 45.9949 620.925 45.6812C620.237 45.3675 619.13 46.3273 618.452 47.825C617.774 49.3227 617.782 50.7911 618.47 51.1048Z" fill="#2196F3"/>
<path d="M617.048 52.6748C617.489 58.3613 615.541 66.5418 620.075 69.8896C622.363 71.5798 625.058 71.3344 627.499 72.4831" stroke="#2196F3" stroke-width="4" stroke-miterlimit="10" stroke-linejoin="round"/>
<path fill-rule="evenodd" clip-rule="evenodd" d="M649.723 106.59L625.257 90.8254V27.7651C625.257 19.0583 636.211 12 649.723 12C663.235 12 674.188 19.0583 674.188 27.7651V90.8254L649.723 106.59Z" fill="#2196F3"/>
<path fill-rule="evenodd" clip-rule="evenodd" d="M676.016 88.6243V104.404C676.016 113.119 664.234 120.183 649.701 120.183C635.167 120.183 623.386 113.119 623.386 104.404V88.6243H676.016Z" fill="#304FFE"/>
<path fill-rule="evenodd" clip-rule="evenodd" d="M630.82 58.233C630.82 55.784 632.806 53.7988 635.254 53.7988C636.43 53.7988 637.558 54.266 638.39 55.0975C639.221 55.9291 639.689 57.0569 639.689 58.233C639.689 60.6819 637.703 62.6671 635.254 62.6671C632.806 62.6671 630.82 60.6819 630.82 58.233Z" fill="black"/>
<path fill-rule="evenodd" clip-rule="evenodd" d="M633.228 55.9962C633.228 55.3182 633.777 54.7686 634.455 54.7686C634.781 54.7686 635.093 54.8979 635.323 55.1281C635.554 55.3583 635.683 55.6706 635.683 55.9962C635.683 56.6742 635.133 57.2238 634.455 57.2238C633.777 57.2238 633.228 56.6742 633.228 55.9962Z" fill="white"/>
<path fill-rule="evenodd" clip-rule="evenodd" d="M660.512 58.233C660.512 55.784 662.498 53.7988 664.947 53.7988C666.123 53.7988 667.25 54.266 668.082 55.0975C668.914 55.9291 669.381 57.0569 669.381 58.233C669.381 60.6819 667.395 62.6671 664.947 62.6671C662.498 62.6671 660.512 60.6819 660.512 58.233Z" fill="black"/>
<path fill-rule="evenodd" clip-rule="evenodd" d="M662.92 55.9962C662.92 55.3182 663.47 54.7686 664.148 54.7686C664.473 54.7686 664.785 54.8979 665.016 55.1281C665.246 55.3583 665.375 55.6706 665.375 55.9962C665.375 56.6742 664.826 57.2238 664.148 57.2238C663.47 57.2238 662.92 56.6742 662.92 55.9962Z" fill="white"/>
<path fill-rule="evenodd" clip-rule="evenodd" d="M645.04 68.7086V64.2519C645.04 61.7905 647.853 59.7952 651.323 59.7952C654.793 59.7952 657.606 61.7905 657.606 64.2519V68.7086H645.04Z" stroke="black" stroke-width="2" stroke-miterlimit="10" stroke-linejoin="round"/>
<path d="M640.615 116L642 139.31L636 142" stroke="#304FFE" stroke-width="4"/>
<path d="M660.385 116L659 139.31L665 142" stroke="#304FFE" stroke-width="4"/>
<path fill-rule="evenodd" clip-rule="evenodd" d="M782.201 54.4646C780.733 54.3331 779.724 51.667 779.947 48.5097C780.169 45.3524 781.539 42.8996 783.007 43.0312C784.474 43.1627 785.483 45.8288 785.26 48.9861C785.038 52.1434 783.668 54.5962 782.201 54.4646Z" fill="#2196F3"/>
<path fill-rule="evenodd" clip-rule="evenodd" d="M780.773 50.9517C780.085 51.2755 778.969 50.3403 778.281 48.8629C777.593 47.3855 777.593 45.9253 778.281 45.6014C778.969 45.2776 780.085 46.2128 780.773 47.6902C781.461 49.1677 781.461 50.6279 780.773 50.9517Z" fill="#2196F3"/>
<path d="M782.19 52.5286C781.771 58.2155 783.75 66.3858 779.229 69.7515C776.947 71.4508 774.252 71.2166 771.815 72.3752" stroke="#2196F3" stroke-width="4" stroke-miterlimit="10" stroke-linejoin="round"/>
<path fill-rule="evenodd" clip-rule="evenodd" d="M717.073 54.5995C718.53 54.468 719.531 51.8018 719.308 48.6446C719.085 45.4873 717.724 43.0345 716.266 43.1661C714.809 43.2976 713.808 45.9637 714.031 49.121C714.254 52.2782 715.615 54.7311 717.073 54.5995Z" fill="#2196F3"/>
<path fill-rule="evenodd" clip-rule="evenodd" d="M718.47 51.1048C719.158 51.4185 720.266 50.4587 720.944 48.961C721.622 47.4633 721.614 45.9949 720.925 45.6812C720.237 45.3675 719.13 46.3273 718.452 47.825C717.774 49.3227 717.782 50.7911 718.47 51.1048Z" fill="#2196F3"/>
<path d="M717.048 52.6748C717.489 58.3613 715.541 66.5418 720.075 69.8896C722.363 71.5798 725.058 71.3344 727.499 72.4831" stroke="#2196F3" stroke-width="4" stroke-miterlimit="10" stroke-linejoin="round"/>
<path fill-rule="evenodd" clip-rule="evenodd" d="M749.723 106.59L725.257 90.8254V27.7651C725.257 19.0583 736.211 12 749.723 12C763.235 12 774.188 19.0583 774.188 27.7651V90.8254L749.723 106.59Z" fill="#2196F3"/>
<path fill-rule="evenodd" clip-rule="evenodd" d="M776.016 88.6243V104.404C776.016 113.119 764.234 120.183 749.701 120.183C735.167 120.183 723.386 113.119 723.386 104.404V88.6243H776.016Z" fill="#304FFE"/>
<path fill-rule="evenodd" clip-rule="evenodd" d="M730.82 58.233C730.82 55.784 732.806 53.7988 735.254 53.7988C736.43 53.7988 737.558 54.266 738.39 55.0975C739.221 55.9291 739.689 57.0569 739.689 58.233C739.689 60.6819 737.703 62.6671 735.254 62.6671C732.806 62.6671 730.82 60.6819 730.82 58.233Z" fill="black"/>
<path fill-rule="evenodd" clip-rule="evenodd" d="M733.228 55.9962C733.228 55.3182 733.777 54.7686 734.455 54.7686C734.781 54.7686 735.093 54.8979 735.323 55.1281C735.554 55.3583 735.683 55.6706 735.683 55.9962C735.683 56.6742 735.133 57.2238 734.455 57.2238C733.777 57.2238 733.228 56.6742 733.228 55.9962Z" fill="white"/>
<path fill-rule="evenodd" clip-rule="evenodd" d="M760.512 58.233C760.512 55.784 762.498 53.7988 764.947 53.7988C766.123 53.7988 767.25 54.266 768.082 55.0975C768.914 55.9291 769.381 57.0569 769.381 58.233C769.381 60.6819 767.395 62.6671 764.947 62.6671C762.498 62.6671 760.512 60.6819 760.512 58.233Z" fill="black"/>
<path fill-rule="evenodd" clip-rule="evenodd" d="M762.92 55.9962C762.92 55.3182 763.47 54.7686 764.148 54.7686C764.473 54.7686 764.785 54.8979 765.016 55.1281C765.246 55.3583 765.375 55.6706 765.375 55.9962C765.375 56.6742 764.826 57.2238 764.148 57.2238C763.47 57.2238 762.92 56.6742 762.92 55.9962Z" fill="white"/>
<path fill-rule="evenodd" clip-rule="evenodd" d="M745.04 68.7086V64.2519C745.04 61.7905 747.853 59.7952 751.323 59.7952C754.793 59.7952 757.606 61.7905 757.606 64.2519V68.7086H745.04Z" stroke="black" stroke-width="2" stroke-miterlimit="10" stroke-linejoin="round"/>
<path d="M740.615 116L742 139.31L736 142" stroke="#304FFE" stroke-width="4"/>
<path d="M760.385 116L759 139.31L765 142" stroke="#304FFE" stroke-width="4"/>
</svg>
