<svg width="600" height="145" viewBox="0 0 600 145" fill="none" xmlns="http://www.w3.org/2000/svg">
<g clip-path="url(#clip0)">
<rect width="600" height="145" fill="white"/>
<g filter="url(#filter0_d)">
<path fill-rule="evenodd" clip-rule="evenodd" d="M45.2395 104.591L20.774 88.8254V25.7651C20.774 17.0583 31.7276 10 45.2395 10C58.7513 10 69.7049 17.0583 69.7049 25.7651V88.8254L45.2395 104.591Z" fill="#2196F3"/>
<path fill-rule="evenodd" clip-rule="evenodd" d="M71.5326 86.6243V102.404C71.5326 111.119 59.751 118.183 45.2176 118.183C30.6843 118.183 18.9026 111.119 18.9026 102.404V86.6243H71.5326Z" fill="#304FFE"/>
<path fill-rule="evenodd" clip-rule="evenodd" d="M85.8771 62.8943C84.6079 62.1725 84.8209 59.3402 86.3527 56.5681C87.8846 53.796 90.1553 52.1339 91.4244 52.8557C92.6936 53.5775 92.4806 56.4098 90.9488 59.1819C89.4169 61.954 87.1462 63.6161 85.8771 62.8943Z" fill="#2196F3"/>
<path fill-rule="evenodd" clip-rule="evenodd" d="M86.3646 58.9288C85.6058 58.9377 84.9949 57.6177 85 55.9805C85.0052 54.3433 85.6244 53.0089 86.3832 53C87.142 52.9912 87.7529 54.3112 87.7477 55.9484C87.7426 57.5855 87.1233 58.9199 86.3646 58.9288Z" fill="#2196F3"/>
<path d="M87 61C84.2122 65.9761 80.4178 68.1354 74.896 69.2712C72.1081 69.8447 69.7648 68.4911 67.066 68.5092" stroke="#2196F3" stroke-width="4" stroke-miterlimit="10" stroke-linejoin="round"/>
<path fill-rule="evenodd" clip-rule="evenodd" d="M12.0152 81.4319C13.4714 81.5399 14.4932 84.1906 14.2975 87.3524C14.1017 90.5142 12.7625 92.9897 11.3063 92.8817C9.85008 92.7737 8.82827 90.123 9.02403 86.9612C9.21979 83.7994 10.559 81.3238 12.0152 81.4319Z" fill="#2196F3"/>
<path fill-rule="evenodd" clip-rule="evenodd" d="M13.4496 84.9193C14.1314 84.586 15.2493 85.5168 15.9465 86.9985C16.6437 88.4801 16.6563 89.9514 15.9744 90.2848C15.2926 90.6181 14.1747 89.6873 13.4775 88.2057C12.7803 86.724 12.7678 85.2527 13.4496 84.9193Z" fill="#2196F3"/>
<path d="M12.0759 83.3106C12.4612 77.6219 10.433 69.4645 14.9342 66.0724C17.2068 64.3598 19.9039 64.5779 22.3341 63.405" stroke="#2196F3" stroke-width="4" stroke-miterlimit="10" stroke-linejoin="round"/>
<path fill-rule="evenodd" clip-rule="evenodd" d="M30.2242 49.3352C30.2242 46.7244 32.3407 44.6079 34.9515 44.6079C36.2053 44.6079 37.4077 45.106 38.2942 45.9925C39.1808 46.879 39.6788 48.0815 39.6788 49.3352C39.6788 51.946 37.5623 54.0625 34.9515 54.0625C32.3407 54.0625 30.2242 51.946 30.2242 49.3352Z" fill="black"/>
<path fill-rule="evenodd" clip-rule="evenodd" d="M35.4109 47.7317C35.4109 47.0031 36.0016 46.4125 36.7302 46.4125C37.0801 46.4125 37.4156 46.5515 37.663 46.7989C37.9104 47.0463 38.0494 47.3818 38.0494 47.7317C38.0494 48.4603 37.4588 49.051 36.7302 49.051C36.0016 49.051 35.4109 48.4603 35.4109 47.7317Z" fill="white"/>
<path fill-rule="evenodd" clip-rule="evenodd" d="M57.6169 49.3352C57.6169 46.7244 59.7334 44.6079 62.3442 44.6079C63.5979 44.6079 64.8003 45.106 65.6869 45.9925C66.5734 46.879 67.0715 48.0815 67.0715 49.3352C67.0715 51.946 64.955 54.0625 62.3442 54.0625C59.7334 54.0625 57.6169 51.946 57.6169 49.3352Z" fill="black"/>
<path fill-rule="evenodd" clip-rule="evenodd" d="M62.8036 47.7317C62.8036 47.0031 63.3942 46.4125 64.1228 46.4125C64.4727 46.4125 64.8083 46.5515 65.0557 46.7989C65.3031 47.0463 65.4421 47.3818 65.4421 47.7317C65.4421 48.4603 64.8514 49.051 64.1228 49.051C63.3942 49.051 62.8036 48.4603 62.8036 47.7317Z" fill="white"/>
<path d="M41.5422 58.594C43.7057 56.4305 46.6964 55.2714 49.8565 55.3719C53.0165 55.4723 56.0871 56.8239 58.3926 59.1294" stroke="black" stroke-width="2" stroke-miterlimit="10" stroke-linejoin="round"/>
<path d="M34.5 112L30.5 126L25 135L32 137.5" stroke="#304FFE" stroke-width="4" stroke-linecap="round" stroke-linejoin="round"/>
<path d="M57.5823 112.275L67.0823 119.275L61.0823 133.775L69.0823 135.775" stroke="#304FFE" stroke-width="4" stroke-linecap="round" stroke-linejoin="round"/>
</g>
<g filter="url(#filter1_d)">
<path fill-rule="evenodd" clip-rule="evenodd" d="M545.239 104.591L520.774 88.8254V25.7651C520.774 17.0583 531.728 10 545.239 10C558.751 10 569.705 17.0583 569.705 25.7651V88.8254L545.239 104.591Z" fill="#2196F3"/>
<path fill-rule="evenodd" clip-rule="evenodd" d="M571.533 86.6243V102.404C571.533 111.119 559.751 118.183 545.218 118.183C530.684 118.183 518.903 111.119 518.903 102.404V86.6243H571.533Z" fill="#304FFE"/>
<path fill-rule="evenodd" clip-rule="evenodd" d="M583.939 56.5613C582.67 55.8396 582.883 53.0072 584.415 50.2352C585.947 47.4631 588.218 45.801 589.487 46.5227C590.756 47.2445 590.543 50.0768 589.011 52.8489C587.479 55.621 585.209 57.2831 583.939 56.5613Z" fill="#2196F3"/>
<path fill-rule="evenodd" clip-rule="evenodd" d="M584.138 52.7962C583.38 52.8051 582.769 51.4851 582.774 49.8479C582.779 48.2107 583.398 46.8763 584.157 46.8675C584.916 46.8586 585.527 48.1786 585.521 49.8158C585.516 51.453 584.897 52.7874 584.138 52.7962Z" fill="#2196F3"/>
<path d="M584.871 54.9171C582.084 59.8932 580.418 68.1354 574.896 69.2712C572.108 69.8447 569.765 68.4911 567.066 68.5092" stroke="#2196F3" stroke-width="4" stroke-miterlimit="10" stroke-linejoin="round"/>
<path fill-rule="evenodd" clip-rule="evenodd" d="M512.015 81.4319C513.471 81.5399 514.493 84.1906 514.297 87.3524C514.102 90.5142 512.763 92.9897 511.306 92.8817C509.85 92.7737 508.828 90.123 509.024 86.9612C509.22 83.7994 510.559 81.3238 512.015 81.4319Z" fill="#2196F3"/>
<path fill-rule="evenodd" clip-rule="evenodd" d="M513.45 84.9193C514.131 84.586 515.249 85.5168 515.947 86.9985C516.644 88.4801 516.656 89.9514 515.974 90.2848C515.293 90.6181 514.175 89.6873 513.477 88.2057C512.78 86.724 512.768 85.2527 513.45 84.9193Z" fill="#2196F3"/>
<path d="M512.076 83.3106C512.461 77.6219 510.433 69.4645 514.934 66.0724C517.207 64.3598 519.904 64.5779 522.334 63.405" stroke="#2196F3" stroke-width="4" stroke-miterlimit="10" stroke-linejoin="round"/>
<path fill-rule="evenodd" clip-rule="evenodd" d="M530.224 49.3352C530.224 46.7244 532.341 44.6079 534.952 44.6079C536.205 44.6079 537.408 45.106 538.294 45.9925C539.181 46.879 539.679 48.0815 539.679 49.3352C539.679 51.946 537.562 54.0625 534.952 54.0625C532.341 54.0625 530.224 51.946 530.224 49.3352Z" fill="black"/>
<path fill-rule="evenodd" clip-rule="evenodd" d="M535.411 47.7317C535.411 47.0031 536.002 46.4125 536.73 46.4125C537.08 46.4125 537.416 46.5515 537.663 46.7989C537.91 47.0463 538.049 47.3818 538.049 47.7317C538.049 48.4603 537.459 49.051 536.73 49.051C536.002 49.051 535.411 48.4603 535.411 47.7317Z" fill="white"/>
<path fill-rule="evenodd" clip-rule="evenodd" d="M557.617 49.3352C557.617 46.7244 559.733 44.6079 562.344 44.6079C563.598 44.6079 564.8 45.106 565.687 45.9925C566.573 46.879 567.071 48.0815 567.071 49.3352C567.071 51.946 564.955 54.0625 562.344 54.0625C559.733 54.0625 557.617 51.946 557.617 49.3352Z" fill="black"/>
<path fill-rule="evenodd" clip-rule="evenodd" d="M562.804 47.7317C562.804 47.0031 563.394 46.4125 564.123 46.4125C564.473 46.4125 564.808 46.5515 565.056 46.7989C565.303 47.0463 565.442 47.3818 565.442 47.7317C565.442 48.4603 564.851 49.051 564.123 49.051C563.394 49.051 562.804 48.4603 562.804 47.7317Z" fill="white"/>
<path d="M541.542 58.594C543.706 56.4305 546.696 55.2714 549.856 55.3719C553.017 55.4723 556.087 56.8239 558.393 59.1294" stroke="black" stroke-width="2" stroke-miterlimit="10" stroke-linejoin="round"/>
<path d="M534.082 112.275L546.5 126.275L542.5 135H551.5" stroke="#304FFE" stroke-width="4" stroke-linecap="round" stroke-linejoin="round"/>
<path d="M557.582 112.275L549.5 124L533 129.5L538.5 135.5" stroke="#304FFE" stroke-width="4" stroke-linecap="round" stroke-linejoin="round"/>
</g>
<g filter="url(#filter2_d)">
<path fill-rule="evenodd" clip-rule="evenodd" d="M445.239 104.591L420.774 88.8254V25.7651C420.774 17.0583 431.728 10 445.239 10C458.751 10 469.705 17.0583 469.705 25.7651V88.8254L445.239 104.591Z" fill="#2196F3"/>
<path fill-rule="evenodd" clip-rule="evenodd" d="M471.533 86.6243V102.404C471.533 111.119 459.751 118.183 445.218 118.183C430.684 118.183 418.903 111.119 418.903 102.404V86.6243H471.533Z" fill="#304FFE"/>
<path fill-rule="evenodd" clip-rule="evenodd" d="M483.939 56.5613C482.67 55.8396 482.883 53.0072 484.415 50.2352C485.947 47.4631 488.218 45.801 489.487 46.5227C490.756 47.2445 490.543 50.0768 489.011 52.8489C487.479 55.621 485.209 57.2831 483.939 56.5613Z" fill="#2196F3"/>
<path fill-rule="evenodd" clip-rule="evenodd" d="M484.138 52.7962C483.38 52.8051 482.769 51.4851 482.774 49.8479C482.779 48.2107 483.398 46.8763 484.157 46.8675C484.916 46.8586 485.527 48.1786 485.521 49.8158C485.516 51.453 484.897 52.7874 484.138 52.7962Z" fill="#2196F3"/>
<path d="M484.871 54.9171C482.084 59.8932 480.418 68.1354 474.896 69.2712C472.108 69.8447 469.765 68.4911 467.066 68.5092" stroke="#2196F3" stroke-width="4" stroke-miterlimit="10" stroke-linejoin="round"/>
<path fill-rule="evenodd" clip-rule="evenodd" d="M412.015 81.4319C413.471 81.5399 414.493 84.1906 414.297 87.3524C414.102 90.5142 412.763 92.9897 411.306 92.8817C409.85 92.7737 408.828 90.123 409.024 86.9612C409.22 83.7994 410.559 81.3238 412.015 81.4319Z" fill="#2196F3"/>
<path fill-rule="evenodd" clip-rule="evenodd" d="M413.45 84.9193C414.131 84.586 415.249 85.5168 415.947 86.9985C416.644 88.4801 416.656 89.9514 415.974 90.2848C415.293 90.6181 414.175 89.6873 413.477 88.2057C412.78 86.724 412.768 85.2527 413.45 84.9193Z" fill="#2196F3"/>
<path d="M412.076 83.3106C412.461 77.6219 410.433 69.4645 414.934 66.0724C417.207 64.3598 419.904 64.5779 422.334 63.405" stroke="#2196F3" stroke-width="4" stroke-miterlimit="10" stroke-linejoin="round"/>
<path fill-rule="evenodd" clip-rule="evenodd" d="M430.224 49.3352C430.224 46.7244 432.341 44.6079 434.952 44.6079C436.205 44.6079 437.408 45.106 438.294 45.9925C439.181 46.879 439.679 48.0815 439.679 49.3352C439.679 51.946 437.562 54.0625 434.952 54.0625C432.341 54.0625 430.224 51.946 430.224 49.3352Z" fill="black"/>
<path fill-rule="evenodd" clip-rule="evenodd" d="M435.411 47.7317C435.411 47.0031 436.002 46.4125 436.73 46.4125C437.08 46.4125 437.416 46.5515 437.663 46.7989C437.91 47.0463 438.049 47.3818 438.049 47.7317C438.049 48.4603 437.459 49.051 436.73 49.051C436.002 49.051 435.411 48.4603 435.411 47.7317Z" fill="white"/>
<path fill-rule="evenodd" clip-rule="evenodd" d="M457.617 49.3352C457.617 46.7244 459.733 44.6079 462.344 44.6079C463.598 44.6079 464.8 45.106 465.687 45.9925C466.573 46.879 467.071 48.0815 467.071 49.3352C467.071 51.946 464.955 54.0625 462.344 54.0625C459.733 54.0625 457.617 51.946 457.617 49.3352Z" fill="black"/>
<path fill-rule="evenodd" clip-rule="evenodd" d="M462.804 47.7317C462.804 47.0031 463.394 46.4125 464.123 46.4125C464.473 46.4125 464.808 46.5515 465.056 46.7989C465.303 47.0463 465.442 47.3818 465.442 47.7317C465.442 48.4603 464.851 49.051 464.123 49.051C463.394 49.051 462.804 48.4603 462.804 47.7317Z" fill="white"/>
<path d="M441.542 58.594C443.706 56.4305 446.696 55.2714 449.856 55.3719C453.017 55.4723 456.087 56.8239 458.393 59.1294" stroke="black" stroke-width="2" stroke-miterlimit="10" stroke-linejoin="round"/>
<path d="M434.082 112.275L437 124L434.082 135H442" stroke="#304FFE" stroke-width="4" stroke-linecap="round" stroke-linejoin="round"/>
<path d="M457.582 112.275L454.5 121L444.5 128.5L451.5 133" stroke="#304FFE" stroke-width="4" stroke-linecap="round" stroke-linejoin="round"/>
</g>
<g filter="url(#filter3_d)">
<path fill-rule="evenodd" clip-rule="evenodd" d="M345.239 104.591L320.774 88.8254V25.7651C320.774 17.0583 331.728 10 345.239 10C358.751 10 369.705 17.0583 369.705 25.7651V88.8254L345.239 104.591Z" fill="#2196F3"/>
<path fill-rule="evenodd" clip-rule="evenodd" d="M371.533 86.6243V102.404C371.533 111.119 359.751 118.183 345.218 118.183C330.684 118.183 318.903 111.119 318.903 102.404V86.6243H371.533Z" fill="#304FFE"/>
<path fill-rule="evenodd" clip-rule="evenodd" d="M383.939 56.5613C382.67 55.8396 382.883 53.0072 384.415 50.2352C385.947 47.4631 388.218 45.801 389.487 46.5227C390.756 47.2445 390.543 50.0768 389.011 52.8489C387.479 55.621 385.209 57.2831 383.939 56.5613Z" fill="#2196F3"/>
<path fill-rule="evenodd" clip-rule="evenodd" d="M384.138 52.7962C383.38 52.8051 382.769 51.4851 382.774 49.8479C382.779 48.2107 383.398 46.8763 384.157 46.8675C384.916 46.8586 385.527 48.1786 385.521 49.8158C385.516 51.453 384.897 52.7874 384.138 52.7962Z" fill="#2196F3"/>
<path d="M384.871 54.9171C382.084 59.8932 380.418 68.1354 374.896 69.2712C372.108 69.8447 369.765 68.4911 367.066 68.5092" stroke="#2196F3" stroke-width="4" stroke-miterlimit="10" stroke-linejoin="round"/>
<path fill-rule="evenodd" clip-rule="evenodd" d="M312.015 81.4319C313.471 81.5399 314.493 84.1906 314.297 87.3524C314.102 90.5142 312.763 92.9897 311.306 92.8817C309.85 92.7737 308.828 90.123 309.024 86.9612C309.22 83.7994 310.559 81.3238 312.015 81.4319Z" fill="#2196F3"/>
<path fill-rule="evenodd" clip-rule="evenodd" d="M313.45 84.9193C314.131 84.586 315.249 85.5168 315.947 86.9985C316.644 88.4801 316.656 89.9514 315.974 90.2848C315.293 90.6181 314.175 89.6873 313.477 88.2057C312.78 86.724 312.768 85.2527 313.45 84.9193Z" fill="#2196F3"/>
<path d="M312.076 83.3106C312.461 77.6219 310.433 69.4645 314.934 66.0724C317.207 64.3598 319.904 64.5779 322.334 63.405" stroke="#2196F3" stroke-width="4" stroke-miterlimit="10" stroke-linejoin="round"/>
<path fill-rule="evenodd" clip-rule="evenodd" d="M330.224 49.3352C330.224 46.7244 332.341 44.6079 334.952 44.6079C336.205 44.6079 337.408 45.106 338.294 45.9925C339.181 46.879 339.679 48.0815 339.679 49.3352C339.679 51.946 337.562 54.0625 334.952 54.0625C332.341 54.0625 330.224 51.946 330.224 49.3352Z" fill="black"/>
<path fill-rule="evenodd" clip-rule="evenodd" d="M335.411 47.7317C335.411 47.0031 336.002 46.4125 336.73 46.4125C337.08 46.4125 337.416 46.5515 337.663 46.7989C337.91 47.0463 338.049 47.3818 338.049 47.7317C338.049 48.4603 337.459 49.051 336.73 49.051C336.002 49.051 335.411 48.4603 335.411 47.7317Z" fill="white"/>
<path fill-rule="evenodd" clip-rule="evenodd" d="M357.617 49.3352C357.617 46.7244 359.733 44.6079 362.344 44.6079C363.598 44.6079 364.8 45.106 365.687 45.9925C366.573 46.879 367.071 48.0815 367.071 49.3352C367.071 51.946 364.955 54.0625 362.344 54.0625C359.733 54.0625 357.617 51.946 357.617 49.3352Z" fill="black"/>
<path fill-rule="evenodd" clip-rule="evenodd" d="M362.804 47.7317C362.804 47.0031 363.394 46.4125 364.123 46.4125C364.473 46.4125 364.808 46.5515 365.056 46.7989C365.303 47.0463 365.442 47.3818 365.442 47.7317C365.442 48.4603 364.851 49.051 364.123 49.051C363.394 49.051 362.804 48.4603 362.804 47.7317Z" fill="white"/>
<path d="M341.542 58.594C343.706 56.4305 346.696 55.2714 349.856 55.3719C353.017 55.4723 356.087 56.8239 358.393 59.1294" stroke="black" stroke-width="2" stroke-miterlimit="10" stroke-linejoin="round"/>
<path d="M334.082 112.275L348 126.275L329.5 130L334.082 136.5" stroke="#304FFE" stroke-width="4" stroke-linecap="round" stroke-linejoin="round"/>
<path d="M357.582 112.275V125.5L354 137.5H363.5" stroke="#304FFE" stroke-width="4" stroke-linecap="round" stroke-linejoin="round"/>
</g>
<g filter="url(#filter4_d)">
<path fill-rule="evenodd" clip-rule="evenodd" d="M245.239 104.591L220.774 88.8254V25.7651C220.774 17.0583 231.728 10 245.239 10C258.751 10 269.705 17.0583 269.705 25.7651V88.8254L245.239 104.591Z" fill="#2196F3"/>
<path fill-rule="evenodd" clip-rule="evenodd" d="M271.533 86.6243V102.404C271.533 111.119 259.751 118.183 245.218 118.183C230.684 118.183 218.903 111.119 218.903 102.404V86.6243H271.533Z" fill="#304FFE"/>
<path fill-rule="evenodd" clip-rule="evenodd" d="M283.939 56.5613C282.67 55.8396 282.883 53.0072 284.415 50.2352C285.947 47.4631 288.218 45.801 289.487 46.5227C290.756 47.2445 290.543 50.0768 289.011 52.8489C287.479 55.621 285.209 57.2831 283.939 56.5613Z" fill="#2196F3"/>
<path fill-rule="evenodd" clip-rule="evenodd" d="M284.138 52.7962C283.38 52.8051 282.769 51.4851 282.774 49.8479C282.779 48.2107 283.398 46.8763 284.157 46.8675C284.916 46.8586 285.527 48.1786 285.521 49.8158C285.516 51.453 284.897 52.7874 284.138 52.7962Z" fill="#2196F3"/>
<path d="M284.871 54.9171C282.084 59.8932 280.418 68.1354 274.896 69.2712C272.108 69.8447 269.765 68.4911 267.066 68.5092" stroke="#2196F3" stroke-width="4" stroke-miterlimit="10" stroke-linejoin="round"/>
<path fill-rule="evenodd" clip-rule="evenodd" d="M212.015 81.4319C213.471 81.5399 214.493 84.1906 214.297 87.3524C214.102 90.5142 212.763 92.9897 211.306 92.8817C209.85 92.7737 208.828 90.123 209.024 86.9612C209.22 83.7994 210.559 81.3238 212.015 81.4319Z" fill="#2196F3"/>
<path fill-rule="evenodd" clip-rule="evenodd" d="M213.45 84.9193C214.131 84.586 215.249 85.5168 215.947 86.9985C216.644 88.4801 216.656 89.9514 215.974 90.2848C215.293 90.6181 214.175 89.6873 213.477 88.2057C212.78 86.724 212.768 85.2527 213.45 84.9193Z" fill="#2196F3"/>
<path d="M212.076 83.3106C212.461 77.6219 210.433 69.4645 214.934 66.0724C217.207 64.3598 219.904 64.5779 222.334 63.405" stroke="#2196F3" stroke-width="4" stroke-miterlimit="10" stroke-linejoin="round"/>
<path fill-rule="evenodd" clip-rule="evenodd" d="M230.224 49.3352C230.224 46.7244 232.341 44.6079 234.952 44.6079C236.205 44.6079 237.408 45.106 238.294 45.9925C239.181 46.879 239.679 48.0815 239.679 49.3352C239.679 51.946 237.562 54.0625 234.952 54.0625C232.341 54.0625 230.224 51.946 230.224 49.3352Z" fill="black"/>
<path fill-rule="evenodd" clip-rule="evenodd" d="M235.411 47.7317C235.411 47.0031 236.002 46.4125 236.73 46.4125C237.08 46.4125 237.416 46.5515 237.663 46.7989C237.91 47.0463 238.049 47.3818 238.049 47.7317C238.049 48.4603 237.459 49.051 236.73 49.051C236.002 49.051 235.411 48.4603 235.411 47.7317Z" fill="white"/>
<path fill-rule="evenodd" clip-rule="evenodd" d="M257.617 49.3352C257.617 46.7244 259.733 44.6079 262.344 44.6079C263.598 44.6079 264.8 45.106 265.687 45.9925C266.573 46.879 267.071 48.0815 267.071 49.3352C267.071 51.946 264.955 54.0625 262.344 54.0625C259.733 54.0625 257.617 51.946 257.617 49.3352Z" fill="black"/>
<path fill-rule="evenodd" clip-rule="evenodd" d="M262.804 47.7317C262.804 47.0031 263.394 46.4125 264.123 46.4125C264.473 46.4125 264.808 46.5515 265.056 46.7989C265.303 47.0463 265.442 47.3818 265.442 47.7317C265.442 48.4603 264.851 49.051 264.123 49.051C263.394 49.051 262.804 48.4603 262.804 47.7317Z" fill="white"/>
<path d="M241.542 58.594C243.706 56.4305 246.696 55.2714 249.856 55.3719C253.017 55.4723 256.087 56.8239 258.393 59.1294" stroke="black" stroke-width="2" stroke-miterlimit="10" stroke-linejoin="round"/>
<path d="M234.082 112.275L237 126.275H222V132.5" stroke="#304FFE" stroke-width="4" stroke-linecap="round" stroke-linejoin="round"/>
<path d="M257.582 112.275L262.5 124.5L254.5 133L262.5 135.775" stroke="#304FFE" stroke-width="4" stroke-linecap="round" stroke-linejoin="round"/>
</g>
<g filter="url(#filter5_d)">
<path fill-rule="evenodd" clip-rule="evenodd" d="M145.239 104.591L120.774 88.8254V25.7651C120.774 17.0583 131.728 10 145.239 10C158.751 10 169.705 17.0583 169.705 25.7651V88.8254L145.239 104.591Z" fill="#2196F3"/>
<path fill-rule="evenodd" clip-rule="evenodd" d="M171.533 86.6243V102.404C171.533 111.119 159.751 118.183 145.218 118.183C130.684 118.183 118.903 111.119 118.903 102.404V86.6243H171.533Z" fill="#304FFE"/>
<path fill-rule="evenodd" clip-rule="evenodd" d="M183.939 56.5613C182.67 55.8396 182.883 53.0072 184.415 50.2352C185.947 47.4631 188.218 45.801 189.487 46.5227C190.756 47.2445 190.543 50.0768 189.011 52.8489C187.479 55.621 185.209 57.2831 183.939 56.5613Z" fill="#2196F3"/>
<path fill-rule="evenodd" clip-rule="evenodd" d="M184.138 52.7962C183.38 52.8051 182.769 51.4851 182.774 49.8479C182.779 48.2107 183.398 46.8763 184.157 46.8675C184.916 46.8586 185.527 48.1786 185.521 49.8158C185.516 51.453 184.897 52.7874 184.138 52.7962Z" fill="#2196F3"/>
<path d="M184.871 54.9171C182.084 59.8932 180.418 68.1354 174.896 69.2712C172.108 69.8447 169.765 68.4911 167.066 68.5092" stroke="#2196F3" stroke-width="4" stroke-miterlimit="10" stroke-linejoin="round"/>
<path fill-rule="evenodd" clip-rule="evenodd" d="M113.4 80.0033C115.042 80.107 116.194 82.652 115.973 85.6878C115.752 88.7236 114.242 91.1004 112.6 90.9967C110.958 90.893 109.806 88.348 110.027 85.3122C110.248 82.2764 111.758 79.8996 113.4 80.0033Z" fill="#2196F3"/>
<path fill-rule="evenodd" clip-rule="evenodd" d="M113.45 84.9193C114.131 84.586 115.249 85.5168 115.947 86.9985C116.644 88.4801 116.656 89.9514 115.974 90.2848C115.293 90.6181 114.175 89.6873 113.477 88.2057C112.78 86.724 112.768 85.2527 113.45 84.9193Z" fill="#2196F3"/>
<path d="M113.294 83C113.658 77.2844 111.368 72.4082 115.627 69C117.777 67.2793 120.701 64.1785 123 63" stroke="#2196F3" stroke-width="4" stroke-miterlimit="10" stroke-linejoin="round"/>
<path fill-rule="evenodd" clip-rule="evenodd" d="M130.224 49.3352C130.224 46.7244 132.341 44.6079 134.952 44.6079C136.205 44.6079 137.408 45.106 138.294 45.9925C139.181 46.879 139.679 48.0815 139.679 49.3352C139.679 51.946 137.562 54.0625 134.952 54.0625C132.341 54.0625 130.224 51.946 130.224 49.3352Z" fill="black"/>
<path fill-rule="evenodd" clip-rule="evenodd" d="M135.411 47.7317C135.411 47.0031 136.002 46.4125 136.73 46.4125C137.08 46.4125 137.416 46.5515 137.663 46.7989C137.91 47.0463 138.049 47.3818 138.049 47.7317C138.049 48.4603 137.459 49.051 136.73 49.051C136.002 49.051 135.411 48.4603 135.411 47.7317Z" fill="white"/>
<path fill-rule="evenodd" clip-rule="evenodd" d="M157.617 49.3352C157.617 46.7244 159.733 44.6079 162.344 44.6079C163.598 44.6079 164.8 45.106 165.687 45.9925C166.573 46.879 167.071 48.0815 167.071 49.3352C167.071 51.946 164.955 54.0625 162.344 54.0625C159.733 54.0625 157.617 51.946 157.617 49.3352Z" fill="black"/>
<path fill-rule="evenodd" clip-rule="evenodd" d="M162.804 47.7317C162.804 47.0031 163.394 46.4125 164.123 46.4125C164.473 46.4125 164.808 46.5515 165.056 46.7989C165.303 47.0463 165.442 47.3818 165.442 47.7317C165.442 48.4603 164.851 49.051 164.123 49.051C163.394 49.051 162.804 48.4603 162.804 47.7317Z" fill="white"/>
<path d="M141.542 58.594C143.706 56.4305 146.696 55.2714 149.856 55.3719C153.017 55.4723 156.087 56.8239 158.393 59.1294" stroke="black" stroke-width="2" stroke-miterlimit="10" stroke-linejoin="round"/>
<path d="M134.082 112.275L129.082 124.275L113.582 119.275L111.582 126.275" stroke="#304FFE" stroke-width="4" stroke-linecap="round" stroke-linejoin="round"/>
<path d="M157.582 112.275L167.082 119.275L161.082 133.775L169.082 135.775" stroke="#304FFE" stroke-width="4" stroke-linecap="round" stroke-linejoin="round"/>
</g>
</g>
<defs>
<filter id="filter0_d" x="5" y="10" width="91.2528" height="137.501" filterUnits="userSpaceOnUse" color-interpolation-filters="sRGB">
<feFlood flood-opacity="0" result="BackgroundImageFix"/>
<feColorMatrix in="SourceAlpha" type="matrix" values="0 0 0 0 0 0 0 0 0 0 0 0 0 0 0 0 0 0 127 0"/>
<feOffset dy="4"/>
<feGaussianBlur stdDeviation="2"/>
<feColorMatrix type="matrix" values="0 0 0 0 0 0 0 0 0 0 0 0 0 0 0 0 0 0 0.25 0"/>
<feBlend mode="normal" in2="BackgroundImageFix" result="effect1_dropShadow"/>
<feBlend mode="normal" in="SourceGraphic" in2="effect1_dropShadow" result="shape"/>
</filter>
<filter id="filter1_d" x="505" y="10" width="89.3152" height="135.5" filterUnits="userSpaceOnUse" color-interpolation-filters="sRGB">
<feFlood flood-opacity="0" result="BackgroundImageFix"/>
<feColorMatrix in="SourceAlpha" type="matrix" values="0 0 0 0 0 0 0 0 0 0 0 0 0 0 0 0 0 0 127 0"/>
<feOffset dy="4"/>
<feGaussianBlur stdDeviation="2"/>
<feColorMatrix type="matrix" values="0 0 0 0 0 0 0 0 0 0 0 0 0 0 0 0 0 0 0.25 0"/>
<feBlend mode="normal" in2="BackgroundImageFix" result="effect1_dropShadow"/>
<feBlend mode="normal" in="SourceGraphic" in2="effect1_dropShadow" result="shape"/>
</filter>
<filter id="filter2_d" x="405" y="10" width="89.3152" height="135" filterUnits="userSpaceOnUse" color-interpolation-filters="sRGB">
<feFlood flood-opacity="0" result="BackgroundImageFix"/>
<feColorMatrix in="SourceAlpha" type="matrix" values="0 0 0 0 0 0 0 0 0 0 0 0 0 0 0 0 0 0 127 0"/>
<feOffset dy="4"/>
<feGaussianBlur stdDeviation="2"/>
<feColorMatrix type="matrix" values="0 0 0 0 0 0 0 0 0 0 0 0 0 0 0 0 0 0 0.25 0"/>
<feBlend mode="normal" in2="BackgroundImageFix" result="effect1_dropShadow"/>
<feBlend mode="normal" in="SourceGraphic" in2="effect1_dropShadow" result="shape"/>
</filter>
<filter id="filter3_d" x="305" y="10" width="89.3152" height="137.5" filterUnits="userSpaceOnUse" color-interpolation-filters="sRGB">
<feFlood flood-opacity="0" result="BackgroundImageFix"/>
<feColorMatrix in="SourceAlpha" type="matrix" values="0 0 0 0 0 0 0 0 0 0 0 0 0 0 0 0 0 0 127 0"/>
<feOffset dy="4"/>
<feGaussianBlur stdDeviation="2"/>
<feColorMatrix type="matrix" values="0 0 0 0 0 0 0 0 0 0 0 0 0 0 0 0 0 0 0.25 0"/>
<feBlend mode="normal" in2="BackgroundImageFix" result="effect1_dropShadow"/>
<feBlend mode="normal" in="SourceGraphic" in2="effect1_dropShadow" result="shape"/>
</filter>
<filter id="filter4_d" x="205" y="10" width="89.3152" height="135.776" filterUnits="userSpaceOnUse" color-interpolation-filters="sRGB">
<feFlood flood-opacity="0" result="BackgroundImageFix"/>
<feColorMatrix in="SourceAlpha" type="matrix" values="0 0 0 0 0 0 0 0 0 0 0 0 0 0 0 0 0 0 127 0"/>
<feOffset dy="4"/>
<feGaussianBlur stdDeviation="2"/>
<feColorMatrix type="matrix" values="0 0 0 0 0 0 0 0 0 0 0 0 0 0 0 0 0 0 0.25 0"/>
<feBlend mode="normal" in2="BackgroundImageFix" result="effect1_dropShadow"/>
<feBlend mode="normal" in="SourceGraphic" in2="effect1_dropShadow" result="shape"/>
</filter>
<filter id="filter5_d" x="105.582" y="10" width="88.7334" height="135.776" filterUnits="userSpaceOnUse" color-interpolation-filters="sRGB">
<feFlood flood-opacity="0" result="BackgroundImageFix"/>
<feColorMatrix in="SourceAlpha" type="matrix" values="0 0 0 0 0 0 0 0 0 0 0 0 0 0 0 0 0 0 127 0"/>
<feOffset dy="4"/>
<feGaussianBlur stdDeviation="2"/>
<feColorMatrix type="matrix" values="0 0 0 0 0 0 0 0 0 0 0 0 0 0 0 0 0 0 0.25 0"/>
<feBlend mode="normal" in2="BackgroundImageFix" result="effect1_dropShadow"/>
<feBlend mode="normal" in="SourceGraphic" in2="effect1_dropShadow" result="shape"/>
</filter>
<clipPath id="clip0">
<rect width="600" height="145" fill="white"/>
</clipPath>
</defs>
</svg>
