<svg version="1.1" viewBox="0.0 0.0 200.0 200.0" fill="none" stroke="none" stroke-linecap="square" stroke-miterlimit="10" xmlns:xlink="http://www.w3.org/1999/xlink" xmlns="http://www.w3.org/2000/svg"><clipPath id="g7dc3d12071_0_1990.0"><path d="m0 0l200.0 0l0 200.0l-200.0 0l0 -200.0z" clip-rule="nonzero"/></clipPath><g clip-path="url(#g7dc3d12071_0_1990.0)"><path fill="#000000" fill-opacity="0.0" d="m0 0l200.0 0l0 200.0l-200.0 0z" fill-rule="evenodd"/><path fill="#2196f3" d="m132.57558 76.02444l0 0c-1.4673157 -0.13154602 -2.4763489 -2.7976608 -2.253708 -5.954918l0 0c0.22262573 -3.157257 1.5925903 -5.610077 3.059906 -5.478531l0 0c1.4673157 0.13155365 2.4763336 2.7976685 2.253708 5.9549255l0 0c-0.22262573 3.157257 -1.5925903 5.610077 -3.059906 5.4785233z" fill-rule="evenodd"/><path fill="#2196f3" d="m131.14796 72.5115l0 0c-0.6881256 0.32382202 -1.8037872 -0.6113663 -2.4919128 -2.0887985l0 0c-0.68811035 -1.4774399 -0.68811035 -2.937645 0 -3.261467l0 0c0.6881256 -0.32382202 1.8037872 0.6113663 2.4919128 2.0888062l0 0c0.6881256 1.4774323 0.6881256 2.937645 0 3.2614594z" fill-rule="evenodd"/><path fill="#000000" fill-opacity="0.0" d="m92.19835 136.60326l1.2093048 28.840134" fill-rule="evenodd"/><path stroke="#304ffe" stroke-width="4.0" stroke-linejoin="round" stroke-linecap="butt" d="m92.19835 136.60326l1.2093048 28.840134" fill-rule="evenodd"/><path fill="#000000" fill-opacity="0.0" d="m93.424644 163.98546l-6.7794495 2.4552612" fill-rule="evenodd"/><path stroke="#304ffe" stroke-width="4.0" stroke-linejoin="round" stroke-linecap="butt" d="m93.424644 163.98546l-6.7794495 2.4552612" fill-rule="evenodd"/><path fill="#000000" fill-opacity="0.0" d="m106.77994 136.60326l1.2093124 28.840134" fill-rule="evenodd"/><path stroke="#304ffe" stroke-width="4.0" stroke-linejoin="round" stroke-linecap="butt" d="m106.77994 136.60326l1.2093124 28.840134" fill-rule="evenodd"/><path fill="#000000" fill-opacity="0.0" d="m106.779564 163.98546l6.7794495 2.4552612" fill-rule="evenodd"/><path stroke="#304ffe" stroke-width="4.0" stroke-linejoin="round" stroke-linecap="butt" d="m106.779564 163.98546l6.7794495 2.4552612" fill-rule="evenodd"/><path fill="#000000" fill-opacity="0.0" d="m132.56523 74.08832c-0.419281 5.6869125 1.5597076 13.857231 -2.960846 17.222946c-2.282318 1.6992645 -4.9774323 1.4650955 -7.4141006 2.6236877" fill-rule="evenodd"/><path stroke="#2196f3" stroke-width="4.0" stroke-linejoin="round" stroke-linecap="butt" d="m132.56523 74.08832c-0.419281 5.6869125 1.5597076 13.857231 -2.960846 17.222946c-2.282318 1.6992645 -4.9774323 1.4650955 -7.4141006 2.6236877" fill-rule="evenodd"/><path fill="#2196f3" d="m67.44772 76.15923l0 0c1.4571991 -0.13155365 2.4580154 -2.7976685 2.2353897 -5.9549255l0 0c-0.22262573 -3.157257 -1.5843964 -5.610077 -3.0415955 -5.4785233l0 0c-1.4571915 0.13154602 -2.4580078 2.7976608 -2.235382 5.954918l0 0c0.22262573 3.157257 1.5843964 5.610077 3.0415878 5.478531z" fill-rule="evenodd"/><path fill="#2196f3" d="m68.84541 72.664566l0 0c0.6881256 0.31370544 1.7955856 -0.6460953 2.473587 -2.1437683l0 0c0.6780014 -1.4976807 0.6697922 -2.9660873 -0.018325806 -3.2797928l0 0c-0.688118 -0.31369781 -1.795578 0.6461029 -2.4735794 2.143776l0 0c-0.6780014 1.497673 -0.6697998 2.9660797 0.018318176 3.2797852z" fill-rule="evenodd"/><path fill="#000000" fill-opacity="0.0" d="m67.42302 74.23455c0.44094086 5.6865234 -1.5070114 13.866974 3.0265121 17.214752c2.2888794 1.6902084 4.9832 1.4448166 7.4243546 2.5935898" fill-rule="evenodd"/><path stroke="#2196f3" stroke-width="4.0" stroke-linejoin="round" stroke-linecap="butt" d="m67.42302 74.23455c0.44094086 5.6865234 -1.5070114 13.866974 3.0265121 17.214752c2.2888794 1.6902084 4.9832 1.4448166 7.4243546 2.5935898" fill-rule="evenodd"/><path fill="#2196f3" d="m100.09773 128.15027l-24.465416 -15.765083l0 -63.060337c0 -8.706814 10.953537 -15.765083 24.465416 -15.765083c13.511879 0 24.465416 7.0582695 24.465416 15.765083l0 63.060337z" fill-rule="evenodd"/><path fill="#304ffe" d="m126.39084 110.18404l0 15.779533l0 0c0 8.71479 -11.781609 15.779518 -26.314957 15.779518c-14.533356 0 -26.314964 -7.064728 -26.314964 -15.779518l0 -15.779533z" fill-rule="evenodd"/><path fill="#000000" d="m81.19556 79.79264l0 0c0 -2.448906 1.9852295 -4.434128 4.434128 -4.434128l0 0c1.1760025 0 2.3038406 0.4671631 3.1353989 1.2987213c0.83156586 0.83156586 1.298729 1.9593964 1.298729 3.1354065l0 0c0 2.4488983 -1.9852295 4.43412 -4.434128 4.43412l0 0c-2.4488983 0 -4.434128 -1.9852219 -4.434128 -4.43412z" fill-rule="evenodd"/><path fill="#ffffff" d="m83.602974 77.55585l0 0c0 -0.6780014 0.5496292 -1.2276306 1.2276306 -1.2276306l0 0c0.3255844 0 0.6378403 0.12934113 0.8680649 0.35956573c0.23022461 0.23022461 0.35956573 0.54247284 0.35956573 0.8680649l0 0c0 0.6780014 -0.5496292 1.2276306 -1.2276306 1.2276306l0 0c-0.6780014 0 -1.2276306 -0.5496292 -1.2276306 -1.2276306z" fill-rule="evenodd"/><path fill="#000000" d="m110.88778 79.79264l0 0c0 -2.448906 1.9852295 -4.434128 4.434128 -4.434128l0 0c1.1760025 0 2.3038406 0.4671631 3.1353989 1.2987213c0.83156586 0.83156586 1.298729 1.9593964 1.298729 3.1354065l0 0c0 2.4488983 -1.9852295 4.43412 -4.434128 4.43412l0 0c-2.4488983 0 -4.434128 -1.9852219 -4.434128 -4.43412z" fill-rule="evenodd"/><path fill="#ffffff" d="m113.2952 77.55585l0 0c0 -0.6780014 0.5496292 -1.2276306 1.2276306 -1.2276306l0 0c0.3255844 0 0.6378403 0.12934113 0.8680649 0.35956573c0.23022461 0.23022461 0.35956573 0.54247284 0.35956573 0.8680649l0 0c0 0.6780014 -0.5496292 1.2276306 -1.2276306 1.2276306l0 0c-0.6780014 0 -1.2276306 -0.5496292 -1.2276306 -1.2276306z" fill-rule="evenodd"/><path fill="#000000" fill-opacity="0.0" d="m95.41475 90.268265l0 -4.4566956l0 0c0 -2.4613647 2.813202 -4.4566956 6.2834625 -4.4566956c3.4702606 0 6.2834625 1.9953308 6.2834625 4.4566956l0 4.4566956z" fill-rule="evenodd"/><path stroke="#000000" stroke-width="2.0" stroke-linejoin="round" stroke-linecap="butt" d="m95.41475 90.268265l0 -4.4566956l0 0c0 -2.4613647 2.813202 -4.4566956 6.2834625 -4.4566956c3.4702606 0 6.2834625 1.9953308 6.2834625 4.4566956l0 4.4566956z" fill-rule="evenodd"/></g></svg>