<svg version="1.1" viewBox="0.0 0.0 200.0 200.0" fill="none" stroke="none" stroke-linecap="square" stroke-miterlimit="10" xmlns:xlink="http://www.w3.org/1999/xlink" xmlns="http://www.w3.org/2000/svg"><clipPath id="g7dc3d12071_0_2045.0"><path d="m0 0l200.0 0l0 200.0l-200.0 0l0 -200.0z" clip-rule="nonzero"/></clipPath><g clip-path="url(#g7dc3d12071_0_2045.0)"><path fill="#ffffff" d="m0 0l200.0 0l0 200.0l-200.0 0z" fill-rule="evenodd"/><path fill="#ffc400" d="m104.36617 104.1406c-10.209969 62.57743 -50.02887 0 0 -80.45669c50.028877 80.45669 10.209976 143.03412 0 80.45669z" fill-rule="evenodd"/><path fill="#000000" d="m88.42621 79.36398l0 0c0 -2.3437805 1.899826 -4.2437897 4.2433853 -4.2437897l0 0c1.1254196 0 2.2047424 0.44711304 3.000534 1.2429733c0.795784 0.7958679 1.2428589 1.8752975 1.2428589 3.0008163l0 0c0 2.3437881 -1.8998337 4.2437973 -4.243393 4.2437973l0 0c-2.3435593 0 -4.2433853 -1.9000092 -4.2433853 -4.2437973z" fill-rule="evenodd"/><path fill="#ffffff" d="m90.73276 77.23367l0 0c0 -0.6540756 0.5301895 -1.1843109 1.1842041 -1.1843109l0 0c0.31407166 0 0.6152725 0.12477112 0.83735657 0.34687805c0.22208405 0.2220993 0.34684753 0.5233307 0.34684753 0.83743286l0 0c0 0.65408325 -0.5301895 1.1843185 -1.1842041 1.1843185l0 0c-0.6540146 0 -1.1842041 -0.5302353 -1.1842041 -1.1843185z" fill-rule="evenodd"/><path fill="#000000" d="m111.999084 79.36398l0 0c0 -2.3437805 1.8998337 -4.2437897 4.243393 -4.2437897l0 0c1.125412 0 2.2047348 0.44711304 3.0005264 1.2429733c0.7957916 0.7958679 1.2428589 1.8752975 1.2428589 3.0008163l0 0c0 2.3437881 -1.899826 4.2437973 -4.2433853 4.2437973l0 0c-2.3435593 0 -4.243393 -1.9000092 -4.243393 -4.2437973z" fill-rule="evenodd"/><path fill="#ffffff" d="m114.30564 77.23367l0 0c0 -0.6540756 0.5301819 -1.1843109 1.1841965 -1.1843109l0 0c0.31407166 0 0.61528015 0.12477112 0.83735657 0.34687805c0.22208405 0.2220993 0.34684753 0.5233307 0.34684753 0.83743286l0 0c0 0.65408325 -0.5301819 1.1843185 -1.1842041 1.1843185l0 0c-0.6540146 0 -1.1841965 -0.5302353 -1.1841965 -1.1843185z" fill-rule="evenodd"/><path fill="#ffc400" d="m82.28153 115.83857l0 0c0 -10.610825 9.920242 -19.212593 22.157478 -19.212593l0 0c12.237244 0 22.157486 8.6017685 22.157486 19.212593l0 0c0 10.610825 -9.920242 19.212593 -22.157486 19.212593l0 0c-12.237236 0 -22.157478 -8.6017685 -22.157478 -19.212593z" fill-rule="evenodd"/><path fill="#000000" fill-opacity="0.0" d="m96.58777 146.47891l1.2093048 28.840134" fill-rule="evenodd"/><path stroke="#ff9800" stroke-width="4.0" stroke-linejoin="round" stroke-linecap="butt" d="m96.58777 146.47891l1.2093048 28.840134" fill-rule="evenodd"/><path fill="#000000" fill-opacity="0.0" d="m97.814064 173.8611l-6.7794495 2.4552612" fill-rule="evenodd"/><path stroke="#ff9800" stroke-width="4.0" stroke-linejoin="round" stroke-linecap="butt" d="m97.814064 173.8611l-6.7794495 2.4552612" fill-rule="evenodd"/><path fill="#000000" fill-opacity="0.0" d="m111.16936 146.47891l1.2093048 28.840134" fill-rule="evenodd"/><path stroke="#ff9800" stroke-width="4.0" stroke-linejoin="round" stroke-linecap="butt" d="m111.16936 146.47891l1.2093048 28.840134" fill-rule="evenodd"/><path fill="#000000" fill-opacity="0.0" d="m111.16898 173.8611l6.7794495 2.4552612" fill-rule="evenodd"/><path stroke="#ff9800" stroke-width="4.0" stroke-linejoin="round" stroke-linecap="butt" d="m111.16898 173.8611l6.7794495 2.4552612" fill-rule="evenodd"/><path fill="#ff9800" d="m125.91403 123.844215l0 12.787407l0 0c0 7.0622864 -9.638214 12.787399 -21.527557 12.787399c-11.889343 0 -21.527557 -5.725113 -21.527557 -12.787399l0 -12.787407z" fill-rule="evenodd"/><path fill="#ffc400" d="m139.05164 80.88048l0 0c-1.4056549 -0.3961563 -1.8788452 -3.1975098 -1.0568848 -6.257004l0 0c0.82196045 -3.0595016 2.6277924 -5.218567 4.0334473 -4.8224106l0 0c1.4056549 0.39614868 1.8788452 3.1975021 1.0568848 6.256996l0 0c-0.82196045 3.0595016 -2.6277924 5.218567 -4.0334473 4.822418z" fill-rule="evenodd"/><path fill="#ffc400" d="m138.34088 77.17683l0 0c-0.7346344 0.19077301 -1.6447601 -0.94431305 -2.0328064 -2.5352783l0 0c-0.38806152 -1.5909653 -0.10710144 -3.035347 0.6275482 -3.22612l0 0c0.7346344 -0.19077301 1.6447601 0.9443054 2.0328064 2.5352707l0 0c0.38804626 1.5909653 0.10708618 3.0353546 -0.6275482 3.2261276z" fill-rule="evenodd"/><path fill="#000000" fill-opacity="0.0" d="m139.39941 78.96224c-1.5128326 5.498543 -1.1534424 13.897514 -6.240921 16.32537c-2.5685425 1.2257767 -5.167656 0.47473145 -7.7829285 1.1401749" fill-rule="evenodd"/><path stroke="#ffc400" stroke-width="4.0" stroke-linejoin="round" stroke-linecap="butt" d="m139.39941 78.96224c-1.5128326 5.498543 -1.1534424 13.897514 -6.240921 16.32537c-2.5685425 1.2257767 -5.167656 0.47473145 -7.7829285 1.1401749" fill-rule="evenodd"/><path fill="#ffc400" d="m70.37348 80.88048l0 0c1.4056549 -0.3961563 1.8788376 -3.1975098 1.0568848 -6.257004l0 0c-0.82196045 -3.0595016 -2.6278 -5.218567 -4.033455 -4.8224106l0 0c-1.4056549 0.39614868 -1.8788376 3.1975021 -1.0568848 6.256996l0 0c0.82196045 3.0595016 2.6278 5.218567 4.033455 4.822418z" fill-rule="evenodd"/><path fill="#ffc400" d="m71.084236 77.17683l0 0c0.7346344 0.19077301 1.6447601 -0.94431305 2.032814 -2.5352783l0 0c0.3880539 -1.5909653 0.10708618 -3.035347 -0.6275482 -3.22612l0 0c-0.734642 -0.19077301 -1.6447601 0.9443054 -2.032814 2.5352707l0 0c-0.3880539 1.5909653 -0.10709381 3.0353546 0.6275482 3.2261276z" fill-rule="evenodd"/><path fill="#000000" fill-opacity="0.0" d="m70.0257 78.96224c1.512825 5.498543 1.1534424 13.897514 6.2409134 16.32537c2.56855 1.2257767 5.1676636 0.47473145 7.7829285 1.1401749" fill-rule="evenodd"/><path stroke="#ffc400" stroke-width="4.0" stroke-linejoin="round" stroke-linecap="butt" d="m70.0257 78.96224c1.512825 5.498543 1.1534424 13.897514 6.2409134 16.32537c2.56855 1.2257767 5.1676636 0.47473145 7.7829285 1.1401749" fill-rule="evenodd"/><path fill="#000000" fill-opacity="0.0" d="m110.23793 84.45968l0.6141739 3.7322845l0 0c0.33920288 2.061287 -2.114418 4.183525 -5.480316 4.740158c-3.3658905 0.556633 -6.369461 -0.6631241 -6.7086563 -2.724411l-0.6141739 -3.732277z" fill-rule="evenodd"/><path stroke="#000000" stroke-width="2.0" stroke-linejoin="round" stroke-linecap="butt" d="m110.23793 84.45968l0.6141739 3.7322845l0 0c0.33920288 2.061287 -2.114418 4.183525 -5.480316 4.740158c-3.3658905 0.556633 -6.369461 -0.6631241 -6.7086563 -2.724411l-0.6141739 -3.732277z" fill-rule="evenodd"/></g></svg>