<svg version="1.1" viewBox="0.0 0.0 200.0 200.0" fill="none" stroke="none" stroke-linecap="square" stroke-miterlimit="10" xmlns:xlink="http://www.w3.org/1999/xlink" xmlns="http://www.w3.org/2000/svg"><clipPath id="g7dc3d12071_0_1934.0"><path d="m0 0l200.0 0l0 200.0l-200.0 0l0 -200.0z" clip-rule="nonzero"/></clipPath><g clip-path="url(#g7dc3d12071_0_1934.0)"><path fill="#000000" fill-opacity="0.0" d="m0 0l200.0 0l0 200.0l-200.0 0z" fill-rule="evenodd"/><path fill="#ea80fc" d="m124.61729 59.107822l0 0c13.298317 13.307018 12.9880905 35.18514 -0.69291687 48.86614q-13.080048 13.080055 -24.810486 27.510597q-11.325729 -14.110939 -24.03991 -26.833427l0 0c-13.298317 -13.307022 -12.9880905 -35.185135 0.69291687 -48.866142l0 0c13.681007 -13.681007 35.55207 -13.984184 48.850395 -0.677166z" fill-rule="evenodd"/><path fill="#000000" fill-opacity="0.0" d="m91.941574 135.15007l1.2093048 28.840134" fill-rule="evenodd"/><path stroke="#d500f9" stroke-width="4.0" stroke-linejoin="round" stroke-linecap="butt" d="m91.941574 135.15007l1.2093048 28.840134" fill-rule="evenodd"/><path fill="#000000" fill-opacity="0.0" d="m93.16787 162.53226l-6.7794495 2.4552612" fill-rule="evenodd"/><path stroke="#d500f9" stroke-width="4.0" stroke-linejoin="round" stroke-linecap="butt" d="m93.16787 162.53226l-6.7794495 2.4552612" fill-rule="evenodd"/><path fill="#000000" fill-opacity="0.0" d="m106.52317 135.15007l1.2093048 28.840134" fill-rule="evenodd"/><path stroke="#d500f9" stroke-width="4.0" stroke-linejoin="round" stroke-linecap="butt" d="m106.52317 135.15007l1.2093048 28.840134" fill-rule="evenodd"/><path fill="#000000" fill-opacity="0.0" d="m106.5228 162.53226l6.779442 2.4552612" fill-rule="evenodd"/><path stroke="#d500f9" stroke-width="4.0" stroke-linejoin="round" stroke-linecap="butt" d="m106.5228 162.53226l6.779442 2.4552612" fill-rule="evenodd"/><path fill="#000000" d="m79.641 78.58606l0 0c0 -2.610817 2.1164856 -4.727295 4.727295 -4.727295l0 0c1.2537537 0 2.4561615 0.4980545 3.3426971 1.3845901c0.8865433 0.8865433 1.3845901 2.0889435 1.3845901 3.3427048l0 0c0 2.6108093 -2.116478 4.7272873 -4.7272873 4.7272873l0 0c-2.6108093 0 -4.727295 -2.116478 -4.727295 -4.7272873z" fill-rule="evenodd"/><path fill="#ffffff" d="m82.21059 76.213036l0 0c0 -0.72859955 0.59064484 -1.3192444 1.3192444 -1.3192444l0 0c0.34988403 0 0.68544006 0.13899231 0.93284607 0.38639832c0.247406 0.247406 0.38639832 0.58296204 0.38639832 0.93284607l0 0c0 0.72859955 -0.59064484 1.3192444 -1.3192444 1.3192444l0 0c-0.72859955 0 -1.3192444 -0.59064484 -1.3192444 -1.3192444z" fill-rule="evenodd"/><path fill="#000000" d="m111.3334 78.58606l0 0c0 -2.610817 2.116478 -4.727295 4.727295 -4.727295l0 0c1.2537537 0 2.4561615 0.4980545 3.3426971 1.3845901c0.88653564 0.8865433 1.3845901 2.0889435 1.3845901 3.3427048l0 0c0 2.6108093 -2.116478 4.7272873 -4.7272873 4.7272873l0 0c-2.610817 0 -4.727295 -2.116478 -4.727295 -4.7272873z" fill-rule="evenodd"/><path fill="#ffffff" d="m113.902985 76.213036l0 0c0 -0.72859955 0.59064484 -1.3192444 1.3192444 -1.3192444l0 0c0.34988403 0 0.68544006 0.13899231 0.93284607 0.38639832c0.247406 0.247406 0.38639832 0.58296204 0.38639832 0.93284607l0 0c0 0.72859955 -0.59065247 1.3192444 -1.3192444 1.3192444l0 0c-0.72859955 0 -1.3192444 -0.59064484 -1.3192444 -1.3192444z" fill-rule="evenodd"/><path fill="#d500f9" d="m118.3048 114.19495l0 12.787407l0 0c0 7.0622787 -8.263336 12.787407 -18.456688 12.787407c-10.193352 0 -18.456696 -5.725128 -18.456696 -12.787407l0 -12.787407z" fill-rule="evenodd"/><path fill="#ea80fc" d="m142.32487 76.62793l0 0c-1.4469299 -0.19792175 -2.3030243 -2.9068985 -1.9121552 -6.050659l0 0c0.3908844 -3.1437683 1.8807373 -5.5318527 3.3276672 -5.333931l0 0c1.4469299 0.19792175 2.3030396 2.9068985 1.9121552 6.050659l0 0c-0.3908844 3.1437683 -1.880722 5.5318527 -3.3276672 5.333931z" fill-rule="evenodd"/><path fill="#ea80fc" d="m141.10869 73.0582l0 0c-0.70118713 0.29055023 -1.759552 -0.70773315 -2.363922 -2.2297287l0 0c-0.6043854 -1.5219955 -0.52589417 -2.991356 0.17529297 -3.2819061l0 0c0.70118713 -0.29055023 1.759552 0.70773315 2.363922 2.2297287l0 0c0.6043854 1.5219955 0.52589417 2.991356 -0.17529297 3.2819061z" fill-rule="evenodd"/><path fill="#000000" fill-opacity="0.0" d="m142.42091 74.62642c-0.73495483 5.6539383 0.7868805 13.920799 -3.914505 17.028793c-2.3736267 1.5691605 -5.051941 1.1851196 -7.5496063 2.2059097" fill-rule="evenodd"/><path stroke="#ea80fc" stroke-width="4.0" stroke-linejoin="round" stroke-linecap="butt" d="m142.42091 74.62642c-0.73495483 5.6539383 0.7868805 13.920799 -3.914505 17.028793c-2.3736267 1.5691605 -5.051941 1.1851196 -7.5496063 2.2059097" fill-rule="evenodd"/><path fill="#ea80fc" d="m57.676044 76.62793l0 0c1.4469337 -0.19792175 2.303032 -2.9068985 1.9121513 -6.050659l0 0c-0.39088058 -3.1437683 -1.8807259 -5.5318527 -3.3276596 -5.333931l0 0c-1.4469376 0.19792175 -2.3030357 2.9068985 -1.9121552 6.050659l0 0c0.39088058 3.1437683 1.8807259 5.5318527 3.3276634 5.333931z" fill-rule="evenodd"/><path fill="#ea80fc" d="m58.89223 73.0582l0 0c0.70118713 0.29055023 1.7595558 -0.70773315 2.3639297 -2.2297287l0 0c0.60437393 -1.5219955 0.52589035 -2.991356 -0.17529678 -3.2819061l0 0c-0.70118713 -0.29055023 -1.7595558 0.70773315 -2.3639297 2.2297287l0 0c-0.60437393 1.5219955 -0.52589035 2.991356 0.17529678 3.2819061z" fill-rule="evenodd"/><path fill="#000000" fill-opacity="0.0" d="m57.580017 74.62642c0.7349472 5.6539383 -0.7868881 13.920799 3.9145012 17.028793c2.373619 1.5691605 5.0519295 1.1851196 7.54961 2.2059097" fill-rule="evenodd"/><path stroke="#ea80fc" stroke-width="4.0" stroke-linejoin="round" stroke-linecap="butt" d="m57.580017 74.62642c0.7349472 5.6539383 -0.7868881 13.920799 3.9145012 17.028793c2.373619 1.5691605 5.0519295 1.1851196 7.54961 2.2059097" fill-rule="evenodd"/><path fill="#000000" fill-opacity="0.0" d="m108.88533 83.99714l0 4.8188934l0 0c0 2.6614075 -3.5182648 4.818901 -7.858261 4.818901c-4.340004 0 -7.8582687 -2.1574936 -7.8582687 -4.818901l0 -4.8188934z" fill-rule="evenodd"/><path stroke="#000000" stroke-width="2.0" stroke-linejoin="round" stroke-linecap="butt" d="m108.88533 83.99714l0 4.8188934l0 0c0 2.6614075 -3.5182648 4.818901 -7.858261 4.818901c-4.340004 0 -7.8582687 -2.1574936 -7.8582687 -4.818901l0 -4.8188934z" fill-rule="evenodd"/></g></svg>