<svg width="700" height="145" viewBox="0 0 700 145" fill="none" xmlns="http://www.w3.org/2000/svg">
<path fill-rule="evenodd" clip-rule="evenodd" d="M82.2005 54.4646C80.7332 54.3331 79.7242 51.667 79.9468 48.5097C80.1694 45.3524 81.5394 42.8996 83.0067 43.0312C84.474 43.1627 85.483 45.8288 85.2604 48.9861C85.0378 52.1434 83.6678 54.5962 82.2005 54.4646Z" fill="#2196F3"/>
<path fill-rule="evenodd" clip-rule="evenodd" d="M80.7729 50.9517C80.0848 51.2755 78.9691 50.3403 78.281 48.8629C77.5929 47.3855 77.5929 45.9253 78.281 45.6014C78.9691 45.2776 80.0848 46.2128 80.7729 47.6902C81.461 49.1677 81.461 50.6279 80.7729 50.9517Z" fill="#2196F3"/>
<path d="M82.1901 52.5286C81.7709 58.2155 83.7498 66.3858 79.2293 69.7515C76.947 71.4508 74.2519 71.2166 71.8152 72.3752" stroke="#2196F3" stroke-width="4" stroke-miterlimit="10" stroke-linejoin="round"/>
<path fill-rule="evenodd" clip-rule="evenodd" d="M17.0726 54.5995C18.5298 54.468 19.5306 51.8018 19.308 48.6446C19.0853 45.4873 17.7236 43.0345 16.2664 43.1661C14.8092 43.2976 13.8084 45.9637 14.031 49.121C14.2536 52.2782 15.6154 54.7311 17.0726 54.5995Z" fill="#2196F3"/>
<path fill-rule="evenodd" clip-rule="evenodd" d="M18.4702 51.1048C19.1584 51.4185 20.2658 50.4587 20.9438 48.961C21.6218 47.4633 21.6136 45.9949 20.9255 45.6812C20.2374 45.3675 19.1299 46.3273 18.4519 47.825C17.7739 49.3227 17.7821 50.7911 18.4702 51.1048Z" fill="#2196F3"/>
<path d="M17.048 52.6748C17.489 58.3613 15.541 66.5418 20.0745 69.8896C22.3634 71.5798 25.0577 71.3344 27.4989 72.4831" stroke="#2196F3" stroke-width="4" stroke-miterlimit="10" stroke-linejoin="round"/>
<path fill-rule="evenodd" clip-rule="evenodd" d="M49.7227 106.59L25.2573 90.8254V27.7651C25.2573 19.0583 36.2109 12 49.7227 12C63.2346 12 74.1882 19.0583 74.1882 27.7651V90.8254L49.7227 106.59Z" fill="#2196F3"/>
<path fill-rule="evenodd" clip-rule="evenodd" d="M76.0157 88.6243V104.404C76.0157 113.119 64.2341 120.183 49.7007 120.183C35.1674 120.183 23.3857 113.119 23.3857 104.404V88.6243H76.0157Z" fill="#304FFE"/>
<path fill-rule="evenodd" clip-rule="evenodd" d="M30.8203 58.233C30.8203 55.784 32.8055 53.7988 35.2544 53.7988C36.4304 53.7988 37.5583 54.266 38.3898 55.0975C39.2214 55.9291 39.6886 57.0569 39.6886 58.233C39.6886 60.6819 37.7033 62.6671 35.2544 62.6671C32.8055 62.6671 30.8203 60.6819 30.8203 58.233Z" fill="black"/>
<path fill-rule="evenodd" clip-rule="evenodd" d="M33.2278 55.9962C33.2278 55.3182 33.7774 54.7686 34.4554 54.7686C34.781 54.7686 35.0933 54.8979 35.3235 55.1281C35.5537 55.3583 35.683 55.6706 35.683 55.9962C35.683 56.6742 35.1334 57.2238 34.4554 57.2238C33.7774 57.2238 33.2278 56.6742 33.2278 55.9962Z" fill="white"/>
<path fill-rule="evenodd" clip-rule="evenodd" d="M60.5125 58.233C60.5125 55.784 62.4977 53.7988 64.9466 53.7988C66.1226 53.7988 67.2504 54.266 68.082 55.0975C68.9135 55.9291 69.3807 57.0569 69.3807 58.233C69.3807 60.6819 67.3955 62.6671 64.9466 62.6671C62.4977 62.6671 60.5125 60.6819 60.5125 58.233Z" fill="black"/>
<path fill-rule="evenodd" clip-rule="evenodd" d="M62.9199 55.9962C62.9199 55.3182 63.4696 54.7686 64.1476 54.7686C64.4731 54.7686 64.7854 54.8979 65.0156 55.1281C65.2458 55.3583 65.3752 55.6706 65.3752 55.9962C65.3752 56.6742 64.8256 57.2238 64.1476 57.2238C63.4696 57.2238 62.9199 56.6742 62.9199 55.9962Z" fill="white"/>
<path fill-rule="evenodd" clip-rule="evenodd" d="M45.0396 68.7086V64.2519C45.0396 61.7905 47.8528 59.7952 51.323 59.7952C54.7933 59.7952 57.6065 61.7905 57.6065 64.2519V68.7086H45.0396Z" stroke="black" stroke-width="2" stroke-miterlimit="10" stroke-linejoin="round"/>
<path d="M40.6154 116L42 139.31L36 142" stroke="#304FFE" stroke-width="4"/>
<path d="M60.3846 116L59 139.31L65 142" stroke="#304FFE" stroke-width="4"/>
<path fill-rule="evenodd" clip-rule="evenodd" d="M182.201 56.4646C180.733 56.3331 179.724 53.667 179.947 50.5097C180.169 47.3524 181.539 44.8996 183.007 45.0312C184.474 45.1627 185.483 47.8288 185.26 50.9861C185.038 54.1434 183.668 56.5962 182.201 56.4646Z" fill="#2196F3"/>
<path fill-rule="evenodd" clip-rule="evenodd" d="M180.773 52.9517C180.085 53.2755 178.969 52.3403 178.281 50.8629C177.593 49.3855 177.593 47.9253 178.281 47.6014C178.969 47.2776 180.085 48.2128 180.773 49.6902C181.461 51.1677 181.461 52.6279 180.773 52.9517Z" fill="#2196F3"/>
<path d="M182.19 54.5286C181.771 60.2155 183.75 68.3858 179.229 71.7515C176.947 73.4508 174.252 73.2166 171.815 74.3752" stroke="#2196F3" stroke-width="4" stroke-miterlimit="10" stroke-linejoin="round"/>
<path fill-rule="evenodd" clip-rule="evenodd" d="M117.073 56.5995C118.53 56.468 119.531 53.8018 119.308 50.6446C119.085 47.4873 117.724 45.0345 116.266 45.1661C114.809 45.2976 113.808 47.9637 114.031 51.121C114.254 54.2782 115.615 56.7311 117.073 56.5995Z" fill="#2196F3"/>
<path fill-rule="evenodd" clip-rule="evenodd" d="M118.47 53.1048C119.158 53.4185 120.266 52.4587 120.944 50.961C121.622 49.4633 121.614 47.9949 120.925 47.6812C120.237 47.3675 119.13 48.3273 118.452 49.825C117.774 51.3227 117.782 52.7911 118.47 53.1048Z" fill="#2196F3"/>
<path d="M117.048 54.6748C117.489 60.3613 115.541 68.5418 120.075 71.8896C122.363 73.5798 125.058 73.3344 127.499 74.4831" stroke="#2196F3" stroke-width="4" stroke-miterlimit="10" stroke-linejoin="round"/>
<path fill-rule="evenodd" clip-rule="evenodd" d="M149.723 108.59L125.257 92.8254V29.7651C125.257 21.0583 136.211 14 149.723 14C163.235 14 174.188 21.0583 174.188 29.7651V92.8254L149.723 108.59Z" fill="#2196F3"/>
<path fill-rule="evenodd" clip-rule="evenodd" d="M176.016 90.6243V106.404C176.016 115.119 164.234 122.183 149.701 122.183C135.167 122.183 123.386 115.119 123.386 106.404V90.6243H176.016Z" fill="#304FFE"/>
<path fill-rule="evenodd" clip-rule="evenodd" d="M130.82 60.233C130.82 57.784 132.806 55.7988 135.254 55.7988C136.43 55.7988 137.558 56.266 138.39 57.0975C139.221 57.9291 139.689 59.0569 139.689 60.233C139.689 62.6819 137.703 64.6671 135.254 64.6671C132.806 64.6671 130.82 62.6819 130.82 60.233Z" fill="black"/>
<path fill-rule="evenodd" clip-rule="evenodd" d="M133.228 57.9962C133.228 57.3182 133.777 56.7686 134.455 56.7686C134.781 56.7686 135.093 56.8979 135.323 57.1281C135.554 57.3583 135.683 57.6706 135.683 57.9962C135.683 58.6742 135.133 59.2238 134.455 59.2238C133.777 59.2238 133.228 58.6742 133.228 57.9962Z" fill="white"/>
<path fill-rule="evenodd" clip-rule="evenodd" d="M160.512 60.233C160.512 57.784 162.498 55.7988 164.947 55.7988C166.123 55.7988 167.25 56.266 168.082 57.0975C168.914 57.9291 169.381 59.0569 169.381 60.233C169.381 62.6819 167.395 64.6671 164.947 64.6671C162.498 64.6671 160.512 62.6819 160.512 60.233Z" fill="black"/>
<path fill-rule="evenodd" clip-rule="evenodd" d="M162.92 57.9962C162.92 57.3182 163.47 56.7686 164.148 56.7686C164.473 56.7686 164.785 56.8979 165.016 57.1281C165.246 57.3583 165.375 57.6706 165.375 57.9962C165.375 58.6742 164.826 59.2238 164.148 59.2238C163.47 59.2238 162.92 58.6742 162.92 57.9962Z" fill="white"/>
<path fill-rule="evenodd" clip-rule="evenodd" d="M145.04 70.7086V66.2519C145.04 63.7905 147.853 61.7952 151.323 61.7952C154.793 61.7952 157.606 63.7905 157.606 66.2519V70.7086H145.04Z" stroke="black" stroke-width="2" stroke-miterlimit="10" stroke-linejoin="round"/>
<path d="M140.615 116L139 128L142 139.31L136 142" stroke="#304FFE" stroke-width="4"/>
<path d="M160.385 116L162 128L159 139.31L165 142" stroke="#304FFE" stroke-width="4"/>
<path fill-rule="evenodd" clip-rule="evenodd" d="M281.949 57.7834C280.479 57.6827 279.414 55.0384 279.571 51.8771C279.727 48.7159 281.045 46.2348 282.515 46.3355C283.985 46.4362 285.049 49.0806 284.893 52.2418C284.737 55.403 283.419 57.8841 281.949 57.7834Z" fill="#2196F3"/>
<path fill-rule="evenodd" clip-rule="evenodd" d="M280.448 54.3013C279.767 54.6395 278.632 53.7279 277.913 52.2653C277.194 50.8026 277.163 49.3427 277.844 49.0045C278.525 48.6663 279.66 49.5779 280.379 51.0405C281.098 52.5032 281.129 53.9631 280.448 54.3013Z" fill="#2196F3"/>
<path d="M281.898 55.848C281.598 61.5425 283.748 69.6694 279.3 73.1293C277.053 74.8762 274.354 74.6987 271.942 75.9082" stroke="#2196F3" stroke-width="4" stroke-miterlimit="10" stroke-linejoin="round"/>
<path fill-rule="evenodd" clip-rule="evenodd" d="M216.838 59.2862C218.292 59.1241 219.237 56.4376 218.948 53.2857C218.659 50.1338 217.246 47.7101 215.792 47.8722C214.338 48.0344 213.393 50.7209 213.682 53.8728C213.971 57.0247 215.384 59.4484 216.838 59.2862Z" fill="#2196F3"/>
<path fill-rule="evenodd" clip-rule="evenodd" d="M218.162 55.7629C218.857 56.0621 219.944 55.0793 220.59 53.5677C221.237 52.0561 221.198 50.5882 220.503 50.289C219.809 49.9898 218.722 50.9727 218.075 52.4842C217.429 53.9958 217.468 55.4637 218.162 55.7629Z" fill="#2196F3"/>
<path d="M216.773 57.3624C217.334 63.0385 215.558 71.258 220.161 74.5098C222.485 76.1516 225.173 75.8497 227.638 76.9469" stroke="#2196F3" stroke-width="4" stroke-miterlimit="10" stroke-linejoin="round"/>
<path fill-rule="evenodd" clip-rule="evenodd" d="M250.573 110.58L225.782 95.3322L224.458 32.2858C224.275 23.5809 235.078 16.2941 248.586 16.0103C262.095 15.7265 273.195 22.5531 273.378 31.258L274.702 94.3044L250.573 110.58Z" fill="#2196F3"/>
<path fill-rule="evenodd" clip-rule="evenodd" d="M276.483 92.0654L276.815 107.841C276.998 116.554 265.367 123.865 250.837 124.17C236.307 124.476 224.379 117.66 224.196 108.947L223.865 93.1709L276.483 92.0654Z" fill="#304FFE"/>
<path fill-rule="evenodd" clip-rule="evenodd" d="M230.659 62.6302C230.608 60.1818 232.551 58.1553 234.999 58.1039C236.175 58.0792 237.312 58.5226 238.161 59.3365C239.01 60.1504 239.501 61.2681 239.526 62.4439C239.577 64.8923 237.634 66.9187 235.186 66.9702C232.737 67.0216 230.711 65.0785 230.659 62.6302Z" fill="black"/>
<path fill-rule="evenodd" clip-rule="evenodd" d="M233.019 60.3433C233.005 59.6655 233.543 59.1044 234.221 59.0902C234.546 59.0833 234.861 59.2061 235.096 59.4314C235.331 59.6568 235.467 59.9662 235.474 60.2918C235.488 60.9696 234.95 61.5307 234.272 61.5449C233.594 61.5591 233.033 61.0212 233.019 60.3433Z" fill="white"/>
<path fill-rule="evenodd" clip-rule="evenodd" d="M260.345 62.0065C260.293 59.5581 262.237 57.5317 264.685 57.4802C265.861 57.4555 266.998 57.8989 267.847 58.7128C268.696 59.5267 269.186 60.6445 269.211 61.8202C269.263 64.2686 267.319 66.2951 264.871 66.3465C262.423 66.398 260.396 64.4549 260.345 62.0065Z" fill="black"/>
<path fill-rule="evenodd" clip-rule="evenodd" d="M262.705 59.7197C262.69 59.0418 263.228 58.4808 263.906 58.4665C264.232 58.4597 264.547 58.5824 264.782 58.8078C265.017 59.0331 265.153 59.3426 265.159 59.6681C265.174 60.3459 264.636 60.907 263.958 60.9212C263.28 60.9355 262.719 60.3975 262.705 59.7197Z" fill="white"/>
<path fill-rule="evenodd" clip-rule="evenodd" d="M245.095 72.8047L245.002 68.349C244.95 65.8882 247.721 63.8342 251.19 63.7613C254.66 63.6884 257.514 65.6242 257.566 68.0851L257.66 72.5408L245.095 72.8047Z" stroke="black" stroke-width="2" stroke-miterlimit="10" stroke-linejoin="round"/>
<path d="M240.615 116L236 128L242 139.31L236 142" stroke="#304FFE" stroke-width="4"/>
<path d="M260.385 116L265 128L259 139.31L265 142" stroke="#304FFE" stroke-width="4"/>
<path fill-rule="evenodd" clip-rule="evenodd" d="M482.934 46.5629C481.472 46.3825 480.552 43.6842 480.88 40.5361C481.208 37.388 482.659 34.9823 484.121 35.1627C485.583 35.3431 486.503 38.0414 486.175 41.1895C485.847 44.3375 484.396 46.7433 482.934 46.5629Z" fill="#2196F3"/>
<path fill-rule="evenodd" clip-rule="evenodd" d="M481.624 43.0043C480.926 43.305 479.842 42.3331 479.203 40.8336C478.565 39.334 478.614 37.8746 479.312 37.5739C480.011 37.2732 481.095 38.2451 481.733 39.7447C482.372 41.2442 482.323 42.7036 481.624 43.0043Z" fill="#2196F3"/>
<path d="M482.988 44.6276C482.38 50.2974 484.085 58.5292 479.455 61.7423C477.117 63.3645 474.431 63.0405 471.957 64.1172" stroke="#2196F3" stroke-width="4" stroke-miterlimit="10" stroke-linejoin="round"/>
<path fill-rule="evenodd" clip-rule="evenodd" d="M417.838 44.5256C419.299 44.4427 420.388 41.8114 420.271 38.6485C420.153 35.4856 418.874 32.9887 417.413 33.0716C415.953 33.1545 414.863 35.7857 414.981 38.9487C415.098 42.1116 416.377 44.6085 417.838 44.5256Z" fill="#2196F3"/>
<path fill-rule="evenodd" clip-rule="evenodd" d="M419.351 41.0795C420.029 41.4159 421.167 40.4936 421.895 39.0194C422.623 37.5452 422.663 36.0773 421.986 35.7408C421.309 35.4043 420.17 36.3267 419.442 37.8009C418.715 39.2751 418.674 40.743 419.351 41.0795Z" fill="#2196F3"/>
<path d="M417.877 42.6012C418.128 48.2993 415.909 56.4102 420.328 59.9073C422.559 61.6729 425.26 61.5175 427.662 62.7471" stroke="#2196F3" stroke-width="4" stroke-miterlimit="10" stroke-linejoin="round"/>
<path fill-rule="evenodd" clip-rule="evenodd" d="M448.736 97.5766L424.81 81.0043L426.913 17.9791C427.203 9.27712 438.386 2.5881 451.891 3.03874C465.395 3.48939 476.107 10.909 475.817 19.611L473.713 82.6363L448.736 97.5766Z" fill="#2196F3"/>
<path fill-rule="evenodd" clip-rule="evenodd" d="M475.613 80.4972L475.087 96.268C474.796 104.978 462.786 111.646 448.26 111.161C433.735 110.676 422.196 103.223 422.486 94.5127L423.013 78.7419L475.613 80.4972Z" fill="#304FFE"/>
<path fill-rule="evenodd" clip-rule="evenodd" d="M431.457 48.6155C431.538 46.168 433.589 44.25 436.036 44.3317C437.212 44.3709 438.323 44.8755 439.126 45.7343C439.93 46.5931 440.359 47.7359 440.32 48.9113C440.238 51.3588 438.188 53.2767 435.74 53.195C433.293 53.1134 431.375 51.063 431.457 48.6155Z" fill="black"/>
<path fill-rule="evenodd" clip-rule="evenodd" d="M433.937 46.4602C433.96 45.7826 434.528 45.2516 435.205 45.2742C435.531 45.2851 435.838 45.4248 436.061 45.6625C436.283 45.9003 436.402 46.2167 436.391 46.5421C436.369 47.2197 435.801 47.7507 435.123 47.7281C434.446 47.7055 433.915 47.1378 433.937 46.4602Z" fill="white"/>
<path fill-rule="evenodd" clip-rule="evenodd" d="M461.132 49.6057C461.214 47.1582 463.264 45.2403 465.712 45.322C466.887 45.3612 467.999 45.8657 468.802 46.7245C469.606 47.5834 470.035 48.7261 469.996 49.9015C469.914 52.349 467.864 54.2669 465.416 54.1853C462.969 54.1036 461.051 52.0533 461.132 49.6057Z" fill="black"/>
<path fill-rule="evenodd" clip-rule="evenodd" d="M463.613 47.4506C463.635 46.773 464.203 46.242 464.881 46.2646C465.206 46.2754 465.514 46.4151 465.736 46.6529C465.959 46.8907 466.078 47.2071 466.067 47.5325C466.044 48.2101 465.476 48.7411 464.799 48.7185C464.121 48.6959 463.59 48.1282 463.613 47.4506Z" fill="white"/>
<path fill-rule="evenodd" clip-rule="evenodd" d="M445.318 59.5596L445.467 55.1053C445.549 52.6453 448.427 50.7449 451.896 50.8607C455.364 50.9764 458.109 53.0645 458.027 55.5245L457.878 59.9787L445.318 59.5596Z" stroke="black" stroke-width="2" stroke-miterlimit="10" stroke-linejoin="round"/>
<path d="M439.32 106.677L439.926 130.021L433.84 132.509" stroke="#304FFE" stroke-width="4"/>
<path d="M459.078 107.336L456.917 130.588L462.824 133.476" stroke="#304FFE" stroke-width="4"/>
<path fill-rule="evenodd" clip-rule="evenodd" d="M582.167 44.3401C580.705 44.1597 579.785 41.4614 580.113 38.3133C580.441 35.1653 581.892 32.7595 583.354 32.9399C584.816 33.1203 585.736 35.8186 585.408 38.9667C585.08 42.1148 583.629 44.5205 582.167 44.3401Z" fill="#2196F3"/>
<path fill-rule="evenodd" clip-rule="evenodd" d="M580.857 40.7816C580.159 41.0822 579.075 40.1104 578.437 38.6108C577.798 37.1112 577.847 35.6518 578.545 35.3512C579.244 35.0505 580.328 36.0223 580.966 37.5219C581.605 39.0215 581.556 40.4809 580.857 40.7816Z" fill="#2196F3"/>
<path d="M582.221 42.4049C581.613 48.0746 583.318 56.3064 578.688 59.5195C576.35 61.1417 573.664 60.8177 571.19 61.8944" stroke="#2196F3" stroke-width="4" stroke-miterlimit="10" stroke-linejoin="round"/>
<path fill-rule="evenodd" clip-rule="evenodd" d="M517.071 42.3028C518.532 42.2199 519.621 39.5887 519.504 36.4257C519.387 33.2628 518.107 30.7659 516.647 30.8488C515.186 30.9317 514.097 33.563 514.214 36.7259C514.331 39.8888 515.61 42.3857 517.071 42.3028Z" fill="#2196F3"/>
<path fill-rule="evenodd" clip-rule="evenodd" d="M518.584 38.8567C519.262 39.1932 520.401 38.2708 521.128 36.7966C521.856 35.3224 521.896 33.8545 521.219 33.518C520.542 33.1816 519.403 34.1039 518.676 35.5781C517.948 37.0523 517.907 38.5202 518.584 38.8567Z" fill="#2196F3"/>
<path d="M517.11 40.3784C517.362 46.0765 515.142 54.1874 519.561 57.6845C521.792 59.4501 524.493 59.2948 526.895 60.5243" stroke="#2196F3" stroke-width="4" stroke-miterlimit="10" stroke-linejoin="round"/>
<path fill-rule="evenodd" clip-rule="evenodd" d="M547.969 95.3538L524.043 78.7816L526.146 15.7563C526.436 7.05434 537.619 0.36532 551.124 0.815965C564.628 1.26661 575.34 8.68627 575.05 17.3882L572.947 80.4135L547.969 95.3538Z" fill="#2196F3"/>
<path fill-rule="evenodd" clip-rule="evenodd" d="M574.846 78.2745L574.32 94.0452C574.03 102.755 562.019 109.423 547.494 108.938C532.968 108.454 521.429 101 521.72 92.2899L522.246 76.5192L574.846 78.2745Z" fill="#304FFE"/>
<path fill-rule="evenodd" clip-rule="evenodd" d="M530.69 46.3927C530.771 43.9452 532.822 42.0273 535.269 42.1089C536.445 42.1482 537.556 42.6527 538.36 43.5115C539.163 44.3704 539.592 45.5131 539.553 46.6885C539.471 49.136 537.421 51.0539 534.974 50.9723C532.526 50.8906 530.608 48.8403 530.69 46.3927Z" fill="black"/>
<path fill-rule="evenodd" clip-rule="evenodd" d="M533.17 44.2374C533.193 43.5598 533.761 43.0288 534.438 43.0514C534.764 43.0623 535.072 43.202 535.294 43.4398C535.516 43.6775 535.635 43.9939 535.624 44.3193C535.602 44.997 535.034 45.5279 534.356 45.5053C533.679 45.4827 533.148 44.9151 533.17 44.2374Z" fill="white"/>
<path fill-rule="evenodd" clip-rule="evenodd" d="M560.366 47.383C560.447 44.9354 562.498 43.0175 564.945 43.0992C566.12 43.1384 567.232 43.6429 568.035 44.5017C568.839 45.3606 569.268 46.5034 569.229 47.6787C569.147 50.1263 567.097 52.0442 564.649 51.9625C562.202 51.8808 560.284 49.8305 560.366 47.383Z" fill="black"/>
<path fill-rule="evenodd" clip-rule="evenodd" d="M562.846 45.2278C562.869 44.5502 563.436 44.0192 564.114 44.0418C564.439 44.0527 564.747 44.1923 564.97 44.4301C565.192 44.6679 565.311 44.9843 565.3 45.3097C565.277 45.9873 564.71 46.5183 564.032 46.4957C563.354 46.4731 562.823 45.9054 562.846 45.2278Z" fill="white"/>
<path fill-rule="evenodd" clip-rule="evenodd" d="M544.552 57.3368L544.7 52.8826C544.782 50.4226 547.661 48.5222 551.129 48.6379C554.597 48.7536 557.342 50.8417 557.26 53.3017L557.112 57.7559L544.552 57.3368Z" stroke="black" stroke-width="2" stroke-miterlimit="10" stroke-linejoin="round"/>
<path d="M558.311 105.114L556.15 128.365L562.057 131.253" stroke="#304FFE" stroke-width="4"/>
<path d="M535.615 100L534 112L537 123.31L531 126" stroke="#304FFE" stroke-width="4"/>
<g clip-path="url(#clip0)">
<path fill-rule="evenodd" clip-rule="evenodd" d="M682.167 58.3401C680.705 58.1597 679.785 55.4614 680.113 52.3133C680.441 49.1653 681.892 46.7595 683.354 46.9399C684.816 47.1203 685.736 49.8186 685.408 52.9667C685.08 56.1148 683.629 58.5205 682.167 58.3401Z" fill="#2196F3"/>
<path fill-rule="evenodd" clip-rule="evenodd" d="M680.857 54.7816C680.159 55.0822 679.075 54.1104 678.437 52.6108C677.798 51.1112 677.847 49.6518 678.545 49.3512C679.244 49.0505 680.328 50.0223 680.966 51.5219C681.605 53.0215 681.556 54.4809 680.857 54.7816Z" fill="#2196F3"/>
<path d="M682.221 56.4049C681.613 62.0746 683.318 70.3064 678.688 73.5195C676.35 75.1417 673.664 74.8177 671.19 75.8944" stroke="#2196F3" stroke-width="4" stroke-miterlimit="10" stroke-linejoin="round"/>
<path fill-rule="evenodd" clip-rule="evenodd" d="M617.071 56.3028C618.532 56.2199 619.621 53.5887 619.504 50.4257C619.387 47.2628 618.107 44.7659 616.647 44.8488C615.186 44.9317 614.097 47.563 614.214 50.7259C614.331 53.8888 615.61 56.3857 617.071 56.3028Z" fill="#2196F3"/>
<path fill-rule="evenodd" clip-rule="evenodd" d="M618.584 52.8567C619.262 53.1932 620.401 52.2708 621.128 50.7966C621.856 49.3224 621.896 47.8545 621.219 47.518C620.542 47.1816 619.403 48.1039 618.676 49.5781C617.948 51.0523 617.907 52.5202 618.584 52.8567Z" fill="#2196F3"/>
<path d="M617.11 54.3784C617.362 60.0765 615.142 68.1874 619.561 71.6845C621.792 73.4501 624.493 73.2948 626.895 74.5243" stroke="#2196F3" stroke-width="4" stroke-miterlimit="10" stroke-linejoin="round"/>
<path fill-rule="evenodd" clip-rule="evenodd" d="M647.969 109.354L624.043 92.7816L626.146 29.7563C626.436 21.0543 637.619 14.3653 651.124 14.816C664.628 15.2666 675.34 22.6863 675.05 31.3882L672.947 94.4135L647.969 109.354Z" fill="#2196F3"/>
<path fill-rule="evenodd" clip-rule="evenodd" d="M674.846 92.2745L674.32 108.045C674.03 116.755 662.019 123.423 647.494 122.938C632.968 122.454 621.429 115 621.72 106.29L622.246 90.5192L674.846 92.2745Z" fill="#304FFE"/>
<path fill-rule="evenodd" clip-rule="evenodd" d="M630.69 60.3927C630.771 57.9452 632.822 56.0273 635.269 56.1089C636.445 56.1482 637.556 56.6527 638.36 57.5115C639.163 58.3704 639.592 59.5131 639.553 60.6885C639.471 63.136 637.421 65.0539 634.974 64.9723C632.526 64.8906 630.608 62.8403 630.69 60.3927Z" fill="black"/>
<path fill-rule="evenodd" clip-rule="evenodd" d="M633.17 58.2374C633.193 57.5598 633.761 57.0288 634.438 57.0514C634.764 57.0623 635.072 57.202 635.294 57.4398C635.516 57.6775 635.635 57.9939 635.624 58.3193C635.602 58.997 635.034 59.5279 634.356 59.5053C633.679 59.4827 633.148 58.9151 633.17 58.2374Z" fill="white"/>
<path fill-rule="evenodd" clip-rule="evenodd" d="M660.366 61.383C660.447 58.9354 662.498 57.0175 664.945 57.0992C666.12 57.1384 667.232 57.6429 668.035 58.5017C668.839 59.3606 669.268 60.5034 669.229 61.6787C669.147 64.1263 667.097 66.0442 664.649 65.9625C662.202 65.8808 660.284 63.8305 660.366 61.383Z" fill="black"/>
<path fill-rule="evenodd" clip-rule="evenodd" d="M662.846 59.2278C662.869 58.5502 663.436 58.0192 664.114 58.0418C664.439 58.0527 664.747 58.1923 664.97 58.4301C665.192 58.6679 665.311 58.9843 665.3 59.3097C665.277 59.9873 664.71 60.5183 664.032 60.4957C663.354 60.4731 662.823 59.9054 662.846 59.2278Z" fill="white"/>
<path fill-rule="evenodd" clip-rule="evenodd" d="M644.552 71.3368L644.7 66.8826C644.782 64.4226 647.661 62.5222 651.129 62.6379C654.597 62.7536 657.342 64.8417 657.26 67.3017L657.112 71.7559L644.552 71.3368Z" stroke="black" stroke-width="2" stroke-miterlimit="10" stroke-linejoin="round"/>
<path d="M658.311 119.114L656.15 142.365L662.057 145.253" stroke="#304FFE" stroke-width="4"/>
<path d="M635.615 114L634 126L637 137.31L631 140" stroke="#304FFE" stroke-width="4"/>
</g>
<path fill-rule="evenodd" clip-rule="evenodd" d="M382.201 51.4646C380.733 51.3331 379.724 48.667 379.947 45.5097C380.169 42.3524 381.539 39.8996 383.007 40.0312C384.474 40.1627 385.483 42.8288 385.26 45.9861C385.038 49.1434 383.668 51.5962 382.201 51.4646Z" fill="#2196F3"/>
<path fill-rule="evenodd" clip-rule="evenodd" d="M380.773 47.9517C380.085 48.2755 378.969 47.3403 378.281 45.8629C377.593 44.3855 377.593 42.9253 378.281 42.6014C378.969 42.2776 380.085 43.2128 380.773 44.6902C381.461 46.1677 381.461 47.6279 380.773 47.9517Z" fill="#2196F3"/>
<path d="M382.19 49.5286C381.771 55.2155 383.75 63.3858 379.229 66.7515C376.947 68.4508 374.252 68.2166 371.815 69.3752" stroke="#2196F3" stroke-width="4" stroke-miterlimit="10" stroke-linejoin="round"/>
<path fill-rule="evenodd" clip-rule="evenodd" d="M317.073 51.5995C318.53 51.468 319.531 48.8018 319.308 45.6446C319.085 42.4873 317.724 40.0345 316.266 40.1661C314.809 40.2976 313.808 42.9637 314.031 46.121C314.254 49.2782 315.615 51.7311 317.073 51.5995Z" fill="#2196F3"/>
<path fill-rule="evenodd" clip-rule="evenodd" d="M318.47 48.1048C319.158 48.4185 320.266 47.4587 320.944 45.961C321.622 44.4633 321.614 42.9949 320.925 42.6812C320.237 42.3675 319.13 43.3273 318.452 44.825C317.774 46.3227 317.782 47.7911 318.47 48.1048Z" fill="#2196F3"/>
<path d="M317.048 49.6748C317.489 55.3613 315.541 63.5418 320.075 66.8896C322.363 68.5798 325.058 68.3344 327.499 69.4831" stroke="#2196F3" stroke-width="4" stroke-miterlimit="10" stroke-linejoin="round"/>
<path fill-rule="evenodd" clip-rule="evenodd" d="M349.723 103.59L325.257 87.8254V24.7651C325.257 16.0583 336.211 9 349.723 9C363.235 9 374.188 16.0583 374.188 24.7651V87.8254L349.723 103.59Z" fill="#2196F3"/>
<path fill-rule="evenodd" clip-rule="evenodd" d="M376.016 85.6243V101.404C376.016 110.119 364.234 117.183 349.701 117.183C335.167 117.183 323.386 110.119 323.386 101.404V85.6243H376.016Z" fill="#304FFE"/>
<path fill-rule="evenodd" clip-rule="evenodd" d="M330.82 55.233C330.82 52.784 332.806 50.7988 335.254 50.7988C336.43 50.7988 337.558 51.266 338.39 52.0975C339.221 52.9291 339.689 54.0569 339.689 55.233C339.689 57.6819 337.703 59.6671 335.254 59.6671C332.806 59.6671 330.82 57.6819 330.82 55.233Z" fill="black"/>
<path fill-rule="evenodd" clip-rule="evenodd" d="M333.228 52.9962C333.228 52.3182 333.777 51.7686 334.455 51.7686C334.781 51.7686 335.093 51.8979 335.323 52.1281C335.554 52.3583 335.683 52.6706 335.683 52.9962C335.683 53.6742 335.133 54.2238 334.455 54.2238C333.777 54.2238 333.228 53.6742 333.228 52.9962Z" fill="white"/>
<path fill-rule="evenodd" clip-rule="evenodd" d="M360.512 55.233C360.512 52.784 362.498 50.7988 364.947 50.7988C366.123 50.7988 367.25 51.266 368.082 52.0975C368.914 52.9291 369.381 54.0569 369.381 55.233C369.381 57.6819 367.395 59.6671 364.947 59.6671C362.498 59.6671 360.512 57.6819 360.512 55.233Z" fill="black"/>
<path fill-rule="evenodd" clip-rule="evenodd" d="M362.92 52.9962C362.92 52.3182 363.47 51.7686 364.148 51.7686C364.473 51.7686 364.785 51.8979 365.016 52.1281C365.246 52.3583 365.375 52.6706 365.375 52.9962C365.375 53.6742 364.826 54.2238 364.148 54.2238C363.47 54.2238 362.92 53.6742 362.92 52.9962Z" fill="white"/>
<path fill-rule="evenodd" clip-rule="evenodd" d="M345.04 65.7086V61.2519C345.04 58.7905 347.853 56.7952 351.323 56.7952C354.793 56.7952 357.606 58.7905 357.606 61.2519V65.7086H345.04Z" stroke="black" stroke-width="2" stroke-miterlimit="10" stroke-linejoin="round"/>
<path d="M340.615 111L339 123L342 134.31L336 137" stroke="#304FFE" stroke-width="4"/>
<path d="M360.385 111L362 123L359 134.31L365 137" stroke="#304FFE" stroke-width="4"/>
<defs>
<clipPath id="clip0">
<rect width="100" height="145" fill="white" transform="translate(600)"/>
</clipPath>
</defs>
</svg>
