<svg version="1.1" viewBox="0.0 0.0 200.0 200.0" fill="none" stroke="none" stroke-linecap="square" stroke-miterlimit="10" xmlns:xlink="http://www.w3.org/1999/xlink" xmlns="http://www.w3.org/2000/svg"><clipPath id="g7dc3d12071_0_2016.0"><path d="m0 0l200.0 0l0 200.0l-200.0 0l0 -200.0z" clip-rule="nonzero"/></clipPath><g clip-path="url(#g7dc3d12071_0_2016.0)"><path fill="#000000" fill-opacity="0.0" d="m0 0l200.0 0l0 200.0l-200.0 0z" fill-rule="evenodd"/><path fill="#ffc400" d="m135.39032 82.71409l0 0c-1.269165 -0.7217636 -1.0562134 -3.5540924 0.47564697 -6.326172l0 0c1.5318604 -2.772087 3.8025513 -4.4341965 5.0717163 -3.7124329l0 0c1.269165 0.72177124 1.0561981 3.5540924 -0.47566223 6.326172l0 0c-1.5318604 2.772087 -3.802536 4.4341965 -5.071701 3.7124329z" fill-rule="evenodd"/><path fill="#ffc400" d="m135.5892 78.94906l0 0c-0.75875854 0.008872986 -1.36969 -1.3111343 -1.3645477 -2.9483185l0 0c0.005142212 -1.6371841 0.62442017 -2.9715805 1.3831787 -2.9804535l0 0c0.75875854 -0.008865356 1.36969 1.311142 1.3645477 2.948326l0 0c-0.005142212 1.6371841 -0.6244049 2.9715729 -1.3831787 2.9804459z" fill-rule="evenodd"/><path fill="#000000" fill-opacity="0.0" d="m117.86508 153.75136l-6.494133 15.900436" fill-rule="evenodd"/><path stroke="#ff9800" stroke-width="4.0" stroke-linejoin="round" stroke-linecap="butt" d="m117.86508 153.75136l-6.494133 15.900436" fill-rule="evenodd"/><path fill="#000000" fill-opacity="0.0" d="m109.54629 169.62698l8.087769 1.6340637" fill-rule="evenodd"/><path stroke="#ff9800" stroke-width="4.0" stroke-linejoin="round" stroke-linecap="butt" d="m109.54629 169.62698l8.087769 1.6340637" fill-rule="evenodd"/><path fill="#000000" fill-opacity="0.0" d="m136.32236 81.069885c-2.7878113 4.976097 -4.4536285 13.218323 -9.975479 14.354111c-2.787857 0.5734253 -5.1311874 -0.78009033 -7.829994 -0.7619858" fill-rule="evenodd"/><path stroke="#ffc400" stroke-width="4.0" stroke-linejoin="round" stroke-linecap="butt" d="m136.32236 81.069885c-2.7878113 4.976097 -4.4536285 13.218323 -9.975479 14.354111c-2.787857 0.5734253 -5.1311874 -0.78009033 -7.829994 -0.7619858" fill-rule="evenodd"/><path fill="#ffc400" d="m62.37083 110.71275l0 0c1.4349403 0.26958466 2.1548424 3.0170212 1.6079483 6.136566l0 0c-0.5468941 3.1195526 -2.153492 5.429901 -3.5884323 5.1603165l0 0c-1.4349403 -0.26958466 -2.1548424 -3.0170135 -1.6079483 -6.136566l0 0c0.5468941 -3.119545 2.153492 -5.429901 3.5884323 -5.1603165z" fill-rule="evenodd"/><path fill="#ffc400" d="m63.407417 114.33755l0 0c0.7146225 -0.25523376 1.7217102 0.7941742 2.249382 2.3439178l0 0c0.5276718 1.549736 0.3761139 3.0129623 -0.33851624 3.268196l0 0c-0.7146225 0.25523376 -1.7217064 -0.7941742 -2.2493782 -2.3439178l0 0c-0.5276718 -1.549736 -0.3761139 -3.0129623 0.33851242 -3.268196z" fill-rule="evenodd"/><path fill="#000000" fill-opacity="0.0" d="m62.250603 112.73259c1.0170822 -5.6118393 -0.088191986 -13.946838 4.761589 -16.817024c2.4485397 -1.449089 5.1034317 -0.93162537 7.648361 -1.8266754" fill-rule="evenodd"/><path stroke="#ffc400" stroke-width="4.0" stroke-linejoin="round" stroke-linecap="butt" d="m62.250603 112.73259c1.0170822 -5.6118393 -0.088191986 -13.946838 4.761589 -16.817024c2.4485397 -1.449089 5.1034317 -0.93162537 7.648361 -1.8266754" fill-rule="evenodd"/><path fill="#000000" fill-opacity="0.0" d="m118.81046 155.24214l-9.480316 -7.62204" fill-rule="evenodd"/><path stroke="#ff9800" stroke-width="4.0" stroke-linejoin="round" stroke-linecap="butt" d="m118.81046 155.24214l-9.480316 -7.62204" fill-rule="evenodd"/><path fill="#000000" fill-opacity="0.0" d="m85.15353 157.65646l-15.174995 -4.496933" fill-rule="evenodd"/><path stroke="#ff9800" stroke-width="4.0" stroke-linejoin="round" stroke-linecap="butt" d="m85.15353 157.65646l-15.174995 -4.496933" fill-rule="evenodd"/><path fill="#000000" fill-opacity="0.0" d="m71.15543 152.31383l-2.1757126 7.720886" fill-rule="evenodd"/><path stroke="#ff9800" stroke-width="4.0" stroke-linejoin="round" stroke-linecap="butt" d="m71.15543 152.31383l-2.1757126 7.720886" fill-rule="evenodd"/><path fill="#000000" fill-opacity="0.0" d="m83.929344 158.90736l4.724411 -11.212585" fill-rule="evenodd"/><path stroke="#ff9800" stroke-width="4.0" stroke-linejoin="round" stroke-linecap="butt" d="m83.929344 158.90736l4.724411 -11.212585" fill-rule="evenodd"/><path fill="#ffc400" d="m97.903885 105.32301c-10.209976 62.577423 -50.02887 0 0 -80.456696c50.02887 80.456696 10.209976 143.03412 0 80.456696z" fill-rule="evenodd"/><path fill="#000000" fill-opacity="0.0" d="m94.27242 86.17253l0 0c1.1151581 2.3222122 3.0971909 4.1096344 5.5100555 4.969055c2.4128723 0.85941315 5.058937 0.7204361 7.3560867 -0.38637543l-4.204727 -8.755905z" fill-rule="evenodd"/><path fill="#000000" fill-opacity="0.0" d="m94.27242 86.17253l0 0c1.1151581 2.3222122 3.0971909 4.1096344 5.5100555 4.969055c2.4128723 0.85941315 5.058937 0.7204361 7.3560867 -0.38637543" fill-rule="evenodd"/><path stroke="#000000" stroke-width="2.0" stroke-linejoin="round" stroke-linecap="butt" d="m94.27242 86.17253l0 0c1.1151581 2.3222122 3.0971909 4.1096344 5.5100555 4.969055c2.4128723 0.85941315 5.058937 0.7204361 7.3560867 -0.38637543" fill-rule="evenodd"/><path fill="#ffc400" d="m75.819244 117.02097l0 0c0 -10.610825 9.920242 -19.212593 22.157478 -19.212593l0 0c12.237236 0 22.157478 8.6017685 22.157478 19.212593l0 0c0 10.610832 -9.920242 19.212608 -22.157478 19.212608l0 0c-12.237236 0 -22.157478 -8.601776 -22.157478 -19.212608z" fill-rule="evenodd"/><path fill="#ff9800" d="m119.451744 125.02663l0 12.787399l0 0c0 7.0622864 -9.638214 12.787399 -21.527557 12.787399c-11.889343 0 -21.527557 -5.725113 -21.527557 -12.787399l0 -12.787399z" fill-rule="evenodd"/><path fill="#000000" d="m86.08787 77.752335l0 0c0 -2.6108093 2.116478 -4.727295 4.7272873 -4.727295l0 0c1.2537613 0 2.4561615 0.4980545 3.3427048 1.3845901c0.88653564 0.8865433 1.3845901 2.0889435 1.3845901 3.3427048l0 0c0 2.6108093 -2.1164856 4.7272873 -4.727295 4.7272873l0 0c-2.6108093 0 -4.7272873 -2.116478 -4.7272873 -4.7272873z" fill-rule="evenodd"/><path fill="#ffffff" d="m91.27456 76.14887l0 0c0 -0.72859955 0.59064484 -1.3192444 1.3192444 -1.3192444l0 0c0.34989166 0 0.68544006 0.13899231 0.93284607 0.38639832c0.247406 0.247406 0.38639832 0.58296204 0.38639832 0.93284607l0 0c0 0.72859955 -0.59064484 1.3192444 -1.3192444 1.3192444l0 0c-0.72859955 0 -1.3192444 -0.59064484 -1.3192444 -1.3192444z" fill-rule="evenodd"/><path fill="#000000" d="m106.94237 77.752335l0 0c0 -2.6108093 2.1164856 -4.727295 4.727295 -4.727295l0 0c1.2537537 0 2.4561615 0.4980545 3.3426971 1.3845901c0.8865433 0.8865433 1.3845978 2.0889435 1.3845978 3.3427048l0 0c0 2.6108093 -2.1164856 4.7272873 -4.727295 4.7272873l0 0c-2.6108093 0 -4.727295 -2.116478 -4.727295 -4.7272873z" fill-rule="evenodd"/><path fill="#ffffff" d="m112.12907 76.14887l0 0c0 -0.72859955 0.59064484 -1.3192444 1.3192444 -1.3192444l0 0c0.34988403 0 0.68544006 0.13899231 0.93284607 0.38639832c0.247406 0.247406 0.38639832 0.58296204 0.38639832 0.93284607l0 0c0 0.72859955 -0.59064484 1.3192444 -1.3192444 1.3192444l0 0c-0.72859955 0 -1.3192444 -0.59064484 -1.3192444 -1.3192444z" fill-rule="evenodd"/></g></svg>