<svg version="1.1" viewBox="0.0 0.0 200.0 200.0" fill="none" stroke="none" stroke-linecap="square" stroke-miterlimit="10" xmlns:xlink="http://www.w3.org/1999/xlink" xmlns="http://www.w3.org/2000/svg"><clipPath id="p.0"><path d="m0 0l200.0 0l0 200.0l-200.0 0l0 -200.0z" clip-rule="nonzero"/></clipPath><g clip-path="url(#p.0)"><path fill="#000000" fill-opacity="0.0" d="m0 0l200.0 0l0 200.0l-200.0 0z" fill-rule="evenodd"/><path fill="#ea80fc" d="m126.545715 52.03226l0 0c13.298325 13.307018 12.988098 35.18513 -0.69290924 48.86614q-13.080055 13.080055 -24.810493 27.510597q-11.325729 -14.110939 -24.039902 -26.833427l0 0c-13.298325 -13.307022 -12.988098 -35.185135 0.69290924 -48.866142l0 0c13.681007 -13.681007 35.55208 -13.984184 48.850395 -0.677166z" fill-rule="evenodd"/><path fill="#ea80fc" d="m150.14738 71.86105l0 0c-1.269165 -0.7217636 -1.0562134 -3.5540848 0.47566223 -6.326172l0 0c1.5318604 -2.7720795 3.802536 -4.4341927 5.071701 -3.7124252l0 0c1.269165 0.7217636 1.0562134 3.5540924 -0.47564697 6.326172l0 0c-1.5318604 2.772087 -3.8025513 4.4341965 -5.0717163 3.7124252z" fill-rule="evenodd"/><path fill="#ea80fc" d="m150.34628 68.09603l0 0c-0.75875854 0.008865356 -1.36969 -1.311142 -1.3645477 -2.948326l0 0c0.005142212 -1.6371841 0.6244049 -2.9715729 1.3831635 -2.9804459l0 0c0.75875854 -0.008869171 1.36969 1.3111382 1.3645477 2.9483185l0 0c-0.005142212 1.6371841 -0.6244049 2.9715805 -1.3831635 2.9804535z" fill-rule="evenodd"/><path fill="#000000" fill-opacity="0.0" d="m120.30623 135.31886l-6.494133 15.900436" fill-rule="evenodd"/><path stroke="#d500f9" stroke-width="4.0" stroke-linejoin="round" stroke-linecap="butt" d="m120.30623 135.31886l-6.494133 15.900436" fill-rule="evenodd"/><path fill="#000000" fill-opacity="0.0" d="m111.98744 151.1945l8.087761 1.6340637" fill-rule="evenodd"/><path stroke="#d500f9" stroke-width="4.0" stroke-linejoin="round" stroke-linecap="butt" d="m111.98744 151.1945l8.087761 1.6340637" fill-rule="evenodd"/><path fill="#000000" fill-opacity="0.0" d="m151.07944 70.21685c-2.7878113 4.9761047 -4.453644 13.21833 -9.975494 14.354111c-2.7878418 0.5734329 -5.13118 -0.7800827 -7.8299866 -0.7619858" fill-rule="evenodd"/><path stroke="#ea80fc" stroke-width="4.0" stroke-linejoin="round" stroke-linecap="butt" d="m151.07944 70.21685c-2.7878113 4.9761047 -4.453644 13.21833 -9.975494 14.354111c-2.7878418 0.5734329 -5.13118 -0.7800827 -7.8299866 -0.7619858" fill-rule="evenodd"/><path fill="#000000" d="m92.84402 71.51049l0 0c0 -2.6108093 2.116478 -4.7272873 4.7272873 -4.7272873l0 0c1.2537613 0 2.4561615 0.4980545 3.3427048 1.3845901c0.88653564 0.8865433 1.3845901 2.0889435 1.3845901 3.3426971l0 0c0 2.610817 -2.116478 4.727295 -4.727295 4.727295l0 0c-2.6108093 0 -4.7272873 -2.116478 -4.7272873 -4.727295z" fill-rule="evenodd"/><path fill="#ffffff" d="m98.03071 69.907036l0 0c0 -0.72859955 0.59065247 -1.3192444 1.3192444 -1.3192444l0 0c0.34989166 0 0.68544006 0.13899231 0.93284607 0.38639832c0.247406 0.247406 0.38639832 0.5829544 0.38639832 0.93284607l0 0c0 0.7285919 -0.59064484 1.3192444 -1.3192444 1.3192444l0 0c-0.7285919 0 -1.3192444 -0.59065247 -1.3192444 -1.3192444z" fill-rule="evenodd"/><path fill="#ea80fc" d="m65.42634 101.7407l0 0c1.4179535 -0.3486328 3.2109833 1.854538 4.0048447 4.9209213l0 0c0.793869 3.0663757 0.2879486 5.834793 -1.1299973 6.183426l0 0c-1.4179535 0.3486328 -3.2109833 -1.854538 -4.0048447 -4.9209137l0 0c-0.793869 -3.0663834 -0.2879486 -5.8348007 1.1299973 -6.1834335z" fill-rule="evenodd"/><path fill="#ea80fc" d="m67.870964 104.611496l0 0c0.5448837 -0.5282135 1.8962326 0.010223389 3.0183182 1.2026138l0 0c1.1220932 1.1923981 1.5900116 2.5872269 1.0451279 3.1154404l0 0c-0.5448837 0.5282135 -1.8962326 -0.010223389 -3.0183182 -1.2026215l0 0c-1.1220932 -1.1923904 -1.5900116 -2.5872192 -1.0451279 -3.1154327z" fill-rule="evenodd"/><path fill="#000000" fill-opacity="0.0" d="m66.06307 103.59774c-1.3967972 -5.5279007 -5.853657 -12.655373 -2.6251488 -17.274872c1.6300011 -2.332283 4.261982 -2.9603806 6.2091026 -4.828377" fill-rule="evenodd"/><path stroke="#ea80fc" stroke-width="4.0" stroke-linejoin="round" stroke-linecap="butt" d="m66.06307 103.59774c-1.3967972 -5.5279007 -5.853657 -12.655373 -2.6251488 -17.274872c1.6300011 -2.332283 4.261982 -2.9603806 6.2091026 -4.828377" fill-rule="evenodd"/><path fill="#000000" d="m120.23668 71.51049l0 0c0 -2.6108093 2.116478 -4.7272873 4.727295 -4.7272873l0 0c1.2537537 0 2.4561539 0.4980545 3.3426971 1.3845901c0.88653564 0.8865433 1.3845978 2.0889435 1.3845978 3.3426971l0 0c0 2.610817 -2.1164856 4.727295 -4.727295 4.727295l0 0c-2.610817 0 -4.727295 -2.116478 -4.727295 -4.727295z" fill-rule="evenodd"/><path fill="#ffffff" d="m125.42338 69.907036l0 0c0 -0.72859955 0.59064484 -1.3192444 1.3192444 -1.3192444l0 0c0.34988403 0 0.68544006 0.13899231 0.93284607 0.38639832c0.247406 0.247406 0.3863907 0.5829544 0.3863907 0.93284607l0 0c0 0.7285919 -0.59064484 1.3192444 -1.3192368 1.3192444l0 0c-0.72859955 0 -1.3192444 -0.59065247 -1.3192444 -1.3192444z" fill-rule="evenodd"/><path fill="#000000" fill-opacity="0.0" d="m120.51638 77.843956l0 0c-2.163498 2.163498 -5.1542435 3.322525 -8.314301 3.2221146c-3.1600647 -0.10041809 -6.230583 -1.4520493 -8.536087 -3.757553l8.157478 -8.157478z" fill-rule="evenodd"/><path fill="#000000" fill-opacity="0.0" d="m120.51638 77.843956l0 0c-2.163498 2.163498 -5.1542435 3.322525 -8.314301 3.2221146c-3.1600647 -0.10041809 -6.230583 -1.4520493 -8.536087 -3.757553" fill-rule="evenodd"/><path stroke="#000000" stroke-width="2.0" stroke-linejoin="round" stroke-linecap="butt" d="m120.51638 77.843956l0 0c-2.163498 2.163498 -5.1542435 3.322525 -8.314301 3.2221146c-3.1600647 -0.10041809 -6.230583 -1.4520493 -8.536087 -3.757553" fill-rule="evenodd"/><path fill="#d500f9" d="m120.23324 107.119385l0 12.787407l0 0c0 7.0622864 -8.263344 12.787392 -18.456696 12.787392c-10.193352 0 -18.456696 -5.7251053 -18.456696 -12.787392l0 -12.787407z" fill-rule="evenodd"/><path fill="#000000" fill-opacity="0.0" d="m121.25161 136.80966l-9.480316 -7.622055" fill-rule="evenodd"/><path stroke="#d500f9" stroke-width="4.0" stroke-linejoin="round" stroke-linecap="butt" d="m121.25161 136.80966l-9.480316 -7.622055" fill-rule="evenodd"/><path fill="#000000" fill-opacity="0.0" d="m87.59467 138.32007l-15.174988 -4.4969482" fill-rule="evenodd"/><path stroke="#d500f9" stroke-width="4.0" stroke-linejoin="round" stroke-linecap="butt" d="m87.59467 138.32007l-15.174988 -4.4969482" fill-rule="evenodd"/><path fill="#000000" fill-opacity="0.0" d="m73.59658 132.97743l-2.1757126 7.720871" fill-rule="evenodd"/><path stroke="#d500f9" stroke-width="4.0" stroke-linejoin="round" stroke-linecap="butt" d="m73.59658 132.97743l-2.1757126 7.720871" fill-rule="evenodd"/><path fill="#000000" fill-opacity="0.0" d="m86.3705 139.57097l4.7244034 -11.212601" fill-rule="evenodd"/><path stroke="#d500f9" stroke-width="4.0" stroke-linejoin="round" stroke-linecap="butt" d="m86.3705 139.57097l4.7244034 -11.212601" fill-rule="evenodd"/></g></svg>