<svg version="1.1" viewBox="0.0 0.0 200.0 200.0" fill="none" stroke="none" stroke-linecap="square" stroke-miterlimit="10" xmlns:xlink="http://www.w3.org/1999/xlink" xmlns="http://www.w3.org/2000/svg"><clipPath id="g7dc3d12071_0_1960.0"><path d="m0 0l200.0 0l0 200.0l-200.0 0l0 -200.0z" clip-rule="nonzero"/></clipPath><g clip-path="url(#g7dc3d12071_0_1960.0)"><path fill="#ffffff" d="m0 0l200.0 0l0 200.0l-200.0 0z" fill-rule="evenodd"/><path fill="#2196f3" d="m95.657104 129.3153l-24.465416 -15.765083l0 -63.06034c0 -8.706814 10.953545 -15.765083 24.465416 -15.765083c13.511879 0 24.465424 7.0582695 24.465424 15.765083l0 63.06034z" fill-rule="evenodd"/><path fill="#304ffe" d="m121.95022 111.349075l0 15.779526l0 0c0 8.714798 -11.781609 15.779526 -26.314964 15.779526c-14.533348 0 -26.314957 -7.064728 -26.314957 -15.779526l0 -15.779526z" fill-rule="evenodd"/><path fill="#2196f3" d="m134.35707 81.28612l0 0c-1.269165 -0.72177124 -1.0562134 -3.5540924 0.47564697 -6.3261795l0 0c1.5318604 -2.7720795 3.8025513 -4.434189 5.0717163 -3.7124252l0 0c1.269165 0.7217636 1.0561981 3.5540924 -0.47566223 6.326172l0 0c-1.5318604 2.772087 -3.802536 4.4341965 -5.071701 3.7124329z" fill-rule="evenodd"/><path fill="#2196f3" d="m134.55597 77.52109l0 0c-0.7587738 0.008865356 -1.36969 -1.311142 -1.3645477 -2.948326l0 0c0.005142212 -1.6371841 0.6244049 -2.9715729 1.3831635 -2.9804459l0 0c0.75875854 -0.008872986 1.36969 1.3111343 1.3645477 2.9483185l0 0c-0.005142212 1.6371841 -0.6244049 2.9715805 -1.3831635 2.9804535z" fill-rule="evenodd"/><path fill="#000000" fill-opacity="0.0" d="m115.32021 143.89192l-6.4941406 15.900436" fill-rule="evenodd"/><path stroke="#304ffe" stroke-width="4.0" stroke-linejoin="round" stroke-linecap="butt" d="m115.32021 143.89192l-6.4941406 15.900436" fill-rule="evenodd"/><path fill="#000000" fill-opacity="0.0" d="m107.00142 159.76755l8.087769 1.6340637" fill-rule="evenodd"/><path stroke="#304ffe" stroke-width="4.0" stroke-linejoin="round" stroke-linecap="butt" d="m107.00142 159.76755l8.087769 1.6340637" fill-rule="evenodd"/><path fill="#000000" fill-opacity="0.0" d="m135.28911 79.64191c-2.7878113 4.9761047 -4.4536285 13.21833 -9.975479 14.354111c-2.787857 0.5734329 -5.1311874 -0.7800827 -7.829994 -0.7619858" fill-rule="evenodd"/><path stroke="#2196f3" stroke-width="4.0" stroke-linejoin="round" stroke-linecap="butt" d="m135.28911 79.64191c-2.7878113 4.9761047 -4.4536285 13.21833 -9.975479 14.354111c-2.787857 0.5734329 -5.1311874 -0.7800827 -7.829994 -0.7619858" fill-rule="evenodd"/><path fill="#2196f3" d="m62.43287 106.15664l0 0c1.4562225 0.10803223 2.478035 2.7587357 2.2822723 5.920517l0 0c-0.195755 3.1617813 -1.5349541 5.6373367 -2.9911766 5.529312l0 0c-1.4562263 -0.10803223 -2.4780388 -2.7587357 -2.28228 -5.920517l0 0c0.19575882 -3.1617813 1.5349579 -5.6373367 2.9911842 -5.529312z" fill-rule="evenodd"/><path fill="#2196f3" d="m63.86724 109.64414l0 0c0.68180084 -0.33335114 1.7997208 0.59750366 2.4969482 2.079132l0 0c0.6972275 1.4816284 0.70973206 2.9529572 0.027923584 3.2863083l0 0c-0.68180084 0.33335876 -1.7997208 -0.59750366 -2.4969482 -2.0791245l0 0c-0.69722366 -1.4816284 -0.70972824 -2.9529648 -0.027923584 -3.286316z" fill-rule="evenodd"/><path fill="#000000" fill-opacity="0.0" d="m62.49356 108.035355c0.38531494 -5.6886215 -1.6429596 -13.846062 2.8583145 -17.23816c2.2725906 -1.7125854 4.9696274 -1.4944534 7.3998184 -2.667366" fill-rule="evenodd"/><path stroke="#2196f3" stroke-width="4.0" stroke-linejoin="round" stroke-linecap="butt" d="m62.49356 108.035355c0.38531494 -5.6886215 -1.6429596 -13.846062 2.8583145 -17.23816c2.2725906 -1.7125854 4.9696274 -1.4944534 7.3998184 -2.667366" fill-rule="evenodd"/><path fill="#000000" fill-opacity="0.0" d="m116.26559 145.38272l-9.480316 -7.622055" fill-rule="evenodd"/><path stroke="#304ffe" stroke-width="4.0" stroke-linejoin="round" stroke-linecap="butt" d="m116.26559 145.38272l-9.480316 -7.622055" fill-rule="evenodd"/><path fill="#000000" fill-opacity="0.0" d="m82.60865 146.89313l-15.174988 -4.4969482" fill-rule="evenodd"/><path stroke="#304ffe" stroke-width="4.0" stroke-linejoin="round" stroke-linecap="butt" d="m82.60865 146.89313l-15.174988 -4.4969482" fill-rule="evenodd"/><path fill="#000000" fill-opacity="0.0" d="m68.610565 141.55048l-2.1757202 7.720886" fill-rule="evenodd"/><path stroke="#304ffe" stroke-width="4.0" stroke-linejoin="round" stroke-linecap="butt" d="m68.610565 141.55048l-2.1757202 7.720886" fill-rule="evenodd"/><path fill="#000000" fill-opacity="0.0" d="m81.384476 148.14403l4.724411 -11.212601" fill-rule="evenodd"/><path stroke="#304ffe" stroke-width="4.0" stroke-linejoin="round" stroke-linecap="butt" d="m81.384476 148.14403l4.724411 -11.212601" fill-rule="evenodd"/><path fill="#000000" d="m80.64189 74.05999l0 0c0 -2.6108093 2.1164856 -4.727295 4.727295 -4.727295l0 0c1.2537537 0 2.4561615 0.4980545 3.3426971 1.3845978c0.8865433 0.88653564 1.3845978 2.0889435 1.3845978 3.3426971l0 0c0 2.6108093 -2.1164856 4.7272873 -4.727295 4.7272873l0 0c-2.6108093 0 -4.727295 -2.116478 -4.727295 -4.7272873z" fill-rule="evenodd"/><path fill="#ffffff" d="m85.82859 72.45653l0 0c0 -0.72859955 0.59064484 -1.3192444 1.3192444 -1.3192444l0 0c0.34988403 0 0.68544006 0.13899231 0.93284607 0.38639832c0.247406 0.247406 0.38639832 0.58296204 0.38639832 0.93284607l0 0c0 0.72859955 -0.59064484 1.3192444 -1.3192444 1.3192444l0 0c-0.72859955 0 -1.3192444 -0.59064484 -1.3192444 -1.3192444z" fill-rule="evenodd"/><path fill="#000000" d="m108.03456 74.05999l0 0c0 -2.6108093 2.116478 -4.727295 4.7272873 -4.727295l0 0c1.2537613 0 2.4561615 0.4980545 3.3427048 1.3845978c0.88653564 0.88653564 1.3845901 2.0889435 1.3845901 3.3426971l0 0c0 2.6108093 -2.1164856 4.7272873 -4.727295 4.7272873l0 0c-2.6108093 0 -4.7272873 -2.116478 -4.7272873 -4.7272873z" fill-rule="evenodd"/><path fill="#ffffff" d="m113.22125 72.45653l0 0c0 -0.72859955 0.59064484 -1.3192444 1.3192444 -1.3192444l0 0c0.34989166 0 0.68544006 0.13899231 0.93284607 0.38639832c0.247406 0.247406 0.38639832 0.58296204 0.38639832 0.93284607l0 0c0 0.72859955 -0.59064484 1.3192444 -1.3192444 1.3192444l0 0c-0.72859955 0 -1.3192444 -0.59064484 -1.3192444 -1.3192444z" fill-rule="evenodd"/><path fill="#000000" fill-opacity="0.0" d="m91.95981 83.31876l0 0c2.163498 -2.163498 5.1542435 -3.3225327 8.314301 -3.2221146c3.1600647 0.10041046 6.230591 1.4520416 8.536095 3.7575455l-8.157486 8.157478z" fill-rule="evenodd"/><path fill="#000000" fill-opacity="0.0" d="m91.95981 83.31876l0 0c2.163498 -2.163498 5.1542435 -3.3225327 8.314301 -3.2221146c3.1600647 0.10041046 6.230591 1.4520416 8.536095 3.7575455" fill-rule="evenodd"/><path stroke="#000000" stroke-width="2.0" stroke-linejoin="round" stroke-linecap="butt" d="m91.95981 83.31876l0 0c2.163498 -2.163498 5.1542435 -3.3225327 8.314301 -3.2221146c3.1600647 0.10041046 6.230591 1.4520416 8.536095 3.7575455" fill-rule="evenodd"/></g></svg>