<svg width="960" height="120" viewBox="0 0 960 120" fill="none" xmlns="http://www.w3.org/2000/svg">
<path fill-rule="evenodd" clip-rule="evenodd" d="M677.257 15.7853C690.555 29.0923 690.245 50.9704 676.564 64.6514C667.844 73.3714 659.574 82.5416 651.753 92.162C644.203 82.7547 636.189 73.8102 627.713 65.3286C614.415 52.0216 614.725 30.1434 628.406 16.4624C642.087 2.78142 663.958 2.47825 677.257 15.7853Z" fill="#EA80FC"/>
<path fill-rule="evenodd" clip-rule="evenodd" d="M670.944 70.8723V83.6597C670.944 90.722 662.681 96.4471 652.487 96.4471C642.294 96.4471 634.031 90.722 634.031 83.6597V70.8723H670.944Z" fill="#D500F9"/>
<path fill-rule="evenodd" clip-rule="evenodd" d="M700.858 35.6139C699.589 34.8922 699.802 32.0599 701.334 29.2878C702.866 26.5157 705.136 24.8536 706.406 25.5753C707.675 26.2971 707.462 29.1294 705.93 31.9015C704.398 34.6736 702.127 36.3357 700.858 35.6139Z" fill="#EA80FC"/>
<path fill-rule="evenodd" clip-rule="evenodd" d="M701.057 31.849C700.298 31.8578 699.687 30.5378 699.693 28.9007C699.698 27.2635 700.317 25.9291 701.076 25.9202C701.835 25.9113 702.445 27.2313 702.44 28.8685C702.435 30.5057 701.816 31.8401 701.057 31.849Z" fill="#EA80FC"/>
<path d="M701.79 33.9698C699.002 38.946 697.337 47.1882 691.815 48.324C689.027 48.8974 686.684 47.5439 683.985 47.562" stroke="#EA80FC" stroke-width="4" stroke-miterlimit="10" stroke-linejoin="round"/>
<path fill-rule="evenodd" clip-rule="evenodd" d="M616.137 65.4937C617.555 65.145 619.348 67.3482 620.142 70.4146C620.936 73.481 620.43 76.2494 619.012 76.598C617.594 76.9467 615.801 74.7435 615.007 71.6771C614.213 68.6107 614.719 65.8423 616.137 65.4937Z" fill="#EA80FC"/>
<path fill-rule="evenodd" clip-rule="evenodd" d="M618.582 68.3646C619.127 67.8364 620.478 68.3748 621.6 69.5672C622.722 70.7596 623.19 72.1544 622.645 72.6826C622.1 73.2108 620.749 72.6724 619.627 71.48C618.505 70.2876 618.037 68.8928 618.582 68.3646Z" fill="#EA80FC"/>
<path d="M616.774 67.3508C615.377 61.8229 610.92 54.6954 614.149 50.0759C615.779 47.7437 618.411 47.1156 620.358 45.2476" stroke="#EA80FC" stroke-width="4" stroke-miterlimit="10" stroke-linejoin="round"/>
<path fill-rule="evenodd" clip-rule="evenodd" d="M643.555 35.2634C643.555 32.6526 645.671 30.5361 648.282 30.5361C649.536 30.5361 650.738 31.0342 651.625 31.9207C652.511 32.8073 653.009 34.0097 653.009 35.2634C653.009 37.8742 650.893 39.9907 648.282 39.9907C645.671 39.9907 643.555 37.8742 643.555 35.2634Z" fill="black"/>
<path fill-rule="evenodd" clip-rule="evenodd" d="M648.742 33.6599C648.742 32.9313 649.332 32.3407 650.061 32.3407C650.411 32.3407 650.746 32.4797 650.994 32.7271C651.241 32.9745 651.38 33.3101 651.38 33.6599C651.38 34.3885 650.789 34.9792 650.061 34.9792C649.332 34.9792 648.742 34.3885 648.742 33.6599Z" fill="white"/>
<path fill-rule="evenodd" clip-rule="evenodd" d="M670.948 35.2634C670.948 32.6526 673.064 30.5361 675.675 30.5361C676.929 30.5361 678.131 31.0342 679.018 31.9207C679.904 32.8073 680.402 34.0097 680.402 35.2634C680.402 37.8742 678.286 39.9907 675.675 39.9907C673.064 39.9907 670.948 37.8742 670.948 35.2634Z" fill="black"/>
<path fill-rule="evenodd" clip-rule="evenodd" d="M676.134 33.6599C676.134 32.9313 676.725 32.3407 677.453 32.3407C677.803 32.3407 678.139 32.4797 678.386 32.7271C678.634 32.9745 678.773 33.3101 678.773 33.6599C678.773 34.3885 678.182 34.9792 677.453 34.9792C676.725 34.9792 676.134 34.3885 676.134 33.6599Z" fill="white"/>
<path d="M671.227 41.5969C669.064 43.7604 666.073 44.9194 662.913 44.819C659.753 44.7186 656.682 43.367 654.377 41.0615" stroke="black" stroke-width="2" stroke-miterlimit="10" stroke-linejoin="round"/>
<path d="M643.211 89.7529L638.211 101.753L622.711 96.7529L620.711 103.753" stroke="#D500F9" stroke-width="4" stroke-linecap="round" stroke-linejoin="round"/>
<path d="M659.711 89.7529L669.211 96.7529L663.211 111.253L671.211 113.253" stroke="#D500F9" stroke-width="4" stroke-linecap="round" stroke-linejoin="round"/>
<path fill-rule="evenodd" clip-rule="evenodd" d="M557.257 15.7853C570.555 29.0923 570.245 50.9704 556.564 64.6514C547.844 73.3714 539.574 82.5416 531.753 92.162C524.203 82.7547 516.189 73.8102 507.713 65.3286C494.415 52.0216 494.725 30.1434 508.406 16.4624C522.087 2.78142 543.958 2.47825 557.257 15.7853Z" fill="#EA80FC"/>
<path fill-rule="evenodd" clip-rule="evenodd" d="M550.944 70.8723V83.6597C550.944 90.722 542.681 96.4471 532.487 96.4471C522.294 96.4471 514.031 90.722 514.031 83.6597V70.8723H550.944Z" fill="#D500F9"/>
<path fill-rule="evenodd" clip-rule="evenodd" d="M580.858 35.6139C579.589 34.8922 579.802 32.0599 581.334 29.2878C582.866 26.5157 585.136 24.8536 586.406 25.5753C587.675 26.2971 587.462 29.1294 585.93 31.9015C584.398 34.6736 582.127 36.3357 580.858 35.6139Z" fill="#EA80FC"/>
<path fill-rule="evenodd" clip-rule="evenodd" d="M581.057 31.849C580.298 31.8578 579.687 30.5378 579.693 28.9007C579.698 27.2635 580.317 25.9291 581.076 25.9202C581.835 25.9113 582.446 27.2313 582.44 28.8685C582.435 30.5057 581.816 31.8401 581.057 31.849Z" fill="#EA80FC"/>
<path d="M581.79 33.9698C579.002 38.946 577.337 47.1882 571.815 48.324C569.027 48.8974 566.684 47.5439 563.985 47.562" stroke="#EA80FC" stroke-width="4" stroke-miterlimit="10" stroke-linejoin="round"/>
<path fill-rule="evenodd" clip-rule="evenodd" d="M496.137 65.4937C497.555 65.145 499.348 67.3482 500.142 70.4146C500.936 73.481 500.43 76.2494 499.012 76.598C497.594 76.9467 495.801 74.7435 495.007 71.6771C494.213 68.6107 494.719 65.8423 496.137 65.4937Z" fill="#EA80FC"/>
<path fill-rule="evenodd" clip-rule="evenodd" d="M498.582 68.3646C499.127 67.8364 500.478 68.3748 501.6 69.5672C502.722 70.7596 503.19 72.1544 502.645 72.6826C502.1 73.2108 500.749 72.6724 499.627 71.48C498.505 70.2876 498.037 68.8928 498.582 68.3646Z" fill="#EA80FC"/>
<path d="M496.774 67.3508C495.377 61.8229 490.92 54.6954 494.149 50.0759C495.779 47.7437 498.411 47.1156 500.358 45.2476" stroke="#EA80FC" stroke-width="4" stroke-miterlimit="10" stroke-linejoin="round"/>
<path fill-rule="evenodd" clip-rule="evenodd" d="M523.555 35.2634C523.555 32.6526 525.671 30.5361 528.282 30.5361C529.536 30.5361 530.738 31.0342 531.625 31.9207C532.511 32.8073 533.009 34.0097 533.009 35.2634C533.009 37.8742 530.893 39.9907 528.282 39.9907C525.671 39.9907 523.555 37.8742 523.555 35.2634Z" fill="black"/>
<path fill-rule="evenodd" clip-rule="evenodd" d="M528.742 33.6599C528.742 32.9313 529.332 32.3407 530.061 32.3407C530.411 32.3407 530.746 32.4797 530.994 32.7271C531.241 32.9745 531.38 33.3101 531.38 33.6599C531.38 34.3885 530.789 34.9792 530.061 34.9792C529.332 34.9792 528.742 34.3885 528.742 33.6599Z" fill="white"/>
<path fill-rule="evenodd" clip-rule="evenodd" d="M550.948 35.2634C550.948 32.6526 553.064 30.5361 555.675 30.5361C556.929 30.5361 558.131 31.0342 559.018 31.9207C559.904 32.8073 560.402 34.0097 560.402 35.2634C560.402 37.8742 558.286 39.9907 555.675 39.9907C553.064 39.9907 550.948 37.8742 550.948 35.2634Z" fill="black"/>
<path fill-rule="evenodd" clip-rule="evenodd" d="M556.134 33.6599C556.134 32.9313 556.725 32.3407 557.454 32.3407C557.803 32.3407 558.139 32.4797 558.386 32.7271C558.634 32.9745 558.773 33.3101 558.773 33.6599C558.773 34.3885 558.182 34.9792 557.454 34.9792C556.725 34.9792 556.134 34.3885 556.134 33.6599Z" fill="white"/>
<path d="M551.227 41.5969C549.064 43.7604 546.073 44.9194 542.913 44.819C539.753 44.7186 536.682 43.367 534.377 41.0615" stroke="black" stroke-width="2" stroke-miterlimit="10" stroke-linejoin="round"/>
<path d="M523.211 89.7529L518.211 101.753L502.711 96.7529L500.711 103.753" stroke="#D500F9" stroke-width="4" stroke-linecap="round" stroke-linejoin="round"/>
<path d="M539.711 89.7529L549.211 96.7529L543.211 111.253L551.211 113.253" stroke="#D500F9" stroke-width="4" stroke-linecap="round" stroke-linejoin="round"/>
<path fill-rule="evenodd" clip-rule="evenodd" d="M917.257 15.7853C930.555 29.0923 930.245 50.9704 916.564 64.6514C907.844 73.3714 899.574 82.5416 891.753 92.162C884.203 82.7547 876.189 73.8102 867.713 65.3286C854.415 52.0216 854.725 30.1434 868.406 16.4624C882.087 2.78142 903.958 2.47825 917.257 15.7853Z" fill="#EA80FC"/>
<path fill-rule="evenodd" clip-rule="evenodd" d="M910.944 70.8723V83.6597C910.944 90.722 902.681 96.4471 892.487 96.4471C882.294 96.4471 874.031 90.722 874.031 83.6597V70.8723H910.944Z" fill="#D500F9"/>
<path fill-rule="evenodd" clip-rule="evenodd" d="M940.858 35.6139C939.589 34.8922 939.802 32.0599 941.334 29.2878C942.866 26.5157 945.136 24.8536 946.406 25.5753C947.675 26.2971 947.462 29.1294 945.93 31.9015C944.398 34.6736 942.127 36.3357 940.858 35.6139Z" fill="#EA80FC"/>
<path fill-rule="evenodd" clip-rule="evenodd" d="M941.057 31.849C940.298 31.8578 939.687 30.5378 939.693 28.9007C939.698 27.2635 940.317 25.9291 941.076 25.9202C941.835 25.9113 942.445 27.2313 942.44 28.8685C942.435 30.5057 941.816 31.8401 941.057 31.849Z" fill="#EA80FC"/>
<path d="M941.79 33.9698C939.002 38.946 937.337 47.1882 931.815 48.324C929.027 48.8974 926.684 47.5439 923.985 47.562" stroke="#EA80FC" stroke-width="4" stroke-miterlimit="10" stroke-linejoin="round"/>
<path fill-rule="evenodd" clip-rule="evenodd" d="M856.137 65.4937C857.555 65.145 859.348 67.3482 860.142 70.4146C860.936 73.481 860.43 76.2494 859.012 76.598C857.594 76.9467 855.801 74.7435 855.007 71.6771C854.213 68.6107 854.719 65.8423 856.137 65.4937Z" fill="#EA80FC"/>
<path fill-rule="evenodd" clip-rule="evenodd" d="M858.582 68.3646C859.127 67.8364 860.478 68.3748 861.6 69.5672C862.722 70.7596 863.19 72.1544 862.645 72.6826C862.1 73.2108 860.749 72.6724 859.627 71.48C858.505 70.2876 858.037 68.8928 858.582 68.3646Z" fill="#EA80FC"/>
<path d="M856.774 67.3508C855.377 61.8229 850.92 54.6954 854.149 50.0759C855.779 47.7437 858.411 47.1156 860.358 45.2476" stroke="#EA80FC" stroke-width="4" stroke-miterlimit="10" stroke-linejoin="round"/>
<path fill-rule="evenodd" clip-rule="evenodd" d="M883.555 35.2634C883.555 32.6526 885.671 30.5361 888.282 30.5361C889.536 30.5361 890.738 31.0342 891.625 31.9207C892.511 32.8073 893.009 34.0097 893.009 35.2634C893.009 37.8742 890.893 39.9907 888.282 39.9907C885.671 39.9907 883.555 37.8742 883.555 35.2634Z" fill="black"/>
<path fill-rule="evenodd" clip-rule="evenodd" d="M888.742 33.6599C888.742 32.9313 889.332 32.3407 890.061 32.3407C890.411 32.3407 890.746 32.4797 890.994 32.7271C891.241 32.9745 891.38 33.3101 891.38 33.6599C891.38 34.3885 890.789 34.9792 890.061 34.9792C889.332 34.9792 888.742 34.3885 888.742 33.6599Z" fill="white"/>
<path fill-rule="evenodd" clip-rule="evenodd" d="M910.948 35.2634C910.948 32.6526 913.064 30.5361 915.675 30.5361C916.929 30.5361 918.131 31.0342 919.018 31.9207C919.904 32.8073 920.402 34.0097 920.402 35.2634C920.402 37.8742 918.286 39.9907 915.675 39.9907C913.064 39.9907 910.948 37.8742 910.948 35.2634Z" fill="black"/>
<path fill-rule="evenodd" clip-rule="evenodd" d="M916.134 33.6599C916.134 32.9313 916.725 32.3407 917.453 32.3407C917.803 32.3407 918.139 32.4797 918.386 32.7271C918.634 32.9745 918.773 33.3101 918.773 33.6599C918.773 34.3885 918.182 34.9792 917.453 34.9792C916.725 34.9792 916.134 34.3885 916.134 33.6599Z" fill="white"/>
<path d="M911.227 41.5969C909.064 43.7604 906.073 44.9194 902.913 44.819C899.753 44.7186 896.682 43.367 894.377 41.0615" stroke="black" stroke-width="2" stroke-miterlimit="10" stroke-linejoin="round"/>
<path d="M883.211 89.7529L878.211 101.753L862.711 96.7529L860.711 103.753" stroke="#D500F9" stroke-width="4" stroke-linecap="round" stroke-linejoin="round"/>
<path d="M899.711 89.7529L909.211 96.7529L903.211 111.253L911.211 113.253" stroke="#D500F9" stroke-width="4" stroke-linecap="round" stroke-linejoin="round"/>
<path fill-rule="evenodd" clip-rule="evenodd" d="M797.257 15.7853C810.555 29.0923 810.245 50.9704 796.564 64.6514C787.844 73.3714 779.574 82.5416 771.753 92.162C764.203 82.7547 756.189 73.8102 747.713 65.3286C734.415 52.0216 734.725 30.1434 748.406 16.4624C762.087 2.78142 783.958 2.47825 797.257 15.7853Z" fill="#EA80FC"/>
<path fill-rule="evenodd" clip-rule="evenodd" d="M790.944 70.8723V83.6597C790.944 90.722 782.681 96.4471 772.487 96.4471C762.294 96.4471 754.031 90.722 754.031 83.6597V70.8723H790.944Z" fill="#D500F9"/>
<path fill-rule="evenodd" clip-rule="evenodd" d="M820.858 35.6139C819.589 34.8922 819.802 32.0599 821.334 29.2878C822.866 26.5157 825.136 24.8536 826.406 25.5753C827.675 26.2971 827.462 29.1294 825.93 31.9015C824.398 34.6736 822.127 36.3357 820.858 35.6139Z" fill="#EA80FC"/>
<path fill-rule="evenodd" clip-rule="evenodd" d="M821.057 31.849C820.298 31.8578 819.687 30.5378 819.693 28.9007C819.698 27.2635 820.317 25.9291 821.076 25.9202C821.835 25.9113 822.446 27.2313 822.44 28.8685C822.435 30.5057 821.816 31.8401 821.057 31.849Z" fill="#EA80FC"/>
<path d="M821.79 33.9698C819.002 38.946 817.337 47.1882 811.815 48.324C809.027 48.8974 806.684 47.5439 803.985 47.562" stroke="#EA80FC" stroke-width="4" stroke-miterlimit="10" stroke-linejoin="round"/>
<path fill-rule="evenodd" clip-rule="evenodd" d="M736.137 65.4937C737.555 65.145 739.348 67.3482 740.142 70.4146C740.936 73.481 740.43 76.2494 739.012 76.598C737.594 76.9467 735.801 74.7435 735.007 71.6771C734.213 68.6107 734.719 65.8423 736.137 65.4937Z" fill="#EA80FC"/>
<path fill-rule="evenodd" clip-rule="evenodd" d="M738.582 68.3646C739.127 67.8364 740.478 68.3748 741.6 69.5672C742.722 70.7596 743.19 72.1544 742.645 72.6826C742.1 73.2108 740.749 72.6724 739.627 71.48C738.505 70.2876 738.037 68.8928 738.582 68.3646Z" fill="#EA80FC"/>
<path d="M736.774 67.3508C735.377 61.8229 730.92 54.6954 734.149 50.0759C735.779 47.7437 738.411 47.1156 740.358 45.2476" stroke="#EA80FC" stroke-width="4" stroke-miterlimit="10" stroke-linejoin="round"/>
<path fill-rule="evenodd" clip-rule="evenodd" d="M763.555 35.2634C763.555 32.6526 765.671 30.5361 768.282 30.5361C769.536 30.5361 770.738 31.0342 771.625 31.9207C772.511 32.8073 773.009 34.0097 773.009 35.2634C773.009 37.8742 770.893 39.9907 768.282 39.9907C765.671 39.9907 763.555 37.8742 763.555 35.2634Z" fill="black"/>
<path fill-rule="evenodd" clip-rule="evenodd" d="M768.742 33.6599C768.742 32.9313 769.332 32.3407 770.061 32.3407C770.411 32.3407 770.746 32.4797 770.994 32.7271C771.241 32.9745 771.38 33.3101 771.38 33.6599C771.38 34.3885 770.789 34.9792 770.061 34.9792C769.332 34.9792 768.742 34.3885 768.742 33.6599Z" fill="white"/>
<path fill-rule="evenodd" clip-rule="evenodd" d="M790.948 35.2634C790.948 32.6526 793.064 30.5361 795.675 30.5361C796.929 30.5361 798.131 31.0342 799.018 31.9207C799.904 32.8073 800.402 34.0097 800.402 35.2634C800.402 37.8742 798.286 39.9907 795.675 39.9907C793.064 39.9907 790.948 37.8742 790.948 35.2634Z" fill="black"/>
<path fill-rule="evenodd" clip-rule="evenodd" d="M796.134 33.6599C796.134 32.9313 796.725 32.3407 797.454 32.3407C797.803 32.3407 798.139 32.4797 798.386 32.7271C798.634 32.9745 798.773 33.3101 798.773 33.6599C798.773 34.3885 798.182 34.9792 797.454 34.9792C796.725 34.9792 796.134 34.3885 796.134 33.6599Z" fill="white"/>
<path d="M791.227 41.5969C789.064 43.7604 786.073 44.9194 782.913 44.819C779.753 44.7186 776.682 43.367 774.377 41.0615" stroke="black" stroke-width="2" stroke-miterlimit="10" stroke-linejoin="round"/>
<path d="M763.211 89.7529L758.211 101.753L742.711 96.7529L740.711 103.753" stroke="#D500F9" stroke-width="4" stroke-linecap="round" stroke-linejoin="round"/>
<path d="M779.711 89.7529L789.211 96.7529L783.211 111.253L791.211 113.253" stroke="#D500F9" stroke-width="4" stroke-linecap="round" stroke-linejoin="round"/>
<path fill-rule="evenodd" clip-rule="evenodd" d="M437.257 15.7853C450.555 29.0923 450.245 50.9704 436.564 64.6514C427.844 73.3714 419.574 82.5416 411.753 92.162C404.203 82.7547 396.189 73.8102 387.713 65.3286C374.415 52.0216 374.725 30.1434 388.406 16.4624C402.087 2.78142 423.958 2.47825 437.257 15.7853Z" fill="#EA80FC"/>
<path fill-rule="evenodd" clip-rule="evenodd" d="M430.944 70.8723V83.6597C430.944 90.722 422.681 96.4471 412.487 96.4471C402.294 96.4471 394.031 90.722 394.031 83.6597V70.8723H430.944Z" fill="#D500F9"/>
<path fill-rule="evenodd" clip-rule="evenodd" d="M460.858 35.6139C459.589 34.8922 459.802 32.0599 461.334 29.2878C462.866 26.5157 465.136 24.8536 466.406 25.5753C467.675 26.2971 467.462 29.1294 465.93 31.9015C464.398 34.6736 462.127 36.3357 460.858 35.6139Z" fill="#EA80FC"/>
<path fill-rule="evenodd" clip-rule="evenodd" d="M461.057 31.849C460.298 31.8578 459.687 30.5378 459.693 28.9007C459.698 27.2635 460.317 25.9291 461.076 25.9202C461.835 25.9113 462.445 27.2313 462.44 28.8685C462.435 30.5057 461.816 31.8401 461.057 31.849Z" fill="#EA80FC"/>
<path d="M461.79 33.9698C459.002 38.946 457.337 47.1882 451.815 48.324C449.027 48.8974 446.684 47.5439 443.985 47.562" stroke="#EA80FC" stroke-width="4" stroke-miterlimit="10" stroke-linejoin="round"/>
<path fill-rule="evenodd" clip-rule="evenodd" d="M376.137 65.4937C377.555 65.145 379.348 67.3482 380.142 70.4146C380.936 73.481 380.43 76.2494 379.012 76.598C377.594 76.9467 375.801 74.7435 375.007 71.6771C374.213 68.6107 374.719 65.8423 376.137 65.4937Z" fill="#EA80FC"/>
<path fill-rule="evenodd" clip-rule="evenodd" d="M378.582 68.3646C379.127 67.8364 380.478 68.3748 381.6 69.5672C382.722 70.7596 383.19 72.1544 382.645 72.6826C382.1 73.2108 380.749 72.6724 379.627 71.48C378.505 70.2876 378.037 68.8928 378.582 68.3646Z" fill="#EA80FC"/>
<path d="M376.774 67.3508C375.377 61.8229 370.92 54.6954 374.149 50.0759C375.779 47.7437 378.411 47.1156 380.358 45.2476" stroke="#EA80FC" stroke-width="4" stroke-miterlimit="10" stroke-linejoin="round"/>
<path fill-rule="evenodd" clip-rule="evenodd" d="M403.555 35.2634C403.555 32.6526 405.671 30.5361 408.282 30.5361C409.536 30.5361 410.738 31.0342 411.625 31.9207C412.511 32.8073 413.009 34.0097 413.009 35.2634C413.009 37.8742 410.893 39.9907 408.282 39.9907C405.671 39.9907 403.555 37.8742 403.555 35.2634Z" fill="black"/>
<path fill-rule="evenodd" clip-rule="evenodd" d="M408.742 33.6599C408.742 32.9313 409.332 32.3407 410.061 32.3407C410.411 32.3407 410.746 32.4797 410.994 32.7271C411.241 32.9745 411.38 33.3101 411.38 33.6599C411.38 34.3885 410.789 34.9792 410.061 34.9792C409.332 34.9792 408.742 34.3885 408.742 33.6599Z" fill="white"/>
<path fill-rule="evenodd" clip-rule="evenodd" d="M430.948 35.2634C430.948 32.6526 433.064 30.5361 435.675 30.5361C436.929 30.5361 438.131 31.0342 439.018 31.9207C439.904 32.8073 440.402 34.0097 440.402 35.2634C440.402 37.8742 438.286 39.9907 435.675 39.9907C433.064 39.9907 430.948 37.8742 430.948 35.2634Z" fill="black"/>
<path fill-rule="evenodd" clip-rule="evenodd" d="M436.134 33.6599C436.134 32.9313 436.725 32.3407 437.454 32.3407C437.803 32.3407 438.139 32.4797 438.386 32.7271C438.634 32.9745 438.773 33.3101 438.773 33.6599C438.773 34.3885 438.182 34.9792 437.454 34.9792C436.725 34.9792 436.134 34.3885 436.134 33.6599Z" fill="white"/>
<path d="M431.227 41.5969C429.064 43.7604 426.073 44.9194 422.913 44.819C419.753 44.7186 416.682 43.367 414.377 41.0615" stroke="black" stroke-width="2" stroke-miterlimit="10" stroke-linejoin="round"/>
<path d="M403.211 89.7529L398.211 101.753L382.711 96.7529L380.711 103.753" stroke="#D500F9" stroke-width="4" stroke-linecap="round" stroke-linejoin="round"/>
<path d="M419.711 89.7529L429.211 96.7529L423.211 111.253L431.211 113.253" stroke="#D500F9" stroke-width="4" stroke-linecap="round" stroke-linejoin="round"/>
<path fill-rule="evenodd" clip-rule="evenodd" d="M317.257 15.7853C330.555 29.0923 330.245 50.9704 316.564 64.6514C307.844 73.3714 299.574 82.5416 291.753 92.162C284.203 82.7547 276.189 73.8102 267.713 65.3286C254.415 52.0216 254.725 30.1434 268.406 16.4624C282.087 2.78142 303.958 2.47825 317.257 15.7853Z" fill="#EA80FC"/>
<path fill-rule="evenodd" clip-rule="evenodd" d="M310.944 70.8723V83.6597C310.944 90.722 302.681 96.4471 292.487 96.4471C282.294 96.4471 274.031 90.722 274.031 83.6597V70.8723H310.944Z" fill="#D500F9"/>
<path fill-rule="evenodd" clip-rule="evenodd" d="M340.858 35.6139C339.589 34.8922 339.802 32.0599 341.334 29.2878C342.866 26.5157 345.136 24.8536 346.406 25.5753C347.675 26.2971 347.462 29.1294 345.93 31.9015C344.398 34.6736 342.127 36.3357 340.858 35.6139Z" fill="#EA80FC"/>
<path fill-rule="evenodd" clip-rule="evenodd" d="M341.057 31.849C340.298 31.8578 339.687 30.5378 339.693 28.9007C339.698 27.2635 340.317 25.9291 341.076 25.9202C341.835 25.9113 342.445 27.2313 342.44 28.8685C342.435 30.5057 341.816 31.8401 341.057 31.849Z" fill="#EA80FC"/>
<path d="M341.79 33.9698C339.002 38.946 337.337 47.1882 331.815 48.324C329.027 48.8974 326.684 47.5439 323.985 47.562" stroke="#EA80FC" stroke-width="4" stroke-miterlimit="10" stroke-linejoin="round"/>
<path fill-rule="evenodd" clip-rule="evenodd" d="M256.137 65.4937C257.555 65.145 259.348 67.3482 260.142 70.4146C260.936 73.481 260.43 76.2494 259.012 76.598C257.594 76.9467 255.801 74.7435 255.007 71.6771C254.213 68.6107 254.719 65.8423 256.137 65.4937Z" fill="#EA80FC"/>
<path fill-rule="evenodd" clip-rule="evenodd" d="M258.582 68.3646C259.127 67.8364 260.478 68.3748 261.6 69.5672C262.722 70.7596 263.19 72.1544 262.645 72.6826C262.1 73.2108 260.749 72.6724 259.627 71.48C258.505 70.2876 258.037 68.8928 258.582 68.3646Z" fill="#EA80FC"/>
<path d="M256.774 67.3508C255.377 61.8229 250.92 54.6954 254.149 50.0759C255.779 47.7437 258.411 47.1156 260.358 45.2476" stroke="#EA80FC" stroke-width="4" stroke-miterlimit="10" stroke-linejoin="round"/>
<path fill-rule="evenodd" clip-rule="evenodd" d="M283.555 35.2634C283.555 32.6526 285.671 30.5361 288.282 30.5361C289.536 30.5361 290.738 31.0342 291.625 31.9207C292.511 32.8073 293.009 34.0097 293.009 35.2634C293.009 37.8742 290.893 39.9907 288.282 39.9907C285.671 39.9907 283.555 37.8742 283.555 35.2634Z" fill="black"/>
<path fill-rule="evenodd" clip-rule="evenodd" d="M288.742 33.6599C288.742 32.9313 289.332 32.3407 290.061 32.3407C290.411 32.3407 290.746 32.4797 290.994 32.7271C291.241 32.9745 291.38 33.3101 291.38 33.6599C291.38 34.3885 290.789 34.9792 290.061 34.9792C289.332 34.9792 288.742 34.3885 288.742 33.6599Z" fill="white"/>
<path fill-rule="evenodd" clip-rule="evenodd" d="M310.948 35.2634C310.948 32.6526 313.064 30.5361 315.675 30.5361C316.929 30.5361 318.131 31.0342 319.018 31.9207C319.904 32.8073 320.402 34.0097 320.402 35.2634C320.402 37.8742 318.286 39.9907 315.675 39.9907C313.064 39.9907 310.948 37.8742 310.948 35.2634Z" fill="black"/>
<path fill-rule="evenodd" clip-rule="evenodd" d="M316.134 33.6599C316.134 32.9313 316.725 32.3407 317.454 32.3407C317.803 32.3407 318.139 32.4797 318.386 32.7271C318.634 32.9745 318.773 33.3101 318.773 33.6599C318.773 34.3885 318.182 34.9792 317.454 34.9792C316.725 34.9792 316.134 34.3885 316.134 33.6599Z" fill="white"/>
<path d="M311.227 41.5969C309.064 43.7604 306.073 44.9194 302.913 44.819C299.753 44.7186 296.682 43.367 294.377 41.0615" stroke="black" stroke-width="2" stroke-miterlimit="10" stroke-linejoin="round"/>
<path d="M283.211 89.7529L278.211 101.753L262.711 96.7529L260.711 103.753" stroke="#D500F9" stroke-width="4" stroke-linecap="round" stroke-linejoin="round"/>
<path d="M299.711 89.7529L309.211 96.7529L303.211 111.253L311.211 113.253" stroke="#D500F9" stroke-width="4" stroke-linecap="round" stroke-linejoin="round"/>
<path fill-rule="evenodd" clip-rule="evenodd" d="M197.257 15.7853C210.555 29.0923 210.245 50.9704 196.564 64.6514C187.844 73.3714 179.574 82.5416 171.753 92.162C164.203 82.7547 156.189 73.8102 147.713 65.3286C134.415 52.0216 134.725 30.1434 148.406 16.4624C162.087 2.78142 183.958 2.47825 197.257 15.7853Z" fill="#EA80FC"/>
<path fill-rule="evenodd" clip-rule="evenodd" d="M190.944 70.8723V83.6597C190.944 90.722 182.681 96.4471 172.487 96.4471C162.294 96.4471 154.031 90.722 154.031 83.6597V70.8723H190.944Z" fill="#D500F9"/>
<path fill-rule="evenodd" clip-rule="evenodd" d="M220.858 35.6139C219.589 34.8922 219.802 32.0599 221.334 29.2878C222.866 26.5157 225.136 24.8536 226.406 25.5753C227.675 26.2971 227.462 29.1294 225.93 31.9015C224.398 34.6736 222.127 36.3357 220.858 35.6139Z" fill="#EA80FC"/>
<path fill-rule="evenodd" clip-rule="evenodd" d="M221.057 31.849C220.298 31.8578 219.687 30.5378 219.693 28.9007C219.698 27.2635 220.317 25.9291 221.076 25.9202C221.835 25.9113 222.445 27.2313 222.44 28.8685C222.435 30.5057 221.816 31.8401 221.057 31.849Z" fill="#EA80FC"/>
<path d="M221.79 33.9698C219.002 38.946 217.337 47.1882 211.815 48.324C209.027 48.8974 206.684 47.5439 203.985 47.562" stroke="#EA80FC" stroke-width="4" stroke-miterlimit="10" stroke-linejoin="round"/>
<path fill-rule="evenodd" clip-rule="evenodd" d="M136.137 65.4937C137.555 65.145 139.348 67.3482 140.142 70.4146C140.936 73.481 140.43 76.2494 139.012 76.598C137.594 76.9467 135.801 74.7435 135.007 71.6771C134.213 68.6107 134.719 65.8423 136.137 65.4937Z" fill="#EA80FC"/>
<path fill-rule="evenodd" clip-rule="evenodd" d="M138.582 68.3646C139.127 67.8364 140.478 68.3748 141.6 69.5672C142.722 70.7596 143.19 72.1544 142.645 72.6826C142.1 73.2108 140.749 72.6724 139.627 71.48C138.505 70.2876 138.037 68.8928 138.582 68.3646Z" fill="#EA80FC"/>
<path d="M136.774 67.3508C135.377 61.8229 130.92 54.6954 134.149 50.0759C135.779 47.7437 138.411 47.1156 140.358 45.2476" stroke="#EA80FC" stroke-width="4" stroke-miterlimit="10" stroke-linejoin="round"/>
<path fill-rule="evenodd" clip-rule="evenodd" d="M163.555 35.2634C163.555 32.6526 165.671 30.5361 168.282 30.5361C169.536 30.5361 170.738 31.0342 171.625 31.9207C172.511 32.8073 173.009 34.0097 173.009 35.2634C173.009 37.8742 170.893 39.9907 168.282 39.9907C165.671 39.9907 163.555 37.8742 163.555 35.2634Z" fill="black"/>
<path fill-rule="evenodd" clip-rule="evenodd" d="M168.742 33.6599C168.742 32.9313 169.332 32.3407 170.061 32.3407C170.411 32.3407 170.746 32.4797 170.994 32.7271C171.241 32.9745 171.38 33.3101 171.38 33.6599C171.38 34.3885 170.789 34.9792 170.061 34.9792C169.332 34.9792 168.742 34.3885 168.742 33.6599Z" fill="white"/>
<path fill-rule="evenodd" clip-rule="evenodd" d="M190.948 35.2634C190.948 32.6526 193.064 30.5361 195.675 30.5361C196.929 30.5361 198.131 31.0342 199.018 31.9207C199.904 32.8073 200.402 34.0097 200.402 35.2634C200.402 37.8742 198.286 39.9907 195.675 39.9907C193.064 39.9907 190.948 37.8742 190.948 35.2634Z" fill="black"/>
<path fill-rule="evenodd" clip-rule="evenodd" d="M196.134 33.6599C196.134 32.9313 196.725 32.3407 197.454 32.3407C197.803 32.3407 198.139 32.4797 198.386 32.7271C198.634 32.9745 198.773 33.3101 198.773 33.6599C198.773 34.3885 198.182 34.9792 197.454 34.9792C196.725 34.9792 196.134 34.3885 196.134 33.6599Z" fill="white"/>
<path d="M191.227 41.5969C189.064 43.7604 186.073 44.9194 182.913 44.819C179.753 44.7186 176.682 43.367 174.377 41.0615" stroke="black" stroke-width="2" stroke-miterlimit="10" stroke-linejoin="round"/>
<path d="M163.211 89.7529L158.211 101.753L142.711 96.7529L140.711 103.753" stroke="#D500F9" stroke-width="4" stroke-linecap="round" stroke-linejoin="round"/>
<path d="M179.711 89.7529L189.211 96.7529L183.211 111.253L191.211 113.253" stroke="#D500F9" stroke-width="4" stroke-linecap="round" stroke-linejoin="round"/>
<path fill-rule="evenodd" clip-rule="evenodd" d="M77.2566 15.7853C90.5549 29.0923 90.2447 50.9704 76.5637 64.6514C67.8437 73.3714 59.5735 82.5416 51.7532 92.162C44.2027 82.7547 36.1894 73.8102 27.7133 65.3286C14.415 52.0216 14.7252 30.1434 28.4062 16.4624C42.0872 2.78142 63.9583 2.47825 77.2566 15.7853Z" fill="#EA80FC"/>
<path fill-rule="evenodd" clip-rule="evenodd" d="M70.9441 70.8723V83.6597C70.9441 90.722 62.6807 96.4471 52.4874 96.4471C42.294 96.4471 34.0307 90.722 34.0307 83.6597V70.8723H70.9441Z" fill="#D500F9"/>
<path fill-rule="evenodd" clip-rule="evenodd" d="M100.858 35.6139C99.5891 34.8922 99.802 32.0599 101.334 29.2878C102.866 26.5157 105.136 24.8536 106.406 25.5753C107.675 26.2971 107.462 29.1294 105.93 31.9015C104.398 34.6736 102.127 36.3357 100.858 35.6139Z" fill="#EA80FC"/>
<path fill-rule="evenodd" clip-rule="evenodd" d="M101.057 31.849C100.298 31.8578 99.6874 30.5378 99.6926 28.9007C99.6977 27.2635 100.317 25.9291 101.076 25.9202C101.835 25.9113 102.445 27.2313 102.44 28.8685C102.435 30.5057 101.816 31.8401 101.057 31.849Z" fill="#EA80FC"/>
<path d="M101.79 33.9698C99.0025 38.946 97.3366 47.1882 91.8148 48.324C89.027 48.8974 86.6836 47.5439 83.9848 47.562" stroke="#EA80FC" stroke-width="4" stroke-miterlimit="10" stroke-linejoin="round"/>
<path fill-rule="evenodd" clip-rule="evenodd" d="M16.1372 65.4937C17.5552 65.145 19.3482 67.3482 20.1421 70.4146C20.936 73.481 20.43 76.2494 19.0121 76.598C17.5941 76.9467 15.8011 74.7435 15.0072 71.6771C14.2134 68.6107 14.7193 65.8423 16.1372 65.4937Z" fill="#EA80FC"/>
<path fill-rule="evenodd" clip-rule="evenodd" d="M18.5818 68.3646C19.1267 67.8364 20.4781 68.3748 21.6001 69.5672C22.7222 70.7596 23.1901 72.1544 22.6453 72.6826C22.1004 73.2108 20.749 72.6724 19.627 71.48C18.5049 70.2876 18.0369 68.8928 18.5818 68.3646Z" fill="#EA80FC"/>
<path d="M16.7739 67.3508C15.3771 61.8229 10.9203 54.6954 14.1488 50.0759C15.7788 47.7437 18.4108 47.1156 20.3579 45.2476" stroke="#EA80FC" stroke-width="4" stroke-miterlimit="10" stroke-linejoin="round"/>
<path fill-rule="evenodd" clip-rule="evenodd" d="M43.5549 35.2634C43.5549 32.6526 45.6714 30.5361 48.2822 30.5361C49.5359 30.5361 50.7383 31.0342 51.6249 31.9207C52.5114 32.8073 53.0095 34.0097 53.0095 35.2634C53.0095 37.8742 50.893 39.9907 48.2822 39.9907C45.6714 39.9907 43.5549 37.8742 43.5549 35.2634Z" fill="black"/>
<path fill-rule="evenodd" clip-rule="evenodd" d="M48.7416 33.6599C48.7416 32.9313 49.3322 32.3407 50.0608 32.3407C50.4107 32.3407 50.7463 32.4797 50.9937 32.7271C51.2411 32.9745 51.3801 33.3101 51.3801 33.6599C51.3801 34.3885 50.7894 34.9792 50.0608 34.9792C49.3322 34.9792 48.7416 34.3885 48.7416 33.6599Z" fill="white"/>
<path fill-rule="evenodd" clip-rule="evenodd" d="M70.9476 35.2634C70.9476 32.6526 73.064 30.5361 75.6749 30.5361C76.9286 30.5361 78.131 31.0342 79.0176 31.9207C79.9041 32.8073 80.4022 34.0097 80.4022 35.2634C80.4022 37.8742 78.2857 39.9907 75.6749 39.9907C73.064 39.9907 70.9476 37.8742 70.9476 35.2634Z" fill="black"/>
<path fill-rule="evenodd" clip-rule="evenodd" d="M76.1343 33.6599C76.1343 32.9313 76.7249 32.3407 77.4535 32.3407C77.8034 32.3407 78.139 32.4797 78.3864 32.7271C78.6338 32.9745 78.7728 33.3101 78.7728 33.6599C78.7728 34.3885 78.1821 34.9792 77.4535 34.9792C76.7249 34.9792 76.1343 34.3885 76.1343 33.6599Z" fill="white"/>
<path d="M71.2273 41.5969C69.0638 43.7604 66.073 44.9194 62.913 44.819C59.7529 44.7186 56.6824 43.367 54.3769 41.0615" stroke="black" stroke-width="2" stroke-miterlimit="10" stroke-linejoin="round"/>
<path d="M43.2109 89.7529L38.2109 101.753L22.7109 96.7529L20.7109 103.753" stroke="#D500F9" stroke-width="4" stroke-linecap="round" stroke-linejoin="round"/>
<path d="M59.7109 89.7529L69.2109 96.7529L63.2109 111.253L71.2109 113.253" stroke="#D500F9" stroke-width="4" stroke-linecap="round" stroke-linejoin="round"/>
</svg>
