<svg width="960" height="120" viewBox="0 0 960 120" fill="none" xmlns="http://www.w3.org/2000/svg">
<path d="M48.6851 88.6774L50.1851 114.677L43.6851 117.677" stroke="#D500F9" stroke-width="4"/>
<path d="M65.1851 88.6774L63.6851 114.677L70.1851 117.677" stroke="#D500F9" stroke-width="4"/>
<path fill-rule="evenodd" clip-rule="evenodd" d="M82.7994 11.7853C96.3691 25.0923 96.0526 46.9704 82.0923 60.6514C73.1944 69.3714 64.7554 78.5416 56.7755 88.162C49.0709 78.7547 40.8941 69.8102 32.245 61.3286C18.6753 48.0216 18.9918 26.1434 32.9521 12.4624C46.9123 -1.21858 69.2297 -1.52175 82.7994 11.7853Z" fill="#EA80FC"/>
<path fill-rule="evenodd" clip-rule="evenodd" d="M36.9053 31.2635C36.9053 28.6527 39.065 26.5362 41.729 26.5362C43.0084 26.5362 44.2353 27.0342 45.14 27.9208C46.0446 28.8073 46.5528 30.0097 46.5528 31.2635C46.5528 33.8743 44.3931 35.9908 41.729 35.9908C39.065 35.9908 36.9053 33.8743 36.9053 31.2635Z" fill="black"/>
<path fill-rule="evenodd" clip-rule="evenodd" d="M39.5273 28.8905C39.5273 28.1619 40.13 27.5712 40.8735 27.5712C41.2305 27.5712 41.5729 27.7102 41.8254 27.9576C42.0778 28.205 42.2197 28.5406 42.2197 28.8905C42.2197 29.6191 41.617 30.2097 40.8735 30.2097C40.13 30.2097 39.5273 29.6191 39.5273 28.8905Z" fill="white"/>
<path fill-rule="evenodd" clip-rule="evenodd" d="M69.2444 31.2635C69.2444 28.6527 71.4041 26.5362 74.0682 26.5362C75.3475 26.5362 76.5744 27.0342 77.4791 27.9208C78.3837 28.8073 78.8919 30.0097 78.8919 31.2635C78.8919 33.8743 76.7322 35.9908 74.0682 35.9908C71.4041 35.9908 69.2444 33.8743 69.2444 31.2635Z" fill="black"/>
<path fill-rule="evenodd" clip-rule="evenodd" d="M71.8665 28.8905C71.8665 28.1619 72.4692 27.5712 73.2126 27.5712C73.5696 27.5712 73.912 27.7102 74.1645 27.9576C74.417 28.205 74.5588 28.5406 74.5588 28.8905C74.5588 29.6191 73.9561 30.2097 73.2126 30.2097C72.4692 30.2097 71.8665 29.6191 71.8665 28.8905Z" fill="white"/>
<path fill-rule="evenodd" clip-rule="evenodd" d="M66.7465 36.6746V41.4935C66.7465 44.1549 63.1564 46.3124 58.7279 46.3124C54.2993 46.3124 50.7092 44.1549 50.7092 41.4935V36.6746H66.7465Z" stroke="black" stroke-width="2" stroke-miterlimit="10" stroke-linejoin="round"/>
<path fill-rule="evenodd" clip-rule="evenodd" d="M76.3581 66.8724V79.6598C76.3581 86.7221 67.9262 92.4472 57.5248 92.4472C47.1234 92.4472 38.6914 86.7221 38.6914 79.6598V66.8724H76.3581Z" fill="#D500F9"/>
<path fill-rule="evenodd" clip-rule="evenodd" d="M100.868 29.3054C99.392 29.1074 98.5185 26.3985 98.9173 23.2547C99.3162 20.1109 100.836 17.7228 102.313 17.9208C103.789 18.1187 104.663 20.8277 104.264 23.9714C103.865 27.1152 102.345 29.5033 100.868 29.3054Z" fill="#EA80FC"/>
<path fill-rule="evenodd" clip-rule="evenodd" d="M99.6274 25.7356C98.9119 26.0262 97.832 25.0279 97.2153 23.5059C96.5986 21.9839 96.6786 20.5145 97.3941 20.224C98.1096 19.9334 99.1896 20.9317 99.8063 22.4537C100.423 23.9757 100.343 25.4451 99.6274 25.7356Z" fill="#EA80FC"/>
<path d="M100.966 27.3038C100.216 32.9578 101.769 41.2246 96.972 44.3326C94.5499 45.9018 91.8169 45.5177 89.2683 46.5385" stroke="#EA80FC" stroke-width="4" stroke-miterlimit="10" stroke-linejoin="round"/>
<path fill-rule="evenodd" clip-rule="evenodd" d="M14.4921 29.3054C15.9686 29.1074 16.8421 26.3985 16.4433 23.2547C16.0444 20.1109 14.5242 17.7228 13.0477 17.9208C11.5712 18.1187 10.6977 20.8277 11.0965 23.9714C11.4954 27.1152 13.0156 29.5033 14.4921 29.3054Z" fill="#EA80FC"/>
<path fill-rule="evenodd" clip-rule="evenodd" d="M15.7331 25.7356C16.4486 26.0262 17.5286 25.0279 18.1453 23.5059C18.762 21.9839 18.6819 20.5145 17.9664 20.224C17.2509 19.9334 16.171 20.9317 15.5543 22.4537C14.9375 23.9757 15.0176 25.4451 15.7331 25.7356Z" fill="#EA80FC"/>
<path d="M14.394 27.3038C15.144 32.9578 13.5911 41.2246 18.3884 44.3326C20.8105 45.9018 23.5435 45.5177 26.0921 46.5385" stroke="#EA80FC" stroke-width="4" stroke-miterlimit="10" stroke-linejoin="round"/>
<path d="M168.685 88.6774L170.185 114.677L163.685 117.677" stroke="#D500F9" stroke-width="4"/>
<path d="M185.185 88.6774L183.685 114.677L190.185 117.677" stroke="#D500F9" stroke-width="4"/>
<path fill-rule="evenodd" clip-rule="evenodd" d="M202.799 11.7853C216.369 25.0923 216.053 46.9704 202.092 60.6514C193.194 69.3714 184.755 78.5416 176.776 88.162C169.071 78.7547 160.894 69.8102 152.245 61.3286C138.675 48.0216 138.992 26.1434 152.952 12.4624C166.912 -1.21858 189.23 -1.52175 202.799 11.7853Z" fill="#EA80FC"/>
<path fill-rule="evenodd" clip-rule="evenodd" d="M156.905 31.2635C156.905 28.6527 159.065 26.5362 161.729 26.5362C163.008 26.5362 164.235 27.0342 165.14 27.9208C166.045 28.8073 166.553 30.0097 166.553 31.2635C166.553 33.8743 164.393 35.9908 161.729 35.9908C159.065 35.9908 156.905 33.8743 156.905 31.2635Z" fill="black"/>
<path fill-rule="evenodd" clip-rule="evenodd" d="M159.527 28.8905C159.527 28.1619 160.13 27.5712 160.874 27.5712C161.231 27.5712 161.573 27.7102 161.825 27.9576C162.078 28.205 162.22 28.5406 162.22 28.8905C162.22 29.6191 161.617 30.2097 160.874 30.2097C160.13 30.2097 159.527 29.6191 159.527 28.8905Z" fill="white"/>
<path fill-rule="evenodd" clip-rule="evenodd" d="M189.244 31.2635C189.244 28.6527 191.404 26.5362 194.068 26.5362C195.347 26.5362 196.574 27.0342 197.479 27.9208C198.384 28.8073 198.892 30.0097 198.892 31.2635C198.892 33.8743 196.732 35.9908 194.068 35.9908C191.404 35.9908 189.244 33.8743 189.244 31.2635Z" fill="black"/>
<path fill-rule="evenodd" clip-rule="evenodd" d="M191.866 28.8905C191.866 28.1619 192.469 27.5712 193.213 27.5712C193.57 27.5712 193.912 27.7102 194.165 27.9576C194.417 28.205 194.559 28.5406 194.559 28.8905C194.559 29.6191 193.956 30.2097 193.213 30.2097C192.469 30.2097 191.866 29.6191 191.866 28.8905Z" fill="white"/>
<path fill-rule="evenodd" clip-rule="evenodd" d="M186.747 36.6746V41.4935C186.747 44.1549 183.156 46.3124 178.728 46.3124C174.299 46.3124 170.709 44.1549 170.709 41.4935V36.6746H186.747Z" stroke="black" stroke-width="2" stroke-miterlimit="10" stroke-linejoin="round"/>
<path fill-rule="evenodd" clip-rule="evenodd" d="M196.358 66.8724V79.6598C196.358 86.7221 187.926 92.4472 177.525 92.4472C167.123 92.4472 158.691 86.7221 158.691 79.6598V66.8724H196.358Z" fill="#D500F9"/>
<path fill-rule="evenodd" clip-rule="evenodd" d="M220.868 29.3054C219.392 29.1074 218.518 26.3985 218.917 23.2547C219.316 20.1109 220.836 17.7228 222.313 17.9208C223.789 18.1187 224.663 20.8277 224.264 23.9714C223.865 27.1152 222.345 29.5033 220.868 29.3054Z" fill="#EA80FC"/>
<path fill-rule="evenodd" clip-rule="evenodd" d="M219.627 25.7356C218.912 26.0262 217.832 25.0279 217.215 23.5059C216.599 21.9839 216.679 20.5145 217.394 20.224C218.11 19.9334 219.19 20.9317 219.806 22.4537C220.423 23.9757 220.343 25.4451 219.627 25.7356Z" fill="#EA80FC"/>
<path d="M220.966 27.3038C220.216 32.9578 221.769 41.2246 216.972 44.3326C214.55 45.9018 211.817 45.5177 209.268 46.5385" stroke="#EA80FC" stroke-width="4" stroke-miterlimit="10" stroke-linejoin="round"/>
<path fill-rule="evenodd" clip-rule="evenodd" d="M134.492 29.3054C135.969 29.1074 136.842 26.3985 136.443 23.2547C136.044 20.1109 134.524 17.7228 133.048 17.9208C131.571 18.1187 130.698 20.8277 131.097 23.9714C131.495 27.1152 133.016 29.5033 134.492 29.3054Z" fill="#EA80FC"/>
<path fill-rule="evenodd" clip-rule="evenodd" d="M135.733 25.7356C136.449 26.0262 137.529 25.0279 138.145 23.5059C138.762 21.9839 138.682 20.5145 137.966 20.224C137.251 19.9334 136.171 20.9317 135.554 22.4537C134.938 23.9757 135.018 25.4451 135.733 25.7356Z" fill="#EA80FC"/>
<path d="M134.394 27.3038C135.144 32.9578 133.591 41.2246 138.388 44.3326C140.81 45.9018 143.543 45.5177 146.092 46.5385" stroke="#EA80FC" stroke-width="4" stroke-miterlimit="10" stroke-linejoin="round"/>
<path d="M168.685 88.6774L170.185 114.677L163.685 117.677" stroke="#D500F9" stroke-width="4"/>
<path d="M185.185 88.6774L183.685 114.677L190.185 117.677" stroke="#D500F9" stroke-width="4"/>
<path fill-rule="evenodd" clip-rule="evenodd" d="M202.799 11.7853C216.369 25.0923 216.053 46.9704 202.092 60.6514C193.194 69.3714 184.755 78.5416 176.776 88.162C169.071 78.7547 160.894 69.8102 152.245 61.3286C138.675 48.0216 138.992 26.1434 152.952 12.4624C166.912 -1.21858 189.23 -1.52175 202.799 11.7853Z" fill="#EA80FC"/>
<path fill-rule="evenodd" clip-rule="evenodd" d="M156.905 31.2635C156.905 28.6527 159.065 26.5362 161.729 26.5362C163.008 26.5362 164.235 27.0342 165.14 27.9208C166.045 28.8073 166.553 30.0097 166.553 31.2635C166.553 33.8743 164.393 35.9908 161.729 35.9908C159.065 35.9908 156.905 33.8743 156.905 31.2635Z" fill="black"/>
<path fill-rule="evenodd" clip-rule="evenodd" d="M159.527 28.8905C159.527 28.1619 160.13 27.5712 160.874 27.5712C161.231 27.5712 161.573 27.7102 161.825 27.9576C162.078 28.205 162.22 28.5406 162.22 28.8905C162.22 29.6191 161.617 30.2097 160.874 30.2097C160.13 30.2097 159.527 29.6191 159.527 28.8905Z" fill="white"/>
<path fill-rule="evenodd" clip-rule="evenodd" d="M189.244 31.2635C189.244 28.6527 191.404 26.5362 194.068 26.5362C195.347 26.5362 196.574 27.0342 197.479 27.9208C198.384 28.8073 198.892 30.0097 198.892 31.2635C198.892 33.8743 196.732 35.9908 194.068 35.9908C191.404 35.9908 189.244 33.8743 189.244 31.2635Z" fill="black"/>
<path fill-rule="evenodd" clip-rule="evenodd" d="M191.866 28.8905C191.866 28.1619 192.469 27.5712 193.213 27.5712C193.57 27.5712 193.912 27.7102 194.165 27.9576C194.417 28.205 194.559 28.5406 194.559 28.8905C194.559 29.6191 193.956 30.2097 193.213 30.2097C192.469 30.2097 191.866 29.6191 191.866 28.8905Z" fill="white"/>
<path fill-rule="evenodd" clip-rule="evenodd" d="M186.747 36.6746V41.4935C186.747 44.1549 183.156 46.3124 178.728 46.3124C174.299 46.3124 170.709 44.1549 170.709 41.4935V36.6746H186.747Z" stroke="black" stroke-width="2" stroke-miterlimit="10" stroke-linejoin="round"/>
<path fill-rule="evenodd" clip-rule="evenodd" d="M196.358 66.8724V79.6598C196.358 86.7221 187.926 92.4472 177.525 92.4472C167.123 92.4472 158.691 86.7221 158.691 79.6598V66.8724H196.358Z" fill="#D500F9"/>
<path fill-rule="evenodd" clip-rule="evenodd" d="M220.868 29.3054C219.392 29.1074 218.518 26.3985 218.917 23.2547C219.316 20.1109 220.836 17.7228 222.313 17.9208C223.789 18.1187 224.663 20.8277 224.264 23.9714C223.865 27.1152 222.345 29.5033 220.868 29.3054Z" fill="#EA80FC"/>
<path fill-rule="evenodd" clip-rule="evenodd" d="M219.627 25.7356C218.912 26.0262 217.832 25.0279 217.215 23.5059C216.599 21.9839 216.679 20.5145 217.394 20.224C218.11 19.9334 219.19 20.9317 219.806 22.4537C220.423 23.9757 220.343 25.4451 219.627 25.7356Z" fill="#EA80FC"/>
<path d="M220.966 27.3038C220.216 32.9578 221.769 41.2246 216.972 44.3326C214.55 45.9018 211.817 45.5177 209.268 46.5385" stroke="#EA80FC" stroke-width="4" stroke-miterlimit="10" stroke-linejoin="round"/>
<path fill-rule="evenodd" clip-rule="evenodd" d="M134.492 29.3054C135.969 29.1074 136.842 26.3985 136.443 23.2547C136.044 20.1109 134.524 17.7228 133.048 17.9208C131.571 18.1187 130.698 20.8277 131.097 23.9714C131.495 27.1152 133.016 29.5033 134.492 29.3054Z" fill="#EA80FC"/>
<path fill-rule="evenodd" clip-rule="evenodd" d="M135.733 25.7356C136.449 26.0262 137.529 25.0279 138.145 23.5059C138.762 21.9839 138.682 20.5145 137.966 20.224C137.251 19.9334 136.171 20.9317 135.554 22.4537C134.938 23.9757 135.018 25.4451 135.733 25.7356Z" fill="#EA80FC"/>
<path d="M134.394 27.3038C135.144 32.9578 133.591 41.2246 138.388 44.3326C140.81 45.9018 143.543 45.5177 146.092 46.5385" stroke="#EA80FC" stroke-width="4" stroke-miterlimit="10" stroke-linejoin="round"/>
<path d="M288.685 88.6774L290.185 114.677L283.685 117.677" stroke="#D500F9" stroke-width="4"/>
<path d="M305.185 88.6774L303.685 114.677L310.185 117.677" stroke="#D500F9" stroke-width="4"/>
<path fill-rule="evenodd" clip-rule="evenodd" d="M322.799 11.7853C336.369 25.0923 336.053 46.9704 322.092 60.6514C313.194 69.3714 304.755 78.5416 296.776 88.162C289.071 78.7547 280.894 69.8102 272.245 61.3286C258.675 48.0216 258.992 26.1434 272.952 12.4624C286.912 -1.21858 309.23 -1.52175 322.799 11.7853Z" fill="#EA80FC"/>
<path fill-rule="evenodd" clip-rule="evenodd" d="M276.905 31.2635C276.905 28.6527 279.065 26.5362 281.729 26.5362C283.008 26.5362 284.235 27.0342 285.14 27.9208C286.045 28.8073 286.553 30.0097 286.553 31.2635C286.553 33.8743 284.393 35.9908 281.729 35.9908C279.065 35.9908 276.905 33.8743 276.905 31.2635Z" fill="black"/>
<path fill-rule="evenodd" clip-rule="evenodd" d="M279.527 28.8905C279.527 28.1619 280.13 27.5712 280.874 27.5712C281.231 27.5712 281.573 27.7102 281.825 27.9576C282.078 28.205 282.22 28.5406 282.22 28.8905C282.22 29.6191 281.617 30.2097 280.874 30.2097C280.13 30.2097 279.527 29.6191 279.527 28.8905Z" fill="white"/>
<path fill-rule="evenodd" clip-rule="evenodd" d="M309.244 31.2635C309.244 28.6527 311.404 26.5362 314.068 26.5362C315.347 26.5362 316.574 27.0342 317.479 27.9208C318.384 28.8073 318.892 30.0097 318.892 31.2635C318.892 33.8743 316.732 35.9908 314.068 35.9908C311.404 35.9908 309.244 33.8743 309.244 31.2635Z" fill="black"/>
<path fill-rule="evenodd" clip-rule="evenodd" d="M311.866 28.8905C311.866 28.1619 312.469 27.5712 313.213 27.5712C313.57 27.5712 313.912 27.7102 314.165 27.9576C314.417 28.205 314.559 28.5406 314.559 28.8905C314.559 29.6191 313.956 30.2097 313.213 30.2097C312.469 30.2097 311.866 29.6191 311.866 28.8905Z" fill="white"/>
<path fill-rule="evenodd" clip-rule="evenodd" d="M306.747 36.6746V41.4935C306.747 44.1549 303.156 46.3124 298.728 46.3124C294.299 46.3124 290.709 44.1549 290.709 41.4935V36.6746H306.747Z" stroke="black" stroke-width="2" stroke-miterlimit="10" stroke-linejoin="round"/>
<path fill-rule="evenodd" clip-rule="evenodd" d="M316.358 66.8724V79.6598C316.358 86.7221 307.926 92.4472 297.525 92.4472C287.123 92.4472 278.691 86.7221 278.691 79.6598V66.8724H316.358Z" fill="#D500F9"/>
<path fill-rule="evenodd" clip-rule="evenodd" d="M340.868 29.3054C339.392 29.1074 338.518 26.3985 338.917 23.2547C339.316 20.1109 340.836 17.7228 342.313 17.9208C343.789 18.1187 344.663 20.8277 344.264 23.9714C343.865 27.1152 342.345 29.5033 340.868 29.3054Z" fill="#EA80FC"/>
<path fill-rule="evenodd" clip-rule="evenodd" d="M339.627 25.7356C338.912 26.0262 337.832 25.0279 337.215 23.5059C336.599 21.9839 336.679 20.5145 337.394 20.224C338.11 19.9334 339.19 20.9317 339.806 22.4537C340.423 23.9757 340.343 25.4451 339.627 25.7356Z" fill="#EA80FC"/>
<path d="M340.966 27.3038C340.216 32.9578 341.769 41.2246 336.972 44.3326C334.55 45.9018 331.817 45.5177 329.268 46.5385" stroke="#EA80FC" stroke-width="4" stroke-miterlimit="10" stroke-linejoin="round"/>
<path fill-rule="evenodd" clip-rule="evenodd" d="M254.492 29.3054C255.969 29.1074 256.842 26.3985 256.443 23.2547C256.044 20.1109 254.524 17.7228 253.048 17.9208C251.571 18.1187 250.698 20.8277 251.097 23.9714C251.495 27.1152 253.016 29.5033 254.492 29.3054Z" fill="#EA80FC"/>
<path fill-rule="evenodd" clip-rule="evenodd" d="M255.733 25.7356C256.449 26.0262 257.529 25.0279 258.145 23.5059C258.762 21.9839 258.682 20.5145 257.966 20.224C257.251 19.9334 256.171 20.9317 255.554 22.4537C254.938 23.9757 255.018 25.4451 255.733 25.7356Z" fill="#EA80FC"/>
<path d="M254.394 27.3038C255.144 32.9578 253.591 41.2246 258.388 44.3326C260.81 45.9018 263.543 45.5177 266.092 46.5385" stroke="#EA80FC" stroke-width="4" stroke-miterlimit="10" stroke-linejoin="round"/>
<path d="M408.685 88.6774L410.185 114.677L403.685 117.677" stroke="#D500F9" stroke-width="4"/>
<path d="M425.185 88.6774L423.685 114.677L430.185 117.677" stroke="#D500F9" stroke-width="4"/>
<path fill-rule="evenodd" clip-rule="evenodd" d="M442.799 11.7853C456.369 25.0923 456.053 46.9704 442.092 60.6514C433.194 69.3714 424.755 78.5416 416.776 88.162C409.071 78.7547 400.894 69.8102 392.245 61.3286C378.675 48.0216 378.992 26.1434 392.952 12.4624C406.912 -1.21858 429.23 -1.52175 442.799 11.7853Z" fill="#EA80FC"/>
<path fill-rule="evenodd" clip-rule="evenodd" d="M396.905 31.2635C396.905 28.6527 399.065 26.5362 401.729 26.5362C403.008 26.5362 404.235 27.0342 405.14 27.9208C406.045 28.8073 406.553 30.0097 406.553 31.2635C406.553 33.8743 404.393 35.9908 401.729 35.9908C399.065 35.9908 396.905 33.8743 396.905 31.2635Z" fill="black"/>
<path fill-rule="evenodd" clip-rule="evenodd" d="M399.527 28.8905C399.527 28.1619 400.13 27.5712 400.874 27.5712C401.231 27.5712 401.573 27.7102 401.825 27.9576C402.078 28.205 402.22 28.5406 402.22 28.8905C402.22 29.6191 401.617 30.2097 400.874 30.2097C400.13 30.2097 399.527 29.6191 399.527 28.8905Z" fill="white"/>
<path fill-rule="evenodd" clip-rule="evenodd" d="M429.244 31.2635C429.244 28.6527 431.404 26.5362 434.068 26.5362C435.347 26.5362 436.574 27.0342 437.479 27.9208C438.384 28.8073 438.892 30.0097 438.892 31.2635C438.892 33.8743 436.732 35.9908 434.068 35.9908C431.404 35.9908 429.244 33.8743 429.244 31.2635Z" fill="black"/>
<path fill-rule="evenodd" clip-rule="evenodd" d="M431.866 28.8905C431.866 28.1619 432.469 27.5712 433.213 27.5712C433.57 27.5712 433.912 27.7102 434.165 27.9576C434.417 28.205 434.559 28.5406 434.559 28.8905C434.559 29.6191 433.956 30.2097 433.213 30.2097C432.469 30.2097 431.866 29.6191 431.866 28.8905Z" fill="white"/>
<path fill-rule="evenodd" clip-rule="evenodd" d="M426.747 36.6746V41.4935C426.747 44.1549 423.156 46.3124 418.728 46.3124C414.299 46.3124 410.709 44.1549 410.709 41.4935V36.6746H426.747Z" stroke="black" stroke-width="2" stroke-miterlimit="10" stroke-linejoin="round"/>
<path fill-rule="evenodd" clip-rule="evenodd" d="M436.358 66.8724V79.6598C436.358 86.7221 427.926 92.4472 417.525 92.4472C407.123 92.4472 398.691 86.7221 398.691 79.6598V66.8724H436.358Z" fill="#D500F9"/>
<path fill-rule="evenodd" clip-rule="evenodd" d="M460.868 29.3054C459.392 29.1074 458.518 26.3985 458.917 23.2547C459.316 20.1109 460.836 17.7228 462.313 17.9208C463.789 18.1187 464.663 20.8277 464.264 23.9714C463.865 27.1152 462.345 29.5033 460.868 29.3054Z" fill="#EA80FC"/>
<path fill-rule="evenodd" clip-rule="evenodd" d="M459.627 25.7356C458.912 26.0262 457.832 25.0279 457.215 23.5059C456.599 21.9839 456.679 20.5145 457.394 20.224C458.11 19.9334 459.19 20.9317 459.806 22.4537C460.423 23.9757 460.343 25.4451 459.627 25.7356Z" fill="#EA80FC"/>
<path d="M460.966 27.3038C460.216 32.9578 461.769 41.2246 456.972 44.3326C454.55 45.9018 451.817 45.5177 449.268 46.5385" stroke="#EA80FC" stroke-width="4" stroke-miterlimit="10" stroke-linejoin="round"/>
<path fill-rule="evenodd" clip-rule="evenodd" d="M374.492 29.3054C375.969 29.1074 376.842 26.3985 376.443 23.2547C376.044 20.1109 374.524 17.7228 373.048 17.9208C371.571 18.1187 370.698 20.8277 371.097 23.9714C371.495 27.1152 373.016 29.5033 374.492 29.3054Z" fill="#EA80FC"/>
<path fill-rule="evenodd" clip-rule="evenodd" d="M375.733 25.7356C376.449 26.0262 377.529 25.0279 378.145 23.5059C378.762 21.9839 378.682 20.5145 377.966 20.224C377.251 19.9334 376.171 20.9317 375.554 22.4537C374.938 23.9757 375.018 25.4451 375.733 25.7356Z" fill="#EA80FC"/>
<path d="M374.394 27.3038C375.144 32.9578 373.591 41.2246 378.388 44.3326C380.81 45.9018 383.543 45.5177 386.092 46.5385" stroke="#EA80FC" stroke-width="4" stroke-miterlimit="10" stroke-linejoin="round"/>
<path d="M408.685 88.6774L410.185 114.677L403.685 117.677" stroke="#D500F9" stroke-width="4"/>
<path d="M425.185 88.6774L423.685 114.677L430.185 117.677" stroke="#D500F9" stroke-width="4"/>
<path fill-rule="evenodd" clip-rule="evenodd" d="M442.799 11.7853C456.369 25.0923 456.053 46.9704 442.092 60.6514C433.194 69.3714 424.755 78.5416 416.776 88.162C409.071 78.7547 400.894 69.8102 392.245 61.3286C378.675 48.0216 378.992 26.1434 392.952 12.4624C406.912 -1.21858 429.23 -1.52175 442.799 11.7853Z" fill="#EA80FC"/>
<path fill-rule="evenodd" clip-rule="evenodd" d="M396.905 31.2635C396.905 28.6527 399.065 26.5362 401.729 26.5362C403.008 26.5362 404.235 27.0342 405.14 27.9208C406.045 28.8073 406.553 30.0097 406.553 31.2635C406.553 33.8743 404.393 35.9908 401.729 35.9908C399.065 35.9908 396.905 33.8743 396.905 31.2635Z" fill="black"/>
<path fill-rule="evenodd" clip-rule="evenodd" d="M399.527 28.8905C399.527 28.1619 400.13 27.5712 400.874 27.5712C401.231 27.5712 401.573 27.7102 401.825 27.9576C402.078 28.205 402.22 28.5406 402.22 28.8905C402.22 29.6191 401.617 30.2097 400.874 30.2097C400.13 30.2097 399.527 29.6191 399.527 28.8905Z" fill="white"/>
<path fill-rule="evenodd" clip-rule="evenodd" d="M429.244 31.2635C429.244 28.6527 431.404 26.5362 434.068 26.5362C435.347 26.5362 436.574 27.0342 437.479 27.9208C438.384 28.8073 438.892 30.0097 438.892 31.2635C438.892 33.8743 436.732 35.9908 434.068 35.9908C431.404 35.9908 429.244 33.8743 429.244 31.2635Z" fill="black"/>
<path fill-rule="evenodd" clip-rule="evenodd" d="M431.866 28.8905C431.866 28.1619 432.469 27.5712 433.213 27.5712C433.57 27.5712 433.912 27.7102 434.165 27.9576C434.417 28.205 434.559 28.5406 434.559 28.8905C434.559 29.6191 433.956 30.2097 433.213 30.2097C432.469 30.2097 431.866 29.6191 431.866 28.8905Z" fill="white"/>
<path fill-rule="evenodd" clip-rule="evenodd" d="M426.747 36.6746V41.4935C426.747 44.1549 423.156 46.3124 418.728 46.3124C414.299 46.3124 410.709 44.1549 410.709 41.4935V36.6746H426.747Z" stroke="black" stroke-width="2" stroke-miterlimit="10" stroke-linejoin="round"/>
<path fill-rule="evenodd" clip-rule="evenodd" d="M436.358 66.8724V79.6598C436.358 86.7221 427.926 92.4472 417.525 92.4472C407.123 92.4472 398.691 86.7221 398.691 79.6598V66.8724H436.358Z" fill="#D500F9"/>
<path fill-rule="evenodd" clip-rule="evenodd" d="M460.868 29.3054C459.392 29.1074 458.518 26.3985 458.917 23.2547C459.316 20.1109 460.836 17.7228 462.313 17.9208C463.789 18.1187 464.663 20.8277 464.264 23.9714C463.865 27.1152 462.345 29.5033 460.868 29.3054Z" fill="#EA80FC"/>
<path fill-rule="evenodd" clip-rule="evenodd" d="M459.627 25.7356C458.912 26.0262 457.832 25.0279 457.215 23.5059C456.599 21.9839 456.679 20.5145 457.394 20.224C458.11 19.9334 459.19 20.9317 459.806 22.4537C460.423 23.9757 460.343 25.4451 459.627 25.7356Z" fill="#EA80FC"/>
<path d="M460.966 27.3038C460.216 32.9578 461.769 41.2246 456.972 44.3326C454.55 45.9018 451.817 45.5177 449.268 46.5385" stroke="#EA80FC" stroke-width="4" stroke-miterlimit="10" stroke-linejoin="round"/>
<path fill-rule="evenodd" clip-rule="evenodd" d="M374.492 29.3054C375.969 29.1074 376.842 26.3985 376.443 23.2547C376.044 20.1109 374.524 17.7228 373.048 17.9208C371.571 18.1187 370.698 20.8277 371.097 23.9714C371.495 27.1152 373.016 29.5033 374.492 29.3054Z" fill="#EA80FC"/>
<path fill-rule="evenodd" clip-rule="evenodd" d="M375.733 25.7356C376.449 26.0262 377.529 25.0279 378.145 23.5059C378.762 21.9839 378.682 20.5145 377.966 20.224C377.251 19.9334 376.171 20.9317 375.554 22.4537C374.938 23.9757 375.018 25.4451 375.733 25.7356Z" fill="#EA80FC"/>
<path d="M374.394 27.3038C375.144 32.9578 373.591 41.2246 378.388 44.3326C380.81 45.9018 383.543 45.5177 386.092 46.5385" stroke="#EA80FC" stroke-width="4" stroke-miterlimit="10" stroke-linejoin="round"/>
<path d="M408.685 88.6774L410.185 114.677L403.685 117.677" stroke="#D500F9" stroke-width="4"/>
<path d="M425.185 88.6774L423.685 114.677L430.185 117.677" stroke="#D500F9" stroke-width="4"/>
<path fill-rule="evenodd" clip-rule="evenodd" d="M442.799 11.7853C456.369 25.0923 456.053 46.9704 442.092 60.6514C433.194 69.3714 424.755 78.5416 416.776 88.162C409.071 78.7547 400.894 69.8102 392.245 61.3286C378.675 48.0216 378.992 26.1434 392.952 12.4624C406.912 -1.21858 429.23 -1.52175 442.799 11.7853Z" fill="#EA80FC"/>
<path fill-rule="evenodd" clip-rule="evenodd" d="M396.905 31.2635C396.905 28.6527 399.065 26.5362 401.729 26.5362C403.008 26.5362 404.235 27.0342 405.14 27.9208C406.045 28.8073 406.553 30.0097 406.553 31.2635C406.553 33.8743 404.393 35.9908 401.729 35.9908C399.065 35.9908 396.905 33.8743 396.905 31.2635Z" fill="black"/>
<path fill-rule="evenodd" clip-rule="evenodd" d="M399.527 28.8905C399.527 28.1619 400.13 27.5712 400.874 27.5712C401.231 27.5712 401.573 27.7102 401.825 27.9576C402.078 28.205 402.22 28.5406 402.22 28.8905C402.22 29.6191 401.617 30.2097 400.874 30.2097C400.13 30.2097 399.527 29.6191 399.527 28.8905Z" fill="white"/>
<path fill-rule="evenodd" clip-rule="evenodd" d="M429.244 31.2635C429.244 28.6527 431.404 26.5362 434.068 26.5362C435.347 26.5362 436.574 27.0342 437.479 27.9208C438.384 28.8073 438.892 30.0097 438.892 31.2635C438.892 33.8743 436.732 35.9908 434.068 35.9908C431.404 35.9908 429.244 33.8743 429.244 31.2635Z" fill="black"/>
<path fill-rule="evenodd" clip-rule="evenodd" d="M431.866 28.8905C431.866 28.1619 432.469 27.5712 433.213 27.5712C433.57 27.5712 433.912 27.7102 434.165 27.9576C434.417 28.205 434.559 28.5406 434.559 28.8905C434.559 29.6191 433.956 30.2097 433.213 30.2097C432.469 30.2097 431.866 29.6191 431.866 28.8905Z" fill="white"/>
<path fill-rule="evenodd" clip-rule="evenodd" d="M426.747 36.6746V41.4935C426.747 44.1549 423.156 46.3124 418.728 46.3124C414.299 46.3124 410.709 44.1549 410.709 41.4935V36.6746H426.747Z" stroke="black" stroke-width="2" stroke-miterlimit="10" stroke-linejoin="round"/>
<path fill-rule="evenodd" clip-rule="evenodd" d="M436.358 66.8724V79.6598C436.358 86.7221 427.926 92.4472 417.525 92.4472C407.123 92.4472 398.691 86.7221 398.691 79.6598V66.8724H436.358Z" fill="#D500F9"/>
<path fill-rule="evenodd" clip-rule="evenodd" d="M460.868 29.3054C459.392 29.1074 458.518 26.3985 458.917 23.2547C459.316 20.1109 460.836 17.7228 462.313 17.9208C463.789 18.1187 464.663 20.8277 464.264 23.9714C463.865 27.1152 462.345 29.5033 460.868 29.3054Z" fill="#EA80FC"/>
<path fill-rule="evenodd" clip-rule="evenodd" d="M459.627 25.7356C458.912 26.0262 457.832 25.0279 457.215 23.5059C456.599 21.9839 456.679 20.5145 457.394 20.224C458.11 19.9334 459.19 20.9317 459.806 22.4537C460.423 23.9757 460.343 25.4451 459.627 25.7356Z" fill="#EA80FC"/>
<path d="M460.966 27.3038C460.216 32.9578 461.769 41.2246 456.972 44.3326C454.55 45.9018 451.817 45.5177 449.268 46.5385" stroke="#EA80FC" stroke-width="4" stroke-miterlimit="10" stroke-linejoin="round"/>
<path fill-rule="evenodd" clip-rule="evenodd" d="M374.492 29.3054C375.969 29.1074 376.842 26.3985 376.443 23.2547C376.044 20.1109 374.524 17.7228 373.048 17.9208C371.571 18.1187 370.698 20.8277 371.097 23.9714C371.495 27.1152 373.016 29.5033 374.492 29.3054Z" fill="#EA80FC"/>
<path fill-rule="evenodd" clip-rule="evenodd" d="M375.733 25.7356C376.449 26.0262 377.529 25.0279 378.145 23.5059C378.762 21.9839 378.682 20.5145 377.966 20.224C377.251 19.9334 376.171 20.9317 375.554 22.4537C374.938 23.9757 375.018 25.4451 375.733 25.7356Z" fill="#EA80FC"/>
<path d="M374.394 27.3038C375.144 32.9578 373.591 41.2246 378.388 44.3326C380.81 45.9018 383.543 45.5177 386.092 46.5385" stroke="#EA80FC" stroke-width="4" stroke-miterlimit="10" stroke-linejoin="round"/>
<path d="M528.685 88.6774L530.185 114.677L523.685 117.677" stroke="#D500F9" stroke-width="4"/>
<path d="M545.185 88.6774L543.685 114.677L550.185 117.677" stroke="#D500F9" stroke-width="4"/>
<path fill-rule="evenodd" clip-rule="evenodd" d="M562.799 11.7853C576.369 25.0923 576.053 46.9704 562.092 60.6514C553.194 69.3714 544.755 78.5416 536.776 88.162C529.071 78.7547 520.894 69.8102 512.245 61.3286C498.675 48.0216 498.992 26.1434 512.952 12.4624C526.912 -1.21858 549.23 -1.52175 562.799 11.7853Z" fill="#EA80FC"/>
<path fill-rule="evenodd" clip-rule="evenodd" d="M516.905 31.2635C516.905 28.6527 519.065 26.5362 521.729 26.5362C523.008 26.5362 524.235 27.0342 525.14 27.9208C526.045 28.8073 526.553 30.0097 526.553 31.2635C526.553 33.8743 524.393 35.9908 521.729 35.9908C519.065 35.9908 516.905 33.8743 516.905 31.2635Z" fill="black"/>
<path fill-rule="evenodd" clip-rule="evenodd" d="M519.527 28.8905C519.527 28.1619 520.13 27.5712 520.874 27.5712C521.231 27.5712 521.573 27.7102 521.825 27.9576C522.078 28.205 522.22 28.5406 522.22 28.8905C522.22 29.6191 521.617 30.2097 520.874 30.2097C520.13 30.2097 519.527 29.6191 519.527 28.8905Z" fill="white"/>
<path fill-rule="evenodd" clip-rule="evenodd" d="M549.244 31.2635C549.244 28.6527 551.404 26.5362 554.068 26.5362C555.347 26.5362 556.574 27.0342 557.479 27.9208C558.384 28.8073 558.892 30.0097 558.892 31.2635C558.892 33.8743 556.732 35.9908 554.068 35.9908C551.404 35.9908 549.244 33.8743 549.244 31.2635Z" fill="black"/>
<path fill-rule="evenodd" clip-rule="evenodd" d="M551.866 28.8905C551.866 28.1619 552.469 27.5712 553.213 27.5712C553.57 27.5712 553.912 27.7102 554.165 27.9576C554.417 28.205 554.559 28.5406 554.559 28.8905C554.559 29.6191 553.956 30.2097 553.213 30.2097C552.469 30.2097 551.866 29.6191 551.866 28.8905Z" fill="white"/>
<path fill-rule="evenodd" clip-rule="evenodd" d="M546.747 36.6746V41.4935C546.747 44.1549 543.156 46.3124 538.728 46.3124C534.299 46.3124 530.709 44.1549 530.709 41.4935V36.6746H546.747Z" stroke="black" stroke-width="2" stroke-miterlimit="10" stroke-linejoin="round"/>
<path fill-rule="evenodd" clip-rule="evenodd" d="M556.358 66.8724V79.6598C556.358 86.7221 547.926 92.4472 537.525 92.4472C527.123 92.4472 518.691 86.7221 518.691 79.6598V66.8724H556.358Z" fill="#D500F9"/>
<path fill-rule="evenodd" clip-rule="evenodd" d="M580.868 29.3054C579.392 29.1074 578.518 26.3985 578.917 23.2547C579.316 20.1109 580.836 17.7228 582.313 17.9208C583.789 18.1187 584.663 20.8277 584.264 23.9714C583.865 27.1152 582.345 29.5033 580.868 29.3054Z" fill="#EA80FC"/>
<path fill-rule="evenodd" clip-rule="evenodd" d="M579.627 25.7356C578.912 26.0262 577.832 25.0279 577.215 23.5059C576.599 21.9839 576.679 20.5145 577.394 20.224C578.11 19.9334 579.19 20.9317 579.806 22.4537C580.423 23.9757 580.343 25.4451 579.627 25.7356Z" fill="#EA80FC"/>
<path d="M580.966 27.3038C580.216 32.9578 581.769 41.2246 576.972 44.3326C574.55 45.9018 571.817 45.5177 569.268 46.5385" stroke="#EA80FC" stroke-width="4" stroke-miterlimit="10" stroke-linejoin="round"/>
<path fill-rule="evenodd" clip-rule="evenodd" d="M494.492 29.3054C495.969 29.1074 496.842 26.3985 496.443 23.2547C496.044 20.1109 494.524 17.7228 493.048 17.9208C491.571 18.1187 490.698 20.8277 491.097 23.9714C491.495 27.1152 493.016 29.5033 494.492 29.3054Z" fill="#EA80FC"/>
<path fill-rule="evenodd" clip-rule="evenodd" d="M495.733 25.7356C496.449 26.0262 497.529 25.0279 498.145 23.5059C498.762 21.9839 498.682 20.5145 497.966 20.224C497.251 19.9334 496.171 20.9317 495.554 22.4537C494.938 23.9757 495.018 25.4451 495.733 25.7356Z" fill="#EA80FC"/>
<path d="M494.394 27.3038C495.144 32.9578 493.591 41.2246 498.388 44.3326C500.81 45.9018 503.543 45.5177 506.092 46.5385" stroke="#EA80FC" stroke-width="4" stroke-miterlimit="10" stroke-linejoin="round"/>
<path d="M528.685 88.6774L530.185 114.677L523.685 117.677" stroke="#D500F9" stroke-width="4"/>
<path d="M545.185 88.6774L543.685 114.677L550.185 117.677" stroke="#D500F9" stroke-width="4"/>
<path fill-rule="evenodd" clip-rule="evenodd" d="M562.799 11.7853C576.369 25.0923 576.053 46.9704 562.092 60.6514C553.194 69.3714 544.755 78.5416 536.776 88.162C529.071 78.7547 520.894 69.8102 512.245 61.3286C498.675 48.0216 498.992 26.1434 512.952 12.4624C526.912 -1.21858 549.23 -1.52175 562.799 11.7853Z" fill="#EA80FC"/>
<path fill-rule="evenodd" clip-rule="evenodd" d="M516.905 31.2635C516.905 28.6527 519.065 26.5362 521.729 26.5362C523.008 26.5362 524.235 27.0342 525.14 27.9208C526.045 28.8073 526.553 30.0097 526.553 31.2635C526.553 33.8743 524.393 35.9908 521.729 35.9908C519.065 35.9908 516.905 33.8743 516.905 31.2635Z" fill="black"/>
<path fill-rule="evenodd" clip-rule="evenodd" d="M519.527 28.8905C519.527 28.1619 520.13 27.5712 520.874 27.5712C521.231 27.5712 521.573 27.7102 521.825 27.9576C522.078 28.205 522.22 28.5406 522.22 28.8905C522.22 29.6191 521.617 30.2097 520.874 30.2097C520.13 30.2097 519.527 29.6191 519.527 28.8905Z" fill="white"/>
<path fill-rule="evenodd" clip-rule="evenodd" d="M549.244 31.2635C549.244 28.6527 551.404 26.5362 554.068 26.5362C555.347 26.5362 556.574 27.0342 557.479 27.9208C558.384 28.8073 558.892 30.0097 558.892 31.2635C558.892 33.8743 556.732 35.9908 554.068 35.9908C551.404 35.9908 549.244 33.8743 549.244 31.2635Z" fill="black"/>
<path fill-rule="evenodd" clip-rule="evenodd" d="M551.866 28.8905C551.866 28.1619 552.469 27.5712 553.213 27.5712C553.57 27.5712 553.912 27.7102 554.165 27.9576C554.417 28.205 554.559 28.5406 554.559 28.8905C554.559 29.6191 553.956 30.2097 553.213 30.2097C552.469 30.2097 551.866 29.6191 551.866 28.8905Z" fill="white"/>
<path fill-rule="evenodd" clip-rule="evenodd" d="M546.747 36.6746V41.4935C546.747 44.1549 543.156 46.3124 538.728 46.3124C534.299 46.3124 530.709 44.1549 530.709 41.4935V36.6746H546.747Z" stroke="black" stroke-width="2" stroke-miterlimit="10" stroke-linejoin="round"/>
<path fill-rule="evenodd" clip-rule="evenodd" d="M556.358 66.8724V79.6598C556.358 86.7221 547.926 92.4472 537.525 92.4472C527.123 92.4472 518.691 86.7221 518.691 79.6598V66.8724H556.358Z" fill="#D500F9"/>
<path fill-rule="evenodd" clip-rule="evenodd" d="M580.868 29.3054C579.392 29.1074 578.518 26.3985 578.917 23.2547C579.316 20.1109 580.836 17.7228 582.313 17.9208C583.789 18.1187 584.663 20.8277 584.264 23.9714C583.865 27.1152 582.345 29.5033 580.868 29.3054Z" fill="#EA80FC"/>
<path fill-rule="evenodd" clip-rule="evenodd" d="M579.627 25.7356C578.912 26.0262 577.832 25.0279 577.215 23.5059C576.599 21.9839 576.679 20.5145 577.394 20.224C578.11 19.9334 579.19 20.9317 579.806 22.4537C580.423 23.9757 580.343 25.4451 579.627 25.7356Z" fill="#EA80FC"/>
<path d="M580.966 27.3038C580.216 32.9578 581.769 41.2246 576.972 44.3326C574.55 45.9018 571.817 45.5177 569.268 46.5385" stroke="#EA80FC" stroke-width="4" stroke-miterlimit="10" stroke-linejoin="round"/>
<path fill-rule="evenodd" clip-rule="evenodd" d="M494.492 29.3054C495.969 29.1074 496.842 26.3985 496.443 23.2547C496.044 20.1109 494.524 17.7228 493.048 17.9208C491.571 18.1187 490.698 20.8277 491.097 23.9714C491.495 27.1152 493.016 29.5033 494.492 29.3054Z" fill="#EA80FC"/>
<path fill-rule="evenodd" clip-rule="evenodd" d="M495.733 25.7356C496.449 26.0262 497.529 25.0279 498.145 23.5059C498.762 21.9839 498.682 20.5145 497.966 20.224C497.251 19.9334 496.171 20.9317 495.554 22.4537C494.938 23.9757 495.018 25.4451 495.733 25.7356Z" fill="#EA80FC"/>
<path d="M494.394 27.3038C495.144 32.9578 493.591 41.2246 498.388 44.3326C500.81 45.9018 503.543 45.5177 506.092 46.5385" stroke="#EA80FC" stroke-width="4" stroke-miterlimit="10" stroke-linejoin="round"/>
<path d="M528.685 88.6774L530.185 114.677L523.685 117.677" stroke="#D500F9" stroke-width="4"/>
<path d="M545.185 88.6774L543.685 114.677L550.185 117.677" stroke="#D500F9" stroke-width="4"/>
<path fill-rule="evenodd" clip-rule="evenodd" d="M562.799 11.7853C576.369 25.0923 576.053 46.9704 562.092 60.6514C553.194 69.3714 544.755 78.5416 536.776 88.162C529.071 78.7547 520.894 69.8102 512.245 61.3286C498.675 48.0216 498.992 26.1434 512.952 12.4624C526.912 -1.21858 549.23 -1.52175 562.799 11.7853Z" fill="#EA80FC"/>
<path fill-rule="evenodd" clip-rule="evenodd" d="M516.905 31.2635C516.905 28.6527 519.065 26.5362 521.729 26.5362C523.008 26.5362 524.235 27.0342 525.14 27.9208C526.045 28.8073 526.553 30.0097 526.553 31.2635C526.553 33.8743 524.393 35.9908 521.729 35.9908C519.065 35.9908 516.905 33.8743 516.905 31.2635Z" fill="black"/>
<path fill-rule="evenodd" clip-rule="evenodd" d="M519.527 28.8905C519.527 28.1619 520.13 27.5712 520.874 27.5712C521.231 27.5712 521.573 27.7102 521.825 27.9576C522.078 28.205 522.22 28.5406 522.22 28.8905C522.22 29.6191 521.617 30.2097 520.874 30.2097C520.13 30.2097 519.527 29.6191 519.527 28.8905Z" fill="white"/>
<path fill-rule="evenodd" clip-rule="evenodd" d="M549.244 31.2635C549.244 28.6527 551.404 26.5362 554.068 26.5362C555.347 26.5362 556.574 27.0342 557.479 27.9208C558.384 28.8073 558.892 30.0097 558.892 31.2635C558.892 33.8743 556.732 35.9908 554.068 35.9908C551.404 35.9908 549.244 33.8743 549.244 31.2635Z" fill="black"/>
<path fill-rule="evenodd" clip-rule="evenodd" d="M551.866 28.8905C551.866 28.1619 552.469 27.5712 553.213 27.5712C553.57 27.5712 553.912 27.7102 554.165 27.9576C554.417 28.205 554.559 28.5406 554.559 28.8905C554.559 29.6191 553.956 30.2097 553.213 30.2097C552.469 30.2097 551.866 29.6191 551.866 28.8905Z" fill="white"/>
<path fill-rule="evenodd" clip-rule="evenodd" d="M546.747 36.6746V41.4935C546.747 44.1549 543.156 46.3124 538.728 46.3124C534.299 46.3124 530.709 44.1549 530.709 41.4935V36.6746H546.747Z" stroke="black" stroke-width="2" stroke-miterlimit="10" stroke-linejoin="round"/>
<path fill-rule="evenodd" clip-rule="evenodd" d="M556.358 66.8724V79.6598C556.358 86.7221 547.926 92.4472 537.525 92.4472C527.123 92.4472 518.691 86.7221 518.691 79.6598V66.8724H556.358Z" fill="#D500F9"/>
<path fill-rule="evenodd" clip-rule="evenodd" d="M580.868 29.3054C579.392 29.1074 578.518 26.3985 578.917 23.2547C579.316 20.1109 580.836 17.7228 582.313 17.9208C583.789 18.1187 584.663 20.8277 584.264 23.9714C583.865 27.1152 582.345 29.5033 580.868 29.3054Z" fill="#EA80FC"/>
<path fill-rule="evenodd" clip-rule="evenodd" d="M579.627 25.7356C578.912 26.0262 577.832 25.0279 577.215 23.5059C576.599 21.9839 576.679 20.5145 577.394 20.224C578.11 19.9334 579.19 20.9317 579.806 22.4537C580.423 23.9757 580.343 25.4451 579.627 25.7356Z" fill="#EA80FC"/>
<path d="M580.966 27.3038C580.216 32.9578 581.769 41.2246 576.972 44.3326C574.55 45.9018 571.817 45.5177 569.268 46.5385" stroke="#EA80FC" stroke-width="4" stroke-miterlimit="10" stroke-linejoin="round"/>
<path fill-rule="evenodd" clip-rule="evenodd" d="M494.492 29.3054C495.969 29.1074 496.842 26.3985 496.443 23.2547C496.044 20.1109 494.524 17.7228 493.048 17.9208C491.571 18.1187 490.698 20.8277 491.097 23.9714C491.495 27.1152 493.016 29.5033 494.492 29.3054Z" fill="#EA80FC"/>
<path fill-rule="evenodd" clip-rule="evenodd" d="M495.733 25.7356C496.449 26.0262 497.529 25.0279 498.145 23.5059C498.762 21.9839 498.682 20.5145 497.966 20.224C497.251 19.9334 496.171 20.9317 495.554 22.4537C494.938 23.9757 495.018 25.4451 495.733 25.7356Z" fill="#EA80FC"/>
<path d="M494.394 27.3038C495.144 32.9578 493.591 41.2246 498.388 44.3326C500.81 45.9018 503.543 45.5177 506.092 46.5385" stroke="#EA80FC" stroke-width="4" stroke-miterlimit="10" stroke-linejoin="round"/>
<path d="M648.685 88.6774L650.185 114.677L643.685 117.677" stroke="#D500F9" stroke-width="4"/>
<path d="M665.185 88.6774L663.685 114.677L670.185 117.677" stroke="#D500F9" stroke-width="4"/>
<path fill-rule="evenodd" clip-rule="evenodd" d="M682.799 11.7853C696.369 25.0923 696.053 46.9704 682.092 60.6514C673.194 69.3714 664.755 78.5416 656.776 88.162C649.071 78.7547 640.894 69.8102 632.245 61.3286C618.675 48.0216 618.992 26.1434 632.952 12.4624C646.912 -1.21858 669.23 -1.52175 682.799 11.7853Z" fill="#EA80FC"/>
<path fill-rule="evenodd" clip-rule="evenodd" d="M636.905 31.2635C636.905 28.6527 639.065 26.5362 641.729 26.5362C643.008 26.5362 644.235 27.0342 645.14 27.9208C646.045 28.8073 646.553 30.0097 646.553 31.2635C646.553 33.8743 644.393 35.9908 641.729 35.9908C639.065 35.9908 636.905 33.8743 636.905 31.2635Z" fill="black"/>
<path fill-rule="evenodd" clip-rule="evenodd" d="M639.527 28.8905C639.527 28.1619 640.13 27.5712 640.874 27.5712C641.231 27.5712 641.573 27.7102 641.825 27.9576C642.078 28.205 642.22 28.5406 642.22 28.8905C642.22 29.6191 641.617 30.2097 640.874 30.2097C640.13 30.2097 639.527 29.6191 639.527 28.8905Z" fill="white"/>
<path fill-rule="evenodd" clip-rule="evenodd" d="M669.244 31.2635C669.244 28.6527 671.404 26.5362 674.068 26.5362C675.347 26.5362 676.574 27.0342 677.479 27.9208C678.384 28.8073 678.892 30.0097 678.892 31.2635C678.892 33.8743 676.732 35.9908 674.068 35.9908C671.404 35.9908 669.244 33.8743 669.244 31.2635Z" fill="black"/>
<path fill-rule="evenodd" clip-rule="evenodd" d="M671.866 28.8905C671.866 28.1619 672.469 27.5712 673.213 27.5712C673.57 27.5712 673.912 27.7102 674.165 27.9576C674.417 28.205 674.559 28.5406 674.559 28.8905C674.559 29.6191 673.956 30.2097 673.213 30.2097C672.469 30.2097 671.866 29.6191 671.866 28.8905Z" fill="white"/>
<path fill-rule="evenodd" clip-rule="evenodd" d="M666.747 36.6746V41.4935C666.747 44.1549 663.156 46.3124 658.728 46.3124C654.299 46.3124 650.709 44.1549 650.709 41.4935V36.6746H666.747Z" stroke="black" stroke-width="2" stroke-miterlimit="10" stroke-linejoin="round"/>
<path fill-rule="evenodd" clip-rule="evenodd" d="M676.358 66.8724V79.6598C676.358 86.7221 667.926 92.4472 657.525 92.4472C647.123 92.4472 638.691 86.7221 638.691 79.6598V66.8724H676.358Z" fill="#D500F9"/>
<path fill-rule="evenodd" clip-rule="evenodd" d="M700.868 29.3054C699.392 29.1074 698.518 26.3985 698.917 23.2547C699.316 20.1109 700.836 17.7228 702.313 17.9208C703.789 18.1187 704.663 20.8277 704.264 23.9714C703.865 27.1152 702.345 29.5033 700.868 29.3054Z" fill="#EA80FC"/>
<path fill-rule="evenodd" clip-rule="evenodd" d="M699.627 25.7356C698.912 26.0262 697.832 25.0279 697.215 23.5059C696.599 21.9839 696.679 20.5145 697.394 20.224C698.11 19.9334 699.19 20.9317 699.806 22.4537C700.423 23.9757 700.343 25.4451 699.627 25.7356Z" fill="#EA80FC"/>
<path d="M700.966 27.3038C700.216 32.9578 701.769 41.2246 696.972 44.3326C694.55 45.9018 691.817 45.5177 689.268 46.5385" stroke="#EA80FC" stroke-width="4" stroke-miterlimit="10" stroke-linejoin="round"/>
<path fill-rule="evenodd" clip-rule="evenodd" d="M614.492 29.3054C615.969 29.1074 616.842 26.3985 616.443 23.2547C616.044 20.1109 614.524 17.7228 613.048 17.9208C611.571 18.1187 610.698 20.8277 611.097 23.9714C611.495 27.1152 613.016 29.5033 614.492 29.3054Z" fill="#EA80FC"/>
<path fill-rule="evenodd" clip-rule="evenodd" d="M615.733 25.7356C616.449 26.0262 617.529 25.0279 618.145 23.5059C618.762 21.9839 618.682 20.5145 617.966 20.224C617.251 19.9334 616.171 20.9317 615.554 22.4537C614.938 23.9757 615.018 25.4451 615.733 25.7356Z" fill="#EA80FC"/>
<path d="M614.394 27.3038C615.144 32.9578 613.591 41.2246 618.388 44.3326C620.81 45.9018 623.543 45.5177 626.092 46.5385" stroke="#EA80FC" stroke-width="4" stroke-miterlimit="10" stroke-linejoin="round"/>
<path d="M648.685 88.6774L650.185 114.677L643.685 117.677" stroke="#D500F9" stroke-width="4"/>
<path d="M665.185 88.6774L663.685 114.677L670.185 117.677" stroke="#D500F9" stroke-width="4"/>
<path fill-rule="evenodd" clip-rule="evenodd" d="M682.799 11.7853C696.369 25.0923 696.053 46.9704 682.092 60.6514C673.194 69.3714 664.755 78.5416 656.776 88.162C649.071 78.7547 640.894 69.8102 632.245 61.3286C618.675 48.0216 618.992 26.1434 632.952 12.4624C646.912 -1.21858 669.23 -1.52175 682.799 11.7853Z" fill="#EA80FC"/>
<path fill-rule="evenodd" clip-rule="evenodd" d="M636.905 31.2635C636.905 28.6527 639.065 26.5362 641.729 26.5362C643.008 26.5362 644.235 27.0342 645.14 27.9208C646.045 28.8073 646.553 30.0097 646.553 31.2635C646.553 33.8743 644.393 35.9908 641.729 35.9908C639.065 35.9908 636.905 33.8743 636.905 31.2635Z" fill="black"/>
<path fill-rule="evenodd" clip-rule="evenodd" d="M639.527 28.8905C639.527 28.1619 640.13 27.5712 640.874 27.5712C641.231 27.5712 641.573 27.7102 641.825 27.9576C642.078 28.205 642.22 28.5406 642.22 28.8905C642.22 29.6191 641.617 30.2097 640.874 30.2097C640.13 30.2097 639.527 29.6191 639.527 28.8905Z" fill="white"/>
<path fill-rule="evenodd" clip-rule="evenodd" d="M669.244 31.2635C669.244 28.6527 671.404 26.5362 674.068 26.5362C675.347 26.5362 676.574 27.0342 677.479 27.9208C678.384 28.8073 678.892 30.0097 678.892 31.2635C678.892 33.8743 676.732 35.9908 674.068 35.9908C671.404 35.9908 669.244 33.8743 669.244 31.2635Z" fill="black"/>
<path fill-rule="evenodd" clip-rule="evenodd" d="M671.866 28.8905C671.866 28.1619 672.469 27.5712 673.213 27.5712C673.57 27.5712 673.912 27.7102 674.165 27.9576C674.417 28.205 674.559 28.5406 674.559 28.8905C674.559 29.6191 673.956 30.2097 673.213 30.2097C672.469 30.2097 671.866 29.6191 671.866 28.8905Z" fill="white"/>
<path fill-rule="evenodd" clip-rule="evenodd" d="M666.747 36.6746V41.4935C666.747 44.1549 663.156 46.3124 658.728 46.3124C654.299 46.3124 650.709 44.1549 650.709 41.4935V36.6746H666.747Z" stroke="black" stroke-width="2" stroke-miterlimit="10" stroke-linejoin="round"/>
<path fill-rule="evenodd" clip-rule="evenodd" d="M676.358 66.8724V79.6598C676.358 86.7221 667.926 92.4472 657.525 92.4472C647.123 92.4472 638.691 86.7221 638.691 79.6598V66.8724H676.358Z" fill="#D500F9"/>
<path fill-rule="evenodd" clip-rule="evenodd" d="M700.868 29.3054C699.392 29.1074 698.518 26.3985 698.917 23.2547C699.316 20.1109 700.836 17.7228 702.313 17.9208C703.789 18.1187 704.663 20.8277 704.264 23.9714C703.865 27.1152 702.345 29.5033 700.868 29.3054Z" fill="#EA80FC"/>
<path fill-rule="evenodd" clip-rule="evenodd" d="M699.627 25.7356C698.912 26.0262 697.832 25.0279 697.215 23.5059C696.599 21.9839 696.679 20.5145 697.394 20.224C698.11 19.9334 699.19 20.9317 699.806 22.4537C700.423 23.9757 700.343 25.4451 699.627 25.7356Z" fill="#EA80FC"/>
<path d="M700.966 27.3038C700.216 32.9578 701.769 41.2246 696.972 44.3326C694.55 45.9018 691.817 45.5177 689.268 46.5385" stroke="#EA80FC" stroke-width="4" stroke-miterlimit="10" stroke-linejoin="round"/>
<path fill-rule="evenodd" clip-rule="evenodd" d="M614.492 29.3054C615.969 29.1074 616.842 26.3985 616.443 23.2547C616.044 20.1109 614.524 17.7228 613.048 17.9208C611.571 18.1187 610.698 20.8277 611.097 23.9714C611.495 27.1152 613.016 29.5033 614.492 29.3054Z" fill="#EA80FC"/>
<path fill-rule="evenodd" clip-rule="evenodd" d="M615.733 25.7356C616.449 26.0262 617.529 25.0279 618.145 23.5059C618.762 21.9839 618.682 20.5145 617.966 20.224C617.251 19.9334 616.171 20.9317 615.554 22.4537C614.938 23.9757 615.018 25.4451 615.733 25.7356Z" fill="#EA80FC"/>
<path d="M614.394 27.3038C615.144 32.9578 613.591 41.2246 618.388 44.3326C620.81 45.9018 623.543 45.5177 626.092 46.5385" stroke="#EA80FC" stroke-width="4" stroke-miterlimit="10" stroke-linejoin="round"/>
<path d="M648.685 88.6774L650.185 114.677L643.685 117.677" stroke="#D500F9" stroke-width="4"/>
<path d="M665.185 88.6774L663.685 114.677L670.185 117.677" stroke="#D500F9" stroke-width="4"/>
<path fill-rule="evenodd" clip-rule="evenodd" d="M682.799 11.7853C696.369 25.0923 696.053 46.9704 682.092 60.6514C673.194 69.3714 664.755 78.5416 656.776 88.162C649.071 78.7547 640.894 69.8102 632.245 61.3286C618.675 48.0216 618.992 26.1434 632.952 12.4624C646.912 -1.21858 669.23 -1.52175 682.799 11.7853Z" fill="#EA80FC"/>
<path fill-rule="evenodd" clip-rule="evenodd" d="M636.905 31.2635C636.905 28.6527 639.065 26.5362 641.729 26.5362C643.008 26.5362 644.235 27.0342 645.14 27.9208C646.045 28.8073 646.553 30.0097 646.553 31.2635C646.553 33.8743 644.393 35.9908 641.729 35.9908C639.065 35.9908 636.905 33.8743 636.905 31.2635Z" fill="black"/>
<path fill-rule="evenodd" clip-rule="evenodd" d="M639.527 28.8905C639.527 28.1619 640.13 27.5712 640.874 27.5712C641.231 27.5712 641.573 27.7102 641.825 27.9576C642.078 28.205 642.22 28.5406 642.22 28.8905C642.22 29.6191 641.617 30.2097 640.874 30.2097C640.13 30.2097 639.527 29.6191 639.527 28.8905Z" fill="white"/>
<path fill-rule="evenodd" clip-rule="evenodd" d="M669.244 31.2635C669.244 28.6527 671.404 26.5362 674.068 26.5362C675.347 26.5362 676.574 27.0342 677.479 27.9208C678.384 28.8073 678.892 30.0097 678.892 31.2635C678.892 33.8743 676.732 35.9908 674.068 35.9908C671.404 35.9908 669.244 33.8743 669.244 31.2635Z" fill="black"/>
<path fill-rule="evenodd" clip-rule="evenodd" d="M671.866 28.8905C671.866 28.1619 672.469 27.5712 673.213 27.5712C673.57 27.5712 673.912 27.7102 674.165 27.9576C674.417 28.205 674.559 28.5406 674.559 28.8905C674.559 29.6191 673.956 30.2097 673.213 30.2097C672.469 30.2097 671.866 29.6191 671.866 28.8905Z" fill="white"/>
<path fill-rule="evenodd" clip-rule="evenodd" d="M666.747 36.6746V41.4935C666.747 44.1549 663.156 46.3124 658.728 46.3124C654.299 46.3124 650.709 44.1549 650.709 41.4935V36.6746H666.747Z" stroke="black" stroke-width="2" stroke-miterlimit="10" stroke-linejoin="round"/>
<path fill-rule="evenodd" clip-rule="evenodd" d="M676.358 66.8724V79.6598C676.358 86.7221 667.926 92.4472 657.525 92.4472C647.123 92.4472 638.691 86.7221 638.691 79.6598V66.8724H676.358Z" fill="#D500F9"/>
<path fill-rule="evenodd" clip-rule="evenodd" d="M700.868 29.3054C699.392 29.1074 698.518 26.3985 698.917 23.2547C699.316 20.1109 700.836 17.7228 702.313 17.9208C703.789 18.1187 704.663 20.8277 704.264 23.9714C703.865 27.1152 702.345 29.5033 700.868 29.3054Z" fill="#EA80FC"/>
<path fill-rule="evenodd" clip-rule="evenodd" d="M699.627 25.7356C698.912 26.0262 697.832 25.0279 697.215 23.5059C696.599 21.9839 696.679 20.5145 697.394 20.224C698.11 19.9334 699.19 20.9317 699.806 22.4537C700.423 23.9757 700.343 25.4451 699.627 25.7356Z" fill="#EA80FC"/>
<path d="M700.966 27.3038C700.216 32.9578 701.769 41.2246 696.972 44.3326C694.55 45.9018 691.817 45.5177 689.268 46.5385" stroke="#EA80FC" stroke-width="4" stroke-miterlimit="10" stroke-linejoin="round"/>
<path fill-rule="evenodd" clip-rule="evenodd" d="M614.492 29.3054C615.969 29.1074 616.842 26.3985 616.443 23.2547C616.044 20.1109 614.524 17.7228 613.048 17.9208C611.571 18.1187 610.698 20.8277 611.097 23.9714C611.495 27.1152 613.016 29.5033 614.492 29.3054Z" fill="#EA80FC"/>
<path fill-rule="evenodd" clip-rule="evenodd" d="M615.733 25.7356C616.449 26.0262 617.529 25.0279 618.145 23.5059C618.762 21.9839 618.682 20.5145 617.966 20.224C617.251 19.9334 616.171 20.9317 615.554 22.4537C614.938 23.9757 615.018 25.4451 615.733 25.7356Z" fill="#EA80FC"/>
<path d="M614.394 27.3038C615.144 32.9578 613.591 41.2246 618.388 44.3326C620.81 45.9018 623.543 45.5177 626.092 46.5385" stroke="#EA80FC" stroke-width="4" stroke-miterlimit="10" stroke-linejoin="round"/>
<path d="M768.685 88.6774L770.185 114.677L763.685 117.677" stroke="#D500F9" stroke-width="4"/>
<path d="M785.185 88.6774L783.685 114.677L790.185 117.677" stroke="#D500F9" stroke-width="4"/>
<path fill-rule="evenodd" clip-rule="evenodd" d="M802.799 11.7853C816.369 25.0923 816.053 46.9704 802.092 60.6514C793.194 69.3714 784.755 78.5416 776.776 88.162C769.071 78.7547 760.894 69.8102 752.245 61.3286C738.675 48.0216 738.992 26.1434 752.952 12.4624C766.912 -1.21858 789.23 -1.52175 802.799 11.7853Z" fill="#EA80FC"/>
<path fill-rule="evenodd" clip-rule="evenodd" d="M756.905 31.2635C756.905 28.6527 759.065 26.5362 761.729 26.5362C763.008 26.5362 764.235 27.0342 765.14 27.9208C766.045 28.8073 766.553 30.0097 766.553 31.2635C766.553 33.8743 764.393 35.9908 761.729 35.9908C759.065 35.9908 756.905 33.8743 756.905 31.2635Z" fill="black"/>
<path fill-rule="evenodd" clip-rule="evenodd" d="M759.527 28.8905C759.527 28.1619 760.13 27.5712 760.874 27.5712C761.231 27.5712 761.573 27.7102 761.825 27.9576C762.078 28.205 762.22 28.5406 762.22 28.8905C762.22 29.6191 761.617 30.2097 760.874 30.2097C760.13 30.2097 759.527 29.6191 759.527 28.8905Z" fill="white"/>
<path fill-rule="evenodd" clip-rule="evenodd" d="M789.244 31.2635C789.244 28.6527 791.404 26.5362 794.068 26.5362C795.347 26.5362 796.574 27.0342 797.479 27.9208C798.384 28.8073 798.892 30.0097 798.892 31.2635C798.892 33.8743 796.732 35.9908 794.068 35.9908C791.404 35.9908 789.244 33.8743 789.244 31.2635Z" fill="black"/>
<path fill-rule="evenodd" clip-rule="evenodd" d="M791.866 28.8905C791.866 28.1619 792.469 27.5712 793.213 27.5712C793.57 27.5712 793.912 27.7102 794.165 27.9576C794.417 28.205 794.559 28.5406 794.559 28.8905C794.559 29.6191 793.956 30.2097 793.213 30.2097C792.469 30.2097 791.866 29.6191 791.866 28.8905Z" fill="white"/>
<path fill-rule="evenodd" clip-rule="evenodd" d="M786.747 36.6746V41.4935C786.747 44.1549 783.156 46.3124 778.728 46.3124C774.299 46.3124 770.709 44.1549 770.709 41.4935V36.6746H786.747Z" stroke="black" stroke-width="2" stroke-miterlimit="10" stroke-linejoin="round"/>
<path fill-rule="evenodd" clip-rule="evenodd" d="M796.358 66.8724V79.6598C796.358 86.7221 787.926 92.4472 777.525 92.4472C767.123 92.4472 758.691 86.7221 758.691 79.6598V66.8724H796.358Z" fill="#D500F9"/>
<path fill-rule="evenodd" clip-rule="evenodd" d="M820.868 29.3054C819.392 29.1074 818.518 26.3985 818.917 23.2547C819.316 20.1109 820.836 17.7228 822.313 17.9208C823.789 18.1187 824.663 20.8277 824.264 23.9714C823.865 27.1152 822.345 29.5033 820.868 29.3054Z" fill="#EA80FC"/>
<path fill-rule="evenodd" clip-rule="evenodd" d="M819.627 25.7356C818.912 26.0262 817.832 25.0279 817.215 23.5059C816.599 21.9839 816.679 20.5145 817.394 20.224C818.11 19.9334 819.19 20.9317 819.806 22.4537C820.423 23.9757 820.343 25.4451 819.627 25.7356Z" fill="#EA80FC"/>
<path d="M820.966 27.3038C820.216 32.9578 821.769 41.2246 816.972 44.3326C814.55 45.9018 811.817 45.5177 809.268 46.5385" stroke="#EA80FC" stroke-width="4" stroke-miterlimit="10" stroke-linejoin="round"/>
<path fill-rule="evenodd" clip-rule="evenodd" d="M734.492 29.3054C735.969 29.1074 736.842 26.3985 736.443 23.2547C736.044 20.1109 734.524 17.7228 733.048 17.9208C731.571 18.1187 730.698 20.8277 731.097 23.9714C731.495 27.1152 733.016 29.5033 734.492 29.3054Z" fill="#EA80FC"/>
<path fill-rule="evenodd" clip-rule="evenodd" d="M735.733 25.7356C736.449 26.0262 737.529 25.0279 738.145 23.5059C738.762 21.9839 738.682 20.5145 737.966 20.224C737.251 19.9334 736.171 20.9317 735.554 22.4537C734.938 23.9757 735.018 25.4451 735.733 25.7356Z" fill="#EA80FC"/>
<path d="M734.394 27.3038C735.144 32.9578 733.591 41.2246 738.388 44.3326C740.81 45.9018 743.543 45.5177 746.092 46.5385" stroke="#EA80FC" stroke-width="4" stroke-miterlimit="10" stroke-linejoin="round"/>
<path d="M768.685 88.6774L770.185 114.677L763.685 117.677" stroke="#D500F9" stroke-width="4"/>
<path d="M785.185 88.6774L783.685 114.677L790.185 117.677" stroke="#D500F9" stroke-width="4"/>
<path fill-rule="evenodd" clip-rule="evenodd" d="M802.799 11.7853C816.369 25.0923 816.053 46.9704 802.092 60.6514C793.194 69.3714 784.755 78.5416 776.776 88.162C769.071 78.7547 760.894 69.8102 752.245 61.3286C738.675 48.0216 738.992 26.1434 752.952 12.4624C766.912 -1.21858 789.23 -1.52175 802.799 11.7853Z" fill="#EA80FC"/>
<path fill-rule="evenodd" clip-rule="evenodd" d="M756.905 31.2635C756.905 28.6527 759.065 26.5362 761.729 26.5362C763.008 26.5362 764.235 27.0342 765.14 27.9208C766.045 28.8073 766.553 30.0097 766.553 31.2635C766.553 33.8743 764.393 35.9908 761.729 35.9908C759.065 35.9908 756.905 33.8743 756.905 31.2635Z" fill="black"/>
<path fill-rule="evenodd" clip-rule="evenodd" d="M759.527 28.8905C759.527 28.1619 760.13 27.5712 760.874 27.5712C761.231 27.5712 761.573 27.7102 761.825 27.9576C762.078 28.205 762.22 28.5406 762.22 28.8905C762.22 29.6191 761.617 30.2097 760.874 30.2097C760.13 30.2097 759.527 29.6191 759.527 28.8905Z" fill="white"/>
<path fill-rule="evenodd" clip-rule="evenodd" d="M789.244 31.2635C789.244 28.6527 791.404 26.5362 794.068 26.5362C795.347 26.5362 796.574 27.0342 797.479 27.9208C798.384 28.8073 798.892 30.0097 798.892 31.2635C798.892 33.8743 796.732 35.9908 794.068 35.9908C791.404 35.9908 789.244 33.8743 789.244 31.2635Z" fill="black"/>
<path fill-rule="evenodd" clip-rule="evenodd" d="M791.866 28.8905C791.866 28.1619 792.469 27.5712 793.213 27.5712C793.57 27.5712 793.912 27.7102 794.165 27.9576C794.417 28.205 794.559 28.5406 794.559 28.8905C794.559 29.6191 793.956 30.2097 793.213 30.2097C792.469 30.2097 791.866 29.6191 791.866 28.8905Z" fill="white"/>
<path fill-rule="evenodd" clip-rule="evenodd" d="M786.747 36.6746V41.4935C786.747 44.1549 783.156 46.3124 778.728 46.3124C774.299 46.3124 770.709 44.1549 770.709 41.4935V36.6746H786.747Z" stroke="black" stroke-width="2" stroke-miterlimit="10" stroke-linejoin="round"/>
<path fill-rule="evenodd" clip-rule="evenodd" d="M796.358 66.8724V79.6598C796.358 86.7221 787.926 92.4472 777.525 92.4472C767.123 92.4472 758.691 86.7221 758.691 79.6598V66.8724H796.358Z" fill="#D500F9"/>
<path fill-rule="evenodd" clip-rule="evenodd" d="M820.868 29.3054C819.392 29.1074 818.518 26.3985 818.917 23.2547C819.316 20.1109 820.836 17.7228 822.313 17.9208C823.789 18.1187 824.663 20.8277 824.264 23.9714C823.865 27.1152 822.345 29.5033 820.868 29.3054Z" fill="#EA80FC"/>
<path fill-rule="evenodd" clip-rule="evenodd" d="M819.627 25.7356C818.912 26.0262 817.832 25.0279 817.215 23.5059C816.599 21.9839 816.679 20.5145 817.394 20.224C818.11 19.9334 819.19 20.9317 819.806 22.4537C820.423 23.9757 820.343 25.4451 819.627 25.7356Z" fill="#EA80FC"/>
<path d="M820.966 27.3038C820.216 32.9578 821.769 41.2246 816.972 44.3326C814.55 45.9018 811.817 45.5177 809.268 46.5385" stroke="#EA80FC" stroke-width="4" stroke-miterlimit="10" stroke-linejoin="round"/>
<path fill-rule="evenodd" clip-rule="evenodd" d="M734.492 29.3054C735.969 29.1074 736.842 26.3985 736.443 23.2547C736.044 20.1109 734.524 17.7228 733.048 17.9208C731.571 18.1187 730.698 20.8277 731.097 23.9714C731.495 27.1152 733.016 29.5033 734.492 29.3054Z" fill="#EA80FC"/>
<path fill-rule="evenodd" clip-rule="evenodd" d="M735.733 25.7356C736.449 26.0262 737.529 25.0279 738.145 23.5059C738.762 21.9839 738.682 20.5145 737.966 20.224C737.251 19.9334 736.171 20.9317 735.554 22.4537C734.938 23.9757 735.018 25.4451 735.733 25.7356Z" fill="#EA80FC"/>
<path d="M734.394 27.3038C735.144 32.9578 733.591 41.2246 738.388 44.3326C740.81 45.9018 743.543 45.5177 746.092 46.5385" stroke="#EA80FC" stroke-width="4" stroke-miterlimit="10" stroke-linejoin="round"/>
<path d="M768.685 88.6774L770.185 114.677L763.685 117.677" stroke="#D500F9" stroke-width="4"/>
<path d="M785.185 88.6774L783.685 114.677L790.185 117.677" stroke="#D500F9" stroke-width="4"/>
<path fill-rule="evenodd" clip-rule="evenodd" d="M802.799 11.7853C816.369 25.0923 816.053 46.9704 802.092 60.6514C793.194 69.3714 784.755 78.5416 776.776 88.162C769.071 78.7547 760.894 69.8102 752.245 61.3286C738.675 48.0216 738.992 26.1434 752.952 12.4624C766.912 -1.21858 789.23 -1.52175 802.799 11.7853Z" fill="#EA80FC"/>
<path fill-rule="evenodd" clip-rule="evenodd" d="M756.905 31.2635C756.905 28.6527 759.065 26.5362 761.729 26.5362C763.008 26.5362 764.235 27.0342 765.14 27.9208C766.045 28.8073 766.553 30.0097 766.553 31.2635C766.553 33.8743 764.393 35.9908 761.729 35.9908C759.065 35.9908 756.905 33.8743 756.905 31.2635Z" fill="black"/>
<path fill-rule="evenodd" clip-rule="evenodd" d="M759.527 28.8905C759.527 28.1619 760.13 27.5712 760.874 27.5712C761.231 27.5712 761.573 27.7102 761.825 27.9576C762.078 28.205 762.22 28.5406 762.22 28.8905C762.22 29.6191 761.617 30.2097 760.874 30.2097C760.13 30.2097 759.527 29.6191 759.527 28.8905Z" fill="white"/>
<path fill-rule="evenodd" clip-rule="evenodd" d="M789.244 31.2635C789.244 28.6527 791.404 26.5362 794.068 26.5362C795.347 26.5362 796.574 27.0342 797.479 27.9208C798.384 28.8073 798.892 30.0097 798.892 31.2635C798.892 33.8743 796.732 35.9908 794.068 35.9908C791.404 35.9908 789.244 33.8743 789.244 31.2635Z" fill="black"/>
<path fill-rule="evenodd" clip-rule="evenodd" d="M791.866 28.8905C791.866 28.1619 792.469 27.5712 793.213 27.5712C793.57 27.5712 793.912 27.7102 794.165 27.9576C794.417 28.205 794.559 28.5406 794.559 28.8905C794.559 29.6191 793.956 30.2097 793.213 30.2097C792.469 30.2097 791.866 29.6191 791.866 28.8905Z" fill="white"/>
<path fill-rule="evenodd" clip-rule="evenodd" d="M786.747 36.6746V41.4935C786.747 44.1549 783.156 46.3124 778.728 46.3124C774.299 46.3124 770.709 44.1549 770.709 41.4935V36.6746H786.747Z" stroke="black" stroke-width="2" stroke-miterlimit="10" stroke-linejoin="round"/>
<path fill-rule="evenodd" clip-rule="evenodd" d="M796.358 66.8724V79.6598C796.358 86.7221 787.926 92.4472 777.525 92.4472C767.123 92.4472 758.691 86.7221 758.691 79.6598V66.8724H796.358Z" fill="#D500F9"/>
<path fill-rule="evenodd" clip-rule="evenodd" d="M820.868 29.3054C819.392 29.1074 818.518 26.3985 818.917 23.2547C819.316 20.1109 820.836 17.7228 822.313 17.9208C823.789 18.1187 824.663 20.8277 824.264 23.9714C823.865 27.1152 822.345 29.5033 820.868 29.3054Z" fill="#EA80FC"/>
<path fill-rule="evenodd" clip-rule="evenodd" d="M819.627 25.7356C818.912 26.0262 817.832 25.0279 817.215 23.5059C816.599 21.9839 816.679 20.5145 817.394 20.224C818.11 19.9334 819.19 20.9317 819.806 22.4537C820.423 23.9757 820.343 25.4451 819.627 25.7356Z" fill="#EA80FC"/>
<path d="M820.966 27.3038C820.216 32.9578 821.769 41.2246 816.972 44.3326C814.55 45.9018 811.817 45.5177 809.268 46.5385" stroke="#EA80FC" stroke-width="4" stroke-miterlimit="10" stroke-linejoin="round"/>
<path fill-rule="evenodd" clip-rule="evenodd" d="M734.492 29.3054C735.969 29.1074 736.842 26.3985 736.443 23.2547C736.044 20.1109 734.524 17.7228 733.048 17.9208C731.571 18.1187 730.698 20.8277 731.097 23.9714C731.495 27.1152 733.016 29.5033 734.492 29.3054Z" fill="#EA80FC"/>
<path fill-rule="evenodd" clip-rule="evenodd" d="M735.733 25.7356C736.449 26.0262 737.529 25.0279 738.145 23.5059C738.762 21.9839 738.682 20.5145 737.966 20.224C737.251 19.9334 736.171 20.9317 735.554 22.4537C734.938 23.9757 735.018 25.4451 735.733 25.7356Z" fill="#EA80FC"/>
<path d="M734.394 27.3038C735.144 32.9578 733.591 41.2246 738.388 44.3326C740.81 45.9018 743.543 45.5177 746.092 46.5385" stroke="#EA80FC" stroke-width="4" stroke-miterlimit="10" stroke-linejoin="round"/>
<path d="M888.685 88.6774L890.185 114.677L883.685 117.677" stroke="#D500F9" stroke-width="4"/>
<path d="M905.185 88.6774L903.685 114.677L910.185 117.677" stroke="#D500F9" stroke-width="4"/>
<path fill-rule="evenodd" clip-rule="evenodd" d="M922.799 11.7853C936.369 25.0923 936.053 46.9704 922.092 60.6514C913.194 69.3714 904.755 78.5416 896.776 88.162C889.071 78.7547 880.894 69.8102 872.245 61.3286C858.675 48.0216 858.992 26.1434 872.952 12.4624C886.912 -1.21858 909.23 -1.52175 922.799 11.7853Z" fill="#EA80FC"/>
<path fill-rule="evenodd" clip-rule="evenodd" d="M876.905 31.2635C876.905 28.6527 879.065 26.5362 881.729 26.5362C883.008 26.5362 884.235 27.0342 885.14 27.9208C886.045 28.8073 886.553 30.0097 886.553 31.2635C886.553 33.8743 884.393 35.9908 881.729 35.9908C879.065 35.9908 876.905 33.8743 876.905 31.2635Z" fill="black"/>
<path fill-rule="evenodd" clip-rule="evenodd" d="M879.527 28.8905C879.527 28.1619 880.13 27.5712 880.874 27.5712C881.231 27.5712 881.573 27.7102 881.825 27.9576C882.078 28.205 882.22 28.5406 882.22 28.8905C882.22 29.6191 881.617 30.2097 880.874 30.2097C880.13 30.2097 879.527 29.6191 879.527 28.8905Z" fill="white"/>
<path fill-rule="evenodd" clip-rule="evenodd" d="M909.244 31.2635C909.244 28.6527 911.404 26.5362 914.068 26.5362C915.347 26.5362 916.574 27.0342 917.479 27.9208C918.384 28.8073 918.892 30.0097 918.892 31.2635C918.892 33.8743 916.732 35.9908 914.068 35.9908C911.404 35.9908 909.244 33.8743 909.244 31.2635Z" fill="black"/>
<path fill-rule="evenodd" clip-rule="evenodd" d="M911.866 28.8905C911.866 28.1619 912.469 27.5712 913.213 27.5712C913.57 27.5712 913.912 27.7102 914.165 27.9576C914.417 28.205 914.559 28.5406 914.559 28.8905C914.559 29.6191 913.956 30.2097 913.213 30.2097C912.469 30.2097 911.866 29.6191 911.866 28.8905Z" fill="white"/>
<path fill-rule="evenodd" clip-rule="evenodd" d="M906.747 36.6746V41.4935C906.747 44.1549 903.156 46.3124 898.728 46.3124C894.299 46.3124 890.709 44.1549 890.709 41.4935V36.6746H906.747Z" stroke="black" stroke-width="2" stroke-miterlimit="10" stroke-linejoin="round"/>
<path fill-rule="evenodd" clip-rule="evenodd" d="M916.358 66.8724V79.6598C916.358 86.7221 907.926 92.4472 897.525 92.4472C887.123 92.4472 878.691 86.7221 878.691 79.6598V66.8724H916.358Z" fill="#D500F9"/>
<path fill-rule="evenodd" clip-rule="evenodd" d="M940.868 29.3054C939.392 29.1074 938.518 26.3985 938.917 23.2547C939.316 20.1109 940.836 17.7228 942.313 17.9208C943.789 18.1187 944.663 20.8277 944.264 23.9714C943.865 27.1152 942.345 29.5033 940.868 29.3054Z" fill="#EA80FC"/>
<path fill-rule="evenodd" clip-rule="evenodd" d="M939.627 25.7356C938.912 26.0262 937.832 25.0279 937.215 23.5059C936.598 21.9839 936.679 20.5145 937.394 20.224C938.11 19.9334 939.189 20.9317 939.806 22.4537C940.423 23.9757 940.343 25.4451 939.627 25.7356Z" fill="#EA80FC"/>
<path d="M940.966 27.3038C940.216 32.9578 941.769 41.2246 936.972 44.3326C934.55 45.9018 931.817 45.5177 929.268 46.5385" stroke="#EA80FC" stroke-width="4" stroke-miterlimit="10" stroke-linejoin="round"/>
<path fill-rule="evenodd" clip-rule="evenodd" d="M854.492 29.3054C855.969 29.1074 856.842 26.3985 856.443 23.2547C856.044 20.1109 854.524 17.7228 853.048 17.9208C851.571 18.1187 850.698 20.8277 851.097 23.9714C851.495 27.1152 853.016 29.5033 854.492 29.3054Z" fill="#EA80FC"/>
<path fill-rule="evenodd" clip-rule="evenodd" d="M855.733 25.7356C856.449 26.0262 857.529 25.0279 858.145 23.5059C858.762 21.9839 858.682 20.5145 857.966 20.224C857.251 19.9334 856.171 20.9317 855.554 22.4537C854.938 23.9757 855.018 25.4451 855.733 25.7356Z" fill="#EA80FC"/>
<path d="M854.394 27.3038C855.144 32.9578 853.591 41.2246 858.388 44.3326C860.81 45.9018 863.543 45.5177 866.092 46.5385" stroke="#EA80FC" stroke-width="4" stroke-miterlimit="10" stroke-linejoin="round"/>
<path d="M888.685 88.6774L890.185 114.677L883.685 117.677" stroke="#D500F9" stroke-width="4"/>
<path d="M905.185 88.6774L903.685 114.677L910.185 117.677" stroke="#D500F9" stroke-width="4"/>
<path fill-rule="evenodd" clip-rule="evenodd" d="M922.799 11.7853C936.369 25.0923 936.053 46.9704 922.092 60.6514C913.194 69.3714 904.755 78.5416 896.776 88.162C889.071 78.7547 880.894 69.8102 872.245 61.3286C858.675 48.0216 858.992 26.1434 872.952 12.4624C886.912 -1.21858 909.23 -1.52175 922.799 11.7853Z" fill="#EA80FC"/>
<path fill-rule="evenodd" clip-rule="evenodd" d="M876.905 31.2635C876.905 28.6527 879.065 26.5362 881.729 26.5362C883.008 26.5362 884.235 27.0342 885.14 27.9208C886.045 28.8073 886.553 30.0097 886.553 31.2635C886.553 33.8743 884.393 35.9908 881.729 35.9908C879.065 35.9908 876.905 33.8743 876.905 31.2635Z" fill="black"/>
<path fill-rule="evenodd" clip-rule="evenodd" d="M879.527 28.8905C879.527 28.1619 880.13 27.5712 880.874 27.5712C881.231 27.5712 881.573 27.7102 881.825 27.9576C882.078 28.205 882.22 28.5406 882.22 28.8905C882.22 29.6191 881.617 30.2097 880.874 30.2097C880.13 30.2097 879.527 29.6191 879.527 28.8905Z" fill="white"/>
<path fill-rule="evenodd" clip-rule="evenodd" d="M909.244 31.2635C909.244 28.6527 911.404 26.5362 914.068 26.5362C915.347 26.5362 916.574 27.0342 917.479 27.9208C918.384 28.8073 918.892 30.0097 918.892 31.2635C918.892 33.8743 916.732 35.9908 914.068 35.9908C911.404 35.9908 909.244 33.8743 909.244 31.2635Z" fill="black"/>
<path fill-rule="evenodd" clip-rule="evenodd" d="M911.866 28.8905C911.866 28.1619 912.469 27.5712 913.213 27.5712C913.57 27.5712 913.912 27.7102 914.165 27.9576C914.417 28.205 914.559 28.5406 914.559 28.8905C914.559 29.6191 913.956 30.2097 913.213 30.2097C912.469 30.2097 911.866 29.6191 911.866 28.8905Z" fill="white"/>
<path fill-rule="evenodd" clip-rule="evenodd" d="M906.747 36.6746V41.4935C906.747 44.1549 903.156 46.3124 898.728 46.3124C894.299 46.3124 890.709 44.1549 890.709 41.4935V36.6746H906.747Z" stroke="black" stroke-width="2" stroke-miterlimit="10" stroke-linejoin="round"/>
<path fill-rule="evenodd" clip-rule="evenodd" d="M916.358 66.8724V79.6598C916.358 86.7221 907.926 92.4472 897.525 92.4472C887.123 92.4472 878.691 86.7221 878.691 79.6598V66.8724H916.358Z" fill="#D500F9"/>
<path fill-rule="evenodd" clip-rule="evenodd" d="M940.868 29.3054C939.392 29.1074 938.518 26.3985 938.917 23.2547C939.316 20.1109 940.836 17.7228 942.313 17.9208C943.789 18.1187 944.663 20.8277 944.264 23.9714C943.865 27.1152 942.345 29.5033 940.868 29.3054Z" fill="#EA80FC"/>
<path fill-rule="evenodd" clip-rule="evenodd" d="M939.627 25.7356C938.912 26.0262 937.832 25.0279 937.215 23.5059C936.598 21.9839 936.679 20.5145 937.394 20.224C938.11 19.9334 939.189 20.9317 939.806 22.4537C940.423 23.9757 940.343 25.4451 939.627 25.7356Z" fill="#EA80FC"/>
<path d="M940.966 27.3038C940.216 32.9578 941.769 41.2246 936.972 44.3326C934.55 45.9018 931.817 45.5177 929.268 46.5385" stroke="#EA80FC" stroke-width="4" stroke-miterlimit="10" stroke-linejoin="round"/>
<path fill-rule="evenodd" clip-rule="evenodd" d="M854.492 29.3054C855.969 29.1074 856.842 26.3985 856.443 23.2547C856.044 20.1109 854.524 17.7228 853.048 17.9208C851.571 18.1187 850.698 20.8277 851.097 23.9714C851.495 27.1152 853.016 29.5033 854.492 29.3054Z" fill="#EA80FC"/>
<path fill-rule="evenodd" clip-rule="evenodd" d="M855.733 25.7356C856.449 26.0262 857.529 25.0279 858.145 23.5059C858.762 21.9839 858.682 20.5145 857.966 20.224C857.251 19.9334 856.171 20.9317 855.554 22.4537C854.938 23.9757 855.018 25.4451 855.733 25.7356Z" fill="#EA80FC"/>
<path d="M854.394 27.3038C855.144 32.9578 853.591 41.2246 858.388 44.3326C860.81 45.9018 863.543 45.5177 866.092 46.5385" stroke="#EA80FC" stroke-width="4" stroke-miterlimit="10" stroke-linejoin="round"/>
<path d="M888.685 88.6774L890.185 114.677L883.685 117.677" stroke="#D500F9" stroke-width="4"/>
<path d="M905.185 88.6774L903.685 114.677L910.185 117.677" stroke="#D500F9" stroke-width="4"/>
<path fill-rule="evenodd" clip-rule="evenodd" d="M922.799 11.7853C936.369 25.0923 936.053 46.9704 922.092 60.6514C913.194 69.3714 904.755 78.5416 896.776 88.162C889.071 78.7547 880.894 69.8102 872.245 61.3286C858.675 48.0216 858.992 26.1434 872.952 12.4624C886.912 -1.21858 909.23 -1.52175 922.799 11.7853Z" fill="#EA80FC"/>
<path fill-rule="evenodd" clip-rule="evenodd" d="M876.905 31.2635C876.905 28.6527 879.065 26.5362 881.729 26.5362C883.008 26.5362 884.235 27.0342 885.14 27.9208C886.045 28.8073 886.553 30.0097 886.553 31.2635C886.553 33.8743 884.393 35.9908 881.729 35.9908C879.065 35.9908 876.905 33.8743 876.905 31.2635Z" fill="black"/>
<path fill-rule="evenodd" clip-rule="evenodd" d="M879.527 28.8905C879.527 28.1619 880.13 27.5712 880.874 27.5712C881.231 27.5712 881.573 27.7102 881.825 27.9576C882.078 28.205 882.22 28.5406 882.22 28.8905C882.22 29.6191 881.617 30.2097 880.874 30.2097C880.13 30.2097 879.527 29.6191 879.527 28.8905Z" fill="white"/>
<path fill-rule="evenodd" clip-rule="evenodd" d="M909.244 31.2635C909.244 28.6527 911.404 26.5362 914.068 26.5362C915.347 26.5362 916.574 27.0342 917.479 27.9208C918.384 28.8073 918.892 30.0097 918.892 31.2635C918.892 33.8743 916.732 35.9908 914.068 35.9908C911.404 35.9908 909.244 33.8743 909.244 31.2635Z" fill="black"/>
<path fill-rule="evenodd" clip-rule="evenodd" d="M911.866 28.8905C911.866 28.1619 912.469 27.5712 913.213 27.5712C913.57 27.5712 913.912 27.7102 914.165 27.9576C914.417 28.205 914.559 28.5406 914.559 28.8905C914.559 29.6191 913.956 30.2097 913.213 30.2097C912.469 30.2097 911.866 29.6191 911.866 28.8905Z" fill="white"/>
<path fill-rule="evenodd" clip-rule="evenodd" d="M906.747 36.6746V41.4935C906.747 44.1549 903.156 46.3124 898.728 46.3124C894.299 46.3124 890.709 44.1549 890.709 41.4935V36.6746H906.747Z" stroke="black" stroke-width="2" stroke-miterlimit="10" stroke-linejoin="round"/>
<path fill-rule="evenodd" clip-rule="evenodd" d="M916.358 66.8724V79.6598C916.358 86.7221 907.926 92.4472 897.525 92.4472C887.123 92.4472 878.691 86.7221 878.691 79.6598V66.8724H916.358Z" fill="#D500F9"/>
<path fill-rule="evenodd" clip-rule="evenodd" d="M940.868 29.3054C939.392 29.1074 938.518 26.3985 938.917 23.2547C939.316 20.1109 940.836 17.7228 942.313 17.9208C943.789 18.1187 944.663 20.8277 944.264 23.9714C943.865 27.1152 942.345 29.5033 940.868 29.3054Z" fill="#EA80FC"/>
<path fill-rule="evenodd" clip-rule="evenodd" d="M939.627 25.7356C938.912 26.0262 937.832 25.0279 937.215 23.5059C936.598 21.9839 936.679 20.5145 937.394 20.224C938.11 19.9334 939.189 20.9317 939.806 22.4537C940.423 23.9757 940.343 25.4451 939.627 25.7356Z" fill="#EA80FC"/>
<path d="M940.966 27.3038C940.216 32.9578 941.769 41.2246 936.972 44.3326C934.55 45.9018 931.817 45.5177 929.268 46.5385" stroke="#EA80FC" stroke-width="4" stroke-miterlimit="10" stroke-linejoin="round"/>
<path fill-rule="evenodd" clip-rule="evenodd" d="M854.492 29.3054C855.969 29.1074 856.842 26.3985 856.443 23.2547C856.044 20.1109 854.524 17.7228 853.048 17.9208C851.571 18.1187 850.698 20.8277 851.097 23.9714C851.495 27.1152 853.016 29.5033 854.492 29.3054Z" fill="#EA80FC"/>
<path fill-rule="evenodd" clip-rule="evenodd" d="M855.733 25.7356C856.449 26.0262 857.529 25.0279 858.145 23.5059C858.762 21.9839 858.682 20.5145 857.966 20.224C857.251 19.9334 856.171 20.9317 855.554 22.4537C854.938 23.9757 855.018 25.4451 855.733 25.7356Z" fill="#EA80FC"/>
<path d="M854.394 27.3038C855.144 32.9578 853.591 41.2246 858.388 44.3326C860.81 45.9018 863.543 45.5177 866.092 46.5385" stroke="#EA80FC" stroke-width="4" stroke-miterlimit="10" stroke-linejoin="round"/>
</svg>
