<svg width="960" height="120" viewBox="0 0 960 120" fill="none" xmlns="http://www.w3.org/2000/svg">
  <g clip-path="url(#clip0)">
    <path fill="#EA80FC" fill-rule="evenodd" d="M677.257 15.785c13.298 13.307 12.988 35.185-.693 48.866a360.052 360.052 0 00-24.81 27.511 331.36 331.36 0 00-24.04-26.833c-13.299-13.307-12.988-35.186.693-48.867 13.681-13.68 35.552-13.984 48.85-.677z" clip-rule="evenodd"/>
    <path fill="#D500F9" fill-rule="evenodd" d="M670.945 70.872V83.66c0 7.062-8.264 12.787-18.457 12.787-10.194 0-18.457-5.725-18.457-12.787V70.872h36.914z" clip-rule="evenodd"/>
    <path fill="#000" fill-rule="evenodd" d="M643.555 35.263a4.728 4.728 0 119.456.001 4.728 4.728 0 01-9.456 0z" clip-rule="evenodd"/>
    <path fill="#fff" fill-rule="evenodd" d="M648.742 33.66a1.32 1.32 0 112.639 0 1.32 1.32 0 01-2.639 0z" clip-rule="evenodd"/>
    <path fill="#000" fill-rule="evenodd" d="M670.948 35.263a4.727 4.727 0 119.454 0 4.727 4.727 0 01-9.454 0z" clip-rule="evenodd"/>
    <path fill="#fff" fill-rule="evenodd" d="M676.135 33.66a1.319 1.319 0 112.638 0 1.319 1.319 0 01-2.638 0z" clip-rule="evenodd"/>
    <path stroke="#000" stroke-linejoin="round" stroke-miterlimit="10" stroke-width="2" d="M671.228 41.597c-2.164 2.163-5.154 3.322-8.314 3.222-3.161-.1-6.231-1.452-8.537-3.758"/>
    <path fill="#EA80FC" fill-rule="evenodd" d="M609.873 68.5c1.456.106 2.481 2.755 2.289 5.917-.192 3.161-1.528 5.638-2.985 5.532-1.456-.106-2.481-2.756-2.289-5.917.192-3.162 1.528-5.639 2.985-5.533z" clip-rule="evenodd"/>
    <path fill="#EA80FC" fill-rule="evenodd" d="M610.227 71.203c.545-.528 1.897.01 3.019 1.203 1.122 1.192 1.59 2.587 1.045 3.115-.545.528-1.896-.01-3.018-1.203-1.123-1.192-1.59-2.587-1.046-3.115z" clip-rule="evenodd"/>
    <path stroke="#EA80FC" stroke-linejoin="round" stroke-miterlimit="10" stroke-width="4" d="M609.5 72.5c-1.397-5.528 1.5-18.748 6.649-22.672 0 0 4.262-2.96 6.209-4.828"/>
    <path fill="#EA80FC" fill-rule="evenodd" d="M684.828 78.207c-1.269-.722-1.056-3.554.476-6.326s3.803-4.434 5.072-3.712c1.269.721 1.056 3.554-.476 6.326s-3.802 4.434-5.072 3.712z" clip-rule="evenodd"/>
    <path fill="#EA80FC" fill-rule="evenodd" d="M682.855 72.776c-.482-.585.164-1.888 1.444-2.91 1.279-1.02 2.708-1.374 3.19-.787.482.586-.165 1.888-1.445 2.91-1.279 1.02-2.707 1.374-3.189.787z" clip-rule="evenodd"/>
    <path stroke="#EA80FC" stroke-linejoin="round" stroke-miterlimit="10" stroke-width="4" d="M689.5 71c-2 3 1.5-6.315 1.5-12.5 0-2.5-3.301-9.518-6-9.5"/>
    <path stroke="#D500F9" stroke-linecap="round" stroke-linejoin="round" stroke-width="4" d="M643.521 90l4.275 13.01-4.275 9.379 5.846 4.132"/>
    <path stroke="#D500F9" stroke-linecap="round" stroke-linejoin="round" stroke-width="4" d="M662.888 93.343l11.44 2.894-.08 15.692 8.163-1.169"/>
    <path fill="#EA80FC" fill-rule="evenodd" d="M557.256 15.785c13.299 13.307 12.988 35.185-.693 48.866a360.052 360.052 0 00-24.81 27.511 331.36 331.36 0 00-24.04-26.833c-13.298-13.307-12.988-35.186.693-48.867 13.681-13.68 35.552-13.984 48.85-.677z" clip-rule="evenodd"/>
    <path fill="#D500F9" fill-rule="evenodd" d="M550.944 70.872V83.66c0 7.062-8.264 12.787-18.457 12.787-10.193 0-18.457-5.725-18.457-12.787V70.872h36.914z" clip-rule="evenodd"/>
    <path fill="#000" fill-rule="evenodd" d="M523.554 35.263a4.728 4.728 0 119.456.001 4.728 4.728 0 01-9.456 0z" clip-rule="evenodd"/>
    <path fill="#fff" fill-rule="evenodd" d="M528.741 33.66a1.32 1.32 0 112.639 0 1.32 1.32 0 01-2.639 0z" clip-rule="evenodd"/>
    <path fill="#000" fill-rule="evenodd" d="M550.947 35.263a4.728 4.728 0 119.456.001 4.728 4.728 0 01-9.456 0z" clip-rule="evenodd"/>
    <path fill="#fff" fill-rule="evenodd" d="M556.134 33.66a1.32 1.32 0 112.639 0 1.32 1.32 0 01-2.639 0z" clip-rule="evenodd"/>
    <path stroke="#000" stroke-linejoin="round" stroke-miterlimit="10" stroke-width="2" d="M551.227 41.597c-2.164 2.163-5.154 3.322-8.314 3.222-3.161-.1-6.231-1.452-8.537-3.758"/>
    <path stroke="#D500F9" stroke-linecap="round" stroke-linejoin="round" stroke-width="4" d="M523.211 89.753l-5.001 12-15.5-5-2 7"/>
    <path stroke="#D500F9" stroke-linecap="round" stroke-linejoin="round" stroke-width="4" d="M539.711 89.753l9.5 7-6 14.5 8 2"/>
    <path fill="#EA80FC" fill-rule="evenodd" d="M570.828 71.96c-1.269-.722-1.056-3.554.476-6.326 1.532-2.773 3.803-4.435 5.072-3.713 1.269.722 1.056 3.554-.476 6.326s-3.802 4.434-5.072 3.713z" clip-rule="evenodd"/>
    <path fill="#EA80FC" fill-rule="evenodd" d="M568.855 68.529c-.482-.586.164-1.889 1.444-2.91 1.279-1.021 2.708-1.374 3.19-.788.482.586-.165 1.889-1.445 2.91-1.279 1.021-2.707 1.374-3.189.788z" clip-rule="evenodd"/>
    <path stroke="#EA80FC" stroke-linejoin="round" stroke-miterlimit="10" stroke-width="4" d="M575 65.252c-2 3 4.5-7-2-14-1.5-1.615-6.316-3.956-9.015-3.938"/>
    <path fill="#EA80FC" fill-rule="evenodd" d="M483.873 65.252c1.456.106 2.481 2.755 2.289 5.917-.192 3.162-1.528 5.639-2.985 5.532-1.456-.106-2.481-2.755-2.289-5.917.192-3.162 1.528-5.639 2.985-5.532z" clip-rule="evenodd"/>
    <path fill="#EA80FC" fill-rule="evenodd" d="M484.227 67.955c.545-.528 1.897.01 3.019 1.203 1.122 1.192 1.59 2.587 1.045 3.115-.545.529-1.896-.01-3.018-1.202-1.123-1.193-1.59-2.587-1.046-3.116z" clip-rule="evenodd"/>
    <path stroke="#EA80FC" stroke-linejoin="round" stroke-miterlimit="10" stroke-width="4" d="M484 67.752c-1.397-5.527 5-14 10.149-17.924 0 0 4.262-2.96 6.209-4.828"/>
    <path fill="#EA80FC" fill-rule="evenodd" d="M917.257 15.785c13.299 13.307 12.988 35.185-.693 48.866a360.052 360.052 0 00-24.81 27.511 331.36 331.36 0 00-24.04-26.833c-13.298-13.307-12.988-35.186.693-48.867 13.681-13.68 35.552-13.984 48.85-.677z" clip-rule="evenodd"/>
    <path fill="#D500F9" fill-rule="evenodd" d="M910.945 70.872V83.66c0 7.062-8.264 12.787-18.457 12.787-10.193 0-18.457-5.725-18.457-12.787V70.872h36.914z" clip-rule="evenodd"/>
    <path fill="#000" fill-rule="evenodd" d="M883.556 35.263a4.727 4.727 0 119.454 0 4.727 4.727 0 01-9.454 0z" clip-rule="evenodd"/>
    <path fill="#fff" fill-rule="evenodd" d="M888.742 33.66a1.32 1.32 0 112.64 0 1.32 1.32 0 01-2.64 0z" clip-rule="evenodd"/>
    <path fill="#000" fill-rule="evenodd" d="M910.948 35.263a4.728 4.728 0 119.456.001 4.728 4.728 0 01-9.456 0z" clip-rule="evenodd"/>
    <path fill="#fff" fill-rule="evenodd" d="M916.135 33.66a1.32 1.32 0 112.639 0 1.32 1.32 0 01-2.639 0z" clip-rule="evenodd"/>
    <path stroke="#000" stroke-linejoin="round" stroke-miterlimit="10" stroke-width="2" d="M911.228 41.597c-2.163 2.163-5.154 3.322-8.314 3.222-3.16-.1-6.231-1.452-8.536-3.758"/>
    <path fill="#EA80FC" fill-rule="evenodd" d="M849.873 68.5c1.456.106 2.481 2.755 2.289 5.917-.192 3.161-1.528 5.638-2.985 5.532-1.456-.106-2.481-2.756-2.289-5.917.192-3.162 1.528-5.639 2.985-5.533z" clip-rule="evenodd"/>
    <path fill="#EA80FC" fill-rule="evenodd" d="M850.227 71.203c.545-.528 1.897.01 3.019 1.203 1.122 1.192 1.59 2.587 1.045 3.115-.545.528-1.896-.01-3.018-1.203-1.123-1.192-1.59-2.587-1.046-3.115z" clip-rule="evenodd"/>
    <path stroke="#EA80FC" stroke-linejoin="round" stroke-miterlimit="10" stroke-width="4" d="M849.5 72.5c-1.397-5.528 1.5-18.748 6.649-22.672 0 0 4.262-2.96 6.209-4.828"/>
    <path fill="#EA80FC" fill-rule="evenodd" d="M924.828 78.207c-1.269-.722-1.056-3.554.476-6.326s3.803-4.434 5.072-3.712c1.269.721 1.056 3.554-.476 6.326s-3.802 4.434-5.072 3.712z" clip-rule="evenodd"/>
    <path fill="#EA80FC" fill-rule="evenodd" d="M922.855 72.776c-.482-.585.164-1.888 1.444-2.91 1.279-1.02 2.708-1.374 3.19-.787.482.586-.165 1.888-1.445 2.91-1.279 1.02-2.707 1.374-3.189.787z" clip-rule="evenodd"/>
    <path stroke="#EA80FC" stroke-linejoin="round" stroke-miterlimit="10" stroke-width="4" d="M929.5 71c-2 3 1.5-6.315 1.5-12.5 0-2.5-3.301-9.518-6-9.5"/>
    <path stroke="#D500F9" stroke-linecap="round" stroke-linejoin="round" stroke-width="4" d="M883.521 90l4.275 13.01-4.275 9.379 5.846 4.132"/>
    <path stroke="#D500F9" stroke-linecap="round" stroke-linejoin="round" stroke-width="4" d="M902.888 93.343l11.44 2.894-.08 15.692 8.163-1.169"/>
    <path fill="#EA80FC" fill-rule="evenodd" d="M797.257 15.785c13.298 13.307 12.988 35.185-.693 48.866a360.065 360.065 0 00-24.811 27.511 331.171 331.171 0 00-24.04-26.833c-13.298-13.307-12.988-35.186.693-48.867 13.681-13.68 35.552-13.984 48.851-.677z" clip-rule="evenodd"/>
    <path fill="#D500F9" fill-rule="evenodd" d="M790.944 70.872V83.66c0 7.062-8.263 12.787-18.457 12.787-10.193 0-18.456-5.725-18.456-12.787V70.872h36.913z" clip-rule="evenodd"/>
    <path fill="#000" fill-rule="evenodd" d="M763.555 35.263a4.727 4.727 0 119.454 0 4.727 4.727 0 01-9.454 0z" clip-rule="evenodd"/>
    <path fill="#fff" fill-rule="evenodd" d="M768.742 33.66a1.319 1.319 0 112.638 0 1.319 1.319 0 01-2.638 0z" clip-rule="evenodd"/>
    <path fill="#000" fill-rule="evenodd" d="M790.948 35.263a4.727 4.727 0 119.454 0 4.727 4.727 0 01-9.454 0z" clip-rule="evenodd"/>
    <path fill="#fff" fill-rule="evenodd" d="M796.134 33.66a1.32 1.32 0 112.64 0 1.32 1.32 0 01-2.64 0z" clip-rule="evenodd"/>
    <path stroke="#000" stroke-linejoin="round" stroke-miterlimit="10" stroke-width="2" d="M791.227 41.597c-2.163 2.163-5.154 3.322-8.314 3.222-3.16-.1-6.231-1.452-8.536-3.758"/>
    <path stroke="#D500F9" stroke-linecap="round" stroke-linejoin="round" stroke-width="4" d="M763.211 89.753l-5 12-15.5-5-2 7"/>
    <path stroke="#D500F9" stroke-linecap="round" stroke-linejoin="round" stroke-width="4" d="M779.711 89.753l9.5 7-6 14.5 8 2"/>
    <path fill="#EA80FC" fill-rule="evenodd" d="M798.828 80.96c-1.269-.722-1.056-3.554.476-6.326 1.532-2.773 3.803-4.435 5.072-3.713 1.269.722 1.056 3.554-.476 6.326s-3.802 4.434-5.072 3.713z" clip-rule="evenodd"/>
    <path fill="#EA80FC" fill-rule="evenodd" d="M797.786 74.284c-.444-.616.283-1.875 1.624-2.814 1.341-.94 2.788-1.202 3.233-.587.444.615-.283 1.875-1.624 2.814-1.341.939-2.788 1.202-3.233.587z" clip-rule="evenodd"/>
    <path stroke="#EA80FC" stroke-linejoin="round" stroke-miterlimit="10" stroke-width="4" d="M802.5 75.252c2.5-3 11.51-16.5 7.5-20.5 0 0-3.316-5.456-6.015-5.438"/>
    <path fill="#EA80FC" fill-rule="evenodd" d="M736.137 67.246c1.418-.348 3.211 1.855 4.005 4.921.794 3.067.288 5.835-1.13 6.184-1.418.348-3.211-1.855-4.005-4.921-.794-3.067-.288-5.835 1.13-6.184z" clip-rule="evenodd"/>
    <path fill="#EA80FC" fill-rule="evenodd" d="M738.582 70.117c.545-.528 1.896.01 3.018 1.203 1.122 1.192 1.59 2.587 1.045 3.115-.545.528-1.896-.01-3.018-1.203-1.122-1.192-1.59-2.587-1.045-3.115z" clip-rule="evenodd"/>
    <path stroke="#EA80FC" stroke-linejoin="round" stroke-miterlimit="10" stroke-width="4" d="M736.774 69.103c-1.397-5.528-5.854-12.655-2.625-17.275 1.63-2.332 4.262-2.96 6.209-4.828"/>
    <path fill="#EA80FC" fill-rule="evenodd" d="M437.256 15.785c13.299 13.307 12.988 35.185-.693 48.866a360.052 360.052 0 00-24.81 27.511 331.36 331.36 0 00-24.04-26.833c-13.298-13.307-12.988-35.186.693-48.867 13.681-13.68 35.552-13.984 48.85-.677z" clip-rule="evenodd"/>
    <path fill="#D500F9" fill-rule="evenodd" d="M430.944 70.872V83.66c0 7.062-8.264 12.787-18.457 12.787-10.193 0-18.457-5.725-18.457-12.787V70.872h36.914z" clip-rule="evenodd"/>
    <path fill="#000" fill-rule="evenodd" d="M403.555 35.263a4.727 4.727 0 119.454 0 4.727 4.727 0 01-9.454 0z" clip-rule="evenodd"/>
    <path fill="#fff" fill-rule="evenodd" d="M408.741 33.66a1.32 1.32 0 112.639 0 1.32 1.32 0 01-2.639 0z" clip-rule="evenodd"/>
    <path fill="#000" fill-rule="evenodd" d="M430.947 35.263a4.728 4.728 0 119.456.001 4.728 4.728 0 01-9.456 0z" clip-rule="evenodd"/>
    <path fill="#fff" fill-rule="evenodd" d="M436.134 33.66a1.32 1.32 0 112.639 0 1.32 1.32 0 01-2.639 0z" clip-rule="evenodd"/>
    <path stroke="#000" stroke-linejoin="round" stroke-miterlimit="10" stroke-width="2" d="M431.227 41.597c-2.164 2.163-5.154 3.322-8.314 3.222-3.16-.1-6.231-1.452-8.536-3.758"/>
    <path fill="#EA80FC" fill-rule="evenodd" d="M369.873 68.5c1.456.106 2.481 2.755 2.289 5.917-.192 3.161-1.528 5.638-2.985 5.532-1.456-.106-2.481-2.756-2.289-5.917.192-3.162 1.528-5.639 2.985-5.533z" clip-rule="evenodd"/>
    <path fill="#EA80FC" fill-rule="evenodd" d="M370.227 71.203c.545-.528 1.897.01 3.019 1.203 1.122 1.192 1.59 2.587 1.045 3.115-.545.528-1.896-.01-3.018-1.203-1.123-1.192-1.59-2.587-1.046-3.115z" clip-rule="evenodd"/>
    <path stroke="#EA80FC" stroke-linejoin="round" stroke-miterlimit="10" stroke-width="4" d="M369.5 72.5c-1.397-5.528 1.5-18.748 6.649-22.672 0 0 4.262-2.96 6.209-4.828"/>
    <path fill="#EA80FC" fill-rule="evenodd" d="M444.828 78.207c-1.269-.722-1.056-3.554.476-6.326s3.803-4.434 5.072-3.712c1.269.721 1.056 3.554-.476 6.326s-3.802 4.434-5.072 3.712z" clip-rule="evenodd"/>
    <path fill="#EA80FC" fill-rule="evenodd" d="M442.855 72.776c-.482-.585.164-1.888 1.444-2.91 1.279-1.02 2.708-1.374 3.19-.787.482.586-.165 1.888-1.445 2.91-1.279 1.02-2.707 1.374-3.189.787z" clip-rule="evenodd"/>
    <path stroke="#EA80FC" stroke-linejoin="round" stroke-miterlimit="10" stroke-width="4" d="M449.5 71c-2 3 1.5-6.315 1.5-12.5 0-2.5-3.301-9.518-6-9.5"/>
    <path stroke="#D500F9" stroke-linecap="round" stroke-linejoin="round" stroke-width="4" d="M401.521 90l4.275 13.01-4.275 9.379 5.846 4.132"/>
    <path stroke="#D500F9" stroke-linecap="round" stroke-linejoin="round" stroke-width="4" d="M420.888 93.343l11.44 2.894-.08 15.692 8.163-1.169"/>
    <path fill="#EA80FC" fill-rule="evenodd" d="M317.257 15.785c13.298 13.307 12.988 35.185-.693 48.866a360.275 360.275 0 00-24.811 27.511 331.171 331.171 0 00-24.04-26.833c-13.298-13.307-12.988-35.186.693-48.867 13.681-13.68 35.552-13.984 48.851-.677z" clip-rule="evenodd"/>
    <path fill="#D500F9" fill-rule="evenodd" d="M310.944 70.872V83.66c0 7.062-8.263 12.787-18.457 12.787-10.193 0-18.456-5.725-18.456-12.787V70.872h36.913z" clip-rule="evenodd"/>
    <path fill="#EA80FC" fill-rule="evenodd" d="M318.828 79.207c-1.269-.722-1.056-3.554.476-6.326s3.803-4.434 5.072-3.712c1.269.721 1.056 3.554-.476 6.326s-3.802 4.434-5.072 3.712z" clip-rule="evenodd"/>
    <path fill="#EA80FC" fill-rule="evenodd" d="M317.786 72.531c-.444-.615.283-1.875 1.624-2.814 1.341-.939 2.788-1.201 3.233-.586.444.615-.283 1.874-1.624 2.814-1.341.939-2.788 1.201-3.233.586z" clip-rule="evenodd"/>
    <path stroke="#EA80FC" stroke-linejoin="round" stroke-miterlimit="10" stroke-width="4" d="M322.5 73.5c2.5-3 11.51-16.5 7.5-20.5 0 0-3.316-5.456-6.015-5.438"/>
    <path fill="#EA80FC" fill-rule="evenodd" d="M256.137 65.494c1.418-.349 3.211 1.854 4.005 4.92.794 3.067.288 5.835-1.13 6.184-1.418.349-3.211-1.855-4.005-4.92-.794-3.067-.288-5.836 1.13-6.184z" clip-rule="evenodd"/>
    <path fill="#EA80FC" fill-rule="evenodd" d="M258.582 68.365c.545-.529 1.896.01 3.018 1.202 1.122 1.193 1.59 2.587 1.045 3.116-.545.528-1.896-.01-3.018-1.203-1.122-1.192-1.59-2.587-1.045-3.115z" clip-rule="evenodd"/>
    <path stroke="#EA80FC" stroke-linejoin="round" stroke-miterlimit="10" stroke-width="4" d="M256.774 67.35c-1.397-5.527-5.854-12.655-2.625-17.274 1.63-2.332 4.262-2.96 6.209-4.828"/>
    <path fill="#000" fill-rule="evenodd" d="M283.555 35.263a4.727 4.727 0 119.454 0 4.727 4.727 0 01-9.454 0z" clip-rule="evenodd"/>
    <path fill="#fff" fill-rule="evenodd" d="M288.742 33.66a1.319 1.319 0 112.638 0 1.319 1.319 0 01-2.638 0z" clip-rule="evenodd"/>
    <path fill="#000" fill-rule="evenodd" d="M310.948 35.263a4.727 4.727 0 119.454 0 4.727 4.727 0 01-9.454 0z" clip-rule="evenodd"/>
    <path fill="#fff" fill-rule="evenodd" d="M316.134 33.66a1.32 1.32 0 112.64 0 1.32 1.32 0 01-2.64 0z" clip-rule="evenodd"/>
    <path stroke="#000" stroke-linejoin="round" stroke-miterlimit="10" stroke-width="2" d="M311.227 41.597c-2.163 2.163-5.154 3.322-8.314 3.222-3.16-.1-6.231-1.452-8.536-3.758"/>
    <path stroke="#D500F9" stroke-linecap="round" stroke-linejoin="round" stroke-width="4" d="M283.211 89.753l-5 12-15.5-5-2 7"/>
    <path stroke="#D500F9" stroke-linecap="round" stroke-linejoin="round" stroke-width="4" d="M299.711 89.753l9.5 7-6 14.5 8 2"/>
    <path fill="#EA80FC" fill-rule="evenodd" d="M197.257 15.785c13.298 13.307 12.988 35.185-.693 48.866a360.275 360.275 0 00-24.811 27.511 331.171 331.171 0 00-24.04-26.833c-13.298-13.307-12.988-35.186.693-48.867 13.681-13.68 35.552-13.984 48.851-.677z" clip-rule="evenodd"/>
    <path fill="#D500F9" fill-rule="evenodd" d="M190.944 70.872V83.66c0 7.062-8.263 12.787-18.457 12.787-10.193 0-18.456-5.725-18.456-12.787V70.872h36.913z" clip-rule="evenodd"/>
    <path fill="#000" fill-rule="evenodd" d="M163.555 35.263a4.727 4.727 0 119.454 0 4.727 4.727 0 01-9.454 0z" clip-rule="evenodd"/>
    <path fill="#fff" fill-rule="evenodd" d="M168.742 33.66a1.319 1.319 0 112.638 0 1.319 1.319 0 01-2.638 0z" clip-rule="evenodd"/>
    <path fill="#000" fill-rule="evenodd" d="M190.948 35.263a4.727 4.727 0 119.454 0 4.727 4.727 0 01-9.454 0z" clip-rule="evenodd"/>
    <path fill="#fff" fill-rule="evenodd" d="M196.134 33.66a1.32 1.32 0 112.64 0 1.32 1.32 0 01-2.64 0z" clip-rule="evenodd"/>
    <path stroke="#000" stroke-linejoin="round" stroke-miterlimit="10" stroke-width="2" d="M191.227 41.597c-2.163 2.163-5.154 3.322-8.314 3.222-3.16-.1-6.231-1.452-8.536-3.758"/>
    <path stroke="#D500F9" stroke-linecap="round" stroke-linejoin="round" stroke-width="4" d="M162.989 90l4.276 13.01-4.276 9.379 5.847 4.132"/>
    <path stroke="#D500F9" stroke-linecap="round" stroke-linejoin="round" stroke-width="4" d="M182 93.343l11.44 2.894-.08 15.692 8.163-1.169"/>
    <path fill="#EA80FC" fill-rule="evenodd" d="M128.873 68.5c1.456.106 2.481 2.755 2.289 5.917-.192 3.161-1.528 5.638-2.985 5.532-1.456-.106-2.481-2.756-2.289-5.917.192-3.162 1.528-5.639 2.985-5.533z" clip-rule="evenodd"/>
    <path fill="#EA80FC" fill-rule="evenodd" d="M129.227 71.203c.545-.528 1.897.01 3.019 1.203 1.122 1.192 1.59 2.587 1.045 3.115-.545.528-1.896-.01-3.018-1.203-1.123-1.192-1.59-2.587-1.046-3.115z" clip-rule="evenodd"/>
    <path stroke="#EA80FC" stroke-linejoin="round" stroke-miterlimit="10" stroke-width="4" d="M128.5 72.5c-1.397-5.528 1.5-18.748 6.649-22.672 0 0 4.262-2.96 6.209-4.828"/>
    <path fill="#EA80FC" fill-rule="evenodd" d="M203.828 78.207c-1.269-.722-1.056-3.554.476-6.326s3.803-4.434 5.072-3.712c1.269.721 1.056 3.554-.476 6.326s-3.802 4.434-5.072 3.712z" clip-rule="evenodd"/>
    <path fill="#EA80FC" fill-rule="evenodd" d="M201.855 72.776c-.482-.585.164-1.888 1.444-2.91 1.279-1.02 2.708-1.374 3.19-.787.482.586-.165 1.888-1.445 2.91-1.279 1.02-2.707 1.374-3.189.787z" clip-rule="evenodd"/>
    <path stroke="#EA80FC" stroke-linejoin="round" stroke-miterlimit="10" stroke-width="4" d="M208.5 71c-2 3 1.5-6.315 1.5-12.5 0-2.5-3.301-9.518-6-9.5"/>
    <path fill="#EA80FC" fill-rule="evenodd" d="M77.257 15.785c13.298 13.307 12.988 35.185-.693 48.866a360.1 360.1 0 00-24.81 27.511 331.245 331.245 0 00-24.04-26.833c-13.3-13.307-12.989-35.186.692-48.867 13.681-13.68 35.552-13.984 48.85-.677z" clip-rule="evenodd"/>
    <path fill="#D500F9" fill-rule="evenodd" d="M70.944 70.872V83.66c0 7.062-8.263 12.787-18.457 12.787-10.193 0-18.456-5.725-18.456-12.787V70.872h36.913z" clip-rule="evenodd"/>
    <path fill="#EA80FC" fill-rule="evenodd" d="M90.828 72.207c-1.269-.722-1.056-3.554.476-6.326s3.803-4.434 5.072-3.712c1.269.721 1.056 3.554-.476 6.326s-3.802 4.434-5.072 3.712z" clip-rule="evenodd"/>
    <path fill="#EA80FC" fill-rule="evenodd" d="M88.855 68.776c-.483-.585.164-1.888 1.444-2.91 1.28-1.02 2.708-1.374 3.19-.787.482.586-.165 1.888-1.445 2.91-1.28 1.02-2.707 1.374-3.19.787z" clip-rule="evenodd"/>
    <path stroke="#EA80FC" stroke-linejoin="round" stroke-miterlimit="10" stroke-width="4" d="M95 65.5c-2 3 4.5-7-2-14-1.5-1.615-6.316-3.956-9.015-3.938"/>
    <path fill="#EA80FC" fill-rule="evenodd" d="M3.873 65.5c1.456.106 2.48 2.755 2.289 5.917-.192 3.161-1.528 5.638-2.984 5.532-1.457-.106-2.482-2.756-2.29-5.917.192-3.162 1.528-5.639 2.985-5.533z" clip-rule="evenodd"/>
    <path fill="#EA80FC" fill-rule="evenodd" d="M4.227 68.203c.545-.528 1.897.01 3.019 1.203 1.122 1.192 1.59 2.587 1.045 3.115-.545.528-1.896-.01-3.018-1.203-1.123-1.192-1.59-2.587-1.046-3.115z" clip-rule="evenodd"/>
    <path stroke="#EA80FC" stroke-linejoin="round" stroke-miterlimit="10" stroke-width="4" d="M4 68c-1.397-5.528 5-14 10.149-17.924 0 0 4.262-2.96 6.209-4.828"/>
    <path fill="#000" fill-rule="evenodd" d="M43.555 35.263a4.727 4.727 0 119.455 0 4.727 4.727 0 01-9.455 0z" clip-rule="evenodd"/>
    <path fill="#fff" fill-rule="evenodd" d="M48.742 33.66a1.32 1.32 0 112.638 0 1.32 1.32 0 01-2.638 0z" clip-rule="evenodd"/>
    <path fill="#000" fill-rule="evenodd" d="M70.948 35.263a4.727 4.727 0 119.454 0 4.727 4.727 0 01-9.454 0z" clip-rule="evenodd"/>
    <path fill="#fff" fill-rule="evenodd" d="M76.134 33.66a1.32 1.32 0 112.639 0 1.32 1.32 0 01-2.639 0z" clip-rule="evenodd"/>
    <path stroke="#000" stroke-linejoin="round" stroke-miterlimit="10" stroke-width="2" d="M71.227 41.597c-2.163 2.163-5.154 3.322-8.314 3.222-3.16-.1-6.23-1.452-8.536-3.758"/>
    <path stroke="#D500F9" stroke-linecap="round" stroke-linejoin="round" stroke-width="4" d="M43.21 89.753l-5 12-15.5-5-2 7"/>
    <path stroke="#D500F9" stroke-linecap="round" stroke-linejoin="round" stroke-width="4" d="M59.71 89.753l9.5 7-6 14.5 8 2"/>
  </g>
  <defs>
    <clipPath id="clip0">
      <path fill="#fff" d="M0 0h960v120H0z"/>
    </clipPath>
  </defs>
</svg>
