<svg width="120" height="120" viewBox="0 0 120 120" fill="none" xmlns="http://www.w3.org/2000/svg">
<path fill-rule="evenodd" clip-rule="evenodd" d="M82.7995 11.7853C96.3692 25.0923 96.0526 46.9704 82.0924 60.6514C73.1944 69.3714 64.7555 78.5416 56.7756 88.162C49.071 78.7547 40.8942 69.8102 32.2451 61.3286C18.6753 48.0216 18.9919 26.1434 32.9521 12.4624C46.9123 -1.21858 69.2297 -1.52175 82.7995 11.7853Z" fill="#EA80FC"/>
<path fill-rule="evenodd" clip-rule="evenodd" d="M36.9053 31.2635C36.9053 28.6527 39.065 26.5362 41.7291 26.5362C43.0084 26.5362 44.2354 27.0342 45.14 27.9208C46.0447 28.8073 46.5529 30.0097 46.5529 31.2635C46.5529 33.8743 44.3932 35.9908 41.7291 35.9908C39.065 35.9908 36.9053 33.8743 36.9053 31.2635Z" fill="black"/>
<path fill-rule="evenodd" clip-rule="evenodd" d="M39.5273 28.8905C39.5273 28.1619 40.13 27.5712 40.8735 27.5712C41.2305 27.5712 41.5729 27.7102 41.8254 27.9576C42.0778 28.205 42.2197 28.5406 42.2197 28.8905C42.2197 29.6191 41.617 30.2097 40.8735 30.2097C40.13 30.2097 39.5273 29.6191 39.5273 28.8905Z" fill="white"/>
<path fill-rule="evenodd" clip-rule="evenodd" d="M69.2445 31.2635C69.2445 28.6527 71.4042 26.5362 74.0683 26.5362C75.3476 26.5362 76.5746 27.0342 77.4792 27.9208C78.3838 28.8073 78.892 30.0097 78.892 31.2635C78.892 33.8743 76.7324 35.9908 74.0683 35.9908C71.4042 35.9908 69.2445 33.8743 69.2445 31.2635Z" fill="black"/>
<path fill-rule="evenodd" clip-rule="evenodd" d="M71.8665 28.8905C71.8665 28.1619 72.4692 27.5712 73.2127 27.5712C73.5697 27.5712 73.9121 27.7102 74.1646 27.9576C74.417 28.205 74.5588 28.5406 74.5588 28.8905C74.5588 29.6191 73.9561 30.2097 73.2127 30.2097C72.4692 30.2097 71.8665 29.6191 71.8665 28.8905Z" fill="white"/>
<path fill-rule="evenodd" clip-rule="evenodd" d="M66.7465 36.6746V41.4935C66.7465 44.1549 63.1564 46.3124 58.7279 46.3124C54.2993 46.3124 50.7092 44.1549 50.7092 41.4935V36.6746H66.7465Z" stroke="black" stroke-width="2" stroke-miterlimit="10" stroke-linejoin="round"/>
<path fill-rule="evenodd" clip-rule="evenodd" d="M76.3582 66.8724V79.6598C76.3582 86.7221 67.9262 92.4472 57.5248 92.4472C47.1235 92.4472 38.6915 86.7221 38.6915 79.6598V66.8724H76.3582Z" fill="#D500F9"/>
<path fill-rule="evenodd" clip-rule="evenodd" d="M100.868 29.3054C99.392 29.1074 98.5184 26.3985 98.9173 23.2547C99.3161 20.1109 100.836 17.7228 102.313 17.9208C103.789 18.1187 104.663 20.8277 104.264 23.9714C103.865 27.1152 102.345 29.5033 100.868 29.3054Z" fill="#EA80FC"/>
<path fill-rule="evenodd" clip-rule="evenodd" d="M99.6274 25.7356C98.9119 26.0262 97.832 25.0279 97.2153 23.5059C96.5986 21.9839 96.6786 20.5145 97.3941 20.224C98.1096 19.9334 99.1896 20.9317 99.8063 22.4537C100.423 23.9757 100.343 25.4451 99.6274 25.7356Z" fill="#EA80FC"/>
<path d="M100.966 27.3038C100.216 32.9578 101.769 41.2246 96.9721 44.3326C94.55 45.9018 91.817 45.5177 89.2684 46.5385" stroke="#EA80FC" stroke-width="4" stroke-miterlimit="10" stroke-linejoin="round"/>
<path fill-rule="evenodd" clip-rule="evenodd" d="M14.4921 29.3054C15.9686 29.1074 16.8421 26.3985 16.4433 23.2547C16.0444 20.1109 14.5242 17.7228 13.0477 17.9208C11.5712 18.1187 10.6977 20.8277 11.0965 23.9714C11.4954 27.1152 13.0156 29.5033 14.4921 29.3054Z" fill="#EA80FC"/>
<path fill-rule="evenodd" clip-rule="evenodd" d="M15.7331 25.7356C16.4486 26.0262 17.5285 25.0279 18.1452 23.5059C18.762 21.9839 18.6819 20.5145 17.9664 20.224C17.2509 19.9334 16.1709 20.9317 15.5542 22.4537C14.9375 23.9757 15.0176 25.4451 15.7331 25.7356Z" fill="#EA80FC"/>
<path d="M14.3941 27.3038C15.1441 32.9578 13.5912 41.2246 18.3885 44.3326C20.8106 45.9018 23.5435 45.5177 26.0922 46.5385" stroke="#EA80FC" stroke-width="4" stroke-miterlimit="10" stroke-linejoin="round"/>
<path d="M48.685 88.6774L50.185 114.677L43.685 117.677" stroke="#D500F9" stroke-width="4"/>
<path d="M65.185 88.6774L63.685 114.677L70.185 117.677" stroke="#D500F9" stroke-width="4"/>
</svg>
