<svg width="960" height="120" viewBox="0 0 960 120" fill="none" xmlns="http://www.w3.org/2000/svg">
<g clip-path="url(#clip0)">
<path fill-rule="evenodd" clip-rule="evenodd" d="M677.257 15.7853C690.555 29.0923 690.245 50.9704 676.564 64.6514C667.844 73.3714 659.574 82.5416 651.754 92.162C644.203 82.7547 636.19 73.8102 627.714 65.3286C614.415 52.0216 614.726 30.1434 628.407 16.4624C642.088 2.78142 663.959 2.47825 677.257 15.7853Z" fill="#EA80FC"/>
<path fill-rule="evenodd" clip-rule="evenodd" d="M670.945 70.8723V83.6597C670.945 90.722 662.681 96.4471 652.488 96.4471C642.294 96.4471 634.031 90.722 634.031 83.6597V70.8723H670.945Z" fill="#D500F9"/>
<path fill-rule="evenodd" clip-rule="evenodd" d="M643.555 35.2634C643.555 32.6526 645.672 30.5361 648.283 30.5361C649.536 30.5361 650.739 31.0342 651.625 31.9207C652.512 32.8073 653.01 34.0097 653.01 35.2634C653.01 37.8742 650.893 39.9907 648.283 39.9907C645.672 39.9907 643.555 37.8742 643.555 35.2634Z" fill="black"/>
<path fill-rule="evenodd" clip-rule="evenodd" d="M648.742 33.66C648.742 32.9314 649.333 32.3407 650.061 32.3407C650.411 32.3407 650.747 32.4797 650.994 32.7271C651.241 32.9745 651.38 33.3101 651.38 33.66C651.38 34.3886 650.79 34.9792 650.061 34.9792C649.333 34.9792 648.742 34.3886 648.742 33.66Z" fill="white"/>
<path fill-rule="evenodd" clip-rule="evenodd" d="M670.948 35.2634C670.948 32.6526 673.064 30.5361 675.675 30.5361C676.929 30.5361 678.131 31.0342 679.018 31.9207C679.904 32.8073 680.403 34.0097 680.403 35.2634C680.403 37.8742 678.286 39.9907 675.675 39.9907C673.064 39.9907 670.948 37.8742 670.948 35.2634Z" fill="black"/>
<path fill-rule="evenodd" clip-rule="evenodd" d="M676.135 33.66C676.135 32.9314 676.725 32.3407 677.454 32.3407C677.804 32.3407 678.139 32.4797 678.387 32.7271C678.634 32.9745 678.773 33.3101 678.773 33.66C678.773 34.3886 678.183 34.9792 677.454 34.9792C676.725 34.9792 676.135 34.3886 676.135 33.66Z" fill="white"/>
<path d="M671.228 41.5969C669.064 43.7604 666.074 44.9194 662.914 44.819C659.753 44.7186 656.683 43.367 654.377 41.0615" stroke="black" stroke-width="2" stroke-miterlimit="10" stroke-linejoin="round"/>
<path fill-rule="evenodd" clip-rule="evenodd" d="M609.873 68.4994C611.329 68.6057 612.354 71.255 612.162 74.4166C611.97 77.5783 610.634 80.0551 609.177 79.9488C607.721 79.8425 606.696 77.1932 606.888 74.0316C607.08 70.8699 608.416 68.3931 609.873 68.4994Z" fill="#EA80FC"/>
<path fill-rule="evenodd" clip-rule="evenodd" d="M610.227 71.2029C610.772 70.6747 612.124 71.2132 613.246 72.4056C614.368 73.598 614.836 74.9928 614.291 75.521C613.746 76.0492 612.395 75.5108 611.273 74.3184C610.15 73.126 609.683 71.7312 610.227 71.2029Z" fill="#EA80FC"/>
<path d="M609.5 72.5C608.103 66.9721 611 53.7524 616.149 49.8284C616.149 49.8284 620.411 46.868 622.358 45" stroke="#EA80FC" stroke-width="4" stroke-miterlimit="10" stroke-linejoin="round"/>
<path fill-rule="evenodd" clip-rule="evenodd" d="M684.828 78.2072C683.559 77.4854 683.772 74.6531 685.304 71.881C686.836 69.109 689.107 67.4468 690.376 68.1686C691.645 68.8904 691.432 71.7227 689.9 74.4948C688.368 77.2669 686.098 78.929 684.828 78.2072Z" fill="#EA80FC"/>
<path fill-rule="evenodd" clip-rule="evenodd" d="M682.855 72.7765C682.373 72.1905 683.019 70.8876 684.299 69.8664C685.578 68.8452 687.007 68.4924 687.489 69.0785C687.971 69.6645 687.324 70.9674 686.044 71.9886C684.765 73.0098 683.337 73.3626 682.855 72.7765Z" fill="#EA80FC"/>
<path d="M689.5 71C687.5 74 691 64.6847 691 58.5C691 56 687.699 48.9819 685 49" stroke="#EA80FC" stroke-width="4" stroke-miterlimit="10" stroke-linejoin="round"/>
<path d="M643.521 90L647.796 103.01L643.521 112.389L649.367 116.521" stroke="#D500F9" stroke-width="4" stroke-linecap="round" stroke-linejoin="round"/>
<path d="M662.888 93.343L674.328 96.237L674.248 111.929L682.411 110.76" stroke="#D500F9" stroke-width="4" stroke-linecap="round" stroke-linejoin="round"/>
<path fill-rule="evenodd" clip-rule="evenodd" d="M557.256 15.7853C570.555 29.0923 570.244 50.9704 556.563 64.6514C547.843 73.3714 539.573 82.5416 531.753 92.162C524.202 82.7547 516.189 73.8102 507.713 65.3286C494.415 52.0216 494.725 30.1434 508.406 16.4624C522.087 2.78142 543.958 2.47825 557.256 15.7853Z" fill="#EA80FC"/>
<path fill-rule="evenodd" clip-rule="evenodd" d="M550.944 70.8723V83.6597C550.944 90.722 542.68 96.4471 532.487 96.4471C522.294 96.4471 514.03 90.722 514.03 83.6597V70.8723H550.944Z" fill="#D500F9"/>
<path fill-rule="evenodd" clip-rule="evenodd" d="M523.554 35.2634C523.554 32.6526 525.671 30.5361 528.282 30.5361C529.536 30.5361 530.738 31.0342 531.624 31.9207C532.511 32.8073 533.009 34.0097 533.009 35.2634C533.009 37.8742 530.893 39.9907 528.282 39.9907C525.671 39.9907 523.554 37.8742 523.554 35.2634Z" fill="black"/>
<path fill-rule="evenodd" clip-rule="evenodd" d="M528.741 33.66C528.741 32.9314 529.332 32.3407 530.06 32.3407C530.41 32.3407 530.746 32.4797 530.993 32.7271C531.241 32.9745 531.38 33.3101 531.38 33.66C531.38 34.3886 530.789 34.9792 530.06 34.9792C529.332 34.9792 528.741 34.3886 528.741 33.66Z" fill="white"/>
<path fill-rule="evenodd" clip-rule="evenodd" d="M550.947 35.2634C550.947 32.6526 553.064 30.5361 555.675 30.5361C556.928 30.5361 558.131 31.0342 559.017 31.9207C559.904 32.8073 560.402 34.0097 560.402 35.2634C560.402 37.8742 558.285 39.9907 555.675 39.9907C553.064 39.9907 550.947 37.8742 550.947 35.2634Z" fill="black"/>
<path fill-rule="evenodd" clip-rule="evenodd" d="M556.134 33.66C556.134 32.9314 556.725 32.3407 557.453 32.3407C557.803 32.3407 558.139 32.4797 558.386 32.7271C558.633 32.9745 558.772 33.3101 558.772 33.66C558.772 34.3886 558.182 34.9792 557.453 34.9792C556.725 34.9792 556.134 34.3886 556.134 33.66Z" fill="white"/>
<path d="M551.227 41.5969C549.063 43.7604 546.073 44.9194 542.913 44.819C539.752 44.7186 536.682 43.367 534.376 41.0615" stroke="black" stroke-width="2" stroke-miterlimit="10" stroke-linejoin="round"/>
<path d="M523.211 89.7529L518.21 101.753L502.71 96.7529L500.71 103.753" stroke="#D500F9" stroke-width="4" stroke-linecap="round" stroke-linejoin="round"/>
<path d="M539.711 89.7529L549.211 96.7529L543.211 111.253L551.211 113.253" stroke="#D500F9" stroke-width="4" stroke-linecap="round" stroke-linejoin="round"/>
<path fill-rule="evenodd" clip-rule="evenodd" d="M570.828 71.9597C569.559 71.2379 569.772 68.4056 571.304 65.6335C572.836 62.8614 575.107 61.1993 576.376 61.9211C577.645 62.6428 577.432 65.4751 575.9 68.2472C574.368 71.0193 572.098 72.6814 570.828 71.9597Z" fill="#EA80FC"/>
<path fill-rule="evenodd" clip-rule="evenodd" d="M568.855 68.529C568.373 67.943 569.019 66.64 570.299 65.6189C571.578 64.5977 573.007 64.2449 573.489 64.8309C573.971 65.4169 573.324 66.7198 572.044 67.741C570.765 68.7622 569.337 69.115 568.855 68.529Z" fill="#EA80FC"/>
<path d="M575 65.2524C573 68.2524 579.5 58.2524 573 51.2524C571.5 49.6371 566.684 47.2962 563.985 47.3143" stroke="#EA80FC" stroke-width="4" stroke-miterlimit="10" stroke-linejoin="round"/>
<path fill-rule="evenodd" clip-rule="evenodd" d="M483.873 65.2519C485.329 65.3582 486.354 68.0074 486.162 71.1691C485.97 74.3307 484.634 76.8076 483.177 76.7012C481.721 76.5949 480.696 73.9457 480.888 70.784C481.08 67.6224 482.416 65.1455 483.873 65.2519Z" fill="#EA80FC"/>
<path fill-rule="evenodd" clip-rule="evenodd" d="M484.227 67.9554C484.772 67.4272 486.124 67.9656 487.246 69.158C488.368 70.3504 488.836 71.7452 488.291 72.2734C487.746 72.8017 486.395 72.2632 485.273 71.0708C484.15 69.8784 483.683 68.4836 484.227 67.9554Z" fill="#EA80FC"/>
<path d="M484 67.7524C482.603 62.2245 489 53.7524 494.149 49.8284C494.149 49.8284 498.411 46.868 500.358 45" stroke="#EA80FC" stroke-width="4" stroke-miterlimit="10" stroke-linejoin="round"/>
<path fill-rule="evenodd" clip-rule="evenodd" d="M917.257 15.7853C930.556 29.0923 930.245 50.9704 916.564 64.6514C907.844 73.3714 899.574 82.5416 891.754 92.162C884.203 82.7547 876.19 73.8102 867.714 65.3286C854.416 52.0216 854.726 30.1434 868.407 16.4624C882.088 2.78142 903.959 2.47825 917.257 15.7853Z" fill="#EA80FC"/>
<path fill-rule="evenodd" clip-rule="evenodd" d="M910.945 70.8723V83.6597C910.945 90.722 902.681 96.4471 892.488 96.4471C882.295 96.4471 874.031 90.722 874.031 83.6597V70.8723H910.945Z" fill="#D500F9"/>
<path fill-rule="evenodd" clip-rule="evenodd" d="M883.556 35.2634C883.556 32.6526 885.672 30.5361 888.283 30.5361C889.537 30.5361 890.739 31.0342 891.626 31.9207C892.512 32.8073 893.01 34.0097 893.01 35.2634C893.01 37.8742 890.894 39.9907 888.283 39.9907C885.672 39.9907 883.556 37.8742 883.556 35.2634Z" fill="black"/>
<path fill-rule="evenodd" clip-rule="evenodd" d="M888.742 33.66C888.742 32.9314 889.333 32.3407 890.062 32.3407C890.412 32.3407 890.747 32.4797 890.995 32.7271C891.242 32.9745 891.381 33.3101 891.381 33.66C891.381 34.3886 890.79 34.9792 890.062 34.9792C889.333 34.9792 888.742 34.3886 888.742 33.66Z" fill="white"/>
<path fill-rule="evenodd" clip-rule="evenodd" d="M910.948 35.2634C910.948 32.6526 913.065 30.5361 915.676 30.5361C916.929 30.5361 918.132 31.0342 919.018 31.9207C919.905 32.8073 920.403 34.0097 920.403 35.2634C920.403 37.8742 918.287 39.9907 915.676 39.9907C913.065 39.9907 910.948 37.8742 910.948 35.2634Z" fill="black"/>
<path fill-rule="evenodd" clip-rule="evenodd" d="M916.135 33.66C916.135 32.9314 916.726 32.3407 917.454 32.3407C917.804 32.3407 918.14 32.4797 918.387 32.7271C918.634 32.9745 918.773 33.3101 918.773 33.66C918.773 34.3886 918.183 34.9792 917.454 34.9792C916.726 34.9792 916.135 34.3886 916.135 33.66Z" fill="white"/>
<path d="M911.228 41.5969C909.065 43.7604 906.074 44.9194 902.914 44.819C899.754 44.7186 896.683 43.367 894.378 41.0615" stroke="black" stroke-width="2" stroke-miterlimit="10" stroke-linejoin="round"/>
<path fill-rule="evenodd" clip-rule="evenodd" d="M849.873 68.4994C851.329 68.6057 852.354 71.255 852.162 74.4166C851.97 77.5783 850.634 80.0551 849.177 79.9488C847.721 79.8425 846.696 77.1932 846.888 74.0316C847.08 70.8699 848.416 68.3931 849.873 68.4994Z" fill="#EA80FC"/>
<path fill-rule="evenodd" clip-rule="evenodd" d="M850.227 71.2029C850.772 70.6747 852.124 71.2132 853.246 72.4056C854.368 73.598 854.836 74.9928 854.291 75.521C853.746 76.0492 852.395 75.5108 851.273 74.3184C850.15 73.126 849.683 71.7312 850.227 71.2029Z" fill="#EA80FC"/>
<path d="M849.5 72.5C848.103 66.9721 851 53.7524 856.149 49.8284C856.149 49.8284 860.411 46.868 862.358 45" stroke="#EA80FC" stroke-width="4" stroke-miterlimit="10" stroke-linejoin="round"/>
<path fill-rule="evenodd" clip-rule="evenodd" d="M924.828 78.2072C923.559 77.4854 923.772 74.6531 925.304 71.881C926.836 69.109 929.107 67.4468 930.376 68.1686C931.645 68.8904 931.432 71.7227 929.9 74.4948C928.368 77.2669 926.098 78.929 924.828 78.2072Z" fill="#EA80FC"/>
<path fill-rule="evenodd" clip-rule="evenodd" d="M922.855 72.7765C922.373 72.1905 923.019 70.8876 924.299 69.8664C925.578 68.8452 927.007 68.4924 927.489 69.0785C927.971 69.6645 927.324 70.9674 926.044 71.9886C924.765 73.0098 923.337 73.3626 922.855 72.7765Z" fill="#EA80FC"/>
<path d="M929.5 71C927.5 74 931 64.6847 931 58.5C931 56 927.699 48.9819 925 49" stroke="#EA80FC" stroke-width="4" stroke-miterlimit="10" stroke-linejoin="round"/>
<path d="M883.521 90L887.796 103.01L883.521 112.389L889.367 116.521" stroke="#D500F9" stroke-width="4" stroke-linecap="round" stroke-linejoin="round"/>
<path d="M902.888 93.343L914.328 96.237L914.248 111.929L922.411 110.76" stroke="#D500F9" stroke-width="4" stroke-linecap="round" stroke-linejoin="round"/>
<path fill-rule="evenodd" clip-rule="evenodd" d="M797.257 15.7853C810.555 29.0923 810.245 50.9704 796.564 64.6514C787.844 73.3714 779.573 82.5416 771.753 92.162C764.203 82.7547 756.189 73.8102 747.713 65.3286C734.415 52.0216 734.725 30.1434 748.406 16.4624C762.087 2.78142 783.958 2.47825 797.257 15.7853Z" fill="#EA80FC"/>
<path fill-rule="evenodd" clip-rule="evenodd" d="M790.944 70.8723V83.6597C790.944 90.722 782.681 96.4471 772.487 96.4471C762.294 96.4471 754.031 90.722 754.031 83.6597V70.8723H790.944Z" fill="#D500F9"/>
<path fill-rule="evenodd" clip-rule="evenodd" d="M763.555 35.2634C763.555 32.6526 765.671 30.5361 768.282 30.5361C769.536 30.5361 770.738 31.0342 771.625 31.9207C772.511 32.8073 773.009 34.0097 773.009 35.2634C773.009 37.8742 770.893 39.9907 768.282 39.9907C765.671 39.9907 763.555 37.8742 763.555 35.2634Z" fill="black"/>
<path fill-rule="evenodd" clip-rule="evenodd" d="M768.742 33.66C768.742 32.9314 769.332 32.3407 770.061 32.3407C770.411 32.3407 770.746 32.4797 770.994 32.7271C771.241 32.9745 771.38 33.3101 771.38 33.66C771.38 34.3886 770.789 34.9792 770.061 34.9792C769.332 34.9792 768.742 34.3886 768.742 33.66Z" fill="white"/>
<path fill-rule="evenodd" clip-rule="evenodd" d="M790.948 35.2634C790.948 32.6526 793.064 30.5361 795.675 30.5361C796.929 30.5361 798.131 31.0342 799.018 31.9207C799.904 32.8073 800.402 34.0097 800.402 35.2634C800.402 37.8742 798.286 39.9907 795.675 39.9907C793.064 39.9907 790.948 37.8742 790.948 35.2634Z" fill="black"/>
<path fill-rule="evenodd" clip-rule="evenodd" d="M796.134 33.66C796.134 32.9314 796.725 32.3407 797.454 32.3407C797.803 32.3407 798.139 32.4797 798.386 32.7271C798.634 32.9745 798.773 33.3101 798.773 33.66C798.773 34.3886 798.182 34.9792 797.454 34.9792C796.725 34.9792 796.134 34.3886 796.134 33.66Z" fill="white"/>
<path d="M791.227 41.5969C789.064 43.7604 786.073 44.9194 782.913 44.819C779.753 44.7186 776.682 43.367 774.377 41.0615" stroke="black" stroke-width="2" stroke-miterlimit="10" stroke-linejoin="round"/>
<path d="M763.211 89.7529L758.211 101.753L742.711 96.7529L740.711 103.753" stroke="#D500F9" stroke-width="4" stroke-linecap="round" stroke-linejoin="round"/>
<path d="M779.711 89.7529L789.211 96.7529L783.211 111.253L791.211 113.253" stroke="#D500F9" stroke-width="4" stroke-linecap="round" stroke-linejoin="round"/>
<path fill-rule="evenodd" clip-rule="evenodd" d="M798.828 80.9597C797.559 80.2379 797.772 77.4056 799.304 74.6335C800.836 71.8614 803.107 70.1993 804.376 70.9211C805.645 71.6428 805.432 74.4751 803.9 77.2472C802.368 80.0193 800.098 81.6814 798.828 80.9597Z" fill="#EA80FC"/>
<path fill-rule="evenodd" clip-rule="evenodd" d="M797.786 74.2836C797.342 73.6685 798.069 72.4087 799.41 71.4696C800.751 70.5306 802.198 70.268 802.643 70.883C803.087 71.4981 802.36 72.7579 801.019 73.697C799.678 74.636 798.231 74.8987 797.786 74.2836Z" fill="#EA80FC"/>
<path d="M802.5 75.2525C805 72.2525 814.01 58.7523 810 54.7524C810 54.7524 806.684 49.2964 803.985 49.3145" stroke="#EA80FC" stroke-width="4" stroke-miterlimit="10" stroke-linejoin="round"/>
<path fill-rule="evenodd" clip-rule="evenodd" d="M736.137 67.2462C737.555 66.8976 739.348 69.1008 740.142 72.1672C740.936 75.2335 740.43 78.002 739.012 78.3506C737.594 78.6992 735.801 76.4961 735.007 73.4297C734.213 70.3633 734.719 67.5949 736.137 67.2462Z" fill="#EA80FC"/>
<path fill-rule="evenodd" clip-rule="evenodd" d="M738.582 70.117C739.127 69.5888 740.478 70.1272 741.6 71.3196C742.722 72.512 743.19 73.9068 742.645 74.4351C742.1 74.9633 740.749 74.4248 739.627 73.2324C738.505 72.0401 738.037 70.6452 738.582 70.117Z" fill="#EA80FC"/>
<path d="M736.774 69.1032C735.377 63.5753 730.92 56.4479 734.149 51.8284C735.779 49.4961 738.411 48.868 740.358 47" stroke="#EA80FC" stroke-width="4" stroke-miterlimit="10" stroke-linejoin="round"/>
<path fill-rule="evenodd" clip-rule="evenodd" d="M437.256 15.7853C450.555 29.0923 450.244 50.9704 436.563 64.6514C427.843 73.3714 419.573 82.5416 411.753 92.162C404.202 82.7547 396.189 73.8102 387.713 65.3286C374.415 52.0216 374.725 30.1434 388.406 16.4624C402.087 2.78142 423.958 2.47825 437.256 15.7853Z" fill="#EA80FC"/>
<path fill-rule="evenodd" clip-rule="evenodd" d="M430.944 70.8723V83.6597C430.944 90.722 422.68 96.4471 412.487 96.4471C402.294 96.4471 394.03 90.722 394.03 83.6597V70.8723H430.944Z" fill="#D500F9"/>
<path fill-rule="evenodd" clip-rule="evenodd" d="M403.555 35.2634C403.555 32.6526 405.671 30.5361 408.282 30.5361C409.536 30.5361 410.738 31.0342 411.625 31.9207C412.511 32.8073 413.009 34.0097 413.009 35.2634C413.009 37.8742 410.893 39.9907 408.282 39.9907C405.671 39.9907 403.555 37.8742 403.555 35.2634Z" fill="black"/>
<path fill-rule="evenodd" clip-rule="evenodd" d="M408.741 33.66C408.741 32.9314 409.332 32.3407 410.06 32.3407C410.41 32.3407 410.746 32.4797 410.993 32.7271C411.241 32.9745 411.38 33.3101 411.38 33.66C411.38 34.3886 410.789 34.9792 410.06 34.9792C409.332 34.9792 408.741 34.3886 408.741 33.66Z" fill="white"/>
<path fill-rule="evenodd" clip-rule="evenodd" d="M430.947 35.2634C430.947 32.6526 433.064 30.5361 435.675 30.5361C436.928 30.5361 438.131 31.0342 439.017 31.9207C439.904 32.8073 440.402 34.0097 440.402 35.2634C440.402 37.8742 438.285 39.9907 435.675 39.9907C433.064 39.9907 430.947 37.8742 430.947 35.2634Z" fill="black"/>
<path fill-rule="evenodd" clip-rule="evenodd" d="M436.134 33.66C436.134 32.9314 436.725 32.3407 437.453 32.3407C437.803 32.3407 438.139 32.4797 438.386 32.7271C438.634 32.9745 438.773 33.3101 438.773 33.66C438.773 34.3886 438.182 34.9792 437.453 34.9792C436.725 34.9792 436.134 34.3886 436.134 33.66Z" fill="white"/>
<path d="M431.227 41.5969C429.063 43.7604 426.073 44.9194 422.913 44.819C419.753 44.7186 416.682 43.367 414.377 41.0615" stroke="black" stroke-width="2" stroke-miterlimit="10" stroke-linejoin="round"/>
<path fill-rule="evenodd" clip-rule="evenodd" d="M369.873 68.4994C371.329 68.6057 372.354 71.255 372.162 74.4166C371.97 77.5783 370.634 80.0551 369.177 79.9488C367.721 79.8425 366.696 77.1932 366.888 74.0316C367.08 70.8699 368.416 68.3931 369.873 68.4994Z" fill="#EA80FC"/>
<path fill-rule="evenodd" clip-rule="evenodd" d="M370.227 71.2029C370.772 70.6747 372.124 71.2132 373.246 72.4056C374.368 73.598 374.836 74.9928 374.291 75.521C373.746 76.0492 372.395 75.5108 371.273 74.3184C370.15 73.126 369.683 71.7312 370.227 71.2029Z" fill="#EA80FC"/>
<path d="M369.5 72.5C368.103 66.9721 371 53.7524 376.149 49.8284C376.149 49.8284 380.411 46.868 382.358 45" stroke="#EA80FC" stroke-width="4" stroke-miterlimit="10" stroke-linejoin="round"/>
<path fill-rule="evenodd" clip-rule="evenodd" d="M444.828 78.2072C443.559 77.4854 443.772 74.6531 445.304 71.881C446.836 69.109 449.107 67.4468 450.376 68.1686C451.645 68.8904 451.432 71.7227 449.9 74.4948C448.368 77.2669 446.098 78.929 444.828 78.2072Z" fill="#EA80FC"/>
<path fill-rule="evenodd" clip-rule="evenodd" d="M442.855 72.7765C442.373 72.1905 443.019 70.8876 444.299 69.8664C445.578 68.8452 447.007 68.4924 447.489 69.0785C447.971 69.6645 447.324 70.9674 446.044 71.9886C444.765 73.0098 443.337 73.3626 442.855 72.7765Z" fill="#EA80FC"/>
<path d="M449.5 71C447.5 74 451 64.6847 451 58.5C451 56 447.699 48.9819 445 49" stroke="#EA80FC" stroke-width="4" stroke-miterlimit="10" stroke-linejoin="round"/>
<path d="M401.521 90L405.796 103.01L401.521 112.389L407.367 116.521" stroke="#D500F9" stroke-width="4" stroke-linecap="round" stroke-linejoin="round"/>
<path d="M420.888 93.343L432.328 96.237L432.248 111.929L440.411 110.76" stroke="#D500F9" stroke-width="4" stroke-linecap="round" stroke-linejoin="round"/>
<path fill-rule="evenodd" clip-rule="evenodd" d="M317.257 15.7853C330.555 29.0923 330.245 50.9704 316.564 64.6514C307.844 73.3714 299.574 82.5416 291.753 92.162C284.203 82.7547 276.189 73.8102 267.713 65.3286C254.415 52.0216 254.725 30.1434 268.406 16.4624C282.087 2.78142 303.958 2.47825 317.257 15.7853Z" fill="#EA80FC"/>
<path fill-rule="evenodd" clip-rule="evenodd" d="M310.944 70.8723V83.6597C310.944 90.722 302.681 96.4471 292.487 96.4471C282.294 96.4471 274.031 90.722 274.031 83.6597V70.8723H310.944Z" fill="#D500F9"/>
<path fill-rule="evenodd" clip-rule="evenodd" d="M318.828 79.2072C317.559 78.4854 317.772 75.6531 319.304 72.881C320.836 70.109 323.107 68.4468 324.376 69.1686C325.645 69.8904 325.432 72.7227 323.9 75.4948C322.368 78.2669 320.098 79.929 318.828 79.2072Z" fill="#EA80FC"/>
<path fill-rule="evenodd" clip-rule="evenodd" d="M317.786 72.5311C317.342 71.9161 318.069 70.6562 319.41 69.7172C320.751 68.7782 322.198 68.5155 322.643 69.1306C323.087 69.7456 322.36 71.0055 321.019 71.9445C319.678 72.8836 318.231 73.1462 317.786 72.5311Z" fill="#EA80FC"/>
<path d="M322.5 73.4999C325 70.4999 334.01 56.9998 330 52.9999C330 52.9999 326.684 47.5439 323.985 47.562" stroke="#EA80FC" stroke-width="4" stroke-miterlimit="10" stroke-linejoin="round"/>
<path fill-rule="evenodd" clip-rule="evenodd" d="M256.137 65.4937C257.555 65.145 259.348 67.3482 260.142 70.4146C260.936 73.481 260.43 76.2494 259.012 76.598C257.594 76.9467 255.801 74.7435 255.007 71.6771C254.213 68.6107 254.719 65.8423 256.137 65.4937Z" fill="#EA80FC"/>
<path fill-rule="evenodd" clip-rule="evenodd" d="M258.582 68.3646C259.127 67.8364 260.478 68.3748 261.6 69.5672C262.722 70.7596 263.19 72.1544 262.645 72.6826C262.1 73.2108 260.749 72.6724 259.627 71.48C258.505 70.2876 258.037 68.8928 258.582 68.3646Z" fill="#EA80FC"/>
<path d="M256.774 67.3508C255.377 61.8229 250.92 54.6954 254.149 50.0759C255.779 47.7437 258.411 47.1156 260.358 45.2476" stroke="#EA80FC" stroke-width="4" stroke-miterlimit="10" stroke-linejoin="round"/>
<path fill-rule="evenodd" clip-rule="evenodd" d="M283.555 35.2634C283.555 32.6526 285.671 30.5361 288.282 30.5361C289.536 30.5361 290.738 31.0342 291.625 31.9207C292.511 32.8073 293.01 34.0097 293.01 35.2634C293.01 37.8742 290.893 39.9907 288.282 39.9907C285.671 39.9907 283.555 37.8742 283.555 35.2634Z" fill="black"/>
<path fill-rule="evenodd" clip-rule="evenodd" d="M288.742 33.66C288.742 32.9314 289.332 32.3407 290.061 32.3407C290.411 32.3407 290.746 32.4797 290.994 32.7271C291.241 32.9745 291.38 33.3101 291.38 33.66C291.38 34.3886 290.79 34.9792 290.061 34.9792C289.332 34.9792 288.742 34.3886 288.742 33.66Z" fill="white"/>
<path fill-rule="evenodd" clip-rule="evenodd" d="M310.948 35.2634C310.948 32.6526 313.064 30.5361 315.675 30.5361C316.929 30.5361 318.131 31.0342 319.018 31.9207C319.904 32.8073 320.402 34.0097 320.402 35.2634C320.402 37.8742 318.286 39.9907 315.675 39.9907C313.064 39.9907 310.948 37.8742 310.948 35.2634Z" fill="black"/>
<path fill-rule="evenodd" clip-rule="evenodd" d="M316.134 33.66C316.134 32.9314 316.725 32.3407 317.454 32.3407C317.804 32.3407 318.139 32.4797 318.386 32.7271C318.634 32.9745 318.773 33.3101 318.773 33.66C318.773 34.3886 318.182 34.9792 317.454 34.9792C316.725 34.9792 316.134 34.3886 316.134 33.66Z" fill="white"/>
<path d="M311.227 41.5969C309.064 43.7604 306.073 44.9194 302.913 44.819C299.753 44.7186 296.682 43.367 294.377 41.0615" stroke="black" stroke-width="2" stroke-miterlimit="10" stroke-linejoin="round"/>
<path d="M283.211 89.7529L278.211 101.753L262.711 96.7529L260.711 103.753" stroke="#D500F9" stroke-width="4" stroke-linecap="round" stroke-linejoin="round"/>
<path d="M299.711 89.7529L309.211 96.7529L303.211 111.253L311.211 113.253" stroke="#D500F9" stroke-width="4" stroke-linecap="round" stroke-linejoin="round"/>
<path fill-rule="evenodd" clip-rule="evenodd" d="M197.257 15.7853C210.555 29.0923 210.245 50.9704 196.564 64.6514C187.844 73.3714 179.574 82.5416 171.753 92.162C164.203 82.7547 156.189 73.8102 147.713 65.3286C134.415 52.0216 134.725 30.1434 148.406 16.4624C162.087 2.78142 183.958 2.47825 197.257 15.7853Z" fill="#EA80FC"/>
<path fill-rule="evenodd" clip-rule="evenodd" d="M190.944 70.8723V83.6597C190.944 90.722 182.681 96.4471 172.487 96.4471C162.294 96.4471 154.031 90.722 154.031 83.6597V70.8723H190.944Z" fill="#D500F9"/>
<path fill-rule="evenodd" clip-rule="evenodd" d="M163.555 35.2634C163.555 32.6526 165.671 30.5361 168.282 30.5361C169.536 30.5361 170.738 31.0342 171.625 31.9207C172.511 32.8073 173.01 34.0097 173.01 35.2634C173.01 37.8742 170.893 39.9907 168.282 39.9907C165.671 39.9907 163.555 37.8742 163.555 35.2634Z" fill="black"/>
<path fill-rule="evenodd" clip-rule="evenodd" d="M168.742 33.66C168.742 32.9314 169.332 32.3407 170.061 32.3407C170.411 32.3407 170.746 32.4797 170.994 32.7271C171.241 32.9745 171.38 33.3101 171.38 33.66C171.38 34.3886 170.79 34.9792 170.061 34.9792C169.332 34.9792 168.742 34.3886 168.742 33.66Z" fill="white"/>
<path fill-rule="evenodd" clip-rule="evenodd" d="M190.948 35.2634C190.948 32.6526 193.064 30.5361 195.675 30.5361C196.929 30.5361 198.131 31.0342 199.018 31.9207C199.904 32.8073 200.402 34.0097 200.402 35.2634C200.402 37.8742 198.286 39.9907 195.675 39.9907C193.064 39.9907 190.948 37.8742 190.948 35.2634Z" fill="black"/>
<path fill-rule="evenodd" clip-rule="evenodd" d="M196.134 33.66C196.134 32.9314 196.725 32.3407 197.454 32.3407C197.803 32.3407 198.139 32.4797 198.386 32.7271C198.634 32.9745 198.773 33.3101 198.773 33.66C198.773 34.3886 198.182 34.9792 197.454 34.9792C196.725 34.9792 196.134 34.3886 196.134 33.66Z" fill="white"/>
<path d="M191.227 41.5969C189.064 43.7604 186.073 44.9194 182.913 44.819C179.753 44.7186 176.682 43.367 174.377 41.0615" stroke="black" stroke-width="2" stroke-miterlimit="10" stroke-linejoin="round"/>
<path d="M162.989 90L167.265 103.01L162.989 112.389L168.836 116.521" stroke="#D500F9" stroke-width="4" stroke-linecap="round" stroke-linejoin="round"/>
<path d="M182 93.3429L193.44 96.2369L193.36 111.929L201.523 110.76" stroke="#D500F9" stroke-width="4" stroke-linecap="round" stroke-linejoin="round"/>
<path fill-rule="evenodd" clip-rule="evenodd" d="M128.873 68.4994C130.329 68.6057 131.354 71.255 131.162 74.4166C130.97 77.5783 129.634 80.0551 128.177 79.9488C126.721 79.8425 125.696 77.1932 125.888 74.0316C126.08 70.8699 127.416 68.3931 128.873 68.4994Z" fill="#EA80FC"/>
<path fill-rule="evenodd" clip-rule="evenodd" d="M129.227 71.2029C129.772 70.6747 131.124 71.2132 132.246 72.4056C133.368 73.598 133.836 74.9928 133.291 75.521C132.746 76.0492 131.395 75.5108 130.273 74.3184C129.15 73.126 128.683 71.7312 129.227 71.2029Z" fill="#EA80FC"/>
<path d="M128.5 72.5C127.103 66.9721 130 53.7524 135.149 49.8284C135.149 49.8284 139.411 46.868 141.358 45" stroke="#EA80FC" stroke-width="4" stroke-miterlimit="10" stroke-linejoin="round"/>
<path fill-rule="evenodd" clip-rule="evenodd" d="M203.828 78.2072C202.559 77.4854 202.772 74.6531 204.304 71.881C205.836 69.109 208.107 67.4468 209.376 68.1686C210.645 68.8904 210.432 71.7227 208.9 74.4948C207.368 77.2669 205.098 78.929 203.828 78.2072Z" fill="#EA80FC"/>
<path fill-rule="evenodd" clip-rule="evenodd" d="M201.855 72.7765C201.373 72.1905 202.019 70.8876 203.299 69.8664C204.578 68.8452 206.007 68.4924 206.489 69.0785C206.971 69.6645 206.324 70.9674 205.044 71.9886C203.765 73.0098 202.337 73.3626 201.855 72.7765Z" fill="#EA80FC"/>
<path d="M208.5 71.0001C206.5 74.0001 210 64.6847 210 58.5001C210 56.0001 206.699 48.982 204 49.0001" stroke="#EA80FC" stroke-width="4" stroke-miterlimit="10" stroke-linejoin="round"/>
<path fill-rule="evenodd" clip-rule="evenodd" d="M77.2565 15.7853C90.5549 29.0923 90.2446 50.9704 76.5636 64.6514C67.8436 73.3714 59.5734 82.5416 51.7532 92.162C44.2027 82.7547 36.1894 73.8102 27.7133 65.3286C14.4149 52.0216 14.7252 30.1434 28.4062 16.4624C42.0872 2.78142 63.9582 2.47825 77.2565 15.7853Z" fill="#EA80FC"/>
<path fill-rule="evenodd" clip-rule="evenodd" d="M70.944 70.8723V83.6597C70.944 90.722 62.6807 96.4471 52.4873 96.4471C42.294 96.4471 34.0306 90.722 34.0306 83.6597V70.8723H70.944Z" fill="#D500F9"/>
<path fill-rule="evenodd" clip-rule="evenodd" d="M90.8284 72.2072C89.5592 71.4854 89.7722 68.6531 91.3041 65.881C92.8359 63.109 95.1066 61.4468 96.3757 62.1686C97.6449 62.8904 97.432 65.7227 95.9001 68.4948C94.3682 71.2669 92.0976 72.929 90.8284 72.2072Z" fill="#EA80FC"/>
<path fill-rule="evenodd" clip-rule="evenodd" d="M88.8546 68.7765C88.3725 68.1905 89.0191 66.8876 90.2988 65.8664C91.5785 64.8452 93.0066 64.4924 93.4887 65.0785C93.9707 65.6645 93.3241 66.9674 92.0445 67.9886C90.7648 69.0098 89.3366 69.3626 88.8546 68.7765Z" fill="#EA80FC"/>
<path d="M95 65.5001C93 68.5001 99.5 58.5001 93 51.5001C91.5 49.8847 86.6837 47.5439 83.9849 47.562" stroke="#EA80FC" stroke-width="4" stroke-miterlimit="10" stroke-linejoin="round"/>
<path fill-rule="evenodd" clip-rule="evenodd" d="M3.87264 65.4994C5.32895 65.6057 6.3539 68.255 6.16194 71.4166C5.96998 74.5783 4.6338 77.0551 3.1775 76.9488C1.72119 76.8425 0.69624 74.1932 0.888203 71.0316C1.08016 67.8699 2.41634 65.3931 3.87264 65.4994Z" fill="#EA80FC"/>
<path fill-rule="evenodd" clip-rule="evenodd" d="M4.22739 68.2029C4.77228 67.6747 6.12362 68.2132 7.24571 69.4056C8.3678 70.598 8.83572 71.9928 8.29083 72.521C7.74595 73.0492 6.3946 72.5108 5.27252 71.3184C4.15043 70.126 3.68251 68.7312 4.22739 68.2029Z" fill="#EA80FC"/>
<path d="M4 68C2.60321 62.4721 9.00001 54 14.1488 50.0759C14.1488 50.0759 18.4108 47.1156 20.3579 45.2476" stroke="#EA80FC" stroke-width="4" stroke-miterlimit="10" stroke-linejoin="round"/>
<path fill-rule="evenodd" clip-rule="evenodd" d="M43.5549 35.2634C43.5549 32.6526 45.6714 30.5361 48.2822 30.5361C49.536 30.5361 50.7384 31.0342 51.6249 31.9207C52.5115 32.8073 53.0095 34.0097 53.0095 35.2634C53.0095 37.8742 50.893 39.9907 48.2822 39.9907C45.6714 39.9907 43.5549 37.8742 43.5549 35.2634Z" fill="black"/>
<path fill-rule="evenodd" clip-rule="evenodd" d="M48.7416 33.66C48.7416 32.9314 49.3322 32.3407 50.0608 32.3407C50.4107 32.3407 50.7463 32.4797 50.9937 32.7271C51.2411 32.9745 51.3801 33.3101 51.3801 33.66C51.3801 34.3886 50.7894 34.9792 50.0608 34.9792C49.3322 34.9792 48.7416 34.3886 48.7416 33.66Z" fill="white"/>
<path fill-rule="evenodd" clip-rule="evenodd" d="M70.9476 35.2634C70.9476 32.6526 73.0641 30.5361 75.6749 30.5361C76.9287 30.5361 78.1311 31.0342 79.0176 31.9207C79.9042 32.8073 80.4022 34.0097 80.4022 35.2634C80.4022 37.8742 78.2857 39.9907 75.6749 39.9907C73.0641 39.9907 70.9476 37.8742 70.9476 35.2634Z" fill="black"/>
<path fill-rule="evenodd" clip-rule="evenodd" d="M76.1343 33.66C76.1343 32.9314 76.7249 32.3407 77.4535 32.3407C77.8034 32.3407 78.139 32.4797 78.3864 32.7271C78.6338 32.9745 78.7728 33.3101 78.7728 33.66C78.7728 34.3886 78.1821 34.9792 77.4535 34.9792C76.7249 34.9792 76.1343 34.3886 76.1343 33.66Z" fill="white"/>
<path d="M71.2273 41.5969C69.0638 43.7604 66.0731 44.9194 62.913 44.819C59.753 44.7186 56.6825 43.367 54.377 41.0615" stroke="black" stroke-width="2" stroke-miterlimit="10" stroke-linejoin="round"/>
<path d="M43.2108 89.7529L38.2108 101.753L22.7108 96.7529L20.7108 103.753" stroke="#D500F9" stroke-width="4" stroke-linecap="round" stroke-linejoin="round"/>
<path d="M59.7109 89.7529L69.2109 96.7529L63.2109 111.253L71.2109 113.253" stroke="#D500F9" stroke-width="4" stroke-linecap="round" stroke-linejoin="round"/>
</g>
<defs>
<clipPath id="clip0">
<rect width="960" height="120" fill="white"/>
</clipPath>
</defs>
</svg>
