<svg width="880" height="155" viewBox="0 0 880 155" fill="none" xmlns="http://www.w3.org/2000/svg">
<g clip-path="url(#clip0)">
<path fill-rule="evenodd" clip-rule="evenodd" d="M756.267 53.0858C758.043 51.9796 759.713 53.8447 759.997 57.2517C760.282 60.6587 759.073 64.3173 757.298 65.4235C755.408 64.1187 753.853 64.6645 753.568 61.2575C753.283 57.8505 754.492 54.1919 756.267 53.0858Z" fill="#FFC400"/>
<path fill-rule="evenodd" clip-rule="evenodd" d="M754.587 61.3154C753.839 61.4421 752.959 59.7294 752.622 57.4901C752.286 55.2508 752.619 53.3327 753.367 53.2061C754.116 53.0794 754.995 54.792 755.332 57.0314C755.669 59.2707 755.335 61.1888 754.587 61.3154Z" fill="#FFC400"/>
<path d="M755.5 59.5C756.678 64.2964 754.522 69.66 749 70.7957C746.212 71.3692 737.216 70.7776 734.517 70.7957" stroke="#FFC400" stroke-width="4" stroke-miterlimit="10" stroke-linejoin="round"/>
<path fill-rule="evenodd" clip-rule="evenodd" d="M679.771 86.0214C681.206 86.291 681.926 89.0384 681.379 92.158C680.833 95.2775 679.226 97.5879 677.791 97.3183C676.356 97.0487 675.636 94.3013 676.183 91.1817C676.73 88.0622 678.337 85.7518 679.771 86.0214Z" fill="#FFC400"/>
<path fill-rule="evenodd" clip-rule="evenodd" d="M679.653 90.0382C680.368 89.783 681.375 90.8324 681.903 92.3822C682.43 93.9319 682.279 95.3951 681.564 95.6504C680.849 95.9056 679.842 94.8562 679.315 93.3064C678.787 91.7567 678.939 90.2935 679.653 90.0382Z" fill="#FFC400"/>
<path d="M679.5 89.4999C680.517 83.8881 679.5 80.4999 682.5 76.4999C685.5 72.4999 688.116 71.1176 690.661 70.2226" stroke="#FFC400" stroke-width="4" stroke-miterlimit="10" stroke-linejoin="round"/>
<path fill-rule="evenodd" clip-rule="evenodd" d="M713.904 81.4567C703.694 144.034 663.875 81.4567 713.904 1C763.933 81.4567 724.114 144.034 713.904 81.4567Z" fill="#FFC400"/>
<path fill-rule="evenodd" clip-rule="evenodd" d="M691.819 93.1547C691.819 82.5438 701.74 73.9421 713.977 73.9421C726.214 73.9421 736.134 82.5438 736.134 93.1547C736.134 103.766 726.214 112.367 713.977 112.367C701.74 112.367 691.819 103.766 691.819 93.1547Z" fill="#FFC400"/>
<path fill-rule="evenodd" clip-rule="evenodd" d="M735.452 101.16V113.948C735.452 121.01 725.814 126.735 713.924 126.735C702.035 126.735 692.397 121.01 692.397 113.948V101.16H735.452Z" fill="#FF9800"/>
<path d="M710.272 62.3062C711.388 64.6285 713.37 66.4159 715.783 67.2753C718.195 68.1347 720.841 67.9957 723.139 66.8889" stroke="black" stroke-width="2" stroke-miterlimit="10" stroke-linejoin="round"/>
<path fill-rule="evenodd" clip-rule="evenodd" d="M702.088 53.886C702.088 51.2752 704.204 49.1588 706.815 49.1588C708.069 49.1588 709.271 49.6568 710.158 50.5433C711.044 51.4299 711.542 52.6323 711.542 53.886C711.542 56.4969 709.426 58.6133 706.815 58.6133C704.204 58.6133 702.088 56.4969 702.088 53.886Z" fill="black"/>
<path fill-rule="evenodd" clip-rule="evenodd" d="M705 54.3193C705 53.5907 705.591 53.0001 706.319 53.0001C706.669 53.0001 707.005 53.1391 707.252 53.3865C707.499 53.6339 707.638 53.9694 707.638 54.3193C707.638 55.0479 707.048 55.6385 706.319 55.6385C705.591 55.6385 705 55.0479 705 54.3193Z" fill="white"/>
<path fill-rule="evenodd" clip-rule="evenodd" d="M722.942 53.886C722.942 51.2752 725.059 49.1588 727.67 49.1588C728.923 49.1588 730.126 49.6568 731.012 50.5433C731.899 51.4299 732.397 52.6323 732.397 53.886C732.397 56.4969 730.28 58.6133 727.67 58.6133C725.059 58.6133 722.942 56.4969 722.942 53.886Z" fill="black"/>
<path fill-rule="evenodd" clip-rule="evenodd" d="M725.854 54.3193C725.854 53.5907 726.445 53.0001 727.174 53.0001C727.524 53.0001 727.859 53.1391 728.107 53.3865C728.354 53.6339 728.493 53.9694 728.493 54.3193C728.493 55.0479 727.902 55.6385 727.174 55.6385C726.445 55.6385 725.854 55.0479 725.854 54.3193Z" fill="white"/>
<path d="M698.21 119.091L691.609 130.29L676.943 123.208L674 129.867" stroke="#FF9800" stroke-width="4" stroke-linecap="round" stroke-linejoin="round"/>
<path fill-rule="evenodd" clip-rule="evenodd" d="M863.39 62.8478C862.121 62.126 862.334 59.2937 863.866 56.5216C865.398 53.7495 867.669 52.0874 868.938 52.8092C870.207 53.5309 869.994 56.3633 868.462 59.1353C866.93 61.9074 864.66 63.5695 863.39 62.8478Z" fill="#FFC400"/>
<path fill-rule="evenodd" clip-rule="evenodd" d="M863.589 59.0827C862.83 59.0916 862.219 57.7716 862.225 56.1344C862.23 54.4972 862.849 53.1628 863.608 53.154C864.367 53.1451 864.978 54.4651 864.972 56.1023C864.967 57.7395 864.348 59.0739 863.589 59.0827Z" fill="#FFC400"/>
<path d="M864.322 61.2036C861.535 66.1797 859.869 74.4219 854.347 75.5577C851.559 76.1311 849.216 74.7776 846.517 74.7957" stroke="#FFC400" stroke-width="4" stroke-miterlimit="10" stroke-linejoin="round"/>
<path fill-rule="evenodd" clip-rule="evenodd" d="M796.089 90.0532C797.416 89.4433 799.592 91.2684 800.95 94.1296C802.308 96.9909 802.333 99.8048 801.007 100.415C799.68 101.025 797.504 99.1996 796.146 96.3383C794.788 93.4771 794.763 90.6631 796.089 90.0532Z" fill="#FFC400"/>
<path fill-rule="evenodd" clip-rule="evenodd" d="M798.557 90.5046C798.995 89.8851 800.422 90.1653 801.744 91.1304C803.067 92.0955 803.783 93.3802 803.345 93.9997C802.907 94.6192 801.48 94.339 800.157 93.3739C798.835 92.4088 798.118 91.1241 798.557 90.5046Z" fill="#FFC400"/>
<path d="M797 92.4999C798.017 86.8881 790.162 78.9195 795.012 76.0493C797.461 74.6002 800.116 75.1176 802.661 74.2226" stroke="#FFC400" stroke-width="4" stroke-miterlimit="10" stroke-linejoin="round"/>
<path fill-rule="evenodd" clip-rule="evenodd" d="M825.904 85.4567C815.694 148.034 775.875 85.4567 825.904 5C875.933 85.4567 836.114 148.034 825.904 85.4567Z" fill="#FFC400"/>
<path fill-rule="evenodd" clip-rule="evenodd" d="M803.819 97.1547C803.819 86.5438 813.74 77.9421 825.977 77.9421C838.214 77.9421 848.134 86.5438 848.134 97.1547C848.134 107.766 838.214 116.367 825.977 116.367C813.74 116.367 803.819 107.766 803.819 97.1547Z" fill="#FFC400"/>
<path fill-rule="evenodd" clip-rule="evenodd" d="M847.452 105.16V117.948C847.452 125.01 837.814 130.735 825.924 130.735C814.035 130.735 804.397 125.01 804.397 117.948V105.16H847.452Z" fill="#FF9800"/>
<path d="M822.272 66.3062C823.388 68.6285 825.37 70.4159 827.783 71.2753C830.195 72.1347 832.841 71.9957 835.139 70.8889" stroke="black" stroke-width="2" stroke-miterlimit="10" stroke-linejoin="round"/>
<path fill-rule="evenodd" clip-rule="evenodd" d="M814.088 57.886C814.088 55.2752 816.204 53.1588 818.815 53.1588C820.069 53.1588 821.271 53.6568 822.158 54.5433C823.044 55.4299 823.542 56.6323 823.542 57.886C823.542 60.4969 821.426 62.6133 818.815 62.6133C816.204 62.6133 814.088 60.4969 814.088 57.886Z" fill="black"/>
<path fill-rule="evenodd" clip-rule="evenodd" d="M817 58.3193C817 57.5907 817.591 57.0001 818.319 57.0001C818.669 57.0001 819.005 57.1391 819.252 57.3865C819.499 57.6339 819.638 57.9694 819.638 58.3193C819.638 59.0479 819.048 59.6385 818.319 59.6385C817.591 59.6385 817 59.0479 817 58.3193Z" fill="white"/>
<path fill-rule="evenodd" clip-rule="evenodd" d="M834.942 57.886C834.942 55.2752 837.059 53.1588 839.67 53.1588C840.923 53.1588 842.126 53.6568 843.012 54.5433C843.899 55.4299 844.397 56.6323 844.397 57.886C844.397 60.4969 842.28 62.6133 839.67 62.6133C837.059 62.6133 834.942 60.4969 834.942 57.886Z" fill="black"/>
<path fill-rule="evenodd" clip-rule="evenodd" d="M837.854 58.3193C837.854 57.5907 838.445 57.0001 839.174 57.0001C839.524 57.0001 839.859 57.1391 840.107 57.3865C840.354 57.6339 840.493 57.9694 840.493 58.3193C840.493 59.0479 839.902 59.6385 839.174 59.6385C838.445 59.6385 837.854 59.0479 837.854 58.3193Z" fill="white"/>
<path d="M813.5 125.134L808.5 137.134L793 132.134L791 139.134" stroke="#FF9800" stroke-width="4" stroke-linecap="round" stroke-linejoin="round"/>
<path d="M838.716 126L840.465 137.67L834 151L840.465 154" stroke="#FF9800" stroke-width="4" stroke-linecap="round" stroke-linejoin="round"/>
<path fill-rule="evenodd" clip-rule="evenodd" d="M643.791 56.9814C642.522 56.2597 642.735 53.4274 644.267 50.6553C645.799 47.8832 648.069 46.2211 649.338 46.9428C650.608 47.6646 650.395 50.4969 648.863 53.269C647.331 56.0411 645.06 57.7032 643.791 56.9814Z" fill="#FFC400"/>
<path fill-rule="evenodd" clip-rule="evenodd" d="M643.99 53.2164C643.231 53.2253 642.62 51.9053 642.625 50.2681C642.63 48.6309 643.25 47.2965 644.008 47.2876C644.767 47.2788 645.378 48.5988 645.373 50.236C645.368 51.8732 644.749 53.2075 643.99 53.2164Z" fill="#FFC400"/>
<path d="M644.723 55.3373C641.935 60.3134 640.269 68.5556 634.748 69.6914C631.96 70.2648 629.616 68.9113 626.918 68.9294" stroke="#FFC400" stroke-width="4" stroke-miterlimit="10" stroke-linejoin="round"/>
<path fill-rule="evenodd" clip-rule="evenodd" d="M561.873 79.8198C563.307 80.0894 564.027 82.8368 563.48 85.9564C562.934 89.0759 561.327 91.3863 559.892 91.1167C558.457 90.8471 557.737 88.0997 558.284 84.9801C558.831 81.8606 560.438 79.5502 561.873 79.8198Z" fill="#FFC400"/>
<path fill-rule="evenodd" clip-rule="evenodd" d="M562.653 83.0382C563.368 82.783 564.375 83.8324 564.903 85.3822C565.43 86.9319 565.279 88.3951 564.564 88.6504C563.849 88.9056 562.842 87.8562 562.315 86.3064C561.787 84.7567 561.939 83.2935 562.653 83.0382Z" fill="#FFC400"/>
<path d="M561.5 83.5001C564.5 78.5001 566.5 75.5001 572.5 72.5001C574 71.0001 580.516 69.2513 583.061 68.3563" stroke="#FFC400" stroke-width="4" stroke-miterlimit="10" stroke-linejoin="round"/>
<path fill-rule="evenodd" clip-rule="evenodd" d="M606.305 79.5904C596.095 142.168 556.276 79.5904 606.305 -0.866333C656.333 79.5904 616.515 142.168 606.305 79.5904Z" fill="#FFC400"/>
<path fill-rule="evenodd" clip-rule="evenodd" d="M584.22 91.2883C584.22 80.6775 594.14 72.0757 606.377 72.0757C618.615 72.0757 628.535 80.6775 628.535 91.2883C628.535 101.899 618.615 110.501 606.377 110.501C594.14 110.501 584.22 101.899 584.22 91.2883Z" fill="#FFC400"/>
<path fill-rule="evenodd" clip-rule="evenodd" d="M627.852 99.294V112.081C627.852 119.144 618.214 124.869 606.325 124.869C594.436 124.869 584.797 119.144 584.797 112.081V99.294H627.852Z" fill="#FF9800"/>
<path d="M602.673 60.4399C603.788 62.7621 605.77 64.5495 608.183 65.409C610.596 66.2684 613.242 66.1294 615.539 65.0226" stroke="black" stroke-width="2" stroke-miterlimit="10" stroke-linejoin="round"/>
<path fill-rule="evenodd" clip-rule="evenodd" d="M594.489 52.0197C594.489 49.4089 596.605 47.2924 599.216 47.2924C600.47 47.2924 601.672 47.7905 602.559 48.677C603.445 49.5636 603.943 50.766 603.943 52.0197C603.943 54.6305 601.827 56.747 599.216 56.747C596.605 56.747 594.489 54.6305 594.489 52.0197Z" fill="black"/>
<path fill-rule="evenodd" clip-rule="evenodd" d="M597 53.3192C597 52.5906 597.591 51.9999 598.319 51.9999C598.669 51.9999 599.005 52.1389 599.252 52.3863C599.499 52.6337 599.638 52.9693 599.638 53.3192C599.638 54.0478 599.048 54.6384 598.319 54.6384C597.591 54.6384 597 54.0478 597 53.3192Z" fill="white"/>
<path fill-rule="evenodd" clip-rule="evenodd" d="M615.343 52.0197C615.343 49.4089 617.46 47.2924 620.07 47.2924C621.324 47.2924 622.526 47.7905 623.413 48.677C624.3 49.5636 624.798 50.766 624.798 52.0197C624.798 54.6305 622.681 56.747 620.07 56.747C617.46 56.747 615.343 54.6305 615.343 52.0197Z" fill="black"/>
<path fill-rule="evenodd" clip-rule="evenodd" d="M617.854 53.3192C617.854 52.5906 618.445 51.9999 619.174 51.9999C619.524 51.9999 619.859 52.1389 620.107 52.3863C620.354 52.6337 620.493 52.9693 620.493 53.3192C620.493 54.0478 619.902 54.6384 619.174 54.6384C618.445 54.6384 617.854 54.0478 617.854 53.3192Z" fill="white"/>
<path d="M593.901 119.267L588.901 131.267L573.401 126.267L571.401 133.267" stroke="#FF9800" stroke-width="4" stroke-linecap="round" stroke-linejoin="round"/>
<path d="M618 118L626.599 128.733L623.599 141.5L630.599 144.233" stroke="#FF9800" stroke-width="4" stroke-linecap="round" stroke-linejoin="round"/>
<path d="M723 122L731.599 132.733L728.599 145.5L735.599 148.233" stroke="#FF9800" stroke-width="4" stroke-linecap="round" stroke-linejoin="round"/>
<path fill-rule="evenodd" clip-rule="evenodd" d="M533.408 59.732C531.96 59.9195 530.426 57.5295 529.98 54.3938C529.535 51.258 530.348 48.564 531.796 48.3765C533.244 48.189 534.779 50.579 535.224 53.7147C535.669 56.8504 534.856 59.5445 533.408 59.732Z" fill="#FFC400"/>
<path fill-rule="evenodd" clip-rule="evenodd" d="M531.289 56.6319C530.649 57.04 529.433 56.2414 528.573 54.8482C527.714 53.455 527.535 51.9948 528.175 51.5867C528.815 51.1787 530.03 51.9772 530.89 53.3704C531.75 54.7636 531.929 56.2238 531.289 56.6319Z" fill="#FFC400"/>
<path d="M533 55.8663C533 60.5289 535.5 71.8662 529.747 76.5577C526.96 77.1311 524.616 75.7776 521.917 75.7957" stroke="#FFC400" stroke-width="4" stroke-miterlimit="10" stroke-linejoin="round"/>
<path fill-rule="evenodd" clip-rule="evenodd" d="M451.648 66.1639C452.842 65.3244 455.312 66.7264 457.165 69.2954C459.017 71.8643 459.55 74.6274 458.356 75.4669C457.161 76.3063 454.691 74.9043 452.839 72.3354C450.986 69.7664 450.453 67.0034 451.648 66.1639Z" fill="#FFC400"/>
<path fill-rule="evenodd" clip-rule="evenodd" d="M455.653 65.9046C456.368 65.6493 457.375 66.6987 457.903 68.2485C458.43 69.7982 458.279 71.2615 457.564 71.5167C456.849 71.7719 455.842 70.7225 455.315 69.1728C454.787 67.623 454.939 66.1598 455.653 65.9046Z" fill="#FFC400"/>
<path d="M455.5 69.3664C457.5 75.3664 463.5 78.8664 468 78.8664C472.5 78.8664 475 75.2226 478.061 75.2226" stroke="#FFC400" stroke-width="4" stroke-miterlimit="10" stroke-linejoin="round"/>
<path fill-rule="evenodd" clip-rule="evenodd" d="M501.305 86.4567C491.095 149.034 451.276 86.4567 501.305 6C551.333 86.4567 511.515 149.034 501.305 86.4567Z" fill="#FFC400"/>
<path fill-rule="evenodd" clip-rule="evenodd" d="M479.22 98.1547C479.22 87.5438 489.14 78.9421 501.377 78.9421C513.615 78.9421 523.535 87.5438 523.535 98.1547C523.535 108.766 513.615 117.367 501.377 117.367C489.14 117.367 479.22 108.766 479.22 98.1547Z" fill="#FFC400"/>
<path fill-rule="evenodd" clip-rule="evenodd" d="M522.852 106.16V118.948C522.852 126.01 513.214 131.735 501.325 131.735C489.435 131.735 479.797 126.01 479.797 118.948V106.16H522.852Z" fill="#FF9800"/>
<path d="M495.5 68.3663C496.615 70.6885 500.77 71.4159 503.183 72.2753C505.596 73.1347 507.203 73.3821 509.5 72.2753" stroke="black" stroke-width="2" stroke-miterlimit="10" stroke-linejoin="round"/>
<path fill-rule="evenodd" clip-rule="evenodd" d="M489.488 58.886C489.488 56.2752 491.605 54.1588 494.216 54.1588C495.469 54.1588 496.672 54.6568 497.558 55.5433C498.445 56.4299 498.943 57.6323 498.943 58.886C498.943 61.4969 496.826 63.6133 494.216 63.6133C491.605 63.6133 489.488 61.4969 489.488 58.886Z" fill="black"/>
<path fill-rule="evenodd" clip-rule="evenodd" d="M494.675 57.2826C494.675 56.554 495.266 55.9633 495.994 55.9633C496.344 55.9633 496.68 56.1023 496.927 56.3497C497.175 56.5972 497.314 56.9327 497.314 57.2826C497.314 58.0112 496.723 58.6018 495.994 58.6018C495.266 58.6018 494.675 58.0112 494.675 57.2826Z" fill="white"/>
<path fill-rule="evenodd" clip-rule="evenodd" d="M510.343 58.886C510.343 56.2752 512.459 54.1588 515.07 54.1588C516.324 54.1588 517.526 54.6568 518.413 55.5433C519.299 56.4299 519.797 57.6323 519.797 58.886C519.797 61.4969 517.681 63.6133 515.07 63.6133C512.459 63.6133 510.343 61.4969 510.343 58.886Z" fill="black"/>
<path fill-rule="evenodd" clip-rule="evenodd" d="M515.53 57.2826C515.53 56.554 516.12 55.9633 516.849 55.9633C517.199 55.9633 517.534 56.1023 517.782 56.3497C518.029 56.5972 518.168 56.9327 518.168 57.2826C518.168 58.0112 517.577 58.6018 516.849 58.6018C516.12 58.6018 515.53 58.0112 515.53 57.2826Z" fill="white"/>
<path d="M486.891 128L482.421 140.207L477.886 148.647L482.935 151.929" stroke="#FF9800" stroke-width="4" stroke-linecap="round" stroke-linejoin="round"/>
<path d="M517.942 123L527.546 132.458L534.964 144.087L540.656 139.832" stroke="#FF9800" stroke-width="4" stroke-linecap="round" stroke-linejoin="round"/>
<path fill-rule="evenodd" clip-rule="evenodd" d="M423.791 68.8478C422.522 68.126 422.735 65.2937 424.267 62.5216C425.799 59.7495 428.069 58.0874 429.338 58.8092C430.608 59.5309 430.395 62.3633 428.863 65.1353C427.331 67.9074 425.06 69.5695 423.791 68.8478Z" fill="#FFC400"/>
<path fill-rule="evenodd" clip-rule="evenodd" d="M423.99 65.0827C423.231 65.0916 422.62 63.7716 422.625 62.1344C422.631 60.4972 423.25 59.1628 424.009 59.154C424.767 59.1451 425.378 60.4651 425.373 62.1023C425.368 63.7395 424.749 65.0739 423.99 65.0827Z" fill="#FFC400"/>
<path d="M424.723 67.2036C421.935 72.1797 420.269 80.4219 414.748 81.5577C411.96 82.1311 409.616 80.7776 406.918 80.7957" stroke="#FFC400" stroke-width="4" stroke-miterlimit="10" stroke-linejoin="round"/>
<path fill-rule="evenodd" clip-rule="evenodd" d="M338.247 82.5668C338.969 81.2977 341.801 81.511 344.573 83.0432C347.345 84.5755 349.007 86.8464 348.285 88.1155C347.563 89.3847 344.731 89.1714 341.959 87.6391C339.187 86.1069 337.526 83.8359 338.247 82.5668Z" fill="#FFC400"/>
<path fill-rule="evenodd" clip-rule="evenodd" d="M345.564 84.5307C344.848 84.782 343.847 83.7271 343.328 82.1744C342.809 80.6218 342.968 79.1595 343.684 78.9082C344.4 78.6569 345.401 79.7118 345.921 81.2644C346.44 82.817 346.28 84.2794 345.564 84.5307Z" fill="#FFC400"/>
<path d="M342.5 86.3664C346 84.8664 348.65 89.2366 353.5 86.3664C355.949 84.9173 360.516 81.1176 363.061 80.2226" stroke="#FFC400" stroke-width="4" stroke-miterlimit="10" stroke-linejoin="round"/>
<path fill-rule="evenodd" clip-rule="evenodd" d="M386.305 91.4567C376.095 154.034 336.276 91.4567 386.305 11C436.334 91.4567 396.515 154.034 386.305 91.4567Z" fill="#FFC400"/>
<path fill-rule="evenodd" clip-rule="evenodd" d="M364.22 103.155C364.22 92.5438 374.14 83.9421 386.377 83.9421C398.615 83.9421 408.535 92.5438 408.535 103.155C408.535 113.766 398.615 122.367 386.377 122.367C374.14 122.367 364.22 113.766 364.22 103.155Z" fill="#FFC400"/>
<path fill-rule="evenodd" clip-rule="evenodd" d="M407.852 111.16V123.948C407.852 131.01 398.214 136.735 386.325 136.735C374.436 136.735 364.797 131.01 364.797 123.948V111.16H407.852Z" fill="#FF9800"/>
<path d="M382.673 72.3063C383.788 74.6285 384.587 76.0294 387 76.8889C389.413 77.7483 393.242 77.9958 395.539 76.889" stroke="black" stroke-width="2" stroke-miterlimit="10" stroke-linejoin="round"/>
<path fill-rule="evenodd" clip-rule="evenodd" d="M374.489 63.886C374.489 61.2752 376.605 59.1588 379.216 59.1588C380.47 59.1588 381.672 59.6568 382.559 60.5433C383.445 61.4299 383.943 62.6323 383.943 63.886C383.943 66.4969 381.827 68.6133 379.216 68.6133C376.605 68.6133 374.489 66.4969 374.489 63.886Z" fill="black"/>
<path fill-rule="evenodd" clip-rule="evenodd" d="M379.675 62.2826C379.675 61.554 380.266 60.9633 380.995 60.9633C381.344 60.9633 381.68 61.1023 381.927 61.3497C382.175 61.5972 382.314 61.9327 382.314 62.2826C382.314 63.0112 381.723 63.6018 380.995 63.6018C380.266 63.6018 379.675 63.0112 379.675 62.2826Z" fill="white"/>
<path fill-rule="evenodd" clip-rule="evenodd" d="M395.343 63.886C395.343 61.2752 397.46 59.1588 400.07 59.1588C401.324 59.1588 402.526 59.6568 403.413 60.5433C404.3 61.4299 404.798 62.6323 404.798 63.886C404.798 66.4969 402.681 68.6133 400.07 68.6133C397.46 68.6133 395.343 66.4969 395.343 63.886Z" fill="black"/>
<path fill-rule="evenodd" clip-rule="evenodd" d="M400.53 62.2826C400.53 61.554 401.12 60.9633 401.849 60.9633C402.199 60.9633 402.534 61.1023 402.782 61.3497C403.029 61.5972 403.168 61.9327 403.168 62.2826C403.168 63.0112 402.578 63.6018 401.849 63.6018C401.12 63.6018 400.53 63.0112 400.53 62.2826Z" fill="white"/>
<path d="M262.5 122L254.5 132.5L244.5 136L247.5 141" stroke="#FF9800" stroke-width="4" stroke-linecap="round" stroke-linejoin="round"/>
<path d="M401 130L414 134.5L423 145L427 140" stroke="#FF9800" stroke-width="4" stroke-linecap="round" stroke-linejoin="round"/>
<path fill-rule="evenodd" clip-rule="evenodd" d="M314.828 66.0735C313.559 65.3518 313.772 62.5195 315.304 59.7474C316.836 56.9753 319.107 55.3132 320.376 56.0349C321.645 56.7567 321.432 59.589 319.9 62.3611C318.368 65.1332 316.098 66.7953 314.828 66.0735Z" fill="#FFC400"/>
<path fill-rule="evenodd" clip-rule="evenodd" d="M315.365 61.7951C314.606 61.804 313.995 60.484 314 58.8468C314.005 57.2096 314.624 55.8753 315.383 55.8664C316.142 55.8575 316.753 57.1775 316.748 58.8147C316.743 60.4519 316.123 61.7863 315.365 61.7951Z" fill="#FFC400"/>
<path d="M316 63.3664C313.212 68.3425 309.269 68.4219 303.748 69.5577C300.96 70.1312 298.616 68.7776 295.918 68.7957" stroke="#FFC400" stroke-width="4" stroke-miterlimit="10" stroke-linejoin="round"/>
<path fill-rule="evenodd" clip-rule="evenodd" d="M237.669 79.8983C238.979 80.5428 238.935 83.3827 237.572 86.2413C236.208 89.1 234.041 90.8948 232.731 90.2503C231.421 89.6058 231.464 86.766 232.828 83.9073C234.191 81.0487 236.358 79.2538 237.669 79.8983Z" fill="#FFC400"/>
<path fill-rule="evenodd" clip-rule="evenodd" d="M237.653 82.9046C238.368 82.6493 239.375 83.6987 239.903 85.2485C240.43 86.7982 240.279 88.2615 239.564 88.5167C238.849 88.7719 237.842 87.7225 237.315 86.1728C236.787 84.623 236.939 83.1598 237.653 82.9046Z" fill="#FFC400"/>
<path d="M235.5 83.8664C236.517 78.2546 238.65 76.7366 243.5 73.8664C245.949 72.4173 249.516 69.1176 252.061 68.2226" stroke="#FFC400" stroke-width="4" stroke-miterlimit="10" stroke-linejoin="round"/>
<path fill-rule="evenodd" clip-rule="evenodd" d="M275.305 79.4567C265.095 142.034 225.276 79.4567 275.305 -1C325.333 79.4567 285.515 142.034 275.305 79.4567Z" fill="#FFC400"/>
<path fill-rule="evenodd" clip-rule="evenodd" d="M253.22 91.1547C253.22 80.5438 263.14 71.9421 275.377 71.9421C287.615 71.9421 297.535 80.5438 297.535 91.1547C297.535 101.766 287.615 110.367 275.377 110.367C263.14 110.367 253.22 101.766 253.22 91.1547Z" fill="#FFC400"/>
<path fill-rule="evenodd" clip-rule="evenodd" d="M296.852 99.1603V111.948C296.852 119.01 287.214 124.735 275.325 124.735C263.436 124.735 253.797 119.01 253.797 111.948V99.1603H296.852Z" fill="#FF9800"/>
<path d="M271.673 60.3062C272.788 62.6285 274.77 64.4159 277.183 65.2753C279.596 66.1347 282.242 65.9957 284.539 64.8889" stroke="black" stroke-width="2" stroke-miterlimit="10" stroke-linejoin="round"/>
<path fill-rule="evenodd" clip-rule="evenodd" d="M263.489 51.886C263.489 49.2752 265.605 47.1588 268.216 47.1588C269.47 47.1588 270.672 47.6568 271.559 48.5433C272.445 49.4299 272.943 50.6323 272.943 51.886C272.943 54.4969 270.827 56.6133 268.216 56.6133C265.605 56.6133 263.489 54.4969 263.489 51.886Z" fill="black"/>
<path fill-rule="evenodd" clip-rule="evenodd" d="M268.675 50.2826C268.675 49.554 269.266 48.9633 269.995 48.9633C270.344 48.9633 270.68 49.1023 270.927 49.3497C271.175 49.5972 271.314 49.9327 271.314 50.2826C271.314 51.0112 270.723 51.6018 269.995 51.6018C269.266 51.6018 268.675 51.0112 268.675 50.2826Z" fill="white"/>
<path fill-rule="evenodd" clip-rule="evenodd" d="M284.343 51.886C284.343 49.2752 286.46 47.1588 289.07 47.1588C290.324 47.1588 291.526 47.6568 292.413 48.5433C293.3 49.4299 293.798 50.6323 293.798 51.886C293.798 54.4969 291.681 56.6133 289.07 56.6133C286.46 56.6133 284.343 54.4969 284.343 51.886Z" fill="black"/>
<path fill-rule="evenodd" clip-rule="evenodd" d="M289.53 50.2826C289.53 49.554 290.12 48.9633 290.849 48.9633C291.199 48.9633 291.534 49.1023 291.782 49.3497C292.029 49.5972 292.168 49.9327 292.168 50.2826C292.168 51.0112 291.578 51.6018 290.849 51.6018C290.12 51.6018 289.53 51.0112 289.53 50.2826Z" fill="white"/>
<path d="M374.876 123L366.5 143L354.5 153L361.5 153" stroke="#FF9800" stroke-width="4" stroke-linecap="round" stroke-linejoin="round"/>
<path d="M288 120L300.244 126.866L303 137.797L310.5 135" stroke="#FF9800" stroke-width="4" stroke-linecap="round" stroke-linejoin="round"/>
<path fill-rule="evenodd" clip-rule="evenodd" d="M205.828 62.2072C204.559 61.4854 204.772 58.6531 206.304 55.881C207.836 53.109 210.107 51.4468 211.376 52.1686C212.645 52.8904 212.432 55.7227 210.9 58.4948C209.368 61.2669 207.098 62.929 205.828 62.2072Z" fill="#FFC400"/>
<path fill-rule="evenodd" clip-rule="evenodd" d="M206.738 57.4483C205.979 57.4571 205.368 56.1371 205.373 54.4999C205.378 52.8628 205.997 51.5284 206.756 51.5195C207.515 51.5106 208.126 52.8306 208.121 54.4678C208.116 56.105 207.496 57.4394 206.738 57.4483Z" fill="#FFC400"/>
<path d="M206.901 59.5838C202.331 62.9962 197.457 69.8489 191.951 68.6411C189.17 68.0313 187.58 65.8419 185.107 64.761" stroke="#FFC400" stroke-width="4" stroke-miterlimit="10" stroke-linejoin="round"/>
<path fill-rule="evenodd" clip-rule="evenodd" d="M129.327 73.663C130.501 74.5311 129.952 77.3176 128.1 79.8869C126.248 82.4562 123.795 83.8353 122.621 82.9673C121.447 82.0993 121.997 79.3128 123.849 76.7434C125.7 74.1741 128.153 72.795 129.327 73.663Z" fill="#FFC400"/>
<path fill-rule="evenodd" clip-rule="evenodd" d="M128.653 76.0382C129.368 75.783 130.375 76.8324 130.903 78.3822C131.43 79.9319 131.279 81.3951 130.564 81.6504C129.849 81.9056 128.842 80.8562 128.315 79.3064C127.787 77.7567 127.939 76.2935 128.653 76.0382Z" fill="#FFC400"/>
<path d="M127.5 79C128.483 72.6789 130.915 73.2905 135.604 70.0575C137.972 68.4253 140.539 69.0082 143 68" stroke="#FFC400" stroke-width="4" stroke-miterlimit="10" stroke-linejoin="round"/>
<path fill-rule="evenodd" clip-rule="evenodd" d="M166.305 79.5904C156.095 142.168 116.276 79.5904 166.305 -0.866333C216.333 79.5904 176.515 142.168 166.305 79.5904Z" fill="#FFC400"/>
<path fill-rule="evenodd" clip-rule="evenodd" d="M144.22 91.2883C144.22 80.6775 154.14 72.0757 166.377 72.0757C178.615 72.0757 188.535 80.6775 188.535 91.2883C188.535 101.899 178.615 110.501 166.377 110.501C154.14 110.501 144.22 101.899 144.22 91.2883Z" fill="#FFC400"/>
<path fill-rule="evenodd" clip-rule="evenodd" d="M187.852 99.294V112.081C187.852 119.144 178.214 124.869 166.325 124.869C154.435 124.869 144.797 119.144 144.797 112.081V99.294H187.852Z" fill="#FF9800"/>
<path d="M162.673 60.4399C163.788 62.7621 168.587 64.1632 171 65.0226C173.413 65.882 173.242 66.1294 175.539 65.0226" stroke="black" stroke-width="2" stroke-miterlimit="10" stroke-linejoin="round"/>
<path fill-rule="evenodd" clip-rule="evenodd" d="M154.489 52.0197C154.489 49.4089 156.605 47.2924 159.216 47.2924C160.47 47.2924 161.672 47.7905 162.559 48.677C163.445 49.5636 163.943 50.766 163.943 52.0197C163.943 54.6305 161.827 56.747 159.216 56.747C156.605 56.747 154.489 54.6305 154.489 52.0197Z" fill="black"/>
<path fill-rule="evenodd" clip-rule="evenodd" d="M159.675 50.4163C159.675 49.6877 160.266 49.097 160.995 49.097C161.344 49.097 161.68 49.236 161.927 49.4834C162.175 49.7308 162.314 50.0664 162.314 50.4163C162.314 51.1449 161.723 51.7355 160.995 51.7355C160.266 51.7355 159.675 51.1449 159.675 50.4163Z" fill="white"/>
<path fill-rule="evenodd" clip-rule="evenodd" d="M175.343 52.0197C175.343 49.4089 177.46 47.2924 180.07 47.2924C181.324 47.2924 182.526 47.7905 183.413 48.677C184.3 49.5636 184.798 50.766 184.798 52.0197C184.798 54.6305 182.681 56.747 180.07 56.747C177.46 56.747 175.343 54.6305 175.343 52.0197Z" fill="black"/>
<path fill-rule="evenodd" clip-rule="evenodd" d="M180.53 50.4163C180.53 49.6877 181.12 49.097 181.849 49.097C182.199 49.097 182.534 49.236 182.782 49.4834C183.029 49.7308 183.168 50.0664 183.168 50.4163C183.168 51.1449 182.578 51.7355 181.849 51.7355C181.12 51.7355 180.53 51.1449 180.53 50.4163Z" fill="white"/>
<path d="M153.901 119.267L139 128L121 125V132" stroke="#FF9800" stroke-width="4" stroke-linecap="round" stroke-linejoin="round"/>
<path d="M176.416 118.791L188.5 127L193.411 139.907L200.826 136.3" stroke="#FF9800" stroke-width="4" stroke-linecap="round" stroke-linejoin="round"/>
<path fill-rule="evenodd" clip-rule="evenodd" d="M95.791 67.9814C94.5219 67.2597 94.7348 64.4274 96.2667 61.6553C97.7985 58.8832 100.069 57.2211 101.338 57.9428C102.608 58.6646 102.395 61.4969 100.863 64.269C99.3309 67.0411 97.0602 68.7032 95.791 67.9814Z" fill="#FFC400"/>
<path fill-rule="evenodd" clip-rule="evenodd" d="M95.9898 64.2164C95.2311 64.2253 94.6201 62.9053 94.6253 61.2681C94.6304 59.6309 95.2497 58.2965 96.0085 58.2876C96.7672 58.2788 97.3781 59.5988 97.373 61.236C97.3679 62.8732 96.7486 64.2075 95.9898 64.2164Z" fill="#FFC400"/>
<path d="M96.723 66.3373C93.9351 71.3134 92.2693 79.5556 86.7475 80.6914C83.9596 81.2648 81.6163 79.9113 78.9175 79.9294" stroke="#FFC400" stroke-width="4" stroke-miterlimit="10" stroke-linejoin="round"/>
<path fill-rule="evenodd" clip-rule="evenodd" d="M22.7715 95.9801C24.2064 96.2497 24.9263 98.9971 24.3794 102.117C23.8325 105.236 22.2259 107.547 20.791 107.277C19.3561 107.007 18.6362 104.26 19.1831 101.14C19.73 98.0209 21.3366 95.7105 22.7715 95.9801Z" fill="#FFC400"/>
<path fill-rule="evenodd" clip-rule="evenodd" d="M23.808 99.6049C24.5227 99.3497 25.5297 100.399 26.0574 101.949C26.5851 103.499 26.4335 104.962 25.7189 105.217C25.0043 105.472 23.9972 104.423 23.4695 102.873C22.9419 101.323 23.0934 99.8601 23.808 99.6049Z" fill="#FFC400"/>
<path d="M22.6512 98C23.6683 92.3881 22.5631 84.0531 27.4128 81.1829C29.8614 79.7338 32.5163 80.2513 35.0612 79.3563" stroke="#FFC400" stroke-width="4" stroke-miterlimit="10" stroke-linejoin="round"/>
<path fill-rule="evenodd" clip-rule="evenodd" d="M58.3045 90.5904C48.0946 153.168 8.27567 90.5904 58.3045 10.1337C108.333 90.5904 68.5145 153.168 58.3045 90.5904Z" fill="#FFC400"/>
<path fill-rule="evenodd" clip-rule="evenodd" d="M36.22 102.288C36.22 91.6775 46.1402 83.0757 58.3774 83.0757C70.6147 83.0757 80.5349 91.6775 80.5349 102.288C80.5349 112.899 70.6147 121.501 58.3774 121.501C46.1402 121.501 36.22 112.899 36.22 102.288Z" fill="#FFC400"/>
<path fill-rule="evenodd" clip-rule="evenodd" d="M79.8525 110.294V123.081C79.8525 130.144 70.2143 135.869 58.3249 135.869C46.4356 135.869 36.7974 130.144 36.7974 123.081V110.294H79.8525Z" fill="#FF9800"/>
<path d="M54.6731 71.4399C55.7883 73.7621 57.7703 75.5495 60.1832 76.409C62.596 77.2684 65.2421 77.1294 67.5392 76.0226" stroke="black" stroke-width="2" stroke-miterlimit="10" stroke-linejoin="round"/>
<path fill-rule="evenodd" clip-rule="evenodd" d="M46.4885 63.0197C46.4885 60.4089 48.605 58.2924 51.2158 58.2924C52.4696 58.2924 53.672 58.7905 54.5585 59.677C55.4451 60.5636 55.9431 61.766 55.9431 63.0197C55.9431 65.6305 53.8266 67.747 51.2158 67.747C48.605 67.747 46.4885 65.6305 46.4885 63.0197Z" fill="black"/>
<path fill-rule="evenodd" clip-rule="evenodd" d="M51.6753 61.4163C51.6753 60.6877 52.2659 60.097 52.9945 60.097C53.3444 60.097 53.68 60.236 53.9274 60.4834C54.1748 60.7308 54.3138 61.0664 54.3138 61.4163C54.3138 62.1449 53.7231 62.7355 52.9945 62.7355C52.2659 62.7355 51.6753 62.1449 51.6753 61.4163Z" fill="white"/>
<path fill-rule="evenodd" clip-rule="evenodd" d="M67.343 63.0197C67.343 60.4089 69.4595 58.2924 72.0703 58.2924C73.3241 58.2924 74.5265 58.7905 75.413 59.677C76.2996 60.5636 76.7976 61.766 76.7976 63.0197C76.7976 65.6305 74.6811 67.747 72.0703 67.747C69.4595 67.747 67.343 65.6305 67.343 63.0197Z" fill="black"/>
<path fill-rule="evenodd" clip-rule="evenodd" d="M72.5298 61.4163C72.5298 60.6877 73.1204 60.097 73.849 60.097C74.1989 60.097 74.5345 60.236 74.7819 60.4834C75.0293 60.7308 75.1683 61.0664 75.1683 61.4163C75.1683 62.1449 74.5776 62.7355 73.849 62.7355C73.1204 62.7355 72.5298 62.1449 72.5298 61.4163Z" fill="white"/>
<path d="M45.9006 130.267L40.9006 142.267L25.4006 137.267L23.4006 144.267" stroke="#FF9800" stroke-width="4" stroke-linecap="round" stroke-linejoin="round"/>
<path d="M71 131L80.5 138L74.5 152.5H82.5" stroke="#FF9800" stroke-width="4" stroke-linecap="round" stroke-linejoin="round"/>
</g>
<defs>
<clipPath id="clip0">
<rect width="880" height="155" fill="white"/>
</clipPath>
</defs>
</svg>
