<svg width="880" height="155" viewBox="0 0 880 155" fill="none" xmlns="http://www.w3.org/2000/svg">
<path fill-rule="evenodd" clip-rule="evenodd" d="M167.43 84.4567C157.22 147.034 117.401 84.4567 167.43 4C217.459 84.4567 177.64 147.034 167.43 84.4567Z" fill="#FFC400"/>
<path fill-rule="evenodd" clip-rule="evenodd" d="M145.345 96.1547C145.345 85.5438 155.265 76.9421 167.503 76.9421C179.74 76.9421 189.66 85.5438 189.66 96.1547C189.66 106.765 179.74 115.367 167.503 115.367C155.265 115.367 145.345 106.765 145.345 96.1547Z" fill="#FFC400"/>
<path fill-rule="evenodd" clip-rule="evenodd" d="M188.978 104.16V116.948C188.978 124.01 179.34 129.735 167.45 129.735C155.561 129.735 145.923 124.01 145.923 116.948V104.16H188.978Z" fill="#FF9800"/>
<path fill-rule="evenodd" clip-rule="evenodd" d="M202.115 61.1966C200.71 60.8004 200.237 57.9991 201.058 54.9396C201.88 51.8801 203.686 49.721 205.092 50.1172C206.498 50.5133 206.971 53.3147 206.149 56.3742C205.327 59.4337 203.521 61.5927 202.115 61.1966Z" fill="#FFC400"/>
<path fill-rule="evenodd" clip-rule="evenodd" d="M201.405 57.4929C200.67 57.6837 199.76 56.5486 199.372 54.9576C198.984 53.3666 199.265 51.9223 199.999 51.7315C200.734 51.5407 201.644 52.6758 202.032 54.2668C202.42 55.8577 202.139 57.3021 201.405 57.4929Z" fill="#FFC400"/>
<path d="M202.463 59.2783C200.95 64.7769 201.31 73.1758 196.222 75.6037C193.654 76.8295 191.054 76.0784 188.439 76.7439" stroke="#FFC400" stroke-width="4" stroke-miterlimit="10" stroke-linejoin="round"/>
<path fill-rule="evenodd" clip-rule="evenodd" d="M133.437 61.1966C134.843 60.8004 135.316 57.9991 134.494 54.9396C133.672 51.8801 131.866 49.721 130.461 50.1172C129.055 50.5133 128.582 53.3147 129.404 56.3742C130.226 59.4337 132.031 61.5927 133.437 61.1966Z" fill="#FFC400"/>
<path fill-rule="evenodd" clip-rule="evenodd" d="M134.148 57.4929C134.883 57.6837 135.793 56.5486 136.181 54.9576C136.569 53.3666 136.288 51.9223 135.553 51.7315C134.819 51.5407 133.908 52.6758 133.52 54.2668C133.132 55.8577 133.413 57.3021 134.148 57.4929Z" fill="#FFC400"/>
<path d="M133.089 59.2783C134.602 64.7769 134.243 73.1758 139.33 75.6037C141.899 76.8295 144.498 76.0784 147.113 76.7439" stroke="#FFC400" stroke-width="4" stroke-miterlimit="10" stroke-linejoin="round"/>
<path fill-rule="evenodd" clip-rule="evenodd" d="M151.49 59.6801C151.49 57.3363 153.39 55.4363 155.733 55.4363C156.859 55.4363 157.938 55.8834 158.734 56.6793C159.53 57.4751 159.977 58.5546 159.977 59.6801C159.977 62.0239 158.077 63.9239 155.733 63.9239C153.39 63.9239 151.49 62.0239 151.49 59.6801Z" fill="black"/>
<path fill-rule="evenodd" clip-rule="evenodd" d="M153.796 57.5498C153.796 56.8957 154.327 56.3655 154.981 56.3655C155.295 56.3655 155.596 56.4902 155.818 56.7124C156.04 56.9345 156.165 57.2357 156.165 57.5498C156.165 58.2039 155.635 58.7341 154.981 58.7341C154.327 58.7341 153.796 58.2039 153.796 57.5498Z" fill="white"/>
<path fill-rule="evenodd" clip-rule="evenodd" d="M175.063 59.6801C175.063 57.3363 176.963 55.4363 179.306 55.4363C180.432 55.4363 181.511 55.8834 182.307 56.6793C183.102 57.4751 183.55 58.5546 183.55 59.6801C183.55 62.0239 181.65 63.9239 179.306 63.9239C176.963 63.9239 175.063 62.0239 175.063 59.6801Z" fill="black"/>
<path fill-rule="evenodd" clip-rule="evenodd" d="M177.369 57.5498C177.369 56.8957 177.899 56.3655 178.553 56.3655C178.868 56.3655 179.169 56.4902 179.391 56.7124C179.613 56.9345 179.738 57.2357 179.738 57.5498C179.738 58.2039 179.207 58.7341 178.553 58.7341C177.899 58.7341 177.369 58.2039 177.369 57.5498Z" fill="white"/>
<path fill-rule="evenodd" clip-rule="evenodd" d="M173.302 64.7758L173.916 68.508C174.255 70.5693 171.801 72.6916 168.435 73.2482C165.069 73.8048 162.066 72.5851 161.727 70.5238L161.113 66.7915L173.302 64.7758Z" stroke="black" stroke-width="2" stroke-miterlimit="10" stroke-linejoin="round"/>
<path d="M158.064 123.316L159.564 149.316L153.064 152.316" stroke="#FF9800" stroke-width="4"/>
<path d="M177.564 123.316L176.064 149.316L182.564 152.316" stroke="#FF9800" stroke-width="4"/>
<path fill-rule="evenodd" clip-rule="evenodd" d="M57.4299 84.4567C47.2199 147.034 7.40103 84.4567 57.4299 4C107.459 84.4567 67.6399 147.034 57.4299 84.4567Z" fill="#FFC400"/>
<path fill-rule="evenodd" clip-rule="evenodd" d="M35.3452 96.1547C35.3452 85.5438 45.2655 76.9421 57.5027 76.9421C69.7399 76.9421 79.6602 85.5438 79.6602 96.1547C79.6602 106.765 69.7399 115.367 57.5027 115.367C45.2655 115.367 35.3452 106.765 35.3452 96.1547Z" fill="#FFC400"/>
<path fill-rule="evenodd" clip-rule="evenodd" d="M78.9777 104.16V116.948C78.9777 124.01 69.3395 129.735 57.4502 129.735C45.5608 129.735 35.9226 124.01 35.9226 116.948V104.16H78.9777Z" fill="#FF9800"/>
<path fill-rule="evenodd" clip-rule="evenodd" d="M92.1153 61.1966C90.7097 60.8004 90.2365 57.9991 91.0585 54.9396C91.8804 51.8801 93.6863 49.721 95.0919 50.1172C96.4976 50.5133 96.9708 53.3147 96.1488 56.3742C95.3268 59.4337 93.521 61.5927 92.1153 61.1966Z" fill="#FFC400"/>
<path fill-rule="evenodd" clip-rule="evenodd" d="M91.4046 57.4929C90.6699 57.6837 89.7598 56.5486 89.3717 54.9576C88.9837 53.3666 89.2646 51.9223 89.9993 51.7315C90.7339 51.5407 91.6441 52.6758 92.0321 54.2668C92.4201 55.8577 92.1392 57.3021 91.4046 57.4929Z" fill="#FFC400"/>
<path d="M92.4631 59.2783C90.9502 64.7769 91.3096 73.1758 86.2221 75.6037C83.6536 76.8295 81.0545 76.0784 78.4392 76.7439" stroke="#FFC400" stroke-width="4" stroke-miterlimit="10" stroke-linejoin="round"/>
<path fill-rule="evenodd" clip-rule="evenodd" d="M23.4371 61.1966C24.8428 60.8004 25.316 57.9991 24.494 54.9396C23.6721 51.8801 21.8662 49.721 20.4606 50.1172C19.0549 50.5133 18.5817 53.3147 19.4037 56.3742C20.2256 59.4337 22.0315 61.5927 23.4371 61.1966Z" fill="#FFC400"/>
<path fill-rule="evenodd" clip-rule="evenodd" d="M24.148 57.4929C24.8826 57.6837 25.7927 56.5486 26.1808 54.9576C26.5688 53.3666 26.2879 51.9223 25.5532 51.7315C24.8186 51.5407 23.9085 52.6758 23.5204 54.2668C23.1324 55.8577 23.4133 57.3021 24.148 57.4929Z" fill="#FFC400"/>
<path d="M23.0894 59.2783C24.6022 64.7769 24.2428 73.1758 29.3303 75.6037C31.8988 76.8295 34.4979 76.0784 37.1132 76.7439" stroke="#FFC400" stroke-width="4" stroke-miterlimit="10" stroke-linejoin="round"/>
<path fill-rule="evenodd" clip-rule="evenodd" d="M41.4899 59.6801C41.4899 57.3363 43.3897 55.4363 45.7333 55.4363C46.8587 55.4363 47.938 55.8834 48.7338 56.6793C49.5296 57.4751 49.9766 58.5546 49.9766 59.6801C49.9766 62.0239 48.0768 63.9239 45.7333 63.9239C43.3897 63.9239 41.4899 62.0239 41.4899 59.6801Z" fill="black"/>
<path fill-rule="evenodd" clip-rule="evenodd" d="M43.7964 57.5498C43.7964 56.8957 44.3266 56.3655 44.9806 56.3655C45.2947 56.3655 45.5959 56.4902 45.8179 56.7124C46.04 56.9345 46.1648 57.2357 46.1648 57.5498C46.1648 58.2039 45.6346 58.7341 44.9806 58.7341C44.3266 58.7341 43.7964 58.2039 43.7964 57.5498Z" fill="white"/>
<path fill-rule="evenodd" clip-rule="evenodd" d="M65.0627 59.6801C65.0627 57.3363 66.9626 55.4363 69.3061 55.4363C70.4315 55.4363 71.5109 55.8834 72.3067 56.6793C73.1025 57.4751 73.5495 58.5546 73.5495 59.6801C73.5495 62.0239 71.6497 63.9239 69.3061 63.9239C66.9626 63.9239 65.0627 62.0239 65.0627 59.6801Z" fill="black"/>
<path fill-rule="evenodd" clip-rule="evenodd" d="M67.3693 57.5498C67.3693 56.8957 67.8994 56.3655 68.5535 56.3655C68.8675 56.3655 69.1687 56.4902 69.3908 56.7124C69.6129 56.9345 69.7377 57.2357 69.7377 57.5498C69.7377 58.2039 69.2075 58.7341 68.5535 58.7341C67.8994 58.7341 67.3693 58.2039 67.3693 57.5498Z" fill="white"/>
<path fill-rule="evenodd" clip-rule="evenodd" d="M63.3015 64.7758L63.9157 68.508C64.2549 70.5693 61.8013 72.6916 58.4354 73.2482C55.0695 73.8048 52.0659 72.5851 51.7267 70.5238L51.1125 66.7915L63.3015 64.7758Z" stroke="black" stroke-width="2" stroke-miterlimit="10" stroke-linejoin="round"/>
<path d="M48.0637 123.316L49.5637 149.316L43.0637 152.316" stroke="#FF9800" stroke-width="4"/>
<path d="M67.5637 123.316L66.0637 149.316L72.5637 152.316" stroke="#FF9800" stroke-width="4"/>
<path fill-rule="evenodd" clip-rule="evenodd" d="M497.43 84.4567C487.22 147.034 447.401 84.4567 497.43 4C547.459 84.4567 507.64 147.034 497.43 84.4567Z" fill="#FFC400"/>
<path fill-rule="evenodd" clip-rule="evenodd" d="M475.345 96.1547C475.345 85.5438 485.265 76.9421 497.503 76.9421C509.74 76.9421 519.66 85.5438 519.66 96.1547C519.66 106.765 509.74 115.367 497.503 115.367C485.265 115.367 475.345 106.765 475.345 96.1547Z" fill="#FFC400"/>
<path fill-rule="evenodd" clip-rule="evenodd" d="M518.978 104.16V116.948C518.978 124.01 509.34 129.735 497.45 129.735C485.561 129.735 475.923 124.01 475.923 116.948V104.16H518.978Z" fill="#FF9800"/>
<path fill-rule="evenodd" clip-rule="evenodd" d="M532.115 61.1966C530.71 60.8004 530.237 57.9991 531.058 54.9396C531.88 51.8801 533.686 49.721 535.092 50.1172C536.498 50.5133 536.971 53.3147 536.149 56.3742C535.327 59.4337 533.521 61.5927 532.115 61.1966Z" fill="#FFC400"/>
<path fill-rule="evenodd" clip-rule="evenodd" d="M531.405 57.4929C530.67 57.6837 529.76 56.5486 529.372 54.9576C528.984 53.3666 529.265 51.9223 529.999 51.7315C530.734 51.5407 531.644 52.6758 532.032 54.2668C532.42 55.8577 532.139 57.3021 531.405 57.4929Z" fill="#FFC400"/>
<path d="M532.463 59.2783C530.95 64.7769 531.31 73.1758 526.222 75.6037C523.654 76.8295 521.054 76.0784 518.439 76.7439" stroke="#FFC400" stroke-width="4" stroke-miterlimit="10" stroke-linejoin="round"/>
<path fill-rule="evenodd" clip-rule="evenodd" d="M463.437 61.1966C464.843 60.8004 465.316 57.9991 464.494 54.9396C463.672 51.8801 461.866 49.721 460.461 50.1172C459.055 50.5133 458.582 53.3147 459.404 56.3742C460.226 59.4337 462.031 61.5927 463.437 61.1966Z" fill="#FFC400"/>
<path fill-rule="evenodd" clip-rule="evenodd" d="M464.148 57.4929C464.883 57.6837 465.793 56.5486 466.181 54.9576C466.569 53.3666 466.288 51.9223 465.553 51.7315C464.819 51.5407 463.908 52.6758 463.52 54.2668C463.132 55.8577 463.413 57.3021 464.148 57.4929Z" fill="#FFC400"/>
<path d="M463.089 59.2783C464.602 64.7769 464.243 73.1758 469.33 75.6037C471.899 76.8295 474.498 76.0784 477.113 76.7439" stroke="#FFC400" stroke-width="4" stroke-miterlimit="10" stroke-linejoin="round"/>
<path fill-rule="evenodd" clip-rule="evenodd" d="M481.49 59.6801C481.49 57.3363 483.39 55.4363 485.733 55.4363C486.859 55.4363 487.938 55.8834 488.734 56.6793C489.53 57.4751 489.977 58.5546 489.977 59.6801C489.977 62.0239 488.077 63.9239 485.733 63.9239C483.39 63.9239 481.49 62.0239 481.49 59.6801Z" fill="black"/>
<path fill-rule="evenodd" clip-rule="evenodd" d="M483.796 57.5498C483.796 56.8957 484.327 56.3655 484.981 56.3655C485.295 56.3655 485.596 56.4902 485.818 56.7124C486.04 56.9345 486.165 57.2357 486.165 57.5498C486.165 58.2039 485.635 58.7341 484.981 58.7341C484.327 58.7341 483.796 58.2039 483.796 57.5498Z" fill="white"/>
<path fill-rule="evenodd" clip-rule="evenodd" d="M505.063 59.6801C505.063 57.3363 506.963 55.4363 509.306 55.4363C510.432 55.4363 511.511 55.8834 512.307 56.6793C513.102 57.4751 513.55 58.5546 513.55 59.6801C513.55 62.0239 511.65 63.9239 509.306 63.9239C506.963 63.9239 505.063 62.0239 505.063 59.6801Z" fill="black"/>
<path fill-rule="evenodd" clip-rule="evenodd" d="M507.369 57.5498C507.369 56.8957 507.899 56.3655 508.553 56.3655C508.868 56.3655 509.169 56.4902 509.391 56.7124C509.613 56.9345 509.738 57.2357 509.738 57.5498C509.738 58.2039 509.207 58.7341 508.553 58.7341C507.899 58.7341 507.369 58.2039 507.369 57.5498Z" fill="white"/>
<path fill-rule="evenodd" clip-rule="evenodd" d="M503.302 64.7758L503.916 68.508C504.255 70.5693 501.801 72.6916 498.435 73.2482C495.069 73.8048 492.066 72.5851 491.727 70.5238L491.113 66.7915L503.302 64.7758Z" stroke="black" stroke-width="2" stroke-miterlimit="10" stroke-linejoin="round"/>
<path d="M488.064 123.316L489.564 149.316L483.064 152.316" stroke="#FF9800" stroke-width="4"/>
<path d="M507.564 123.316L506.064 149.316L512.564 152.316" stroke="#FF9800" stroke-width="4"/>
<path fill-rule="evenodd" clip-rule="evenodd" d="M277.43 84.4567C267.22 147.034 227.401 84.4567 277.43 4C327.459 84.4567 287.64 147.034 277.43 84.4567Z" fill="#FFC400"/>
<path fill-rule="evenodd" clip-rule="evenodd" d="M255.345 96.1547C255.345 85.5438 265.265 76.9421 277.503 76.9421C289.74 76.9421 299.66 85.5438 299.66 96.1547C299.66 106.765 289.74 115.367 277.503 115.367C265.265 115.367 255.345 106.765 255.345 96.1547Z" fill="#FFC400"/>
<path fill-rule="evenodd" clip-rule="evenodd" d="M298.978 104.16V116.948C298.978 124.01 289.34 129.735 277.45 129.735C265.561 129.735 255.923 124.01 255.923 116.948V104.16H298.978Z" fill="#FF9800"/>
<path fill-rule="evenodd" clip-rule="evenodd" d="M312.115 61.1966C310.71 60.8004 310.237 57.9991 311.058 54.9396C311.88 51.8801 313.686 49.721 315.092 50.1172C316.498 50.5133 316.971 53.3147 316.149 56.3742C315.327 59.4337 313.521 61.5927 312.115 61.1966Z" fill="#FFC400"/>
<path fill-rule="evenodd" clip-rule="evenodd" d="M311.405 57.4929C310.67 57.6837 309.76 56.5486 309.372 54.9576C308.984 53.3666 309.265 51.9223 309.999 51.7315C310.734 51.5407 311.644 52.6758 312.032 54.2668C312.42 55.8577 312.139 57.3021 311.405 57.4929Z" fill="#FFC400"/>
<path d="M312.463 59.2783C310.95 64.7769 311.31 73.1758 306.222 75.6037C303.654 76.8295 301.054 76.0784 298.439 76.7439" stroke="#FFC400" stroke-width="4" stroke-miterlimit="10" stroke-linejoin="round"/>
<path fill-rule="evenodd" clip-rule="evenodd" d="M243.437 61.1966C244.843 60.8004 245.316 57.9991 244.494 54.9396C243.672 51.8801 241.866 49.721 240.461 50.1172C239.055 50.5133 238.582 53.3147 239.404 56.3742C240.226 59.4337 242.031 61.5927 243.437 61.1966Z" fill="#FFC400"/>
<path fill-rule="evenodd" clip-rule="evenodd" d="M244.148 57.4929C244.883 57.6837 245.793 56.5486 246.181 54.9576C246.569 53.3666 246.288 51.9223 245.553 51.7315C244.819 51.5407 243.908 52.6758 243.52 54.2668C243.132 55.8577 243.413 57.3021 244.148 57.4929Z" fill="#FFC400"/>
<path d="M243.089 59.2783C244.602 64.7769 244.243 73.1758 249.33 75.6037C251.899 76.8295 254.498 76.0784 257.113 76.7439" stroke="#FFC400" stroke-width="4" stroke-miterlimit="10" stroke-linejoin="round"/>
<path fill-rule="evenodd" clip-rule="evenodd" d="M261.49 59.6801C261.49 57.3363 263.39 55.4363 265.733 55.4363C266.859 55.4363 267.938 55.8834 268.734 56.6793C269.53 57.4751 269.977 58.5546 269.977 59.6801C269.977 62.0239 268.077 63.9239 265.733 63.9239C263.39 63.9239 261.49 62.0239 261.49 59.6801Z" fill="black"/>
<path fill-rule="evenodd" clip-rule="evenodd" d="M263.796 57.5498C263.796 56.8957 264.327 56.3655 264.981 56.3655C265.295 56.3655 265.596 56.4902 265.818 56.7124C266.04 56.9345 266.165 57.2357 266.165 57.5498C266.165 58.2039 265.635 58.7341 264.981 58.7341C264.327 58.7341 263.796 58.2039 263.796 57.5498Z" fill="white"/>
<path fill-rule="evenodd" clip-rule="evenodd" d="M285.063 59.6801C285.063 57.3363 286.963 55.4363 289.306 55.4363C290.432 55.4363 291.511 55.8834 292.307 56.6793C293.102 57.4751 293.55 58.5546 293.55 59.6801C293.55 62.0239 291.65 63.9239 289.306 63.9239C286.963 63.9239 285.063 62.0239 285.063 59.6801Z" fill="black"/>
<path fill-rule="evenodd" clip-rule="evenodd" d="M287.369 57.5498C287.369 56.8957 287.899 56.3655 288.553 56.3655C288.868 56.3655 289.169 56.4902 289.391 56.7124C289.613 56.9345 289.738 57.2357 289.738 57.5498C289.738 58.2039 289.207 58.7341 288.553 58.7341C287.899 58.7341 287.369 58.2039 287.369 57.5498Z" fill="white"/>
<path fill-rule="evenodd" clip-rule="evenodd" d="M283.302 64.7758L283.916 68.508C284.255 70.5693 281.801 72.6916 278.435 73.2482C275.069 73.8048 272.066 72.5851 271.727 70.5238L271.113 66.7915L283.302 64.7758Z" stroke="black" stroke-width="2" stroke-miterlimit="10" stroke-linejoin="round"/>
<path d="M268.064 123.316L269.564 149.316L263.064 152.316" stroke="#FF9800" stroke-width="4"/>
<path d="M287.564 123.316L286.064 149.316L292.564 152.316" stroke="#FF9800" stroke-width="4"/>
<path fill-rule="evenodd" clip-rule="evenodd" d="M387.43 84.4567C377.22 147.034 337.401 84.4567 387.43 4C437.459 84.4567 397.64 147.034 387.43 84.4567Z" fill="#FFC400"/>
<path fill-rule="evenodd" clip-rule="evenodd" d="M365.345 96.1547C365.345 85.5438 375.265 76.9421 387.503 76.9421C399.74 76.9421 409.66 85.5438 409.66 96.1547C409.66 106.765 399.74 115.367 387.503 115.367C375.265 115.367 365.345 106.765 365.345 96.1547Z" fill="#FFC400"/>
<path fill-rule="evenodd" clip-rule="evenodd" d="M408.978 104.16V116.948C408.978 124.01 399.34 129.735 387.45 129.735C375.561 129.735 365.923 124.01 365.923 116.948V104.16H408.978Z" fill="#FF9800"/>
<path fill-rule="evenodd" clip-rule="evenodd" d="M422.115 61.1966C420.71 60.8004 420.237 57.9991 421.058 54.9396C421.88 51.8801 423.686 49.721 425.092 50.1172C426.498 50.5133 426.971 53.3147 426.149 56.3742C425.327 59.4337 423.521 61.5927 422.115 61.1966Z" fill="#FFC400"/>
<path fill-rule="evenodd" clip-rule="evenodd" d="M421.405 57.4929C420.67 57.6837 419.76 56.5486 419.372 54.9576C418.984 53.3666 419.265 51.9223 419.999 51.7315C420.734 51.5407 421.644 52.6758 422.032 54.2668C422.42 55.8577 422.139 57.3021 421.405 57.4929Z" fill="#FFC400"/>
<path d="M422.463 59.2783C420.95 64.7769 421.31 73.1758 416.222 75.6037C413.654 76.8295 411.054 76.0784 408.439 76.7439" stroke="#FFC400" stroke-width="4" stroke-miterlimit="10" stroke-linejoin="round"/>
<path fill-rule="evenodd" clip-rule="evenodd" d="M353.437 61.1966C354.843 60.8004 355.316 57.9991 354.494 54.9396C353.672 51.8801 351.866 49.721 350.461 50.1172C349.055 50.5133 348.582 53.3147 349.404 56.3742C350.226 59.4337 352.031 61.5927 353.437 61.1966Z" fill="#FFC400"/>
<path fill-rule="evenodd" clip-rule="evenodd" d="M354.148 57.4929C354.883 57.6837 355.793 56.5486 356.181 54.9576C356.569 53.3666 356.288 51.9223 355.553 51.7315C354.819 51.5407 353.908 52.6758 353.52 54.2668C353.132 55.8577 353.413 57.3021 354.148 57.4929Z" fill="#FFC400"/>
<path d="M353.089 59.2783C354.602 64.7769 354.243 73.1758 359.33 75.6037C361.899 76.8295 364.498 76.0784 367.113 76.7439" stroke="#FFC400" stroke-width="4" stroke-miterlimit="10" stroke-linejoin="round"/>
<path fill-rule="evenodd" clip-rule="evenodd" d="M371.49 59.6801C371.49 57.3363 373.39 55.4363 375.733 55.4363C376.859 55.4363 377.938 55.8834 378.734 56.6793C379.53 57.4751 379.977 58.5546 379.977 59.6801C379.977 62.0239 378.077 63.9239 375.733 63.9239C373.39 63.9239 371.49 62.0239 371.49 59.6801Z" fill="black"/>
<path fill-rule="evenodd" clip-rule="evenodd" d="M373.796 57.5498C373.796 56.8957 374.327 56.3655 374.981 56.3655C375.295 56.3655 375.596 56.4902 375.818 56.7124C376.04 56.9345 376.165 57.2357 376.165 57.5498C376.165 58.2039 375.635 58.7341 374.981 58.7341C374.327 58.7341 373.796 58.2039 373.796 57.5498Z" fill="white"/>
<path fill-rule="evenodd" clip-rule="evenodd" d="M395.063 59.6801C395.063 57.3363 396.963 55.4363 399.306 55.4363C400.432 55.4363 401.511 55.8834 402.307 56.6793C403.102 57.4751 403.55 58.5546 403.55 59.6801C403.55 62.0239 401.65 63.9239 399.306 63.9239C396.963 63.9239 395.063 62.0239 395.063 59.6801Z" fill="black"/>
<path fill-rule="evenodd" clip-rule="evenodd" d="M397.369 57.5498C397.369 56.8957 397.899 56.3655 398.553 56.3655C398.868 56.3655 399.169 56.4902 399.391 56.7124C399.613 56.9345 399.738 57.2357 399.738 57.5498C399.738 58.2039 399.207 58.7341 398.553 58.7341C397.899 58.7341 397.369 58.2039 397.369 57.5498Z" fill="white"/>
<path fill-rule="evenodd" clip-rule="evenodd" d="M393.302 64.7758L393.916 68.508C394.255 70.5693 391.801 72.6916 388.435 73.2482C385.069 73.8048 382.066 72.5851 381.727 70.5238L381.113 66.7915L393.302 64.7758Z" stroke="black" stroke-width="2" stroke-miterlimit="10" stroke-linejoin="round"/>
<path d="M378.064 123.316L379.564 149.316L373.064 152.316" stroke="#FF9800" stroke-width="4"/>
<path d="M397.564 123.316L396.064 149.316L402.564 152.316" stroke="#FF9800" stroke-width="4"/>
<path fill-rule="evenodd" clip-rule="evenodd" d="M607.43 84.4567C597.22 147.034 557.401 84.4567 607.43 4C657.459 84.4567 617.64 147.034 607.43 84.4567Z" fill="#FFC400"/>
<path fill-rule="evenodd" clip-rule="evenodd" d="M585.345 96.1547C585.345 85.5438 595.265 76.9421 607.503 76.9421C619.74 76.9421 629.66 85.5438 629.66 96.1547C629.66 106.765 619.74 115.367 607.503 115.367C595.265 115.367 585.345 106.765 585.345 96.1547Z" fill="#FFC400"/>
<path fill-rule="evenodd" clip-rule="evenodd" d="M628.978 104.16V116.948C628.978 124.01 619.34 129.735 607.45 129.735C595.561 129.735 585.923 124.01 585.923 116.948V104.16H628.978Z" fill="#FF9800"/>
<path fill-rule="evenodd" clip-rule="evenodd" d="M642.115 61.1966C640.71 60.8004 640.237 57.9991 641.058 54.9396C641.88 51.8801 643.686 49.721 645.092 50.1172C646.498 50.5133 646.971 53.3147 646.149 56.3742C645.327 59.4337 643.521 61.5927 642.115 61.1966Z" fill="#FFC400"/>
<path fill-rule="evenodd" clip-rule="evenodd" d="M641.405 57.4929C640.67 57.6837 639.76 56.5486 639.372 54.9576C638.984 53.3666 639.265 51.9223 639.999 51.7315C640.734 51.5407 641.644 52.6758 642.032 54.2668C642.42 55.8577 642.139 57.3021 641.405 57.4929Z" fill="#FFC400"/>
<path d="M642.463 59.2783C640.95 64.7769 641.31 73.1758 636.222 75.6037C633.654 76.8295 631.054 76.0784 628.439 76.7439" stroke="#FFC400" stroke-width="4" stroke-miterlimit="10" stroke-linejoin="round"/>
<path fill-rule="evenodd" clip-rule="evenodd" d="M573.437 61.1966C574.843 60.8004 575.316 57.9991 574.494 54.9396C573.672 51.8801 571.866 49.721 570.461 50.1172C569.055 50.5133 568.582 53.3147 569.404 56.3742C570.226 59.4337 572.031 61.5927 573.437 61.1966Z" fill="#FFC400"/>
<path fill-rule="evenodd" clip-rule="evenodd" d="M574.148 57.4929C574.883 57.6837 575.793 56.5486 576.181 54.9576C576.569 53.3666 576.288 51.9223 575.553 51.7315C574.819 51.5407 573.908 52.6758 573.52 54.2668C573.132 55.8577 573.413 57.3021 574.148 57.4929Z" fill="#FFC400"/>
<path d="M573.089 59.2783C574.602 64.7769 574.243 73.1758 579.33 75.6037C581.899 76.8295 584.498 76.0784 587.113 76.7439" stroke="#FFC400" stroke-width="4" stroke-miterlimit="10" stroke-linejoin="round"/>
<path fill-rule="evenodd" clip-rule="evenodd" d="M591.49 59.6801C591.49 57.3363 593.39 55.4363 595.733 55.4363C596.859 55.4363 597.938 55.8834 598.734 56.6793C599.53 57.4751 599.977 58.5546 599.977 59.6801C599.977 62.0239 598.077 63.9239 595.733 63.9239C593.39 63.9239 591.49 62.0239 591.49 59.6801Z" fill="black"/>
<path fill-rule="evenodd" clip-rule="evenodd" d="M593.796 57.5498C593.796 56.8957 594.327 56.3655 594.981 56.3655C595.295 56.3655 595.596 56.4902 595.818 56.7124C596.04 56.9345 596.165 57.2357 596.165 57.5498C596.165 58.2039 595.635 58.7341 594.981 58.7341C594.327 58.7341 593.796 58.2039 593.796 57.5498Z" fill="white"/>
<path fill-rule="evenodd" clip-rule="evenodd" d="M615.063 59.6801C615.063 57.3363 616.963 55.4363 619.306 55.4363C620.432 55.4363 621.511 55.8834 622.307 56.6793C623.102 57.4751 623.55 58.5546 623.55 59.6801C623.55 62.0239 621.65 63.9239 619.306 63.9239C616.963 63.9239 615.063 62.0239 615.063 59.6801Z" fill="black"/>
<path fill-rule="evenodd" clip-rule="evenodd" d="M617.369 57.5498C617.369 56.8957 617.899 56.3655 618.553 56.3655C618.868 56.3655 619.169 56.4902 619.391 56.7124C619.613 56.9345 619.738 57.2357 619.738 57.5498C619.738 58.2039 619.207 58.7341 618.553 58.7341C617.899 58.7341 617.369 58.2039 617.369 57.5498Z" fill="white"/>
<path fill-rule="evenodd" clip-rule="evenodd" d="M613.302 64.7758L613.916 68.508C614.255 70.5693 611.801 72.6916 608.435 73.2482C605.069 73.8048 602.066 72.5851 601.727 70.5238L601.113 66.7915L613.302 64.7758Z" stroke="black" stroke-width="2" stroke-miterlimit="10" stroke-linejoin="round"/>
<path d="M598.064 123.316L599.564 149.316L593.064 152.316" stroke="#FF9800" stroke-width="4"/>
<path d="M617.564 123.316L616.064 149.316L622.564 152.316" stroke="#FF9800" stroke-width="4"/>
<path fill-rule="evenodd" clip-rule="evenodd" d="M717.43 84.4567C707.22 147.034 667.401 84.4567 717.43 4C767.459 84.4567 727.64 147.034 717.43 84.4567Z" fill="#FFC400"/>
<path fill-rule="evenodd" clip-rule="evenodd" d="M695.345 96.1547C695.345 85.5438 705.265 76.9421 717.503 76.9421C729.74 76.9421 739.66 85.5438 739.66 96.1547C739.66 106.765 729.74 115.367 717.503 115.367C705.265 115.367 695.345 106.765 695.345 96.1547Z" fill="#FFC400"/>
<path fill-rule="evenodd" clip-rule="evenodd" d="M738.978 104.16V116.948C738.978 124.01 729.34 129.735 717.45 129.735C705.561 129.735 695.923 124.01 695.923 116.948V104.16H738.978Z" fill="#FF9800"/>
<path fill-rule="evenodd" clip-rule="evenodd" d="M752.115 61.1966C750.71 60.8004 750.237 57.9991 751.058 54.9396C751.88 51.8801 753.686 49.721 755.092 50.1172C756.498 50.5133 756.971 53.3147 756.149 56.3742C755.327 59.4337 753.521 61.5927 752.115 61.1966Z" fill="#FFC400"/>
<path fill-rule="evenodd" clip-rule="evenodd" d="M751.405 57.4929C750.67 57.6837 749.76 56.5486 749.372 54.9576C748.984 53.3666 749.265 51.9223 749.999 51.7315C750.734 51.5407 751.644 52.6758 752.032 54.2668C752.42 55.8577 752.139 57.3021 751.405 57.4929Z" fill="#FFC400"/>
<path d="M752.463 59.2783C750.95 64.7769 751.31 73.1758 746.222 75.6037C743.654 76.8295 741.054 76.0784 738.439 76.7439" stroke="#FFC400" stroke-width="4" stroke-miterlimit="10" stroke-linejoin="round"/>
<path fill-rule="evenodd" clip-rule="evenodd" d="M683.437 61.1966C684.843 60.8004 685.316 57.9991 684.494 54.9396C683.672 51.8801 681.866 49.721 680.461 50.1172C679.055 50.5133 678.582 53.3147 679.404 56.3742C680.226 59.4337 682.031 61.5927 683.437 61.1966Z" fill="#FFC400"/>
<path fill-rule="evenodd" clip-rule="evenodd" d="M684.148 57.4929C684.883 57.6837 685.793 56.5486 686.181 54.9576C686.569 53.3666 686.288 51.9223 685.553 51.7315C684.819 51.5407 683.908 52.6758 683.52 54.2668C683.132 55.8577 683.413 57.3021 684.148 57.4929Z" fill="#FFC400"/>
<path d="M683.089 59.2783C684.602 64.7769 684.243 73.1758 689.33 75.6037C691.899 76.8295 694.498 76.0784 697.113 76.7439" stroke="#FFC400" stroke-width="4" stroke-miterlimit="10" stroke-linejoin="round"/>
<path fill-rule="evenodd" clip-rule="evenodd" d="M701.49 59.6801C701.49 57.3363 703.39 55.4363 705.733 55.4363C706.859 55.4363 707.938 55.8834 708.734 56.6793C709.53 57.4751 709.977 58.5546 709.977 59.6801C709.977 62.0239 708.077 63.9239 705.733 63.9239C703.39 63.9239 701.49 62.0239 701.49 59.6801Z" fill="black"/>
<path fill-rule="evenodd" clip-rule="evenodd" d="M703.796 57.5498C703.796 56.8957 704.327 56.3655 704.981 56.3655C705.295 56.3655 705.596 56.4902 705.818 56.7124C706.04 56.9345 706.165 57.2357 706.165 57.5498C706.165 58.2039 705.635 58.7341 704.981 58.7341C704.327 58.7341 703.796 58.2039 703.796 57.5498Z" fill="white"/>
<path fill-rule="evenodd" clip-rule="evenodd" d="M725.063 59.6801C725.063 57.3363 726.963 55.4363 729.306 55.4363C730.432 55.4363 731.511 55.8834 732.307 56.6793C733.102 57.4751 733.55 58.5546 733.55 59.6801C733.55 62.0239 731.65 63.9239 729.306 63.9239C726.963 63.9239 725.063 62.0239 725.063 59.6801Z" fill="black"/>
<path fill-rule="evenodd" clip-rule="evenodd" d="M727.369 57.5498C727.369 56.8957 727.899 56.3655 728.553 56.3655C728.868 56.3655 729.169 56.4902 729.391 56.7124C729.613 56.9345 729.738 57.2357 729.738 57.5498C729.738 58.2039 729.207 58.7341 728.553 58.7341C727.899 58.7341 727.369 58.2039 727.369 57.5498Z" fill="white"/>
<path fill-rule="evenodd" clip-rule="evenodd" d="M723.302 64.7758L723.916 68.508C724.255 70.5693 721.801 72.6916 718.435 73.2482C715.069 73.8048 712.066 72.5851 711.727 70.5238L711.113 66.7915L723.302 64.7758Z" stroke="black" stroke-width="2" stroke-miterlimit="10" stroke-linejoin="round"/>
<path d="M708.064 123.316L709.564 149.316L703.064 152.316" stroke="#FF9800" stroke-width="4"/>
<path d="M727.564 123.316L726.064 149.316L732.564 152.316" stroke="#FF9800" stroke-width="4"/>
<path fill-rule="evenodd" clip-rule="evenodd" d="M827.43 84.4567C817.22 147.034 777.401 84.4567 827.43 4C877.459 84.4567 837.64 147.034 827.43 84.4567Z" fill="#FFC400"/>
<path fill-rule="evenodd" clip-rule="evenodd" d="M805.345 96.1547C805.345 85.5438 815.265 76.9421 827.503 76.9421C839.74 76.9421 849.66 85.5438 849.66 96.1547C849.66 106.765 839.74 115.367 827.503 115.367C815.265 115.367 805.345 106.765 805.345 96.1547Z" fill="#FFC400"/>
<path fill-rule="evenodd" clip-rule="evenodd" d="M848.978 104.16V116.948C848.978 124.01 839.34 129.735 827.45 129.735C815.561 129.735 805.923 124.01 805.923 116.948V104.16H848.978Z" fill="#FF9800"/>
<path fill-rule="evenodd" clip-rule="evenodd" d="M862.115 61.1966C860.71 60.8004 860.237 57.9991 861.058 54.9396C861.88 51.8801 863.686 49.721 865.092 50.1172C866.498 50.5133 866.971 53.3147 866.149 56.3742C865.327 59.4337 863.521 61.5927 862.115 61.1966Z" fill="#FFC400"/>
<path fill-rule="evenodd" clip-rule="evenodd" d="M861.405 57.4929C860.67 57.6837 859.76 56.5486 859.372 54.9576C858.984 53.3666 859.265 51.9223 859.999 51.7315C860.734 51.5407 861.644 52.6758 862.032 54.2668C862.42 55.8577 862.139 57.3021 861.405 57.4929Z" fill="#FFC400"/>
<path d="M862.463 59.2783C860.95 64.7769 861.31 73.1758 856.222 75.6037C853.654 76.8295 851.054 76.0784 848.439 76.7439" stroke="#FFC400" stroke-width="4" stroke-miterlimit="10" stroke-linejoin="round"/>
<path fill-rule="evenodd" clip-rule="evenodd" d="M793.437 61.1966C794.843 60.8004 795.316 57.9991 794.494 54.9396C793.672 51.8801 791.866 49.721 790.461 50.1172C789.055 50.5133 788.582 53.3147 789.404 56.3742C790.226 59.4337 792.031 61.5927 793.437 61.1966Z" fill="#FFC400"/>
<path fill-rule="evenodd" clip-rule="evenodd" d="M794.148 57.4929C794.883 57.6837 795.793 56.5486 796.181 54.9576C796.569 53.3666 796.288 51.9223 795.553 51.7315C794.819 51.5407 793.908 52.6758 793.52 54.2668C793.132 55.8577 793.413 57.3021 794.148 57.4929Z" fill="#FFC400"/>
<path d="M793.089 59.2783C794.602 64.7769 794.243 73.1758 799.33 75.6037C801.899 76.8295 804.498 76.0784 807.113 76.7439" stroke="#FFC400" stroke-width="4" stroke-miterlimit="10" stroke-linejoin="round"/>
<path fill-rule="evenodd" clip-rule="evenodd" d="M811.49 59.6801C811.49 57.3363 813.39 55.4363 815.733 55.4363C816.859 55.4363 817.938 55.8834 818.734 56.6793C819.53 57.4751 819.977 58.5546 819.977 59.6801C819.977 62.0239 818.077 63.9239 815.733 63.9239C813.39 63.9239 811.49 62.0239 811.49 59.6801Z" fill="black"/>
<path fill-rule="evenodd" clip-rule="evenodd" d="M813.796 57.5498C813.796 56.8957 814.327 56.3655 814.981 56.3655C815.295 56.3655 815.596 56.4902 815.818 56.7124C816.04 56.9345 816.165 57.2357 816.165 57.5498C816.165 58.2039 815.635 58.7341 814.981 58.7341C814.327 58.7341 813.796 58.2039 813.796 57.5498Z" fill="white"/>
<path fill-rule="evenodd" clip-rule="evenodd" d="M835.063 59.6801C835.063 57.3363 836.963 55.4363 839.306 55.4363C840.432 55.4363 841.511 55.8834 842.307 56.6793C843.102 57.4751 843.55 58.5546 843.55 59.6801C843.55 62.0239 841.65 63.9239 839.306 63.9239C836.963 63.9239 835.063 62.0239 835.063 59.6801Z" fill="black"/>
<path fill-rule="evenodd" clip-rule="evenodd" d="M837.369 57.5498C837.369 56.8957 837.899 56.3655 838.553 56.3655C838.868 56.3655 839.169 56.4902 839.391 56.7124C839.613 56.9345 839.738 57.2357 839.738 57.5498C839.738 58.2039 839.207 58.7341 838.553 58.7341C837.899 58.7341 837.369 58.2039 837.369 57.5498Z" fill="white"/>
<path fill-rule="evenodd" clip-rule="evenodd" d="M833.302 64.7758L833.916 68.508C834.255 70.5693 831.801 72.6916 828.435 73.2482C825.069 73.8048 822.066 72.5851 821.727 70.5238L821.113 66.7915L833.302 64.7758Z" stroke="black" stroke-width="2" stroke-miterlimit="10" stroke-linejoin="round"/>
<path d="M818.064 123.316L819.564 149.316L813.064 152.316" stroke="#FF9800" stroke-width="4"/>
<path d="M837.564 123.316L836.064 149.316L842.564 152.316" stroke="#FF9800" stroke-width="4"/>
</svg>
