<svg width="111" height="156" viewBox="0 0 111 156" fill="none" xmlns="http://www.w3.org/2000/svg">
<path fill-rule="evenodd" clip-rule="evenodd" d="M94.791 61.8478C93.5218 61.126 93.7348 58.2937 95.2666 55.5216C96.7985 52.7495 99.0692 51.0874 100.338 51.8092C101.608 52.5309 101.395 55.3633 99.8627 58.1353C98.3308 60.9074 96.0601 62.5695 94.791 61.8478V61.8478Z" fill="#FFC400"/>
<path fill-rule="evenodd" clip-rule="evenodd" d="M94.9899 58.0827C94.2311 58.0916 93.6202 56.7716 93.6253 55.1344C93.6304 53.4972 94.2497 52.1628 95.0085 52.154C95.7672 52.1451 96.3782 53.4651 96.373 55.1023C96.3679 56.7395 95.7486 58.0739 94.9899 58.0827V58.0827Z" fill="#FFC400"/>
<path d="M95.723 60.2036C92.9352 65.1797 91.2694 73.4219 85.7475 74.5577C82.9597 75.1311 80.6163 73.7776 77.9175 73.7957" stroke="#FFC400" stroke-width="4" stroke-miterlimit="10" stroke-linejoin="round"/>
<path fill-rule="evenodd" clip-rule="evenodd" d="M21.7715 89.8464C23.2064 90.116 23.9263 92.8635 23.3794 95.983C22.8325 99.1026 21.2259 101.413 19.791 101.143C18.3561 100.874 17.6362 98.1263 18.1831 95.0068C18.73 91.8872 20.3366 89.5769 21.7715 89.8464Z" fill="#FFC400"/>
<path fill-rule="evenodd" clip-rule="evenodd" d="M22.8081 93.4712C23.5227 93.216 24.5298 94.2654 25.0575 95.8152C25.5851 97.3649 25.4336 98.8281 24.7189 99.0834C24.0043 99.3386 22.9972 98.2892 22.4696 96.7394C21.9419 95.1897 22.0934 93.7265 22.8081 93.4712V93.4712Z" fill="#FFC400"/>
<path d="M21.6513 91.8663C22.6684 86.2544 21.5631 77.9194 26.4129 75.0493C28.8614 73.6002 31.5163 74.1176 34.0612 73.2226" stroke="#FFC400" stroke-width="4" stroke-miterlimit="10" stroke-linejoin="round"/>
<path fill-rule="evenodd" clip-rule="evenodd" d="M57.3046 84.4567C47.0946 147.034 7.2757 84.4567 57.3046 4C107.333 84.4567 67.5145 147.034 57.3046 84.4567Z" fill="#FFC400"/>
<path fill-rule="evenodd" clip-rule="evenodd" d="M35.2199 96.1547C35.2199 85.5438 45.1402 76.9421 57.3774 76.9421C69.6146 76.9421 79.5349 85.5438 79.5349 96.1547C79.5349 106.765 69.6146 115.367 57.3774 115.367C45.1402 115.367 35.2199 106.765 35.2199 96.1547V96.1547Z" fill="#FFC400"/>
<path fill-rule="evenodd" clip-rule="evenodd" d="M78.8524 104.16V116.948C78.8524 124.01 69.2142 129.735 57.3249 129.735C45.4355 129.735 35.7973 124.01 35.7973 116.948V104.16H78.8524Z" fill="#FF9800"/>
<path d="M53.6731 65.3062C54.7883 67.6284 56.7703 69.4158 59.1832 70.2753C61.596 71.1347 64.2421 70.9957 66.5392 69.8889" stroke="black" stroke-width="2" stroke-miterlimit="10" stroke-linejoin="round"/>
<path fill-rule="evenodd" clip-rule="evenodd" d="M45.4885 56.886C45.4885 54.2752 47.605 52.1587 50.2158 52.1587C51.4696 52.1587 52.672 52.6568 53.5585 53.5433C54.4451 54.4299 54.9431 55.6323 54.9431 56.886C54.9431 59.4968 52.8266 61.6133 50.2158 61.6133C47.605 61.6133 45.4885 59.4968 45.4885 56.886V56.886Z" fill="black"/>
<path fill-rule="evenodd" clip-rule="evenodd" d="M50.6752 55.2826C50.6752 54.554 51.2659 53.9633 51.9945 53.9633C52.3444 53.9633 52.6799 54.1023 52.9273 54.3497C53.1747 54.5971 53.3137 54.9327 53.3137 55.2826C53.3137 56.0112 52.7231 56.6018 51.9945 56.6018C51.2659 56.6018 50.6752 56.0112 50.6752 55.2826V55.2826Z" fill="white"/>
<path fill-rule="evenodd" clip-rule="evenodd" d="M66.343 56.886C66.343 54.2752 68.4595 52.1587 71.0703 52.1587C72.3241 52.1587 73.5265 52.6568 74.413 53.5433C75.2996 54.4299 75.7976 55.6323 75.7976 56.886C75.7976 59.4968 73.6812 61.6133 71.0703 61.6133C68.4595 61.6133 66.343 59.4968 66.343 56.886V56.886Z" fill="black"/>
<path fill-rule="evenodd" clip-rule="evenodd" d="M71.5297 55.2826C71.5297 54.554 72.1204 53.9633 72.849 53.9633C73.1989 53.9633 73.5344 54.1023 73.7818 54.3497C74.0292 54.5971 74.1682 54.9327 74.1682 55.2826C74.1682 56.0112 73.5776 56.6018 72.849 56.6018C72.1204 56.6018 71.5297 56.0112 71.5297 55.2826V55.2826Z" fill="white"/>
<path d="M44.9007 124.134L39.9007 136.134L24.4007 131.134L22.4007 138.134" stroke="#FF9800" stroke-width="4" stroke-linecap="round" stroke-linejoin="round"/>
<path d="M68.4007 124.134L77.9007 131.134L71.9007 145.634L79.9007 147.634" stroke="#FF9800" stroke-width="4" stroke-linecap="round" stroke-linejoin="round"/>
</svg>
