<svg width="880" height="155" viewBox="0 0 880 155" fill="none" xmlns="http://www.w3.org/2000/svg">
<g clip-path="url(#clip0)">
<path fill-rule="evenodd" clip-rule="evenodd" d="M756.267 53.0857C758.043 51.9795 759.713 53.8447 759.997 57.2516C760.282 60.6586 759.073 64.3172 757.298 65.4234C755.408 64.1186 753.853 64.6644 753.568 61.2575C753.284 57.8505 754.492 54.1919 756.267 53.0857Z" fill="#FFC400"/>
<path fill-rule="evenodd" clip-rule="evenodd" d="M754.587 61.3154C753.839 61.4421 752.959 59.7294 752.622 57.4901C752.286 55.2508 752.619 53.3327 753.367 53.2061C754.116 53.0794 754.995 54.792 755.332 57.0314C755.669 59.2707 755.335 61.1888 754.587 61.3154Z" fill="#FFC400"/>
<path d="M755.5 59.5C756.678 64.2964 754.522 69.66 749 70.7957C746.212 71.3692 737.216 70.7776 734.517 70.7957" stroke="#FFC400" stroke-width="4" stroke-miterlimit="10" stroke-linejoin="round"/>
<path fill-rule="evenodd" clip-rule="evenodd" d="M679.771 86.0214C681.206 86.291 681.926 89.0384 681.379 92.158C680.833 95.2775 679.226 97.5879 677.791 97.3183C676.356 97.0487 675.636 94.3013 676.183 91.1817C676.73 88.0622 678.337 85.7518 679.771 86.0214Z" fill="#FFC400"/>
<path fill-rule="evenodd" clip-rule="evenodd" d="M679.653 90.0382C680.368 89.783 681.375 90.8324 681.903 92.3822C682.43 93.9319 682.279 95.3951 681.564 95.6504C680.849 95.9056 679.842 94.8562 679.315 93.3064C678.787 91.7567 678.939 90.2935 679.653 90.0382Z" fill="#FFC400"/>
<path d="M679.5 89.5C680.517 83.8882 679.5 80.5 682.5 76.5C685.5 72.5 688.116 71.1177 690.661 70.2227" stroke="#FFC400" stroke-width="4" stroke-miterlimit="10" stroke-linejoin="round"/>
<path fill-rule="evenodd" clip-rule="evenodd" d="M713.904 81.4567C703.694 144.034 663.875 81.4567 713.904 1C763.933 81.4567 724.114 144.034 713.904 81.4567Z" fill="#FFC400"/>
<path fill-rule="evenodd" clip-rule="evenodd" d="M691.819 93.1547C691.819 82.5439 701.74 73.9421 713.977 73.9421C726.214 73.9421 736.134 82.5439 736.134 93.1547C736.134 103.766 726.214 112.367 713.977 112.367C701.74 112.367 691.819 103.766 691.819 93.1547Z" fill="#FFC400"/>
<path fill-rule="evenodd" clip-rule="evenodd" d="M735.452 101.16V113.948C735.452 121.01 725.814 126.735 713.924 126.735C702.035 126.735 692.397 121.01 692.397 113.948V101.16H735.452Z" fill="#FF9800"/>
<path d="M710.272 62.3062C711.388 64.6284 713.37 66.4158 715.783 67.2752C718.195 68.1346 720.841 67.9956 723.139 66.8888" stroke="black" stroke-width="2" stroke-miterlimit="10" stroke-linejoin="round"/>
<path fill-rule="evenodd" clip-rule="evenodd" d="M702.088 53.886C702.088 51.2752 704.204 49.1587 706.815 49.1587C708.069 49.1587 709.271 49.6567 710.158 50.5433C711.044 51.4298 711.542 52.6322 711.542 53.886C711.542 56.4968 709.426 58.6133 706.815 58.6133C704.204 58.6133 702.088 56.4968 702.088 53.886Z" fill="black"/>
<path fill-rule="evenodd" clip-rule="evenodd" d="M705 54.3192C705 53.5906 705.591 53 706.319 53C706.669 53 707.005 53.139 707.252 53.3864C707.499 53.6338 707.638 53.9694 707.638 54.3192C707.638 55.0478 707.048 55.6385 706.319 55.6385C705.591 55.6385 705 55.0478 705 54.3192Z" fill="white"/>
<path fill-rule="evenodd" clip-rule="evenodd" d="M722.942 53.886C722.942 51.2752 725.059 49.1587 727.67 49.1587C728.923 49.1587 730.126 49.6567 731.012 50.5433C731.899 51.4298 732.397 52.6322 732.397 53.886C732.397 56.4968 730.28 58.6133 727.67 58.6133C725.059 58.6133 722.942 56.4968 722.942 53.886Z" fill="black"/>
<path fill-rule="evenodd" clip-rule="evenodd" d="M725.854 54.3192C725.854 53.5906 726.445 53 727.174 53C727.524 53 727.859 53.139 728.107 53.3864C728.354 53.6338 728.493 53.9694 728.493 54.3192C728.493 55.0478 727.902 55.6385 727.174 55.6385C726.445 55.6385 725.854 55.0478 725.854 54.3192Z" fill="white"/>
<path d="M698.21 119.091L691.609 130.29L676.943 123.208L674 129.867" stroke="#FF9800" stroke-width="4" stroke-linecap="round" stroke-linejoin="round"/>
<path fill-rule="evenodd" clip-rule="evenodd" d="M863.39 62.8478C862.121 62.1261 862.334 59.2937 863.866 56.5217C865.398 53.7496 867.669 52.0875 868.938 52.8092C870.207 53.531 869.994 56.3633 868.462 59.1354C866.93 61.9075 864.66 63.5696 863.39 62.8478Z" fill="#FFC400"/>
<path fill-rule="evenodd" clip-rule="evenodd" d="M863.589 59.0827C862.83 59.0916 862.219 57.7716 862.225 56.1344C862.23 54.4972 862.849 53.1628 863.608 53.154C864.367 53.1451 864.978 54.4651 864.972 56.1023C864.967 57.7395 864.348 59.0739 863.589 59.0827Z" fill="#FFC400"/>
<path d="M864.322 61.2036C861.535 66.1797 859.869 74.4219 854.347 75.5577C851.559 76.1311 849.216 74.7776 846.517 74.7957" stroke="#FFC400" stroke-width="4" stroke-miterlimit="10" stroke-linejoin="round"/>
<path fill-rule="evenodd" clip-rule="evenodd" d="M796.089 90.0532C797.416 89.4432 799.592 91.2683 800.95 94.1296C802.308 96.9908 802.333 99.8048 801.007 100.415C799.68 101.025 797.504 99.1995 796.146 96.3383C794.788 93.477 794.763 90.6631 796.089 90.0532Z" fill="#FFC400"/>
<path fill-rule="evenodd" clip-rule="evenodd" d="M798.557 90.5046C798.995 89.8851 800.422 90.1653 801.744 91.1304C803.067 92.0956 803.783 93.3802 803.345 93.9997C802.907 94.6192 801.48 94.3391 800.157 93.3739C798.835 92.4088 798.118 91.1242 798.557 90.5046Z" fill="#FFC400"/>
<path d="M797 92.5C798.017 86.8882 790.162 78.9195 795.012 76.0493C797.461 74.6002 800.116 75.1177 802.661 74.2227" stroke="#FFC400" stroke-width="4" stroke-miterlimit="10" stroke-linejoin="round"/>
<path fill-rule="evenodd" clip-rule="evenodd" d="M825.904 85.4567C815.694 148.034 775.875 85.4567 825.904 5C875.933 85.4567 836.114 148.034 825.904 85.4567Z" fill="#FFC400"/>
<path fill-rule="evenodd" clip-rule="evenodd" d="M803.819 97.1547C803.819 86.5439 813.74 77.9421 825.977 77.9421C838.214 77.9421 848.134 86.5439 848.134 97.1547C848.134 107.766 838.214 116.367 825.977 116.367C813.74 116.367 803.819 107.766 803.819 97.1547Z" fill="#FFC400"/>
<path fill-rule="evenodd" clip-rule="evenodd" d="M847.452 105.16V117.948C847.452 125.01 837.814 130.735 825.924 130.735C814.035 130.735 804.397 125.01 804.397 117.948V105.16H847.452Z" fill="#FF9800"/>
<path d="M822.272 66.3062C823.388 68.6284 825.37 70.4158 827.782 71.2752C830.195 72.1346 832.841 71.9956 835.139 70.8888" stroke="black" stroke-width="2" stroke-miterlimit="10" stroke-linejoin="round"/>
<path fill-rule="evenodd" clip-rule="evenodd" d="M814.088 57.886C814.088 55.2752 816.204 53.1587 818.815 53.1587C820.069 53.1587 821.271 53.6567 822.158 54.5433C823.044 55.4298 823.542 56.6322 823.542 57.886C823.542 60.4968 821.426 62.6133 818.815 62.6133C816.204 62.6133 814.088 60.4968 814.088 57.886Z" fill="black"/>
<path fill-rule="evenodd" clip-rule="evenodd" d="M817 58.3192C817 57.5906 817.591 57 818.319 57C818.669 57 819.005 57.139 819.252 57.3864C819.499 57.6338 819.638 57.9694 819.638 58.3192C819.638 59.0478 819.048 59.6385 818.319 59.6385C817.591 59.6385 817 59.0478 817 58.3192Z" fill="white"/>
<path fill-rule="evenodd" clip-rule="evenodd" d="M834.942 57.886C834.942 55.2752 837.059 53.1587 839.67 53.1587C840.923 53.1587 842.126 53.6567 843.012 54.5433C843.899 55.4298 844.397 56.6322 844.397 57.886C844.397 60.4968 842.28 62.6133 839.67 62.6133C837.059 62.6133 834.942 60.4968 834.942 57.886Z" fill="black"/>
<path fill-rule="evenodd" clip-rule="evenodd" d="M837.854 58.3192C837.854 57.5906 838.445 57 839.174 57C839.524 57 839.859 57.139 840.107 57.3864C840.354 57.6338 840.493 57.9694 840.493 58.3192C840.493 59.0478 839.902 59.6385 839.174 59.6385C838.445 59.6385 837.854 59.0478 837.854 58.3192Z" fill="white"/>
<path d="M813.5 125.134L808.5 137.134L793 132.134L791 139.134" stroke="#FF9800" stroke-width="4" stroke-linecap="round" stroke-linejoin="round"/>
<path d="M838.716 126L840.465 137.67L834 151L840.465 154" stroke="#FF9800" stroke-width="4" stroke-linecap="round" stroke-linejoin="round"/>
<path fill-rule="evenodd" clip-rule="evenodd" d="M643.791 56.9814C642.522 56.2596 642.735 53.4273 644.267 50.6552C645.799 47.8831 648.069 46.221 649.338 46.9428C650.608 47.6645 650.395 50.4969 648.863 53.2689C647.331 56.041 645.06 57.7031 643.791 56.9814Z" fill="#FFC400"/>
<path fill-rule="evenodd" clip-rule="evenodd" d="M643.99 53.2164C643.231 53.2253 642.62 51.9053 642.625 50.2681C642.63 48.6309 643.25 47.2965 644.009 47.2876C644.767 47.2788 645.378 48.5988 645.373 50.236C645.368 51.8732 644.749 53.2075 643.99 53.2164Z" fill="#FFC400"/>
<path d="M644.723 55.3373C641.935 60.3134 640.269 68.5556 634.748 69.6914C631.96 70.2648 629.616 68.9113 626.918 68.9294" stroke="#FFC400" stroke-width="4" stroke-miterlimit="10" stroke-linejoin="round"/>
<path fill-rule="evenodd" clip-rule="evenodd" d="M561.873 79.8198C563.307 80.0894 564.027 82.8368 563.48 85.9564C562.934 89.0759 561.327 91.3863 559.892 91.1167C558.457 90.8471 557.737 88.0997 558.284 84.9801C558.831 81.8606 560.438 79.5502 561.873 79.8198Z" fill="#FFC400"/>
<path fill-rule="evenodd" clip-rule="evenodd" d="M562.653 83.0382C563.368 82.783 564.375 83.8324 564.903 85.3822C565.43 86.9319 565.279 88.3951 564.564 88.6504C563.849 88.9056 562.842 87.8562 562.315 86.3064C561.787 84.7567 561.939 83.2935 562.653 83.0382Z" fill="#FFC400"/>
<path d="M561.5 83.5C564.5 78.5 566.5 75.5 572.5 72.5C574 71 580.516 69.2513 583.061 68.3562" stroke="#FFC400" stroke-width="4" stroke-miterlimit="10" stroke-linejoin="round"/>
<path fill-rule="evenodd" clip-rule="evenodd" d="M606.305 79.5904C596.095 142.168 556.276 79.5904 606.305 -0.866333C656.333 79.5904 616.515 142.168 606.305 79.5904Z" fill="#FFC400"/>
<path fill-rule="evenodd" clip-rule="evenodd" d="M584.22 91.2883C584.22 80.6775 594.14 72.0757 606.377 72.0757C618.615 72.0757 628.535 80.6775 628.535 91.2883C628.535 101.899 618.615 110.501 606.377 110.501C594.14 110.501 584.22 101.899 584.22 91.2883Z" fill="#FFC400"/>
<path fill-rule="evenodd" clip-rule="evenodd" d="M627.852 99.2939V112.081C627.852 119.144 618.214 124.869 606.325 124.869C594.436 124.869 584.797 119.144 584.797 112.081V99.2939H627.852Z" fill="#FF9800"/>
<path d="M602.673 60.4399C603.788 62.7622 605.77 64.5496 608.183 65.409C610.596 66.2684 613.242 66.1294 615.539 65.0226" stroke="black" stroke-width="2" stroke-miterlimit="10" stroke-linejoin="round"/>
<path fill-rule="evenodd" clip-rule="evenodd" d="M594.488 52.0198C594.488 49.409 596.605 47.2925 599.216 47.2925C600.47 47.2925 601.672 47.7905 602.558 48.6771C603.445 49.5636 603.943 50.766 603.943 52.0198C603.943 54.6306 601.827 56.7471 599.216 56.7471C596.605 56.7471 594.488 54.6306 594.488 52.0198Z" fill="black"/>
<path fill-rule="evenodd" clip-rule="evenodd" d="M597 53.3192C597 52.5906 597.591 52 598.319 52C598.669 52 599.005 52.139 599.252 52.3864C599.499 52.6338 599.638 52.9694 599.638 53.3192C599.638 54.0478 599.048 54.6385 598.319 54.6385C597.591 54.6385 597 54.0478 597 53.3192Z" fill="white"/>
<path fill-rule="evenodd" clip-rule="evenodd" d="M615.343 52.0198C615.343 49.409 617.46 47.2925 620.07 47.2925C621.324 47.2925 622.526 47.7905 623.413 48.6771C624.3 49.5636 624.798 50.766 624.798 52.0198C624.798 54.6306 622.681 56.7471 620.07 56.7471C617.46 56.7471 615.343 54.6306 615.343 52.0198Z" fill="black"/>
<path fill-rule="evenodd" clip-rule="evenodd" d="M617.854 53.3192C617.854 52.5906 618.445 52 619.174 52C619.524 52 619.859 52.139 620.107 52.3864C620.354 52.6338 620.493 52.9694 620.493 53.3192C620.493 54.0478 619.902 54.6385 619.174 54.6385C618.445 54.6385 617.854 54.0478 617.854 53.3192Z" fill="white"/>
<path d="M593.901 119.267L588.901 131.267L573.401 126.267L571.401 133.267" stroke="#FF9800" stroke-width="4" stroke-linecap="round" stroke-linejoin="round"/>
<path d="M618 118L626.599 128.733L623.599 141.5L630.599 144.233" stroke="#FF9800" stroke-width="4" stroke-linecap="round" stroke-linejoin="round"/>
<path d="M723 122L731.599 132.733L728.599 145.5L735.599 148.233" stroke="#FF9800" stroke-width="4" stroke-linecap="round" stroke-linejoin="round"/>
<path fill-rule="evenodd" clip-rule="evenodd" d="M533.408 59.732C531.96 59.9195 530.426 57.5295 529.98 54.3938C529.535 51.258 530.348 48.564 531.796 48.3765C533.244 48.1889 534.779 50.5789 535.224 53.7147C535.669 56.8504 534.856 59.5444 533.408 59.732Z" fill="#FFC400"/>
<path fill-rule="evenodd" clip-rule="evenodd" d="M531.289 56.6319C530.649 57.04 529.433 56.2414 528.573 54.8482C527.714 53.455 527.535 51.9948 528.175 51.5867C528.815 51.1787 530.03 51.9772 530.89 53.3704C531.75 54.7636 531.929 56.2238 531.289 56.6319V56.6319Z" fill="#FFC400"/>
<path d="M533 55.8663C533 60.5289 535.5 71.8663 529.748 76.5578C526.96 77.1312 524.616 75.7777 521.918 75.7958" stroke="#FFC400" stroke-width="4" stroke-miterlimit="10" stroke-linejoin="round"/>
<path fill-rule="evenodd" clip-rule="evenodd" d="M451.648 66.1638C452.842 65.3244 455.312 66.7264 457.165 69.2953C459.017 71.8643 459.55 74.6273 458.356 75.4668C457.161 76.3063 454.691 74.9043 452.839 72.3353C450.986 69.7664 450.453 67.0033 451.648 66.1638Z" fill="#FFC400"/>
<path fill-rule="evenodd" clip-rule="evenodd" d="M455.653 65.9044C456.368 65.6492 457.375 66.6986 457.903 68.2484C458.43 69.7981 458.279 71.2613 457.564 71.5166C456.849 71.7718 455.842 70.7224 455.315 69.1726C454.787 67.6229 454.939 66.1597 455.653 65.9044Z" fill="#FFC400"/>
<path d="M455.5 69.3665C457.5 75.3665 463.5 78.8665 468 78.8665C472.5 78.8665 475 75.2227 478.061 75.2227" stroke="#FFC400" stroke-width="4" stroke-miterlimit="10" stroke-linejoin="round"/>
<path fill-rule="evenodd" clip-rule="evenodd" d="M501.305 86.4567C491.095 149.034 451.276 86.4567 501.305 6C551.333 86.4567 511.515 149.034 501.305 86.4567Z" fill="#FFC400"/>
<path fill-rule="evenodd" clip-rule="evenodd" d="M479.22 98.1547C479.22 87.5439 489.14 78.9421 501.377 78.9421C513.615 78.9421 523.535 87.5439 523.535 98.1547C523.535 108.766 513.615 117.367 501.377 117.367C489.14 117.367 479.22 108.766 479.22 98.1547Z" fill="#FFC400"/>
<path fill-rule="evenodd" clip-rule="evenodd" d="M522.852 106.16V118.948C522.852 126.01 513.214 131.735 501.325 131.735C489.436 131.735 479.797 126.01 479.797 118.948V106.16H522.852Z" fill="#FF9800"/>
<path d="M495.5 68.3662C496.615 70.6884 500.77 71.4158 503.183 72.2752C505.596 73.1346 507.203 73.382 509.5 72.2752" stroke="black" stroke-width="2" stroke-miterlimit="10" stroke-linejoin="round"/>
<path fill-rule="evenodd" clip-rule="evenodd" d="M489.488 58.886C489.488 56.2752 491.605 54.1587 494.216 54.1587C495.47 54.1587 496.672 54.6567 497.558 55.5433C498.445 56.4298 498.943 57.6322 498.943 58.886C498.943 61.4968 496.827 63.6133 494.216 63.6133C491.605 63.6133 489.488 61.4968 489.488 58.886Z" fill="black"/>
<path fill-rule="evenodd" clip-rule="evenodd" d="M494.675 57.2825C494.675 56.5539 495.266 55.9633 495.994 55.9633C496.344 55.9633 496.68 56.1022 496.927 56.3497C497.175 56.5971 497.314 56.9326 497.314 57.2825C497.314 58.0111 496.723 58.6017 495.994 58.6017C495.266 58.6017 494.675 58.0111 494.675 57.2825Z" fill="white"/>
<path fill-rule="evenodd" clip-rule="evenodd" d="M510.343 58.886C510.343 56.2752 512.46 54.1587 515.07 54.1587C516.324 54.1587 517.526 54.6567 518.413 55.5433C519.3 56.4298 519.798 57.6322 519.798 58.886C519.798 61.4968 517.681 63.6133 515.07 63.6133C512.46 63.6133 510.343 61.4968 510.343 58.886Z" fill="black"/>
<path fill-rule="evenodd" clip-rule="evenodd" d="M515.53 57.2825C515.53 56.5539 516.12 55.9633 516.849 55.9633C517.199 55.9633 517.534 56.1022 517.782 56.3497C518.029 56.5971 518.168 56.9326 518.168 57.2825C518.168 58.0111 517.578 58.6017 516.849 58.6017C516.12 58.6017 515.53 58.0111 515.53 57.2825Z" fill="white"/>
<path d="M486.891 128L482.421 140.207L477.886 148.647L482.935 151.929" stroke="#FF9800" stroke-width="4" stroke-linecap="round" stroke-linejoin="round"/>
<path d="M517.942 123L527.546 132.458L534.964 144.087L540.656 139.832" stroke="#FF9800" stroke-width="4" stroke-linecap="round" stroke-linejoin="round"/>
<path fill-rule="evenodd" clip-rule="evenodd" d="M423.791 68.8478C422.522 68.1261 422.735 65.2937 424.267 62.5217C425.799 59.7496 428.069 58.0875 429.338 58.8092C430.608 59.531 430.395 62.3633 428.863 65.1354C427.331 67.9075 425.06 69.5696 423.791 68.8478Z" fill="#FFC400"/>
<path fill-rule="evenodd" clip-rule="evenodd" d="M423.99 65.0827C423.231 65.0916 422.62 63.7716 422.625 62.1344C422.631 60.4972 423.25 59.1628 424.009 59.154C424.767 59.1451 425.378 60.4651 425.373 62.1023C425.368 63.7395 424.749 65.0739 423.99 65.0827Z" fill="#FFC400"/>
<path d="M424.723 67.2036C421.935 72.1797 420.269 80.4219 414.748 81.5577C411.96 82.1311 409.616 80.7776 406.918 80.7957" stroke="#FFC400" stroke-width="4" stroke-miterlimit="10" stroke-linejoin="round"/>
<path fill-rule="evenodd" clip-rule="evenodd" d="M338.247 82.5667C338.969 81.2976 341.801 81.5109 344.573 83.0431C347.345 84.5753 349.007 86.8463 348.285 88.1154C347.563 89.3845 344.731 89.1712 341.959 87.639C339.187 86.1068 337.526 83.8358 338.247 82.5667Z" fill="#FFC400"/>
<path fill-rule="evenodd" clip-rule="evenodd" d="M345.564 84.5307C344.848 84.782 343.847 83.7271 343.328 82.1744C342.809 80.6218 342.968 79.1594 343.684 78.9081C344.4 78.6568 345.402 79.7118 345.921 81.2644C346.44 82.817 346.28 84.2794 345.564 84.5307Z" fill="#FFC400"/>
<path d="M342.5 86.3665C346 84.8665 348.65 89.2366 353.5 86.3665C355.949 84.9174 360.516 81.1177 363.061 80.2227" stroke="#FFC400" stroke-width="4" stroke-miterlimit="10" stroke-linejoin="round"/>
<path fill-rule="evenodd" clip-rule="evenodd" d="M386.305 91.4567C376.095 154.034 336.276 91.4567 386.305 11C436.333 91.4567 396.515 154.034 386.305 91.4567Z" fill="#FFC400"/>
<path fill-rule="evenodd" clip-rule="evenodd" d="M364.22 103.155C364.22 92.5439 374.14 83.9421 386.377 83.9421C398.615 83.9421 408.535 92.5439 408.535 103.155C408.535 113.766 398.615 122.367 386.377 122.367C374.14 122.367 364.22 113.766 364.22 103.155Z" fill="#FFC400"/>
<path fill-rule="evenodd" clip-rule="evenodd" d="M407.853 111.16V123.948C407.853 131.01 398.214 136.735 386.325 136.735C374.436 136.735 364.797 131.01 364.797 123.948V111.16H407.853Z" fill="#FF9800"/>
<path d="M382.673 72.3062C383.788 74.6284 384.587 76.0293 387 76.8887C389.413 77.7481 393.242 77.9956 395.539 76.8888" stroke="black" stroke-width="2" stroke-miterlimit="10" stroke-linejoin="round"/>
<path fill-rule="evenodd" clip-rule="evenodd" d="M374.489 63.886C374.489 61.2752 376.605 59.1587 379.216 59.1587C380.47 59.1587 381.672 59.6567 382.559 60.5433C383.445 61.4298 383.943 62.6322 383.943 63.886C383.943 66.4968 381.827 68.6133 379.216 68.6133C376.605 68.6133 374.489 66.4968 374.489 63.886Z" fill="black"/>
<path fill-rule="evenodd" clip-rule="evenodd" d="M379.675 62.2825C379.675 61.5539 380.266 60.9633 380.995 60.9633C381.344 60.9633 381.68 61.1022 381.927 61.3497C382.175 61.5971 382.314 61.9326 382.314 62.2825C382.314 63.0111 381.723 63.6017 380.995 63.6017C380.266 63.6017 379.675 63.0111 379.675 62.2825Z" fill="white"/>
<path fill-rule="evenodd" clip-rule="evenodd" d="M395.343 63.886C395.343 61.2752 397.46 59.1587 400.07 59.1587C401.324 59.1587 402.527 59.6567 403.413 60.5433C404.3 61.4298 404.798 62.6322 404.798 63.886C404.798 66.4968 402.681 68.6133 400.07 68.6133C397.46 68.6133 395.343 66.4968 395.343 63.886Z" fill="black"/>
<path fill-rule="evenodd" clip-rule="evenodd" d="M400.53 62.2825C400.53 61.5539 401.12 60.9633 401.849 60.9633C402.199 60.9633 402.534 61.1022 402.782 61.3497C403.029 61.5971 403.168 61.9326 403.168 62.2825C403.168 63.0111 402.578 63.6017 401.849 63.6017C401.12 63.6017 400.53 63.0111 400.53 62.2825Z" fill="white"/>
<path d="M262.5 122L254.5 132.5L244.5 136L247.5 141" stroke="#FF9800" stroke-width="4" stroke-linecap="round" stroke-linejoin="round"/>
<path d="M401 130L414 134.5L423 145L427 140" stroke="#FF9800" stroke-width="4" stroke-linecap="round" stroke-linejoin="round"/>
<path fill-rule="evenodd" clip-rule="evenodd" d="M314.828 66.0735C313.559 65.3518 313.772 62.5195 315.304 59.7474C316.836 56.9753 319.107 55.3132 320.376 56.0349C321.645 56.7567 321.432 59.589 319.9 62.3611C318.368 65.1332 316.098 66.7953 314.828 66.0735V66.0735Z" fill="#FFC400"/>
<path fill-rule="evenodd" clip-rule="evenodd" d="M315.365 61.7951C314.606 61.804 313.995 60.484 314 58.8468C314.005 57.2096 314.624 55.8753 315.383 55.8664C316.142 55.8575 316.753 57.1775 316.748 58.8147C316.743 60.4519 316.123 61.7863 315.365 61.7951V61.7951Z" fill="#FFC400"/>
<path d="M316 63.3665C313.212 68.3426 309.269 68.422 303.748 69.5578C300.96 70.1312 298.616 68.7777 295.918 68.7958" stroke="#FFC400" stroke-width="4" stroke-miterlimit="10" stroke-linejoin="round"/>
<path fill-rule="evenodd" clip-rule="evenodd" d="M237.669 79.8982C238.979 80.5427 238.935 83.3826 237.572 86.2412C236.209 89.0998 234.041 90.8947 232.731 90.2502C231.421 89.6057 231.464 86.7658 232.828 83.9072C234.191 81.0486 236.358 79.2537 237.669 79.8982Z" fill="#FFC400"/>
<path fill-rule="evenodd" clip-rule="evenodd" d="M237.653 82.9044C238.368 82.6492 239.375 83.6986 239.903 85.2484C240.43 86.7981 240.279 88.2613 239.564 88.5166C238.849 88.7718 237.842 87.7224 237.315 86.1726C236.787 84.6229 236.939 83.1597 237.653 82.9044V82.9044Z" fill="#FFC400"/>
<path d="M235.5 83.8665C236.517 78.2546 238.65 76.7366 243.5 73.8665C245.949 72.4174 249.516 69.1177 252.061 68.2227" stroke="#FFC400" stroke-width="4" stroke-miterlimit="10" stroke-linejoin="round"/>
<path fill-rule="evenodd" clip-rule="evenodd" d="M275.305 79.4567C265.095 142.034 225.276 79.4567 275.305 -1C325.333 79.4567 285.515 142.034 275.305 79.4567Z" fill="#FFC400"/>
<path fill-rule="evenodd" clip-rule="evenodd" d="M253.22 91.1547C253.22 80.5439 263.14 71.9421 275.377 71.9421C287.615 71.9421 297.535 80.5439 297.535 91.1547C297.535 101.766 287.615 110.367 275.377 110.367C263.14 110.367 253.22 101.766 253.22 91.1547V91.1547Z" fill="#FFC400"/>
<path fill-rule="evenodd" clip-rule="evenodd" d="M296.852 99.1604V111.948C296.852 119.01 287.214 124.735 275.325 124.735C263.436 124.735 253.797 119.01 253.797 111.948V99.1604H296.852Z" fill="#FF9800"/>
<path d="M271.673 60.3062C272.788 62.6284 274.77 64.4158 277.183 65.2752C279.596 66.1346 282.242 65.9956 284.539 64.8888" stroke="black" stroke-width="2" stroke-miterlimit="10" stroke-linejoin="round"/>
<path fill-rule="evenodd" clip-rule="evenodd" d="M263.489 51.886C263.489 49.2752 265.605 47.1587 268.216 47.1587C269.47 47.1587 270.672 47.6567 271.559 48.5433C272.445 49.4298 272.943 50.6322 272.943 51.886C272.943 54.4968 270.827 56.6133 268.216 56.6133C265.605 56.6133 263.489 54.4968 263.489 51.886V51.886Z" fill="black"/>
<path fill-rule="evenodd" clip-rule="evenodd" d="M268.675 50.2825C268.675 49.5539 269.266 48.9633 269.994 48.9633C270.344 48.9633 270.68 49.1022 270.927 49.3497C271.175 49.5971 271.314 49.9326 271.314 50.2825C271.314 51.0111 270.723 51.6017 269.994 51.6017C269.266 51.6017 268.675 51.0111 268.675 50.2825V50.2825Z" fill="white"/>
<path fill-rule="evenodd" clip-rule="evenodd" d="M284.343 51.886C284.343 49.2752 286.46 47.1587 289.07 47.1587C290.324 47.1587 291.527 47.6567 292.413 48.5433C293.3 49.4298 293.798 50.6322 293.798 51.886C293.798 54.4968 291.681 56.6133 289.07 56.6133C286.46 56.6133 284.343 54.4968 284.343 51.886V51.886Z" fill="black"/>
<path fill-rule="evenodd" clip-rule="evenodd" d="M289.53 50.2825C289.53 49.5539 290.12 48.9633 290.849 48.9633C291.199 48.9633 291.534 49.1022 291.782 49.3497C292.029 49.5971 292.168 49.9326 292.168 50.2825C292.168 51.0111 291.578 51.6017 290.849 51.6017C290.12 51.6017 289.53 51.0111 289.53 50.2825V50.2825Z" fill="white"/>
<path d="M374.876 123L366.5 143L354.5 153L361.5 153" stroke="#FF9800" stroke-width="4" stroke-linecap="round" stroke-linejoin="round"/>
<path d="M288 120L300.244 126.866L303 137.797L310.5 135" stroke="#FF9800" stroke-width="4" stroke-linecap="round" stroke-linejoin="round"/>
<path fill-rule="evenodd" clip-rule="evenodd" d="M205.828 62.2072C204.559 61.4854 204.772 58.6531 206.304 55.881C207.836 53.109 210.107 51.4468 211.376 52.1686C212.645 52.8904 212.432 55.7227 210.9 58.4948C209.368 61.2669 207.098 62.929 205.828 62.2072Z" fill="#FFC400"/>
<path fill-rule="evenodd" clip-rule="evenodd" d="M206.738 57.4483C205.979 57.4572 205.368 56.1372 205.373 54.5C205.378 52.8628 205.997 51.5284 206.756 51.5195C207.515 51.5107 208.126 52.8307 208.121 54.4679C208.116 56.1051 207.496 57.4394 206.738 57.4483Z" fill="#FFC400"/>
<path d="M206.901 59.5838C202.331 62.9962 197.457 69.8489 191.951 68.6411C189.17 68.0313 187.58 65.8419 185.107 64.761" stroke="#FFC400" stroke-width="4" stroke-miterlimit="10" stroke-linejoin="round"/>
<path fill-rule="evenodd" clip-rule="evenodd" d="M129.327 73.663C130.501 74.5311 129.952 77.3176 128.1 79.8869C126.248 82.4562 123.795 83.8353 122.621 82.9673C121.447 82.0993 121.997 79.3128 123.849 76.7434C125.7 74.1741 128.153 72.795 129.327 73.663Z" fill="#FFC400"/>
<path fill-rule="evenodd" clip-rule="evenodd" d="M128.653 76.0382C129.368 75.783 130.375 76.8324 130.903 78.3822C131.43 79.9319 131.279 81.3951 130.564 81.6504C129.849 81.9056 128.842 80.8562 128.315 79.3064C127.787 77.7567 127.939 76.2935 128.653 76.0382Z" fill="#FFC400"/>
<path d="M127.5 79C128.483 72.6789 130.915 73.2905 135.604 70.0575C137.972 68.4253 140.539 69.0082 143 68" stroke="#FFC400" stroke-width="4" stroke-miterlimit="10" stroke-linejoin="round"/>
<path fill-rule="evenodd" clip-rule="evenodd" d="M166.305 79.5904C156.095 142.168 116.276 79.5904 166.305 -0.866333C216.333 79.5904 176.515 142.168 166.305 79.5904Z" fill="#FFC400"/>
<path fill-rule="evenodd" clip-rule="evenodd" d="M144.22 91.2883C144.22 80.6775 154.14 72.0757 166.377 72.0757C178.615 72.0757 188.535 80.6775 188.535 91.2883C188.535 101.899 178.615 110.501 166.377 110.501C154.14 110.501 144.22 101.899 144.22 91.2883Z" fill="#FFC400"/>
<path fill-rule="evenodd" clip-rule="evenodd" d="M187.852 99.2939V112.081C187.852 119.144 178.214 124.869 166.325 124.869C154.436 124.869 144.797 119.144 144.797 112.081V99.2939H187.852Z" fill="#FF9800"/>
<path d="M162.673 60.4399C163.788 62.7622 168.587 64.1632 171 65.0226C173.413 65.882 173.242 66.1294 175.539 65.0226" stroke="black" stroke-width="2" stroke-miterlimit="10" stroke-linejoin="round"/>
<path fill-rule="evenodd" clip-rule="evenodd" d="M154.489 52.0198C154.489 49.409 156.605 47.2925 159.216 47.2925C160.47 47.2925 161.672 47.7905 162.559 48.6771C163.445 49.5636 163.943 50.766 163.943 52.0198C163.943 54.6306 161.827 56.7471 159.216 56.7471C156.605 56.7471 154.489 54.6306 154.489 52.0198Z" fill="black"/>
<path fill-rule="evenodd" clip-rule="evenodd" d="M159.675 50.4163C159.675 49.6877 160.266 49.097 160.994 49.097C161.344 49.097 161.68 49.236 161.927 49.4834C162.175 49.7309 162.314 50.0664 162.314 50.4163C162.314 51.1449 161.723 51.7355 160.994 51.7355C160.266 51.7355 159.675 51.1449 159.675 50.4163Z" fill="white"/>
<path fill-rule="evenodd" clip-rule="evenodd" d="M175.343 52.0198C175.343 49.409 177.46 47.2925 180.07 47.2925C181.324 47.2925 182.526 47.7905 183.413 48.6771C184.3 49.5636 184.798 50.766 184.798 52.0198C184.798 54.6306 182.681 56.7471 180.07 56.7471C177.46 56.7471 175.343 54.6306 175.343 52.0198Z" fill="black"/>
<path fill-rule="evenodd" clip-rule="evenodd" d="M180.53 50.4163C180.53 49.6877 181.12 49.097 181.849 49.097C182.199 49.097 182.534 49.236 182.782 49.4834C183.029 49.7309 183.168 50.0664 183.168 50.4163C183.168 51.1449 182.578 51.7355 181.849 51.7355C181.12 51.7355 180.53 51.1449 180.53 50.4163Z" fill="white"/>
<path d="M153.901 119.267L139 128L121 125V132" stroke="#FF9800" stroke-width="4" stroke-linecap="round" stroke-linejoin="round"/>
<path d="M176.416 118.791L188.5 127L193.411 139.907L200.826 136.3" stroke="#FF9800" stroke-width="4" stroke-linecap="round" stroke-linejoin="round"/>
<path fill-rule="evenodd" clip-rule="evenodd" d="M95.791 67.9814C94.5218 67.2596 94.7348 64.4273 96.2666 61.6552C97.7985 58.8831 100.069 57.221 101.338 57.9428C102.608 58.6645 102.395 61.4969 100.863 64.2689C99.3308 67.041 97.0601 68.7031 95.791 67.9814Z" fill="#FFC400"/>
<path fill-rule="evenodd" clip-rule="evenodd" d="M95.9899 64.2164C95.2311 64.2253 94.6202 62.9053 94.6253 61.2681C94.6304 59.6309 95.2497 58.2965 96.0085 58.2876C96.7672 58.2788 97.3782 59.5988 97.373 61.236C97.3679 62.8732 96.7486 64.2075 95.9899 64.2164Z" fill="#FFC400"/>
<path d="M96.723 66.3374C93.9352 71.3135 92.2694 79.5557 86.7475 80.6915C83.9597 81.2649 81.6163 79.9114 78.9175 79.9295" stroke="#FFC400" stroke-width="4" stroke-miterlimit="10" stroke-linejoin="round"/>
<path fill-rule="evenodd" clip-rule="evenodd" d="M22.7715 95.9801C24.2064 96.2497 24.9263 98.9971 24.3794 102.117C23.8325 105.236 22.2259 107.547 20.791 107.277C19.3561 107.007 18.6362 104.26 19.1831 101.14C19.73 98.0209 21.3366 95.7105 22.7715 95.9801Z" fill="#FFC400"/>
<path fill-rule="evenodd" clip-rule="evenodd" d="M23.8081 99.6049C24.5227 99.3497 25.5298 100.399 26.0575 101.949C26.5851 103.499 26.4336 104.962 25.7189 105.217C25.0043 105.472 23.9972 104.423 23.4696 102.873C22.9419 101.323 23.0934 99.8601 23.8081 99.6049Z" fill="#FFC400"/>
<path d="M22.6513 97.9999C23.6684 92.3881 22.5631 84.0531 27.4129 81.1829C29.8614 79.7338 32.5163 80.2513 35.0612 79.3562" stroke="#FFC400" stroke-width="4" stroke-miterlimit="10" stroke-linejoin="round"/>
<path fill-rule="evenodd" clip-rule="evenodd" d="M58.3046 90.5904C48.0946 153.168 8.2757 90.5904 58.3046 10.1337C108.333 90.5904 68.5145 153.168 58.3046 90.5904Z" fill="#FFC400"/>
<path fill-rule="evenodd" clip-rule="evenodd" d="M36.2199 102.288C36.2199 91.6775 46.1402 83.0757 58.3774 83.0757C70.6146 83.0757 80.5349 91.6775 80.5349 102.288C80.5349 112.899 70.6146 121.501 58.3774 121.501C46.1402 121.501 36.2199 112.899 36.2199 102.288Z" fill="#FFC400"/>
<path fill-rule="evenodd" clip-rule="evenodd" d="M79.8524 110.294V123.081C79.8524 130.144 70.2142 135.869 58.3249 135.869C46.4355 135.869 36.7973 130.144 36.7973 123.081V110.294H79.8524Z" fill="#FF9800"/>
<path d="M54.6731 71.4399C55.7883 73.7622 57.7703 75.5496 60.1832 76.409C62.596 77.2684 65.2421 77.1294 67.5392 76.0226" stroke="black" stroke-width="2" stroke-miterlimit="10" stroke-linejoin="round"/>
<path fill-rule="evenodd" clip-rule="evenodd" d="M46.4885 63.0198C46.4885 60.409 48.605 58.2925 51.2158 58.2925C52.4696 58.2925 53.672 58.7905 54.5585 59.6771C55.4451 60.5636 55.9431 61.766 55.9431 63.0198C55.9431 65.6306 53.8266 67.7471 51.2158 67.7471C48.605 67.7471 46.4885 65.6306 46.4885 63.0198Z" fill="black"/>
<path fill-rule="evenodd" clip-rule="evenodd" d="M51.6752 61.4163C51.6752 60.6877 52.2659 60.097 52.9945 60.097C53.3444 60.097 53.6799 60.236 53.9273 60.4834C54.1747 60.7309 54.3137 61.0664 54.3137 61.4163C54.3137 62.1449 53.7231 62.7355 52.9945 62.7355C52.2659 62.7355 51.6752 62.1449 51.6752 61.4163Z" fill="white"/>
<path fill-rule="evenodd" clip-rule="evenodd" d="M67.343 63.0198C67.343 60.409 69.4595 58.2925 72.0703 58.2925C73.3241 58.2925 74.5265 58.7905 75.413 59.6771C76.2996 60.5636 76.7976 61.766 76.7976 63.0198C76.7976 65.6306 74.6812 67.7471 72.0703 67.7471C69.4595 67.7471 67.343 65.6306 67.343 63.0198Z" fill="black"/>
<path fill-rule="evenodd" clip-rule="evenodd" d="M72.5297 61.4163C72.5297 60.6877 73.1204 60.097 73.849 60.097C74.1989 60.097 74.5344 60.236 74.7818 60.4834C75.0292 60.7309 75.1682 61.0664 75.1682 61.4163C75.1682 62.1449 74.5776 62.7355 73.849 62.7355C73.1204 62.7355 72.5297 62.1449 72.5297 61.4163Z" fill="white"/>
<path d="M45.9007 130.267L40.9007 142.267L25.4007 137.267L23.4007 144.267" stroke="#FF9800" stroke-width="4" stroke-linecap="round" stroke-linejoin="round"/>
<path d="M71 131L80.5 138L74.5 152.5H82.5" stroke="#FF9800" stroke-width="4" stroke-linecap="round" stroke-linejoin="round"/>
</g>
<defs>
<clipPath id="clip0">
<rect width="880" height="155" fill="white"/>
</clipPath>
</defs>
</svg>
